<?xml version="1.0" encoding="UTF-8"?>
<!-- Generator: Adobe Illustrator 27.7.0, SVG Export Plug-In . SVG Version: 6.00 Build 0)  -->
<svg version="1.1" xmlns="http://www.w3.org/2000/svg" xmlns:xlink="http://www.w3.org/1999/xlink" x="0px" y="0px" viewBox="0 0 190.67 247.33" style="enable-background:new 0 0 190.67 247.33;" xml:space="preserve">
<style type="text/css">
	.st0{fill:#FFFFFF;}
	.st1{fill:#0055A5;}
	.st2{fill:#EE2E24;}
	.st3{fill:#F6F6F6;}
	.st4{fill:#E4E4E4;}
	.st5{fill:#B7B7B7;}
	.st6{fill:#ADAFB2;}
	.st7{fill:#ADAFB2;stroke:#B17F4A;stroke-width:0.085;}
</style>
<g id="Building_x2F_Tower_Key-line">
	<path class="st0" d="M62.43,177.72c0,0-22.72-11.4-33.79-28.88c0.06,15.02-0.68,33.76-0.68,33.76l34.78,6.84L62.43,177.72z"/>
	<path class="st0" d="M122.48,178.03c0,0,22.72-10.5,33.79-27.98c-0.06,15.02,0.68,32.55,0.68,32.55l-34.78,6.84L122.48,178.03z"/>
	<rect x="62.28" y="172.36" class="st0" width="60.45" height="27.59"/>
	<path class="st0" d="M110.49,174.4c0,9.78-8.03,17.71-17.93,17.71c-9.9,0-17.93-7.93-17.93-17.71c0-9.78,8.03-17.71,17.93-17.71   C102.46,156.69,110.49,164.62,110.49,174.4z"/>
	<path class="st0" d="M20.29,183.65v-25.87l-1.55-0.58v-3.5l1.55-0.69v-2.44l-1.55-0.58v-4.17l5.08-4.81v-1.14c0,0,0.17-1,1.47-1   c1.3,0,1.5,0,1.5,0s1.17,0.17,1.17,1c0,0.83,0,1.06,0,1.06l5.2,4.91l-0.05,4.17l-1.55,0.55v2.43l1.58,0.68v3.85v23.64L20.29,183.65   z"/>
	<path class="st0" d="M165.23,183.65v-25.87l1.55-0.58v-3.5l-1.55-0.69v-2.44l1.55-0.58v-4.17l-5.08-4.81v-1.14c0,0-0.17-1-1.47-1   c-1.3,0-1.5,0-1.5,0s-1.17,0.17-1.17,1c0,0.83,0,1.06,0,1.06l-5.2,4.91l0.05,4.17l1.55,0.55v2.43l-1.58,0.68v3.85v23.64   L165.23,183.65z"/>
</g>
<g id="Banner_Key-line">
	<path class="st0" d="M90.98,219.98c-12.57,0-20.6-4.31-29.07-8.85c-4.48-2.4-9.12-4.89-14.56-6.72   c-15.4-5.17-25.55,1.17-25.97,1.44l-2.05-3.16c0.48-0.31,12.01-7.63,29.23-1.85c5.75,1.93,10.53,4.49,15.15,6.97   c8.74,4.69,16.98,9.11,30.55,8.3c12.69-0.76,21.42-5.08,29.85-9.25c3.6-1.78,7-3.46,10.6-4.81c0.23-0.09,0.51-0.2,0.83-0.32   c4.51-1.78,18.26-7.21,30.13,1.83l-2.29,3c-10.17-7.75-22-3.08-26.45-1.33c-0.34,0.13-0.63,0.25-0.88,0.34   c-3.42,1.29-6.74,2.93-10.25,4.66c-8.36,4.14-17.85,8.83-31.3,9.63C93.27,219.94,92.11,219.98,90.98,219.98"/>
	<path class="st0" d="M158.29,213.16l-2.67-1.72c-0.6-0.38-2.17-0.63-3.77-0.37c-0.28,0.04-0.58,0.11-0.88,0.18   c-1.34,0.29-3.01,0.66-4.3-0.38c-0.53-0.43-1.17-1.26-1.17-2.77c0-1.15,0.5-2.17,1.4-2.88c2.95-2.29,10.18-0.69,12.33-0.15   c1.43,0.39,3,0.37,3.31,0.09c0.73-8.15,4.04-14.04,5.91-16.77c-13.38-8.08-33.85-3.69-41.52,1.21   c-11.44,7.3-20.97,11.84-33.15,11.89c-10.38,0.01-19.18-4.26-28.48-8.81c-5.2-2.55-10.58-5.18-16.5-7.17   c-12.43-4.17-26.58,0.53-31.95,2.67c2,2.75,5.04,8.14,5.37,15.86c0.29,0.36,1.86,0.45,3.27,0.14c2.21-0.45,9.51-1.7,12.35,0.73   c0.87,0.75,1.32,1.79,1.26,2.94c-0.08,1.51-0.75,2.3-1.3,2.71c-1.34,0.98-2.99,0.53-4.32,0.17c-0.29-0.08-0.58-0.16-0.86-0.22   c-1.58-0.33-3.17-0.17-3.79,0.19l-2.74,1.59l-0.11-4.37c-1.08,0.21-4.15,0.63-6.05-0.81c-0.91-0.7-1.43-1.7-1.48-2.9   c-0.42-9.88-5.92-15.36-5.98-15.41l-1.91-1.87l2.4-1.17c0.8-0.39,19.93-9.55,37.02-3.81c6.15,2.07,11.64,4.76,16.95,7.36   c8.85,4.33,17.21,8.43,26.69,8.43c0.04,0,0.08,0,0.13,0c11.27-0.05,20.28-4.36,31.15-11.3c8.99-5.73,32.49-10.66,47.34-0.04   l1.68,1.2l-1.35,1.56c-0.05,0.06-5.38,6.37-6.28,16.29c-0.11,1.2-0.67,2.17-1.61,2.83c-1.94,1.34-4.95,0.79-6.08,0.52   L158.29,213.16z"/>
	<path class="st0" d="M37.62,204.92c0,0-1.88-1.88-2.66-3.27c-1.55-2.74-13.63,2.67-13.63,2.67l3.29,0.71"/>
	<path class="st0" d="M146.46,205.64c0,0,1.92-1.84,2.73-3.2c1.62-2.7,13.56,2.99,13.56,2.99l-3.31,0.63"/>
	<path class="st0" d="M19.93,205.03c0,0-0.26-7.43-1.93-10.73c-1.67-3.3-2.33-6.62-2.33-6.62s10.13-5.1,16.73-5.22   c6.6-0.12,23.03,2.73,28.15,5.55c5.12,2.82,18.92,10.39,26.07,11.94c7.16,1.54,18.98-0.29,26.38-3.34   c7.39-3.04,12.34-8.28,15.34-9.61c3-1.33,12.66-4.82,19.16-5.41s14.33,2.08,18.74,2.91c4.41,0.83,3.76,2.5,3.76,2.5l-5.31,16.88   c0,0-8.48-2.88-14.17-3.05c-5.69-0.17-15.37,4.11-18.36,5.22c-3,1.11-16.18,6.61-20.42,8.28C107.5,216,93.17,219.83,85,218   c-8.17-1.83-24.03-9.89-28.18-11.94c-4.15-2.06-19.16-7-21.15-6.06C33.68,200.94,19.93,205.03,19.93,205.03z"/>
</g>
<g id="Eagle_Key-line">
	<g>
		<g>
			<path class="st0" d="M161.42,43.92c-0.3-0.92-1.86-1.63-8.19-1.63c-2.47,0-4.76,0.1-4.79,0.1c-0.1,0-0.2,0.02-0.29,0.05     c-3.92,0.29-7.66,1.19-11.04,2.66c4.48-5.4,11.46-8.78,15.68-10.45c0.22-0.09,0.84-0.37,0.98-0.58c0.21-0.32,0.55-0.62,0.26-1.14     c-0.49-0.9-2.41-1.13-3.69-1.13c-1.38,0-3.33,0.19-5.78,0.56c-1.16,0.13-2.32,0.32-3.42,0.56c-0.05,0.01-0.1,0.02-0.15,0.04     c-4.86,1.09-9.46,3.27-13.3,6.3c-0.54,0.42-1.06,0.87-1.56,1.32l3.09-5.27c1.67-2.73,3.48-5.26,5.4-7.51     c0.13-0.15,0.21-0.33,0.25-0.52c0.07-0.38,0.51-0.98,0.26-1.29c-0.16-0.19-0.51-0.51-1.14-0.51c-0.56,0-2.41,0.19-9.5,5.57     c-6.67,4.66-12.39,10.7-16.56,17.49c-1.68,3-4.6,8.57-5.58,12.49c-0.06-0.4-0.11-0.79-0.16-1.17c-0.17-1.58-0.27-3.21-0.3-5.15     c-0.03-2.32,0.07-4.39,0.17-5.72c0.04-0.56-0.07-1.87-0.61-2.01c-0.54-0.13-1.37,0.95-1.59,1.47C96.42,56.4,95.5,63,95.32,66.94     l-1.27,11.58c-0.14,0.8-0.75,4.67-0.75,4.67c-0.96-1.67-1.64-2.92-2.38-4.73c-0.02-0.06-0.05-0.12-0.09-0.18l-1.09-1.75     c-0.03-0.05-0.06-0.09-0.1-0.13c-1.65-1.97-3.32-2.98-5.26-4.15c-2.71-1.65-6.09-3.69-11.11-9.5c-2.77-3.2-5.98-9.68-7.02-14.14     c-2.05-8.83-1.86-19.39,0.5-28.87c0.22-0.63,0.37-1.79,0.08-2.18c-0.22-0.3-0.62-0.51-0.99-0.51c-0.74,0-1.41,0.65-6.04,8.01     c-0.01,0.02-0.02,0.04-0.04,0.06c-3.04,4.84-5.19,10.38-6.21,16.03c-0.22,1.23-0.39,2.46-0.51,3.68     c-1.08-2.67-1.97-5.44-2.66-8.26c-1.48-6.05-1.97-12.18-1.42-17.74c0.04-0.35,0.11-1.28-0.14-1.52     c-0.23-0.23-0.56-0.36-0.91-0.36c-1.02,0-2.59,1.32-5.85,10.03c-3.1,8.3-4.1,15.91-3.13,24.22c-3.53-4.59-5.11-11.04-6.54-16.86     c-0.35-1.44-0.7-2.86-1.07-4.21c-0.18-0.68-0.67-2.32-1.29-2.01c-0.04,0.02-0.08,0.05-0.12,0.07c-0.01,0-0.01,0.01-0.02,0.01     c-0.02,0.01-0.04,0.03-0.07,0.05c-0.03,0.02-0.06,0.05-0.08,0.07c-0.13,0.12-0.57,1.55-0.65,1.71c-0.2,0.37-0.32,0.92-0.4,1.7     c0,0.04-0.01,0.07-0.01,0.11c0,0.27-0.02,0.54-0.03,0.81c-0.02,0.3-0.04,0.6-0.04,0.9c-0.42,4.36-0.75,15.64,5.04,27.43     l0.13,0.31c0.08,0.18,0.16,0.36,0.24,0.54c0.63,1.33,1.34,2.55,2.02,3.72c0.23,0.39,0.45,0.77,0.67,1.15     c0.8,1.4,1.5,2.26,2.22,3.07c-3.27-0.67-8.1-1.63-10.43-1.98c-0.54-0.07-1.05,0.22-1.25,0.73c-0.19,0.5-0.01,1.08,0.45,1.37     c1.95,1.27,5.5,4.48,9.22,7.94l-0.05,0.01L43.49,84l0.6,0.57c2.16,2.03,4.4,4.13,6.54,6.07l-4.53-0.45     c-0.5-0.06-0.98,0.24-1.18,0.71c-0.19,0.47-0.06,1.01,0.34,1.33l10.55,8.54l-0.01,0l4.62,3.67c0.03,0.03,0.06,0.07,0.1,0.1     l7.92,6.37c0.2,0.16,0.44,0.25,0.69,0.25l2.03,0.05c-4.3,1.79-8.23,1.85-12.83,0.3c-3.55-1.19-6.94-3.04-9.82-5.35     c-0.41-0.33-1.46-0.94-1.88-0.63c-0.42,0.31-0.11,1.47,0.09,1.96c0.9,2.2,2.55,4.13,4.22,5.88c-5.46-0.72-10.43-2.23-16.1-4.82     c-0.47-0.21-1.32-0.77-1.66-0.38c-0.33,0.39-0.06,1.62,0.21,2.05c2.57,3.98,4.62,6.71,6.67,8.84c2.15,2.23,4.98,4.52,6.37,5.36     c0.27,0.16,0.98,0.59,4.38,0.59c1.29,0,2.71-0.07,3.91-0.18c0.15-0.01,0.3-0.03,0.44-0.04c-3.39,1.2-6.51,1.65-9.2,1.31     c-0.58-0.08-1.91-0.03-2.05,0.54c-0.14,0.57,0.96,1.48,1.51,1.68c4.04,1.44,7.99,2.42,11.78,2.93c1.25,0.35,4.79,1.28,8.61,1.61     c0.26,0.02,0.5,0.03,0.73,0.02c0.31,0.03,0.63,0.06,0.93,0.09c1.47,0.14,2.85,0.27,4.33,0.27c1.21,0,2.42-0.09,3.66-0.28     c0.01,0.15,0.05,0.3,0.12,0.43l0.67,1.31c-0.24,0.04-0.48,0.16-0.65,0.35c-0.33,0.36-0.41,0.89-0.17,1.33l1.43,2.68     c0.03,0.06,0.07,0.12,0.12,0.18c0.01,0.01,0.04,0.05,0.11,0.13c-0.06,0.03-0.12,0.06-0.18,0.1c-0.39,0.27-0.57,0.76-0.45,1.22     c0.74,2.98,2.18,4.03,3.24,4.8c0.72,0.52,1.16,0.84,1.38,1.65c0.15,0.54,0.4,1.15,0.66,1.8c0.55,1.37,1.37,3.43,0.86,4.25     c-0.69,1.1-1.17,1.42-1.96,1.94c-0.49,0.33-1.11,0.74-1.85,1.41c-1.79,1.61-1.92,3.75-0.37,6.36l0.09,0.15     c0.24,0.42,0.71,0.64,1.19,0.56c0.47-0.08,0.85-0.44,0.94-0.91c0.36-1.84,3.39-3.3,3.98-3.34c1.04-0.07,2.03-0.14,2.71-0.82     c1.1-1.1,7.08-1.17,7.08-1.17s0.71,0.03,1.8,0.25c0.21,0.11,0.43,0.2,0.62,0.33c0.19,0.12,0.39,0.19,0.62,0.18     c0.13,0,2.14,0.81,2.3,1c0.3,0.35,3.69,2.23,4.08,2.44c0.23,0.12,2.21,2.75,2.49,2.75c0.46,0.68,0.63,0.49,0.64-0.2     c1.29-0.76,2.44-2.45,2.89-4.26c0.44-1.8,0.18-3.51-0.77-4.95c-0.05-0.08-0.12-0.15-0.19-0.22c-0.2-0.18-0.72-0.6-1.34-1.08     c-0.83-0.66-2.23-1.75-2.51-2.08c-0.85-0.97-1.26-2.02-1.67-3.22c0.33-0.02,0.63-0.18,0.83-0.43c0.22-0.27,0.3-0.63,0.22-0.97     l-0.15-0.66c-0.24-1.01-0.5-2.16-0.72-3.42l-0.01-0.06c0.05,0.01,0.09,0.01,0.14,0.01c0.01,0,0.01,0,0.02,0     c0.63,0,1.15-0.51,1.15-1.15c0-0.21-0.06-0.41-0.16-0.59l-1.27-3.44c0.11,0.13,0.2,0.23,0.24,0.27c0.31,0.33,1.07,0.89,1.5,0.74     c0.43-0.15,0.44-0.99,0.48-1.44c0.18-2.3,1.93-4.62,3.82-5.98c0.11,0.31,0.21,0.52,0.24,0.57c0.2,0.38,0.22,1.22,0.65,1.22     c0.01,0,0.02,0,0.02,0c0.44-0.01,0.77-0.61,1.39-1.26c0.79-0.82,1.46-1.54,2.29-1.78l3.97,1.6c0.24,0.71,0.73,1.87,1.59,2.56     c0.74,0.6,1.47,1.06,2.78,1.89c0.14,0.09,0.29,0.18,0.44,0.28c-0.12,0.06-0.25,0.12-0.4,0.17c-0.45,0.16-1.75,0.59-1.76,1.08     c0,0.48,1.29,0.91,1.75,1.08c0.88,0.33,1.85,0.5,2.8,0.5c1.95,0,3.66-0.7,4.7-1.92c0.85-1,1.18-2.27,0.94-3.67     c-0.17-1.04-0.59-3.62-0.72-4.45l1.07-3.52c0.04-0.11,0.05-0.23,0.05-0.34c-0.01-1.67-0.48-3.52-1.41-5.53l-0.04-0.13     c-0.04-0.14-0.11-0.26-0.2-0.37c-0.05-0.1-0.1-0.2-0.14-0.28c-0.25-0.55-0.56-1.1-0.95-1.69c-2.85-4.69-6.89-8.51-7.07-8.67     c-0.34-0.32-1.02-0.88-1.45-0.69c-0.42,0.2-0.51,1.12-0.49,1.59l0.02,0.25c-0.28-0.66-1.34-1.76-1.57-2.11     c-0.51-0.77-0.89-1.55-1.03-2.11c3.42-15.81,13.87-26.33,13.97-26.43c0.19-0.19,0.31-0.44,0.33-0.7     c2.26-22.61,28.09-32.57,28.35-32.67c0.1-0.04,0.77-0.25,0.85-0.31C161.35,44.67,161.49,44.15,161.42,43.92 M102.75,142.44     c0.03,0.02,0.07,0.03,0.1,0.05l-0.5,0.08L102.75,142.44z"/>
		</g>
	</g>
</g>
<g id="Banner">
	<g>
		<g>
			<path class="st1" d="M89.32,206.04l-0.36-0.01l-0.09,2.68l0.33,0.01c0.99,0.03,1.54-0.38,1.57-1.33     C90.8,206.52,90.31,206.07,89.32,206.04z"/>
			<polygon class="st1" points="97.44,209.6 99.27,209.35 97.95,206.33    "/>
			<polygon class="st1" points="70.51,204.83 71.13,201.6 68.86,204    "/>
			<path class="st1" d="M37.73,188.55l-0.59-0.04l-0.16,2.68l0.61,0.04c0.96,0.06,1.51-0.4,1.56-1.29     C39.19,189.1,38.68,188.6,37.73,188.55z"/>
			<polygon class="st1" points="115.17,204.56 116.85,203.8 114.73,201.29    "/>
			<path class="st1" d="M125.92,188.02c-11.33,7.23-20.55,11.54-32.15,11.59c-15.68,0.06-27.83-10.33-44.37-15.89     c-16.55-5.56-35.6,3.72-35.6,3.72s6.08,5.94,6.54,16.67c0,0,11.05-7.2,27.6-1.65c16.55,5.56,25.12,16.64,46.42,15.36     c18.54-1.11,29.09-9.7,41-14.18c3.7-1.39,17.32-7.72,29.11,1.22c1.08-10.46,6.69-16.96,6.69-16.96     C157.06,177.84,134.25,182.71,125.92,188.02z M29.73,196.89c-3.01,0.57-5.17-1.01-5.77-4.14c-0.58-3.05,0.93-5.45,3.98-6.03     c1-0.19,1.85-0.15,2.61,0.08l0.09,2.63c-0.61-0.31-1.28-0.51-2.05-0.36c-1.35,0.26-2.04,1.44-1.72,3.12     c0.33,1.71,1.47,2.51,2.84,2.25c0.68-0.13,1.25-0.49,1.87-1.02l0.82,2.29C31.68,196.25,30.89,196.67,29.73,196.89z M38.97,196.58     l-1.65-3.31l-0.45-0.03l-0.19,3.1l-2.94-0.18l0.6-9.99l3.82,0.23c2.58,0.15,3.99,1.39,3.86,3.53c-0.08,1.35-0.75,2.27-1.91,2.78     l2.01,3.58L38.97,196.58z M47.06,198.13l-2.87-0.78l0.92-3.39l-1.68-6.88l3.15,0.45l0.81,4.2l2.76-3.13l2.98,0.81l-5.14,5.27     L47.06,198.13z M56.09,194.8c1.79,1.59,2.35,2.69,1.7,4.2c-0.93,2.17-2.87,2.32-4.73,1.52c-1.35-0.58-2.32-1.32-3.18-2.23     l1.35-2.05c0.85,1,1.84,1.83,2.75,2.22c0.53,0.23,0.96,0.19,1.13-0.21c0.17-0.39,0.02-0.67-1.04-1.65     c-1.59-1.47-2.18-2.45-1.49-4.06c0.81-1.89,2.69-2.2,4.51-1.43c1.33,0.57,2.05,1.14,2.77,1.96l-1.35,2.04     c-0.74-0.93-1.57-1.6-2.26-1.9c-0.54-0.23-0.89-0.16-1.03,0.16C55.07,193.73,55.2,194.01,56.09,194.8z M59.16,203.3l3.5-6.68     l-2.38-1.25l1.14-2.18l7.13,3.73l-0.79,2.37l-2.48-1.3l-3.5,6.68L59.16,203.3z M72.7,209.93l-2.89-0.93l0.28-1.85l-2.81-1.41     l-1.2,1.28l-2.56-1.29l7.6-7.43l2.97,1.49L72.7,209.93z M80.17,212.79l-5.9-1.91l3.07-9.52l2.83,0.91l-2.3,7.12l2.69,0.87     L80.17,212.79z M89.29,210.89l-0.46-0.02l-0.1,3l-2.96-0.1l0.34-10l3.46,0.12c2.58,0.09,4.12,1.26,4.04,3.56     C93.53,209.81,91.81,210.97,89.29,210.89z M101.05,213.17l-0.82-1.69l-3.12,0.43l-0.26,1.73l-2.85,0.39l2.06-10.43l3.29-0.45     l4.61,9.15L101.05,213.17z M106.03,212.02l-2.96-9.56l2.84-0.88l2.21,7.15l2.7-0.84l1.13,2.29L106.03,212.02z M119.65,206.96     l-1.26-1.39l-2.87,1.29l0.24,1.74l-2.62,1.18l-0.99-10.58l3.03-1.37l7.01,7.46L119.65,206.96z M127.23,203.3     c-2.75,1.34-5.25,0.38-6.65-2.49c-1.36-2.79-0.53-5.5,2.26-6.86c0.91-0.44,1.75-0.62,2.54-0.61l0.77,2.51     c-0.67-0.14-1.37-0.16-2.07,0.19c-1.24,0.6-1.6,1.92-0.85,3.46c0.76,1.57,2.07,2.04,3.33,1.43c0.63-0.3,1.08-0.8,1.54-1.48     l1.39,2C128.94,202.18,128.29,202.79,127.23,203.3z M130.79,201.38l-3.78-9.26l6.11-2.49l0.88,2.16l-3.42,1.4l0.54,1.33     l2.59-1.06l1.21,2l-2.93,1.19l0.6,1.48l3.54-1.45l0.88,2.16L130.79,201.38z M143.65,196.88l-2.88,0.6l-2.05-9.79l6.19-1.3     l0.5,2.38l-3.31,0.69l0.33,1.58l2.38-0.5l0.89,2.29l-2.78,0.58L143.65,196.88z M147.81,196.24c-0.78,0.06-1.46-0.51-1.52-1.29     c-0.06-0.78,0.51-1.46,1.29-1.52c0.78-0.06,1.46,0.51,1.52,1.29C149.16,195.5,148.58,196.18,147.81,196.24z M157.14,189.69     c-0.49-0.48-1.07-0.86-1.85-0.94c-1.37-0.15-2.37,0.78-2.56,2.48c-0.19,1.73,0.67,2.83,2.06,2.98c0.69,0.08,1.34-0.1,2.09-0.43     l0.12,2.43c-0.85,0.32-1.73,0.48-2.9,0.36c-3.04-0.33-4.65-2.47-4.31-5.64c0.33-3.08,2.47-4.94,5.56-4.61     c1.01,0.11,1.81,0.4,2.48,0.84L157.14,189.69z M159.34,197.65c-0.78,0.06-1.46-0.51-1.52-1.29c-0.06-0.78,0.51-1.46,1.29-1.52     c0.78-0.06,1.46,0.51,1.52,1.29C160.7,196.91,160.12,197.59,159.34,197.65z"/>
			<path class="st2" d="M157.33,211.23l-1.11-0.71c-0.91-0.59-2.82-0.81-4.54-0.53c-0.3,0.05-0.62,0.12-0.94,0.19     c-1.23,0.27-2.49,0.55-3.38-0.16c-0.5-0.4-0.76-1.05-0.76-1.91c0-0.82,0.34-1.51,0.98-2.01c2.67-2.08,10.5-0.17,11.38,0.05     c0.77,0.21,3.17,0.65,4.2-0.06c0.29-0.2,0.44-0.48,0.48-0.88c0.82-9,4.89-15.13,6.38-17.11c-13.58-9.06-35.21-4.58-43.7,0.6     c-9.67,5.9-20.16,11.66-32.55,11.71c-0.05,0-0.09,0-0.14,0c-10.08,0-18.72-4.23-27.85-8.7c-5.24-2.56-10.65-5.21-16.63-7.22     c-13.99-4.69-30.02,1.51-34.05,3.25c1.69,2.01,5.65,7.62,6.02,16.37c0.02,0.4,0.16,0.69,0.43,0.9c1,0.76,3.41,0.44,4.17,0.26     c0.91-0.19,8.82-1.72,11.39,0.49c0.62,0.53,0.92,1.24,0.88,2.05c-0.04,0.86-0.33,1.49-0.85,1.87c-0.92,0.67-2.17,0.33-3.38,0     c-0.31-0.08-0.62-0.17-0.92-0.23c-1.71-0.36-3.63-0.23-4.56,0.31l-1.14,0.66l-0.09-3.81c-0.35,0.06-0.69,0.12-1,0.18     c-0.36,0.08-3.69,0.79-5.45-0.55c-0.65-0.5-1.01-1.21-1.05-2.08c-0.44-10.31-6.25-16.09-6.31-16.15l-0.79-0.77l1-0.49     c0.79-0.38,19.52-9.35,36.19-3.76c6.08,2.04,11.54,4.72,16.82,7.3c8.97,4.39,17.44,8.54,27.17,8.54h0.13     c10.82-0.04,20.17-4.42,31.75-11.48c8.95-5.45,32-10.14,46.09-0.07l0.7,0.5l-0.56,0.65c-0.05,0.06-5.61,6.61-6.55,16.91     c-0.08,0.86-0.47,1.56-1.14,2.02c-1.82,1.25-5.12,0.39-5.49,0.28c-0.3-0.08-0.63-0.15-0.97-0.23L157.33,211.23z M151.62,206.69     c-1.35,0-2.49,0.17-3.07,0.63c-0.26,0.2-0.37,0.44-0.37,0.78c0,0.35,0.06,0.6,0.17,0.69c0.3,0.24,1.32,0.02,2.06-0.15     c0.35-0.08,0.69-0.15,1.02-0.2c1.28-0.21,3.06-0.23,4.51,0.24l0.11-1.56C154.59,206.87,152.99,206.69,151.62,206.69      M30.85,207.67c0.84,0,1.65,0.1,2.32,0.24c0.33,0.07,0.67,0.16,1.01,0.25c0.74,0.2,1.74,0.47,2.06,0.25     c0.11-0.08,0.19-0.33,0.21-0.68c0.02-0.33-0.09-0.58-0.34-0.79c-1.14-0.98-4.56-0.92-7.49-0.56l0.04,1.56     C29.34,207.75,30.1,207.67,30.85,207.67"/>
			<path class="st2" d="M91,218.87c-12.32,0-20.23-4.24-28.57-8.71c-4.52-2.42-9.2-4.93-14.73-6.79     c-15.96-5.36-26.82,1.49-26.93,1.56l-0.85-1.31c0.46-0.3,11.56-7.34,28.27-1.73c5.66,1.9,10.4,4.44,14.98,6.9     c8.88,4.76,17.27,9.26,31.15,8.43c12.91-0.77,21.74-5.14,30.27-9.36c3.57-1.77,6.95-3.44,10.5-4.77c0.24-0.09,0.52-0.2,0.84-0.33     c4.84-1.91,17.68-6.98,29.05,1.68l-0.95,1.24c-10.67-8.13-22.92-3.29-27.53-1.47c-0.33,0.13-0.62,0.24-0.87,0.34     c-3.48,1.31-6.82,2.96-10.35,4.71c-8.27,4.09-17.64,8.73-30.87,9.52C93.24,218.84,92.1,218.87,91,218.87"/>
			<path class="st2" d="M36.39,207.18c-3.74-3.06-5.2-6.03-5.26-6.16l1.41-0.68c0.01,0.03,1.38,2.8,4.84,5.63L36.39,207.18z"/>
			<path class="st2" d="M148.35,207.5l-0.92-1.26c4.03-2.93,4.51-6.05,4.51-6.08l1.55,0.22     C153.47,200.53,152.91,204.19,148.35,207.5"/>
		</g>
	</g>
</g>
<g id="Eagle">
	<g>
		<g>
			<path class="st0" d="M101.75,64.2c-0.24-1.16-0.5-2.59-0.69-4.2C101.21,61.32,101.43,62.71,101.75,64.2"/>
		</g>
		<path class="st3" d="M113.03,106.56C113.03,106.31,113.03,106.56,113.03,106.56"/>
		<path class="st1" d="M128.79,120.08c-0.04-0.13-0.07-0.2-0.07-0.2s0.01,0.05,0.03,0.13c-0.1-0.22-0.21-0.44-0.32-0.66    c-0.25-0.56-0.56-1.07-0.88-1.57c-2.8-4.61-6.87-8.43-6.87-8.43l0.06,1.12c0,0,0.02,0.01,0.02,0.01l0.12,1.75    c0,0-13.13-7.62-18.72-14.65c-4.34-5.45-9.34-11.39-12.3-18.69l-1.09-1.75c-3.78-4.5-7.73-3.65-16.36-13.64    c-2.96-3.43-6.23-10.17-7.27-14.63c-2.19-9.42-1.8-20.15,0.53-29.5c0,0,1.09-3.19-4.88,6.3l0,0c-2.99,4.75-5.09,10.16-6.09,15.68    c-0.51,2.82-0.74,5.66-0.65,8.46c-2.03-4.04-3.65-8.44-4.77-12.98c-1.47-5.98-2.04-12.19-1.44-18.13c0,0-1.05-1.03-4.68,8.67    c-3.63,9.7-4.2,17.98-2.54,27.25c-6.67-5.65-8.18-16.01-10.4-24.2c0,0,0,0,0,0c0,0,0,0,0,0c0,0-0.01,0-0.01,0.01c0,0,0,0,0,0    c-0.02,0.02-0.05,0.05-0.08,0.12c-0.08,0.16-0.2,0.52-0.27,1.28c0,0.59-0.07,1.18-0.07,1.77c-0.4,4.1-0.78,15.25,4.94,26.91    c0.12,0.27,0.24,0.55,0.36,0.82c0.81,1.71,1.77,3.26,2.65,4.8c1.45,2.55,2.57,3.18,4.2,5.43c-0.17-0.02-9.99-2.09-13.58-2.62    c2.17,1.42,6.15,5.04,10.68,9.28c0,0,13.54,1.09,24.18,8.95c0,0-9.21-4.5-20.26-5.27c0.65,0.61,1.3,1.23,1.95,1.84    c3.15,2.96,6.32,5.92,9.13,8.4l-0.04,0l-7.99-0.79l11.48,9.29l2.06,0.07c0,0,3.86-0.13,7.68,0.73c4.07,0.92,6.24,2.24,6.24,2.24    c-2.28-0.77-6.06-0.89-8.34-0.74c-1.63,0.11-2.69,0.56-3.87,0.72l0.67,0.54l7.25,5.83l6.45,0.17c-5.45,3.39-10.8,4.73-17.65,2.43    c-3.64-1.22-7.17-3.13-10.17-5.55c1.21,2.98,4.03,5.53,6.22,7.79c-7.22-0.56-13.04-2.23-19.64-5.25c2.52,3.92,4.53,6.58,6.53,8.67    c2,2.08,4.76,4.34,6.14,5.17c0.88,0.53,4.91,0.5,7.58,0.25c0.5-0.05,0.96-0.1,1.34-0.17c0.61-0.1,1.38-0.27,2.19-0.45    c2.74-0.63,6.05-1.56,5.87-1.44c-1.19,0.78-2.49,1.54-3.86,2.24c-0.81,0.42-1.64,0.81-2.49,1.18c-3.84,1.65-8.02,2.67-11.84,2.19    c4.27,1.52,8.73,2.64,13.25,3.06c1.56,0.15,2.12,0.13,3.47-0.5c2.02-0.93,3.68-1.7,5.29-2.47c0.81-0.39,1.62-0.79,2.44-1.2    c1.13-0.57,2.29-1.18,3.58-1.9c-0.75,0.7-1.5,1.36-2.27,2.01c-0.43,0.36-0.87,0.73-1.32,1.09c-1.56,1.28-3.23,2.6-5.13,4.27    c5.1,0.36,8.05,1.2,14.83-0.92c0,0-1.39,1.04-3.33,2.17l2.01,3.94l-2.18-0.98l1.43,2.68c0,0,1.02,1.26,2.47,2.32l0.49,1.58    c-1.12-0.33-2.56-1.53-3.27-2.01c1.13,4.55,3.84,3.66,4.62,6.42c0.53,1.86,2.5,5.2,1.38,6.97c-1.31,2.09-2.17,1.94-4.01,3.6    c-2.14,1.92-0.49,4.32-0.05,5.09c0.44-2.25,2.12-3.71,3.06-3.99c1.49-0.44,3.28-0.1,3.94-0.76c2.36-2.35,7.43-2.95,10.93-0.75    c-1.62-2.62-2.46-2.54-5.69-3.48c5.71,0.38,6.08,1.62,8.88,4.88c0.23-1.85-1.31-4.21-2.62-5.33c-0.41-0.35-4.94-0.99-9.35-1.37    c-1.55-0.13-2.17-2.13-2.4-3.2c0.27,0.15,1.52,0.81,2.73,0.79c-0.31-1.55-0.74-3.32-0.99-4.38c0.43,0.2,0.88,0.47,1.86,0.51    l-0.64-2.61c-0.3-2.08-0.98-3.59,1.02-6.77c1.1,0.78,1.59,1.11,2.09,1.67c0,0,0.41,1.99,0.87,3.05c0.09,0.2,2.05,1.88,2.12,2.08    l-3.38-0.98c0,0,1.13,2.57,3.36,4.05c1.32,0.47,2.5,1,2.89,1.51c0.4,0.54,1.07,1.98,0.75,2.75c-0.25,0.63-2.05-2.04-5.84,1.14    c2.58,0.04,5.68,0.75,6.35,1.54c0.87,1.02,1.48,1.95,2.11,2.33c2.75,1.65,2.94,2.51,2.72,5.75c1.7-1.31,1.22-4.73,0.97-5.56    c2.25,2.7,1.76,6.37,1.07,7.81c1.69-0.94,3.74-4.67,1.8-7.62c-0.52-0.48-3.38-2.61-3.94-3.25c-1.43-1.63-1.79-3.48-2.5-5.35    c0.5,0.02,1.12,0.23,1.62,0.22c-0.25-1.11-0.61-2.55-0.88-4.14c-0.03-0.14-0.05-0.29-0.07-0.43c-0.01-0.06-0.02-0.12-0.03-0.18    c-0.04-0.24-0.07-0.47-0.1-0.72c-0.01-0.06-0.01-0.12-0.02-0.17c-0.03-0.24-0.06-0.49-0.08-0.74c0.93,0.59,1.57,0.85,1.57,0.85    l-1.59-4.31c0,0,0,0,0-0.01c0.03-0.33,0.07-0.65,0.12-0.98c0-0.02,0.01-0.04,0.01-0.06c0.05-0.3,0.11-0.59,0.18-0.88    c0.01-0.05,0.02-0.1,0.03-0.14c0.07-0.27,0.15-0.53,0.23-0.8c0.02-0.06,0.04-0.13,0.06-0.19c0.11-0.32,0.24-0.63,0.38-0.94    c-0.72,1.54,1.39,3.77,1.39,3.77c0.27-3.41,3.32-6.6,5.88-7.75c-0.14,0.95,0.35,1.9,0.35,1.9c0.76-1.61,2.3-2.25,3.41-2.5    l2.07,0.83l2.2,0.88l0.57,0.23c0,0,0.4,1.75,1.37,2.53c0.94,0.76,1.91,1.31,4.24,2.81c-0.17,0.58-0.7,1.12-1.75,1.5    c3.32,1.24,7.5-0.25,6.9-3.81c-0.21-1.26-0.76-4.73-0.76-4.73l0-0.01l0.78-2.56l0.23-0.76l0.03-0.08l0.11-0.35    C130.12,123.54,129.59,121.79,128.79,120.08 M117.01,125.34l-1.76-3.17l-4.5-2.27l3.68,4.27c-1.94-1.11-5.24-2.86-8.82-3.53    c0,0,3.04,2.84,4.49,4.26c0.28,0.18,0.33,0.32,0.33,0.32c-0.1-0.09-0.21-0.21-0.33-0.32c-0.43-0.28-1.4-0.65-3.62-0.78    c-2.06-0.21-4.51-0.75-6.73-2c0,0,0.44,0.65,1.35,1.43c0.01,0.01,0.03,0.02,0.04,0.03c0,0,0.01,0.01,0.01,0.01    c0.85,0.72,2.1,1.55,3.79,2.1c0.13,0.04,1.82,0.74,1.95,0.78c-1.21,0.48-2.23,1.07-3.08,1.72c-1.64,1.27-2.66,2.79-3.27,4.35    c-1.05,2.69-2.02,7.54-1.27,10.3c-2.33-3.13-4.39-7.16-3.25-11.73c-3.55,2-5.83,1.35-8.29,0.99c-1.14,1.53-2.64,5.2-2.83,8.35    c-0.21-0.33-0.4-0.69-0.58-1.07c-0.92-1.95-1.39-4.19-1.5-6.34c-0.05-0.86-0.05-1.68,0.02-2.44v-0.01l8.11-5.75l-11.8-0.99    c0,0,0,0,0,0c0.19-0.15,0.4-0.29,0.6-0.43c4.54-3.2,10.14-5.4,15.77-5.15c0.44,0.02,0.87,0.05,1.3,0.1    c-3.62-2.03-9.98-1.93-13.75-0.75c-5.12,1.6-7.15,1.69-12.62,0.73c5.75-1.17,5.54-1.32,8.95-2.93c2.8-1.57,8.12-4.46,14.83-3.23    c-1.64-0.72-3.05-1.4-5.05-1.87c-1.95-0.45-5.13-0.88-8.54-0.15c0,0,2.32-2.48,6.65-3.09c-5.91-5.33-23.36-13.68-23.36-13.68    c24.77,5.85,35.31,17.48,36.88,19.36c0.11,0.08,0.21,0.17,0.31,0.25c-0.93-2.12-6.43-14.94-21.49-24.32    c-2.09-1.3-4.39-2.22-6.52-3.45c-3.4-1.98-6.54-4.17-9.4-6.56l0.01,0.05C35.7,56.46,46.13,25.84,46.13,25.84    c-0.9,7.11,0.3,14.06,2.36,20.25c1.31,3.93,2.96,7.55,4.64,10.7c1.88,3.54,3.8,6.48,5.3,8.6c3.49,4.26,7.63,7.9,12.42,10.53    c0,0-21.15-14.4-9.13-45.1c-0.47,1.31-8.78,25.92,22.46,47.34c0.6,0.4,1.04,0.39,1.22,0.83c4.16,10.01,20.17,25.94,23.15,33.61    c-0.13-1.57-0.27-3.13-0.4-4.7c1.79,1.92,3.19,4.31,3.93,6.84c0.13-1.55,0.27-3.9,0.4-5.44c2.59,1.42,6.43,4.39,9.59,7.81    c0,0-0.04-0.04-0.09-0.09c-0.11-0.12-0.22-0.24-0.31-0.34c0.05,0.05,0.1,0.1,0.14,0.15c0.03,0.03,0.05,0.05,0.07,0.08    c0.04,0.04,0.08,0.08,0.1,0.11c0.03,0.03,0.05,0.06,0.09,0.09l-0.14-2.27l-0.07-1.06c0,0,4.78,5.88,6.41,10.43    c0.09,0.26,0.17,0.51,0.25,0.76c-0.03,1.28-0.21,2.14-0.42,2.7c-0.18,0.48-0.91,1.28-1.07,1.4c-0.12,0.09-0.19,0.11-0.19,0.11    c0.22-0.17,0.27-0.59,0.28-0.97c0-0.48-0.1-0.98-0.28-1.56c-0.17-0.54-0.37-1.05-0.54-1.45c-0.18-0.43-0.32-0.72-0.32-0.72    c0.1,1.06,0.05,1.83-0.07,2.39c0,0.02,0,0.04-0.01,0.05c-0.24,1.06-0.72,1.33-0.85,1.39c-0.02,0.01-0.03,0.01-0.04,0.01    c-0.04-0.17-0.07-0.33-0.11-0.48c-0.13-0.38-0.28-0.76-0.43-1.13c-0.54-1.35-2.52-5.09-3.17-6.4c-0.56,0.8,0.19,2.65,0.19,2.65    c0.25,0.49,0.84,1.74,0.84,1.74c-0.55,1.25,0.26,2.63,1.36,3.16c-0.31,0.14-1.33-0.01-2.05-0.43c0.27,0.54,1.23,1.84,1.71,2.21    C121.94,129.31,118.75,126.78,117.01,125.34 M124.18,134.75l-1.38-1.12l-0.99-0.8l-0.25-0.76l-0.06-0.2l-0.34-1.04l-0.01-0.03    c1.11,0.65,1.99,1.84,2.56,2.78c0.12,0.2,0.74,1.39,0.74,1.39L124.18,134.75z M128.46,135.56c-0.42,0.53-1.09,1-1.8,1.31    c-0.79,0.35-1.63,0.51-2.27,0.35c0.02-0.01,0.03-0.02,0.05-0.02c0.07-0.03,0.13-0.07,0.19-0.1c0.05-0.02,0.1-0.05,0.14-0.07    c1.6-0.99,0.74-2.86-0.93-4.77l-0.03-0.01l-3.81-3.31l-0.21-0.18l-0.06-0.05l0.04-0.01l0.12-0.04l0.03-0.01l0.14-0.05l0.57,0.32    l1.94,1.09l0.14,0.08l0.86,0.48l0.93,0.53c0,0,0.01,0,0.01,0c0.01,0,0.01,0,0.02,0c0.87-0.2,1.86-0.45,2-0.49    c0.65-0.17,1.02-0.36,1.22-0.51C127.78,130.24,129.42,134.34,128.46,135.56"/>
		<path class="st1" d="M148.49,43.54l0.19,0.02c-5.34,0.32-10.62,1.87-15.02,4.66c3.62-7.06,11.63-11.84,18.71-14.64    c0,0,0.88-1.36-7.68-0.08c-1.11,0.12-2.21,0.31-3.31,0.55c-0.02,0-0.03,0-0.05,0.01h0.02c-4.7,1.04-9.17,3.13-12.94,6.1    c-2.13,1.68-4.04,3.64-5.65,5.85c-7.21,9.59-9.65,17.98-9.65,17.98s-1.04-12.38,14.78-28.71c1.74-2.91,3.7-5.69,5.86-8.22    c0,0,0.36-1.85-8.59,4.95c-6.48,4.53-12.13,10.47-16.21,17.11c-1.47,2.62-4.6,8.51-5.51,12.41c0.01,0.11,0.02,0.23,0.02,0.35    c0,0,0.1,2.34,0.53,5.44c0.52,3.75,2.06,8.94,2.06,8.94c-1.05-2.14-2.92-6.85-3.54-9.02c-0.3-1.06-0.55-2.06-0.75-3.03    c-0.13-0.6-0.23-1.17-0.33-1.74c-0.05-0.3-0.1-0.62-0.15-0.94c-0.08-0.51-0.15-1.02-0.21-1.51c-0.2-1.82-0.28-3.53-0.3-5.25    c-0.03-2.28,0.06-4.33,0.17-5.82c-4.11,9.43-4.5,16.69-4.51,19.59c-0.21,1.85-0.31,3.24-0.39,4.4c1.07,3.03,2.96,7.07,6.35,12.19    c0,0-3.05-1.7-6.64-7.97c-0.14,1.38-0.4,2.96-0.95,5.41c4.07,6.91,8.15,12.22,11.83,16.28V90.6c1.32,1.32,2.23,2.35,2.86,3.14    c0.59-2.68,1.41-5.89,2.56-9.31c7.17-21.33,15.67-27.83,15.67-27.83c-7.82,12.22-15,36.93-14.7,48.47    c1.51,1.29,2.87,2.33,3.99,3.12c-0.61-0.91-1.12-1.95-1.25-2.76c3.48-16.49,14.34-27.24,14.34-27.24    c2.36-23.62,29.09-33.63,29.09-33.63C161.37,42.97,148.49,43.54,148.49,43.54"/>
	</g>
</g>
<g id="Building_Towers">
	<path class="st4" d="M152.5,179.59V167.4v-1.17c-1.4,1.08-2.71,2.04-3.96,2.91v1.33v1.75l0,0.86h-2.02v-2.56   c-8.68,5.74-12.98,6.34-12.98,6.34c5.85-2.99,10.03-5.92,12.98-8.42v-3.29v-1.81c-10.67,9.17-20.25,13.89-23.8,15.46   c0,0.25,0,1.03,0,2.12h15.73c0,0,2.17,0,2.56,0c3.65-0.61,7.56-0.9,11.48-0.73"/>
	<path class="st5" d="M135.98,181.99c-2.86,0.74-5.46,1.66-7.65,2.66v-2.66H135.98z"/>
	<path class="st5" d="M113,193.19c-0.71,0.32-1.99,0.88-2.52,1.1l0.01-2.71v-5.57H113v5.57V193.19z"/>
	<rect x="110.49" y="178.72" class="st5" width="2.51" height="6.3"/>
	<path class="st5" d="M121.71,187.99v-1.97h-2.24v1.97v1.82c0.74-0.43,1.49-0.88,2.25-1.33L121.71,187.99z"/>
	<rect x="119.47" y="178.72" class="st5" width="2.24" height="6.3"/>
	<path class="st5" d="M115.73,190.22v-4.2H114v4.2l0,2.52c0.58-0.28,1.15-0.57,1.73-0.87V190.22z"/>
	<rect x="114" y="178.72" class="st5" width="1.73" height="6.3"/>
	<rect x="116.72" y="178.72" class="st5" width="1.73" height="6.3"/>
	<path class="st5" d="M118.44,189.77v-3.75h-1.73v3.75v1.58c0.57-0.31,1.15-0.62,1.73-0.95V189.77z"/>
	<rect x="110.49" y="173.36" class="st5" width="11.24" height="4.35"/>
	<path class="st5" d="M65.75,188.68c-0.82-0.4-1.64-0.8-2.47-1.2l0-0.49v-0.97h2.47v0.97L65.75,188.68z"/>
	<rect x="63.28" y="178.72" class="st5" width="2.51" height="6.3"/>
	<path class="st5" d="M72.2,191.8c0.76,0.36,1.52,0.71,2.28,1.05l0.02-4.89v-1.94h-2.3v1.94V191.8z"/>
	<rect x="72.25" y="178.72" class="st5" width="2.25" height="6.3"/>
	<rect x="66.75" y="178.72" class="st5" width="1.72" height="6.3"/>
	<rect x="69.51" y="178.72" class="st5" width="1.7" height="6.3"/>
	<rect x="63.28" y="173.36" class="st5" width="11.24" height="4.35"/>
	<path class="st5" d="M69.48,190.5c0.52,0.25,1.18,0.6,1.73,0.87l0-1.27v-4.08h-1.73v4.08L69.48,190.5z"/>
	<path class="st5" d="M60.55,186.19c0.58,0.27,1.15,0.54,1.73,0.81v-1.66v-3.34h-1.73v3.34L60.55,186.19z"/>
	<path class="st5" d="M66.75,189.16c0.1,0.05,0.19,0.09,0.29,0.14c0.48,0.24,0.96,0.47,1.44,0.7v-1.31v-2.67h-1.72v2.67   L66.75,189.16z"/>
	<path class="st4" d="M32.98,174.87v-8.64c1.4,1.08,2.71,2.04,3.96,2.91v3.94h2.02v-2.56c8.68,5.74,12.98,6.34,12.98,6.34   c-5.85-2.99-10.03-5.92-12.98-8.42v-3.6v-1.5c10.22,8.78,19.44,13.48,23.32,15.25c0,0.68,0,2.34,0,2.34s-15.56,0.08-15.94,0   c-4.54-0.97-9.11-1.04-13.36-0.62"/>
	<path class="st5" d="M56.82,184.58c-2.18-0.9-5.11-2.08-6.73-2.63h6.73V184.58z"/>
	<path class="st5" d="M57.82,184.43v-2.43h1.73v2.43l0,1.3c-0.17-0.08-0.82-0.36-1.73-0.74L57.82,184.43z"/>
	<path class="st5" d="M124.62,186.02v-4.02h-1.89v4.02v1.85c0.63-0.39,1.26-0.78,1.89-1.19L124.62,186.02z"/>
	<path class="st5" d="M127.35,184.65v-2.65h-1.73v2.65l0.02,1.4c0.53-0.31,1.1-0.62,1.71-0.92V184.65z"/>
	<path class="st5" d="M109.5,177.72v-3.08c0-9.39-7.61-17-17-17c-9.39,0-17,7.61-17,17v3.08l2.9,0c-0.18-0.92-0.28-1.86-0.28-2.83   c0-7.89,6.4-14.29,14.29-14.29c7.89,0,14.29,6.4,14.29,14.29c0,0.97-0.1,1.92-0.28,2.84L109.5,177.72z"/>
	<g id="Layer_27">
		<path class="st6" d="M36.94,169.13"/>
		<path class="st4" d="M36.94,165.34v-3.82l-3.96-4v3.53V162c0.54,0.84,1.74,2.48,3.96,4.61V165.34z"/>
	</g>
	<path class="st4" d="M152.5,162c-0.54,0.84-1.74,2.48-3.96,4.61v-1.97v-3.13l3.96-4v3.07V162z"/>
	<g>
		<path class="st5" d="M89.65,191.22c-0.46,0-0.77,0.3-0.77,0.82c0,0.5,0.25,0.77,0.77,0.77c0.32,0,0.6-0.1,0.88-0.31v-0.03    C90.52,191.67,90.17,191.22,89.65,191.22z"/>
		<path class="st5" d="M93.94,191.24c-0.59,0-0.92,0.57-0.92,1.61c0,1.04,0.33,1.61,0.92,1.61c0.59,0,0.91-0.57,0.91-1.61    C94.85,191.81,94.54,191.24,93.94,191.24z"/>
	</g>
	<g id="Layer_29">
		<g id="BANNER_copy_2">
		</g>
	</g>
	<g id="Layer_24_copy">
		<path class="st6" d="M164.7,178.72"/>
		<g id="Layer_27_copy">
		</g>
		<g id="Layer_29_copy">
			<g id="BANNER_copy_3">
			</g>
		</g>
	</g>
	<path class="st6" d="M19.49,156.07"/>
	<path class="st7" d="M32.34,156.07"/>
	<path class="st5" d="M29.11,155.66c0.59,0.11,1.16,0.25,1.7,0.42v7.63c-0.54-0.17-1.11-0.31-1.7-0.42V155.66z"/>
	<path class="st5" d="M28.12,163.14c-0.55-0.07-1.12-0.11-1.7-0.13l0-7.63c0.28,0.01,0.56,0.02,0.83,0.04   c0.29,0.02,0.59,0.05,0.87,0.09V163.14z"/>
	<path class="st5" d="M23.72,163.14c0.55-0.07,1.12-0.11,1.71-0.13v-7.63c-0.58,0.02-1.15,0.06-1.71,0.13V163.14z"/>
	<path class="st5" d="M21.03,163.72c0.54-0.17,1.11-0.31,1.7-0.42v-7.63c-0.59,0.11-1.16,0.25-1.7,0.42V163.72z"/>
	<path class="st5" d="M19.49,149.46c0.37-0.17,0.75-0.32,1.16-0.46v0.92L19.49,149.46z"/>
	<path class="st5" d="M25.43,152.14c-0.58,0.02-1.15,0.06-1.71,0.13v-3.97c0.55-0.07,1.12-0.11,1.71-0.13V152.14z"/>
	<path class="st5" d="M28.12,148.29c-0.55-0.07-1.12-0.11-1.7-0.13v3.97c0.58,0.02,1.15,0.06,1.7,0.13V148.29z"/>
	<path class="st5" d="M29.11,148.45c0.59,0.11,1.16,0.25,1.7,0.42l0,3.97c-0.54-0.17-1.11-0.31-1.7-0.42V148.45z"/>
	<path class="st5" d="M22.73,152.42c-0.59,0.11-1.16,0.25-1.7,0.42l0-3.97c0.54-0.17,1.11-0.31,1.7-0.42L22.73,152.42z"/>
	<path class="st5" d="M31.19,148.99c0.41,0.14,0.8,0.3,1.17,0.47l-1.17,0.45L31.19,148.99z"/>
	<path class="st5" d="M19.49,156.67c0.37-0.17,0.75-0.32,1.16-0.46v0.92L19.49,156.67z"/>
	<path class="st5" d="M31.19,156.21c0.41,0.14,0.8,0.3,1.17,0.47l-1.17,0.45L31.19,156.21z"/>
	<path class="st5" d="M32.37,146.88c-1.77-0.82-4.01-1.31-6.44-1.31c-2.43,0-4.66,0.49-6.43,1.3v1.66c1.77-0.82,4-1.3,6.43-1.3   c2.44,0,4.68,0.49,6.45,1.31L32.37,146.88z"/>
	<path class="st5" d="M32.37,154.16c-1.77-0.82-4.01-1.31-6.44-1.31c-2.43,0-4.66,0.49-6.43,1.3v1.66c1.77-0.82,4-1.3,6.43-1.3   c2.44,0,4.68,0.49,6.45,1.31L32.37,154.16z"/>
	<path class="st5" d="M32.37,146.15c-1.77-0.82-4.01-1.31-6.44-1.31c-2.43,0-4.66,0.49-6.43,1.3l5.1-4.87   c0.43-0.03,0.88-0.05,1.33-0.05s0.89,0.02,1.32,0.05L32.37,146.15z"/>
	<path class="st5" d="M24.6,139.92c0,0.32,0,0.8,0,0.8c0.43-0.03,0.88-0.05,1.33-0.05s0.89,0.02,1.32,0.05c0,0,0-0.47,0-0.8   c0-0.3-0.66-0.31-0.83-0.32c-0.16,0-0.33-0.01-0.49-0.01c-0.17,0-0.33,0-0.5,0.01C25.25,139.61,24.6,139.6,24.6,139.92z"/>
	<path class="st5" d="M30.81,171.99c-0.54-0.17-1.11-0.31-1.7-0.42v-7.43c0.59,0.11,1.16,0.25,1.7,0.42L30.81,171.99z"/>
	<path class="st5" d="M28.12,171.42c-0.55-0.07-1.12-0.11-1.7-0.13v-7.43c0.58,0.02,1.15,0.06,1.7,0.13L28.12,171.42z"/>
	<path class="st5" d="M25.43,171.29c-0.58,0.02-1.15,0.06-1.71,0.13v-7.43c0.55-0.07,1.12-0.11,1.71-0.13V171.29z"/>
	<path class="st5" d="M22.73,171.57c-0.59,0.11-1.16,0.25-1.7,0.42v-7.43c0.54-0.17,1.11-0.31,1.7-0.42V171.57z"/>
	<path class="st7" d="M153.14,156.07"/>
	<path class="st6" d="M165.98,156.07"/>
	<path class="st5" d="M162.75,155.66c0.59,0.11,1.16,0.25,1.7,0.42v7.63c-0.54-0.17-1.11-0.31-1.7-0.42V155.66z"/>
	<path class="st5" d="M161.77,163.14c-0.55-0.07-1.12-0.11-1.7-0.13v-7.63c0.28,0.01,0.56,0.02,0.83,0.04   c0.29,0.02,0.59,0.05,0.87,0.09V163.14z"/>
	<path class="st5" d="M157.37,163.14c0.55-0.07,1.12-0.11,1.71-0.13v-7.63c-0.58,0.02-1.15,0.06-1.71,0.13V163.14z"/>
	<path class="st5" d="M154.68,163.72c0.54-0.17,1.11-0.31,1.7-0.42v-7.63c-0.59,0.11-1.16,0.25-1.7,0.42V163.72z"/>
	<path class="st5" d="M153.14,149.46c0.37-0.17,0.75-0.32,1.16-0.46v0.92L153.14,149.46z"/>
	<path class="st5" d="M159.07,152.14c-0.58,0.02-1.15,0.06-1.71,0.13v-3.97c0.55-0.07,1.12-0.11,1.71-0.13V152.14z"/>
	<path class="st5" d="M161.77,148.29c-0.55-0.07-1.12-0.11-1.7-0.13v3.97c0.58,0.02,1.15,0.06,1.7,0.13V148.29z"/>
	<path class="st5" d="M162.75,148.45c0.59,0.11,1.16,0.25,1.7,0.42v3.97c-0.54-0.17-1.11-0.31-1.7-0.42V148.45z"/>
	<path class="st5" d="M156.38,152.42c-0.59,0.11-1.16,0.25-1.7,0.42v-3.97c0.54-0.17,1.11-0.31,1.7-0.42L156.38,152.42z"/>
	<path class="st5" d="M164.84,148.99c0.41,0.14,0.8,0.3,1.17,0.47l-1.17,0.45V148.99z"/>
	<path class="st5" d="M153.14,156.67c0.37-0.17,0.75-0.32,1.16-0.46v0.92L153.14,156.67z"/>
	<path class="st5" d="M164.84,156.21c0.41,0.14,0.8,0.3,1.17,0.47l-1.17,0.45V156.21z"/>
	<path class="st5" d="M166.01,146.88c-1.77-0.82-4.01-1.31-6.45-1.31c-2.43,0-4.66,0.49-6.43,1.3v1.66c1.77-0.82,4-1.3,6.43-1.3   c2.44,0,4.68,0.49,6.45,1.31V146.88z"/>
	<path class="st5" d="M166.01,154.16c-1.77-0.82-4.01-1.31-6.45-1.31c-2.43,0-4.66,0.49-6.43,1.3v1.66c1.77-0.82,4-1.3,6.43-1.3   c2.44,0,4.68,0.49,6.45,1.31V154.16z"/>
	<path class="st5" d="M166.01,146.15c-1.77-0.82-4.01-1.31-6.45-1.31c-2.43,0-4.66,0.49-6.43,1.3l5.11-4.87   c0.43-0.03,0.88-0.05,1.32-0.05c0.45,0,0.89,0.02,1.33,0.05L166.01,146.15z"/>
	<path class="st5" d="M158.24,139.92c0,0.32,0,0.8,0,0.8c0.43-0.03,0.88-0.05,1.32-0.05c0.45,0,0.89,0.02,1.33,0.05   c0,0,0-0.47,0-0.8c0-0.3-0.66-0.31-0.83-0.32c-0.16,0-0.33-0.01-0.49-0.01c-0.17,0-0.33,0-0.5,0.01   C158.89,139.61,158.24,139.6,158.24,139.92z"/>
	<path class="st5" d="M164.46,171.99c-0.54-0.17-1.11-0.31-1.7-0.42v-7.43c0.59,0.11,1.16,0.25,1.7,0.42V171.99z"/>
	<path class="st5" d="M161.77,171.42c-0.55-0.07-1.12-0.11-1.7-0.13v-7.43c0.58,0.02,1.15,0.06,1.7,0.13L161.77,171.42z"/>
	<path class="st5" d="M159.07,171.29c-0.58,0.02-1.15,0.06-1.71,0.13v-7.43c0.55-0.07,1.12-0.11,1.71-0.13V171.29z"/>
	<path class="st5" d="M156.38,171.57c-0.59,0.11-1.16,0.25-1.7,0.42v-7.43c0.54-0.17,1.11-0.31,1.7-0.42V171.57z"/>
	<path class="st5" d="M164.46,182.42c-0.57-0.2-1.14-0.39-1.72-0.56c0-0.45,0.02-3.67,0.02-3.67v-5.72c0,0,1.16,0.25,1.7,0.42v5.29   V182.42z M161.77,181.59c-0.57-0.15-1.14-0.29-1.71-0.41c0-0.44,0.01-2.69,0.01-2.69v-6.3c0,0,1.15,0.06,1.7,0.13v6.17   L161.77,181.59z M159.09,178.49l-0.02-6.3c-0.58,0.02-1.71,0.13-1.71,0.13v6.17c0,0-0.02,1.62-0.02,2.19   c0.59,0.09,1.17,0.19,1.75,0.3 M156.38,178.82v-6.34c-0.59,0.11-1.7,0.42-1.7,0.42v6.59c0,0,0.01,0.13,0.01,0.89   c0.56,0.05,1.13,0.11,1.69,0.18 M30.81,177.8l0-4.9c-0.54-0.17-1.7-0.42-1.7-0.42v5.33l-0.01,2.94c0,0,1.13-0.18,1.7-0.27   L30.81,177.8z M28.12,172.32c-0.55-0.07-1.7-0.13-1.7-0.13v5.86c0,0-0.01,2.73-0.01,3.21c0.56-0.12,1.12-0.24,1.7-0.35   L28.12,172.32z M25.44,181.49c-0.59,0.14-1.17,0.28-1.74,0.43c0-0.41,0.01-3.86,0.01-3.86v-5.73c0,0,1.12-0.11,1.71-0.13l0.02,5.86   L25.44,181.49z M22.72,182.19c-0.58,0.16-1.15,0.33-1.69,0.5c0-0.99,0-3.74,0-3.74v-6.05c0,0,1.11-0.31,1.7-0.42v5.8L22.72,182.19z   "/>
	<path class="st5" d="M106.16,178.74c-1.68,6.02-7.21,10.43-13.76,10.43c-6.56,0-12.08-4.42-13.76-10.44l-3.14-0.01v11.74   l-0.01,2.83c5.9,2.56,11.81,4.44,18.23,4.44c0.04,0,0.09,0,0.13,0c5.6-0.02,10.64-1.1,15.63-3.03l0.03-16L106.16,178.74z"/>
</g>
<g id="New_Ball">
	<path class="st2" d="M86.91,179.76c2.3,1.26,4.5,1.84,5.95,2.11c0.03,0,0.06,0.01,0.08,0.01c0.1,0,0.2-0.04,0.28-0.1   c0.1-0.08,0.17-0.2,0.17-0.34c0.1-2.45-0.45-4.62-0.68-5.44c-0.04-0.12-0.12-0.23-0.24-0.28c-2.93-1.42-5.3-2.97-7.04-4.63   c-1.28-1.21-2.2-2.44-2.75-3.67c-0.07-0.15-0.21-0.25-0.37-0.27c-0.16-0.02-0.32,0.06-0.41,0.19c-0.97,1.39-1.68,3-2.05,4.66   c-0.02,0.1-0.01,0.2,0.03,0.29C81.33,175.49,83.7,178,86.91,179.76"/>
	<path class="st2" d="M86.03,170.38c0.09,0.08,0.2,0.12,0.31,0.12h0.04c0.13-0.01,0.25-0.08,0.33-0.18c3.42-4.61,7.16-6.33,9.7-6.95   c0.2-0.05,0.34-0.22,0.35-0.42c0.01-0.2-0.12-0.39-0.31-0.45c-1.29-0.42-2.63-0.63-4-0.63c-1.74,0-3.43,0.35-5.05,1.03   c-1.54,0.65-2.91,1.58-4.08,2.76c-0.11,0.11-0.16,0.27-0.12,0.43C83.38,166.85,83.99,168.43,86.03,170.38"/>
	<path class="st2" d="M87.37,170.98c-0.14,0.2-0.11,0.48,0.09,0.63c1.41,1.1,3.13,2.15,5.12,3.14c0.06,0.03,0.13,0.05,0.2,0.05   c0.13,0,0.26-0.06,0.34-0.16c1.19-1.38,4.57-4.68,10.23-5.55c0.15-0.02,0.28-0.12,0.34-0.25c0.06-0.13,0.06-0.29-0.01-0.42   c-1-1.76-2.41-3.28-4.09-4.39c-0.07-0.05-0.15-0.07-0.24-0.08c-0.51-0.01-2.43,0.02-4.87,1.09   C91.79,166.21,89.4,168.21,87.37,170.98"/>
	<path class="st2" d="M104.51,170.2c-0.08-0.2-0.27-0.32-0.48-0.29c-1,0.12-1.99,0.33-2.93,0.63c-0.12,0.04-0.21,0.12-0.27,0.22   c-0.05,0.11-0.07,0.23-0.03,0.35c0.33,1.03,0.91,3.12,1.01,5.58c0.06,1.56-0.07,3.05-0.4,4.42c-0.22,0.91-0.53,1.79-0.92,2.61   c-0.09,0.2-0.04,0.43,0.14,0.56c0.08,0.06,0.18,0.09,0.27,0.09c0.11,0,0.22-0.04,0.31-0.12c1.4-1.29,2.48-2.85,3.2-4.64   C105.64,176.6,105.67,173.25,104.51,170.2"/>
	<path class="st2" d="M93.11,182.99c-0.07-0.1-0.17-0.17-0.29-0.19c-1.41-0.26-3.58-0.81-5.89-2c-2.74-1.41-4.94-3.34-6.54-5.72   c-0.11-0.17-0.33-0.24-0.52-0.18c-0.19,0.07-0.32,0.25-0.31,0.45c0.06,1.54,0.4,3.05,1.01,4.49c0.9,2.13,2.36,3.97,4.22,5.34   c1.78,1.31,3.88,2.14,6.08,2.42c0.02,0,0.04,0,0.06,0c0.13,0,0.25-0.06,0.34-0.16c0.96-1.11,1.61-2.49,1.92-4.11   C93.2,183.21,93.18,183.09,93.11,182.99"/>
	<path class="st2" d="M99.96,171.48c-0.04-0.12-0.13-0.22-0.25-0.28c-0.12-0.05-0.25-0.05-0.37,0c-3.08,1.38-4.97,3.37-5.64,4.17   c-0.1,0.12-0.13,0.28-0.09,0.42c0.25,0.85,0.68,2.6,0.73,4.67c0.03,1.3-0.1,2.52-0.38,3.63c-0.27,1.06-0.68,2.03-1.23,2.89   c-0.09,0.14-0.09,0.33-0.01,0.48c0.08,0.14,0.23,0.22,0.39,0.22h0.03c1.3-0.07,2.59-0.35,3.85-0.83c0.06-0.02,0.11-0.05,0.15-0.09   c1.34-1.25,2.33-2.75,2.96-4.46c0.53-1.43,0.8-3.02,0.82-4.73C100.94,174.92,100.33,172.62,99.96,171.48"/>
</g>
<g id="_x31_861">
	<g>
		<path class="st0" d="M87.31,195.26v-3.84l-0.96,0.37l-0.1-0.7l1.16-0.54h0.79v4.71H87.31z"/>
		<path class="st0" d="M89.22,191.71c0-0.75,0.65-1.25,1.59-1.25c0.96,0,1.55,0.51,1.55,1.19c0,0.49-0.31,0.86-0.77,1.13    c0.59,0.29,0.92,0.61,0.92,1.24c0,0.76-0.66,1.33-1.73,1.33c-1.13,0-1.73-0.6-1.73-1.31c0-0.53,0.36-0.95,0.91-1.25    C89.52,192.56,89.22,192.24,89.22,191.71z M89.91,193.98c0,0.45,0.38,0.71,0.9,0.71c0.5,0,0.86-0.26,0.86-0.67    c0-0.43-0.27-0.61-1.08-0.94C90.18,193.3,89.91,193.61,89.91,193.98z M91.54,191.7c0-0.36-0.28-0.59-0.75-0.59    c-0.48,0-0.74,0.26-0.74,0.59c0,0.35,0.25,0.54,0.92,0.81C91.33,192.29,91.54,192.03,91.54,191.7z"/>
		<path class="st0" d="M95.14,192.33c0.81,0,1.39,0.52,1.39,1.43c0,0.95-0.72,1.59-1.68,1.59c-1.02,0-1.75-0.69-1.75-1.99    c0-1.66,1.11-2.56,2.63-2.9l0.11,0.74c-0.92,0.22-1.66,0.64-1.87,1.48C94.31,192.47,94.68,192.33,95.14,192.33z M94.86,194.66    c0.49,0,0.82-0.32,0.82-0.85c0-0.51-0.26-0.79-0.82-0.79c-0.34,0-0.65,0.12-0.94,0.34C93.93,194.19,94.31,194.66,94.86,194.66z"/>
		<path class="st0" d="M97.84,195.26v-3.84l-0.96,0.37l-0.1-0.7l1.16-0.54h0.79v4.71H97.84z"/>
	</g>
</g>
</svg>