<?xml version="1.0" encoding="UTF-8"?>
<svg id="Layer_1" data-name="Layer 1" xmlns="http://www.w3.org/2000/svg" viewBox="0 0 504.03 141.73">
  <defs>
    <style>
      .cls-1 {
        fill: #d0ad67;
      }

      .cls-2 {
        fill: #ed1b2f;
      }
    </style>
  </defs>
  <g>
    <polygon class="cls-2" points="464.63 66.78 479.68 20.57 440.22 49.12 400.74 20.57 415.8 66.79 376.42 95.29 425.09 95.29 440.21 141.73 455.34 95.29 504.03 95.29 464.63 66.78"/>
    <g>
      <polygon class="cls-1" points="429.23 12.72 435.92 7.88 427.66 7.88 425.09 0 422.52 7.88 414.26 7.88 420.95 12.72 418.39 20.57 425.09 15.72 431.79 20.57 429.23 12.72"/>
      <polygon class="cls-1" points="459.5 12.72 466.19 7.88 457.93 7.88 455.36 0 452.79 7.88 444.53 7.88 451.22 12.72 448.66 20.57 455.36 15.72 462.06 20.57 459.5 12.72"/>
    </g>
  </g>
  <g>
    <path class="cls-2" d="M49.02,50.7v14.71c-6.82-6.93-15.24-10.76-22.81-10.76s-11.83,2.98-11.83,7.99c0,4.26,2.56,6.82,8.53,8.95l10.44,3.62c13.11,4.48,18.65,10.98,18.65,21.95,0,13.53-11.3,22.59-27.5,22.59-10.44,0-19.08-4.58-24.09-10.02v-15.03c7.35,8.21,16.31,12.47,24.3,12.47s12.9-3.41,12.9-9.27c0-4.9-2.98-7.46-9.7-9.8l-9.7-3.41C5.44,80.11,0,73.83,0,63.28c0-12.58,10.87-21.1,26.43-21.1,8.31,0,17.26,3.41,22.59,8.53Z"/>
    <path class="cls-2" d="M62.54,54.32l-4.8-10.87h18.65v62.34h32.61l-4.69,12.68H62.54V54.32Z"/>
    <path class="cls-2" d="M154.84,43.45l33.78,75.03h-15.56l-5.33-12.15h-33.68l-5.33,12.15h-15.45l30.16-67.35-3.41-7.67h14.81Zm7.25,50.2l-11.3-25.68-11.19,25.68h22.49Z"/>
    <path class="cls-2" d="M255.13,43.45l-31.33,75.03h-14.6l-31.33-75.03h15.13l23.55,56.7,23.66-56.7h14.92Z"/>
    <path class="cls-2" d="M279.97,118.48h-13.32V54.32l-4.8-10.87h18.12V118.48Z"/>
    <path class="cls-2" d="M330.48,43.45l33.78,75.03h-15.56l-5.33-12.15h-33.68l-5.33,12.15h-15.45l30.16-67.35-3.41-7.67h14.81Zm7.25,50.2l-11.3-25.68-11.19,25.68h22.49Z"/>
  </g>
</svg>