<svg width="153" height="46" viewBox="0 0 153 46" fill="none" xmlns="http://www.w3.org/2000/svg">
<path d="M146.867 0.665039H6.24219C3.13559 0.665039 0.617188 3.18344 0.617188 6.29004V40.04C0.617188 43.1466 3.13559 45.665 6.24219 45.665H146.867C149.974 45.665 152.492 43.1466 152.492 40.04V6.29004C152.492 3.18344 149.974 0.665039 146.867 0.665039Z" fill="#000021"/>
<path d="M146.867 1.56504C148.12 1.56504 149.322 2.06285 150.208 2.94896C151.094 3.83507 151.592 5.03689 151.592 6.29004V40.04C151.592 41.2932 151.094 42.495 150.208 43.3811C149.322 44.2672 148.12 44.765 146.867 44.765H6.24219C4.98904 44.765 3.78722 44.2672 2.90111 43.3811C2.015 42.495 1.51719 41.2932 1.51719 40.04V6.29004C1.51719 5.03689 2.015 3.83507 2.90111 2.94896C3.78722 2.06285 4.98904 1.56504 6.24219 1.56504H146.867ZM146.867 0.665039H6.24219C4.75034 0.665039 3.3196 1.25767 2.26471 2.31256C1.20982 3.36746 0.617188 4.7982 0.617188 6.29004V40.04C0.617188 41.5319 1.20982 42.9626 2.26471 44.0175C3.3196 45.0724 4.75034 45.665 6.24219 45.665H146.867C148.359 45.665 149.79 45.0724 150.845 44.0175C151.9 42.9626 152.492 41.5319 152.492 40.04V6.29004C152.492 4.7982 151.9 3.36746 150.845 2.31256C149.79 1.25767 148.359 0.665039 146.867 0.665039Z" fill="white"/>
<path d="M36.7443 22.392C36.7132 18.9372 39.5731 17.2565 39.7038 17.1782C38.0842 14.8168 35.5738 14.4941 34.6916 14.4684C32.5832 14.2465 30.538 15.7301 29.4639 15.7301C28.3684 15.7301 26.7145 14.4899 24.9319 14.5263C22.638 14.5617 20.492 15.8898 19.3151 17.9521C16.8862 22.1572 18.6977 28.3368 21.0248 31.7358C22.1889 33.4004 23.5491 35.2591 25.3296 35.1937C27.0714 35.1219 27.7221 34.0833 29.8241 34.0833C31.9068 34.0833 32.5178 35.1937 34.3336 35.1519C36.203 35.1219 37.3799 33.4798 38.5033 31.8001C39.8485 29.8921 40.3888 28.013 40.4102 27.9166C40.3663 27.9016 36.7797 26.5327 36.7443 22.392Z" fill="white"/>
<path d="M33.3142 12.2326C34.251 11.061 34.892 9.46712 34.7141 7.84961C33.3581 7.90964 31.6624 8.78753 30.6859 9.9334C29.8219 10.9431 29.0501 12.5982 29.2495 14.1546C30.7727 14.2682 32.3366 13.386 33.3142 12.2326Z" fill="white"/>
<path d="M61.9521 34.9549H59.5178L58.1843 30.7648H53.5494L52.2792 34.9549H49.9092L54.5012 20.6899H57.3375L61.9521 34.9549ZM57.7823 29.0069L56.5764 25.282C56.4489 24.9015 56.2099 24.0053 55.8572 22.5947H55.8143C55.6739 23.2014 55.4477 24.0975 55.1369 25.282L53.9524 29.0069H57.7823V29.0069Z" fill="white"/>
<path d="M73.761 29.6852C73.761 31.4346 73.2882 32.8173 72.3428 33.8324C71.496 34.736 70.4445 35.1873 69.1893 35.1873C67.8344 35.1873 66.8611 34.7007 66.2683 33.7274H66.2255V39.1459H63.9401V28.0548C63.9401 26.9551 63.9112 25.8263 63.8555 24.6687H65.8653L65.9929 26.2991H66.0357C66.7979 25.0707 67.9544 24.4575 69.5066 24.4575C70.72 24.4575 71.7329 24.9367 72.5433 25.896C73.3558 26.8564 73.761 28.1192 73.761 29.6852ZM71.4328 29.7688C71.4328 28.7677 71.2077 27.9423 70.7553 27.2927C70.2612 26.6153 69.5977 26.2765 68.7659 26.2765C68.202 26.2765 67.6897 26.4652 67.232 26.8372C66.7732 27.2123 66.4731 27.7022 66.3326 28.3089C66.2619 28.5919 66.2265 28.8234 66.2265 29.0056V30.7207C66.2265 31.4689 66.4559 32.1002 66.9147 32.6158C67.3735 33.1314 67.9694 33.3886 68.7026 33.3886C69.5634 33.3886 70.2333 33.0564 70.7125 32.3939C71.1927 31.7304 71.4328 30.8557 71.4328 29.7688Z" fill="white"/>
<path d="M85.5919 29.6852C85.5919 31.4346 85.1192 32.8173 84.1727 33.8324C83.327 34.736 82.2754 35.1873 81.0202 35.1873C79.6654 35.1873 78.6921 34.7007 78.1004 33.7274H78.0575V39.1459H75.7722V28.0548C75.7722 26.9551 75.7432 25.8263 75.6875 24.6687H77.6973L77.8249 26.2991H77.8678C78.6288 25.0707 79.7854 24.4575 81.3386 24.4575C82.5509 24.4575 83.5639 24.9367 84.3764 25.896C85.1857 26.8564 85.5919 28.1192 85.5919 29.6852ZM83.2637 29.7688C83.2637 28.7677 83.0376 27.9423 82.5852 27.2927C82.0911 26.6153 81.4297 26.2765 80.5968 26.2765C80.0319 26.2765 79.5206 26.4652 79.0619 26.8372C78.6031 27.2123 78.304 27.7022 78.1636 28.3089C78.0939 28.5919 78.0575 28.8234 78.0575 29.0056V30.7207C78.0575 31.4689 78.2869 32.1002 78.7435 32.6158C79.2023 33.1303 79.7983 33.3886 80.5336 33.3886C81.3943 33.3886 82.0643 33.0564 82.5434 32.3939C83.0236 31.7304 83.2637 30.8557 83.2637 29.7688Z" fill="white"/>
<path d="M98.8194 30.9546C98.8194 32.168 98.3981 33.1552 97.5524 33.9173C96.623 34.7502 95.3293 35.1661 93.6667 35.1661C92.1318 35.1661 90.9012 34.8702 89.9697 34.2775L90.4993 32.3727C91.5026 32.9794 92.6034 33.2838 93.8029 33.2838C94.6636 33.2838 95.3335 33.0887 95.8148 32.7007C96.294 32.3127 96.533 31.7917 96.533 31.1421C96.533 30.5633 96.3358 30.0756 95.9402 29.6801C95.5468 29.2845 94.8898 28.9169 93.9722 28.5771C91.4747 27.6456 90.227 26.281 90.227 24.4867C90.227 23.314 90.6643 22.3525 91.5401 21.6043C92.4126 20.8551 93.5767 20.481 95.0323 20.481C96.3304 20.481 97.4087 20.7071 98.2695 21.1584L97.6982 23.0214C96.8942 22.584 95.9853 22.3654 94.968 22.3654C94.1641 22.3654 93.536 22.5637 93.0858 22.9581C92.7052 23.3108 92.5144 23.7406 92.5144 24.2498C92.5144 24.8136 92.732 25.2799 93.1694 25.6465C93.5499 25.9852 94.2413 26.3518 95.2446 26.7473C96.4719 27.2415 97.3734 27.8192 97.9533 28.4817C98.531 29.142 98.8194 29.9684 98.8194 30.9546Z" fill="white"/>
<path d="M106.375 26.3839H103.856V31.378C103.856 32.6482 104.3 33.2827 105.19 33.2827C105.598 33.2827 105.937 33.2474 106.205 33.1766L106.268 34.912C105.818 35.0803 105.225 35.165 104.491 35.165C103.588 35.165 102.883 34.8895 102.374 34.3396C101.867 33.7887 101.612 32.8647 101.612 31.5666V26.3818H100.111V24.6667H101.612V22.7834L103.856 22.106V24.6667H106.375V26.3839Z" fill="white"/>
<path d="M117.74 29.7274C117.74 31.3085 117.288 32.6065 116.385 33.6216C115.439 34.6668 114.183 35.1877 112.617 35.1877C111.107 35.1877 109.906 34.6871 109.01 33.686C108.114 32.6848 107.666 31.421 107.666 29.8978C107.666 28.3039 108.126 26.9983 109.052 25.9832C109.974 24.9671 111.22 24.459 112.786 24.459C114.295 24.459 115.51 24.9596 116.426 25.9618C117.303 26.934 117.74 28.1892 117.74 29.7274ZM115.369 29.8014C115.369 28.8527 115.167 28.0392 114.756 27.3606C114.277 26.5396 113.592 26.1301 112.705 26.1301C111.786 26.1301 111.088 26.5406 110.609 27.3606C110.198 28.0402 109.996 28.8667 109.996 29.8442C109.996 30.7929 110.198 31.6065 110.609 32.2839C111.103 33.105 111.793 33.5145 112.684 33.5145C113.557 33.5145 114.242 33.0964 114.736 32.2625C115.157 31.5711 115.369 30.7489 115.369 29.8014Z" fill="white"/>
<path d="M125.169 26.6785C124.943 26.6367 124.701 26.6153 124.448 26.6153C123.644 26.6153 123.023 26.9186 122.585 27.5264C122.205 28.0623 122.014 28.7398 122.014 29.5577V34.9547H119.73L119.751 27.908C119.751 26.7225 119.722 25.643 119.666 24.6698H121.656L121.74 26.6378H121.803C122.044 25.9614 122.425 25.4169 122.946 25.0085C123.455 24.6408 124.005 24.4575 124.597 24.4575C124.809 24.4575 124.999 24.4725 125.169 24.4993V26.6785Z" fill="white"/>
<path d="M135.389 29.3253C135.389 29.7348 135.362 30.0799 135.306 30.3618H128.45C128.477 31.378 128.808 32.1551 129.444 32.6911C130.022 33.1702 130.769 33.4103 131.687 33.4103C132.702 33.4103 133.628 33.2485 134.461 32.9237L134.819 34.5101C133.846 34.9346 132.697 35.1458 131.371 35.1458C129.776 35.1458 128.524 34.6763 127.613 33.7383C126.704 32.8004 126.248 31.5409 126.248 29.9609C126.248 28.4099 126.671 27.1182 127.519 26.0881C128.407 24.9884 129.606 24.4385 131.116 24.4385C132.598 24.4385 133.72 24.9884 134.482 26.0881C135.086 26.9617 135.389 28.0422 135.389 29.3253ZM133.21 28.7325C133.225 28.0551 133.076 27.4698 132.766 26.9757C132.371 26.34 131.763 26.0228 130.945 26.0228C130.198 26.0228 129.59 26.3325 129.126 26.9542C128.746 27.4484 128.519 28.0412 128.45 28.7315H133.21V28.7325Z" fill="white"/>
<path d="M57.027 11.9144C57.027 13.176 56.6487 14.1257 55.893 14.7635C55.193 15.352 54.1983 15.6467 52.9098 15.6467C52.271 15.6467 51.7243 15.6189 51.2666 15.5631V8.6697C51.8637 8.57323 52.5068 8.52393 53.2014 8.52393C54.4287 8.52393 55.3538 8.79083 55.9776 9.32464C56.6765 9.92812 57.027 10.791 57.027 11.9144ZM55.8426 11.9455C55.8426 11.1276 55.6261 10.5005 55.193 10.0632C54.76 9.62692 54.1275 9.40825 53.2947 9.40825C52.9409 9.40825 52.6397 9.43183 52.39 9.48114V14.7217C52.5282 14.7431 52.7812 14.7528 53.1489 14.7528C54.0085 14.7528 54.6721 14.5137 55.1394 14.0357C55.6068 13.5576 55.8426 12.8609 55.8426 11.9455Z" fill="white"/>
<path d="M63.3074 13.0163C63.3074 13.7934 63.0855 14.4301 62.6417 14.9296C62.1765 15.4431 61.5602 15.6993 60.7906 15.6993C60.0488 15.6993 59.4582 15.4538 59.0176 14.9607C58.5781 14.4687 58.3584 13.8481 58.3584 13.0999C58.3584 12.3174 58.5846 11.6753 59.0391 11.1769C59.4935 10.6785 60.1045 10.4287 60.8742 10.4287C61.6159 10.4287 62.2119 10.6742 62.6632 11.1662C63.0919 11.6443 63.3074 12.2617 63.3074 13.0163ZM62.1422 13.0527C62.1422 12.5865 62.0415 12.1866 61.841 11.8533C61.6052 11.4502 61.2697 11.2487 60.8334 11.2487C60.3822 11.2487 60.0391 11.4502 59.8033 11.8533C59.6018 12.1866 59.5021 12.5929 59.5021 13.0731C59.5021 13.5394 59.6029 13.9392 59.8033 14.2726C60.0467 14.6756 60.3854 14.8771 60.8227 14.8771C61.2515 14.8771 61.5881 14.6724 61.8303 14.2619C62.0383 13.9221 62.1422 13.519 62.1422 13.0527Z" fill="white"/>
<path d="M71.7284 10.5312L70.1473 15.5842H69.1183L68.4633 13.39C68.2972 12.8423 68.1621 12.2978 68.0571 11.7575H68.0367C67.9392 12.3128 67.8041 12.8562 67.6305 13.39L66.9348 15.5842H65.894L64.4072 10.5312H65.5617L66.133 12.9334C66.2713 13.5015 66.3849 14.0428 66.476 14.5552H66.4964C66.58 14.1329 66.7183 13.5948 66.9133 12.9441L67.6305 10.5323H68.5459L69.233 12.8927C69.3991 13.4683 69.5342 14.0225 69.6381 14.5563H69.6692C69.7453 14.0364 69.86 13.4822 70.0122 12.8927L70.6254 10.5323H71.7284V10.5312Z" fill="white"/>
<path d="M77.5522 15.5844H76.4288V12.6902C76.4288 11.7984 76.0901 11.3525 75.4105 11.3525C75.0771 11.3525 74.8081 11.4747 74.5991 11.7202C74.3922 11.9656 74.2871 12.255 74.2871 12.5863V15.5833H73.1638V11.9753C73.1638 11.5315 73.1498 11.0502 73.123 10.5293H74.1103L74.1628 11.3193H74.1939C74.3247 11.0738 74.5197 10.8712 74.7759 10.7093C75.0803 10.5207 75.4212 10.4253 75.7942 10.4253C76.2659 10.4253 76.6582 10.5775 76.9701 10.883C77.3581 11.2571 77.5522 11.8156 77.5522 12.5573V15.5844V15.5844Z" fill="white"/>
<path d="M80.6496 15.5844H79.5273V8.21289H80.6496V15.5844Z" fill="white"/>
<path d="M87.2635 13.0163C87.2635 13.7934 87.0416 14.4301 86.5978 14.9296C86.1326 15.4431 85.5152 15.6993 84.7466 15.6993C84.0038 15.6993 83.4132 15.4538 82.9737 14.9607C82.5342 14.4687 82.3145 13.8481 82.3145 13.0999C82.3145 12.3174 82.5406 11.6753 82.9951 11.1769C83.4496 10.6785 84.0606 10.4287 84.8291 10.4287C85.572 10.4287 86.1669 10.6742 86.6192 11.1662C87.048 11.6443 87.2635 12.2617 87.2635 13.0163ZM86.0972 13.0527C86.0972 12.5865 85.9965 12.1866 85.796 11.8533C85.5613 11.4502 85.2247 11.2487 84.7895 11.2487C84.3371 11.2487 83.9941 11.4502 83.7594 11.8533C83.5579 12.1866 83.4582 12.5929 83.4582 13.0731C83.4582 13.5394 83.5589 13.9392 83.7594 14.2726C84.0027 14.6756 84.3414 14.8771 84.7788 14.8771C85.2075 14.8771 85.543 14.6724 85.7853 14.2619C85.9943 13.9221 86.0972 13.519 86.0972 13.0527Z" fill="white"/>
<path d="M92.7 15.5846H91.6914L91.6078 15.0025H91.5767C91.2315 15.4667 90.7395 15.6993 90.1007 15.6993C89.6237 15.6993 89.2378 15.546 88.9473 15.2416C88.6836 14.965 88.5518 14.6209 88.5518 14.2125C88.5518 13.5951 88.809 13.1246 89.3267 12.7987C89.8434 12.4728 90.5702 12.3131 91.5059 12.3206V12.2263C91.5059 11.5606 91.1565 11.2284 90.4565 11.2284C89.9581 11.2284 89.5186 11.3538 89.1392 11.6024L88.9108 10.865C89.3803 10.5745 89.9602 10.4287 90.6441 10.4287C91.9647 10.4287 92.6272 11.1255 92.6272 12.5189V14.3798C92.6272 14.8846 92.6518 15.2866 92.7 15.5846ZM91.5338 13.8481V13.0688C90.2947 13.0474 89.6751 13.3872 89.6751 14.0871C89.6751 14.3508 89.7459 14.548 89.8906 14.6799C90.0353 14.8117 90.2196 14.8771 90.4394 14.8771C90.6859 14.8771 90.9164 14.7989 91.1265 14.6434C91.3376 14.487 91.4673 14.2886 91.5156 14.0453C91.5274 13.9907 91.5338 13.9242 91.5338 13.8481Z" fill="white"/>
<path d="M99.0829 15.5844H98.086L98.0335 14.773H98.0024C97.684 15.3904 97.1416 15.6991 96.3795 15.6991C95.7707 15.6991 95.2637 15.4601 94.8617 14.982C94.4597 14.5039 94.2593 13.8833 94.2593 13.1212C94.2593 12.3033 94.4769 11.6408 94.9142 11.1349C95.3376 10.6633 95.8564 10.4275 96.4738 10.4275C97.1524 10.4275 97.6272 10.6558 97.8973 11.1135H97.9188V8.21289H99.0432V14.2231C99.0432 14.7151 99.0561 15.1685 99.0829 15.5844ZM97.9188 13.4534V12.6109C97.9188 12.4651 97.9081 12.3472 97.8877 12.2572C97.8244 11.9871 97.6883 11.7598 97.4814 11.5765C97.2724 11.3932 97.0205 11.3011 96.73 11.3011C96.3109 11.3011 95.9829 11.4672 95.7417 11.8006C95.5027 12.1339 95.3816 12.5595 95.3816 13.0793C95.3816 13.5789 95.4963 13.984 95.7267 14.296C95.97 14.6283 96.298 14.7944 96.7086 14.7944C97.0773 14.7944 97.3721 14.6561 97.5961 14.3785C97.8127 14.1223 97.9188 13.8136 97.9188 13.4534Z" fill="white"/>
<path d="M108.691 13.0163C108.691 13.7934 108.469 14.4301 108.025 14.9296C107.56 15.4431 106.945 15.6993 106.174 15.6993C105.433 15.6993 104.843 15.4538 104.401 14.9607C103.961 14.4687 103.742 13.8481 103.742 13.0999C103.742 12.3174 103.968 11.6753 104.422 11.1769C104.877 10.6785 105.488 10.4287 106.259 10.4287C106.999 10.4287 107.596 10.6742 108.046 11.1662C108.475 11.6443 108.691 12.2617 108.691 13.0163ZM107.527 13.0527C107.527 12.5865 107.426 12.1866 107.225 11.8533C106.989 11.4502 106.654 11.2487 106.217 11.2487C105.767 11.2487 105.424 11.4502 105.187 11.8533C104.985 12.1866 104.885 12.5929 104.885 13.0731C104.885 13.5394 104.986 13.9392 105.187 14.2726C105.43 14.6756 105.769 14.8771 106.206 14.8771C106.635 14.8771 106.972 14.6724 107.215 14.2619C107.422 13.9221 107.527 13.519 107.527 13.0527Z" fill="white"/>
<path d="M114.731 15.5844H113.608V12.6902C113.608 11.7984 113.27 11.3525 112.589 11.3525C112.256 11.3525 111.987 11.4747 111.779 11.7202C111.571 11.9656 111.467 12.255 111.467 12.5863V15.5833H110.342V11.9753C110.342 11.5315 110.33 11.0502 110.303 10.5293H111.289L111.341 11.3193H111.372C111.504 11.0738 111.699 10.8712 111.955 10.7093C112.26 10.5207 112.6 10.4253 112.974 10.4253C113.444 10.4253 113.837 10.5775 114.149 10.883C114.538 11.2571 114.731 11.8156 114.731 12.5573V15.5844V15.5844Z" fill="white"/>
<path d="M122.291 11.3728H121.054V13.8275C121.054 14.4513 121.274 14.7633 121.709 14.7633C121.91 14.7633 122.078 14.7461 122.209 14.7107L122.238 15.5629C122.016 15.6465 121.725 15.6883 121.366 15.6883C120.922 15.6883 120.577 15.5533 120.327 15.2831C120.076 15.013 119.952 14.5585 119.952 13.9207V11.3728H119.213V10.5314H119.952V9.60524L121.053 9.27295V10.5303H122.29V11.3728H122.291Z" fill="white"/>
<path d="M128.238 15.5844H127.114V12.7117C127.114 11.8059 126.775 11.3525 126.096 11.3525C125.575 11.3525 125.22 11.6151 125.024 12.1404C124.991 12.2508 124.972 12.3858 124.972 12.5445V15.5833H123.85V8.21289H124.972V11.2582H124.993C125.347 10.704 125.854 10.4275 126.511 10.4275C126.976 10.4275 127.361 10.5797 127.667 10.8852C128.047 11.2657 128.238 11.8316 128.238 12.5798V15.5844V15.5844Z" fill="white"/>
<path d="M134.373 12.8189C134.373 13.0205 134.358 13.1898 134.331 13.3281H130.962C130.977 13.8276 131.138 14.2081 131.45 14.4718C131.735 14.7076 132.102 14.8256 132.553 14.8256C133.051 14.8256 133.506 14.7462 133.915 14.5865L134.091 15.3669C133.612 15.5748 133.048 15.6788 132.395 15.6788C131.613 15.6788 130.996 15.4483 130.55 14.9874C130.102 14.5265 129.88 13.908 129.88 13.1319C129.88 12.3698 130.087 11.7352 130.504 11.2293C130.939 10.6891 131.528 10.4189 132.271 10.4189C132.997 10.4189 133.549 10.6891 133.923 11.2293C134.224 11.6581 134.373 12.1887 134.373 12.8189ZM133.301 12.5285C133.309 12.1951 133.235 11.9078 133.083 11.6656C132.888 11.3536 132.591 11.1971 132.189 11.1971C131.823 11.1971 131.524 11.3494 131.295 11.6549C131.109 11.8982 130.998 12.1887 130.962 12.5285H133.301Z" fill="white"/>
</svg>