<svg width="475" height="500" viewBox="0 0 475 500" fill="none" xmlns="http://www.w3.org/2000/svg">
<g clip-path="url(#clip0_625_500)">
<path d="M473.826 95.4007C473.51 94.657 472.846 94.1049 472.046 93.9472L456.159 90.7585C433.117 86.1389 409.422 82.1277 385.704 78.8489C374.538 62.4887 361.051 48.2355 345.592 36.4724C314.201 12.6307 276.861 0.0112681 237.572 0.0112681C210.283 0.0112681 184.018 6.06184 159.467 18.039L158.633 18.4672C145.788 -9.9378 111.93 2.87318 111.93 2.87318C85.5305 11.3124 72.0322 38.309 72.0322 38.309C63.8295 59.762 67.4802 78.1616 67.4802 78.1616L67.514 78.1842C50.9284 80.4038 34.4443 82.9277 18.2756 85.7896L2.02813 88.6741C1.21688 88.8093 0.540838 89.3501 0.214085 90.0937C-0.112669 90.8487 -0.0450644 91.705 0.394362 92.4036L9.2843 106.307C23.8755 129.169 38.8498 152.853 53.7678 176.706L57.7001 182.993C57.824 200.277 60.3592 217.302 65.2492 233.685C61.3845 234.778 57.8353 235.826 54.4664 236.851L43.4807 240.209C42.4441 240.524 41.7455 241.471 41.7455 242.552L41.723 388.217C41.723 388.994 42.0948 389.726 42.7145 390.188C43.3455 390.65 44.1455 390.797 44.8891 390.572L68.0999 383.507C83.908 378.696 97.6992 374.504 111.705 371V432.779C111.705 433.545 112.065 434.278 112.685 434.74C113.304 435.201 114.104 435.348 114.848 435.134L128.955 431.033C148.357 425.399 168.346 421.196 188.401 418.548C201.37 440.644 213.843 462.097 225.482 482.299L234.969 498.772C235.397 499.527 236.209 499.989 237.088 500C237.955 500 238.766 499.538 239.206 498.783L248.794 482.367C261.166 461.184 273.999 439.427 286.923 417.703C309.289 420.272 331.564 424.745 353.164 431.021L367.271 435.123C368.014 435.337 368.814 435.19 369.434 434.728C370.054 434.255 370.414 433.534 370.414 432.768V377.006C382.651 380.544 394.876 384.51 406.413 388.284L426.751 394.943C427.495 395.191 428.317 395.056 428.948 394.605C429.59 394.143 429.962 393.411 429.962 392.622L430.007 246.766C430.007 245.707 429.331 244.761 428.317 244.434L417.636 240.919C414.796 239.983 411.81 239.037 408.588 238.034C414.098 221.111 417.072 203.432 417.433 185.427L421.117 179.602C435.708 156.582 450.412 133.608 464.835 111.288L473.634 97.6767C474.063 97.0006 474.141 96.1443 473.826 95.3894V95.4007ZM460.192 108.302C445.77 130.611 431.044 153.608 416.441 176.65L411.923 183.782C411.686 203.725 408.194 223.116 401.501 241.628C406.312 243.071 411.112 244.569 415.9 246.135L424.475 248.952L424.43 388.374L408.115 383.022C393.557 378.245 379.237 373.637 364.882 369.693V428.644L354.685 425.692C331.542 418.965 307.892 414.323 283.994 411.788L283.205 413.117C269.909 435.449 256.715 457.804 244.028 479.55L237.099 491.403L230.248 479.505C217.494 457.353 204.457 434.965 191.297 412.565C169.709 415.224 148.346 419.596 127.4 425.681L117.214 428.633V363.935C100.674 367.778 84.6065 372.668 66.4548 378.189L47.2327 384.036L47.2553 244.783L56.0776 242.09C61.4409 240.457 66.8267 238.913 72.2125 237.437C66.2295 219.499 63.1986 200.795 63.1986 181.585V181.382L58.4325 173.754C43.4694 149.845 28.4951 126.138 13.9152 103.31L7.50406 93.2599L19.2446 91.1754C37.3287 87.9755 55.6832 85.1924 74.1054 82.8263C73.9364 81.8911 73.7561 80.708 73.5871 79.3334C73.5082 78.7137 73.4406 78.0489 73.373 77.3504C72.5955 69.1252 72.6857 55.334 78.3081 38.9963C78.3081 38.9963 91.0853 17.5433 114.116 8.61953C114.116 8.61953 141.743 -0.923922 152.898 21.453C153.461 22.5798 153.968 23.8192 154.442 25.1149C154.577 25.4868 154.723 25.836 154.858 26.2304L154.915 26.6248C156.075 25.9938 157.236 25.3628 158.408 24.7544L162.013 22.884C185.708 11.335 211.139 5.47593 237.583 5.47593C275.656 5.47593 311.846 17.701 342.257 40.8216C357.998 52.7875 371.597 67.4689 382.515 83.9305C406.864 87.2544 431.224 91.3332 455.077 96.1218L466.547 98.4203L460.204 108.257L460.192 108.302Z" fill="#1D1D1B"/>
<path d="M237.572 13.4983C211.77 13.4983 187.309 19.47 165.484 30.1064L162.047 31.8866C160.267 32.8105 158.509 33.7683 156.763 34.7598L156.177 35.0865L155.602 35.4133L154.656 35.9654L149.608 38.8724C148.988 36.0781 148.121 33.5429 147.073 31.2556C146.96 31.019 146.847 30.7824 146.735 30.5458C146.014 29.0698 145.214 27.7177 144.335 26.467C138.183 17.6447 128.617 14.2532 120.11 16.0334C107.896 20.1573 93.0233 31.8077 86.9728 40.6639C82.2743 50.5679 80.4828 63.0183 80.8884 75.8518C80.8884 76.0659 80.8884 76.28 80.8996 76.494C80.9673 78.3194 81.0912 80.1672 81.2489 82.0038C81.2602 82.1503 81.2715 82.2855 81.294 82.4319C81.5081 84.922 81.7898 87.4121 82.1616 89.8909C61.5987 92.4035 41.0808 95.457 20.6418 99.0851C35.4584 122.285 50.3088 145.8 65.193 169.585C67.2549 155.58 71.1534 142.431 76.5279 130.521C77.1701 131.175 77.8349 131.805 78.511 132.414C77.6659 135.163 76.8659 137.935 76.1674 140.752C72.9111 153.844 71.1647 167.534 71.1647 181.641C71.1647 203.263 75.2547 223.939 82.6574 242.935C74.5449 245.042 66.4549 247.307 58.3875 249.763L55.2101 250.732L55.1875 373.344L64.1226 370.617C86.0939 363.935 104.786 358.257 125.158 354.099V418.075C148.267 411.36 171.805 406.706 195.522 404.092C209.393 427.675 223.263 451.483 237.133 475.561C250.203 453.173 263.284 431.021 276.343 409.072C262.586 405.816 248.637 403.337 234.654 401.636C275.791 401.005 316.996 406.481 356.893 418.075V359.395C374.223 363.733 391.146 369.107 410.571 375.473L416.453 377.411V371.225C416.475 336.77 416.475 302.292 416.475 267.825V254.744L413.399 253.729C405.929 251.273 398.436 248.975 390.921 246.823C399.315 226.767 403.98 204.739 403.98 181.641C403.98 168.638 402.459 155.996 399.687 143.828C398.819 140.031 397.862 136.267 396.746 132.572C395.27 127.693 393.557 122.916 391.653 118.228C400.769 133.845 407.123 152.29 409.704 172.402C424.329 149.315 438.931 126.51 453.488 103.986C428.396 98.9611 403.18 94.7697 377.896 91.412C348.319 44.6187 296.478 13.4983 237.561 13.4983H237.572ZM347.35 61.7564C347.395 61.9592 349.547 70.4773 347.001 73.7335C347.001 73.7335 343.226 78.1503 339.452 79.1982C339.452 79.1982 314.292 36.2245 269.448 21.6108C299.227 27.5712 326.021 41.7793 347.35 61.7564ZM380.893 261.91C385.253 262.067 389.614 262.236 393.963 262.417C397.016 288.151 399.991 313.875 402.819 338.888L402.887 339.463L403.461 339.587C405.005 339.913 406.549 340.24 408.092 340.578V356.003C402.245 354.516 396.34 353.085 390.526 351.767L390.504 336.973L393.557 337.57L392.836 327.688L392.217 327.576C389.242 327.046 386.256 326.528 383.282 326.021L382.425 325.874L381.58 335.283L382.301 335.418C383.101 335.564 383.901 335.711 384.701 335.857L384.724 350.471C378.887 349.198 372.893 347.958 366.888 346.798L366.854 332.736C368.285 332.973 369.727 333.209 371.158 333.446L371.992 333.592L372.093 332.759C375.023 309.537 377.952 285.943 380.893 261.921V261.91ZM376.701 282.732C374.887 282.36 373.017 282.056 371.09 281.808C368.026 281.402 364.893 281.064 361.941 280.535C361.862 280.523 361.783 280.501 361.693 280.489C360.927 280.354 360.206 280.174 359.474 280.005V276.67L364.724 276.985L364.679 259.724L363.902 259.701C356.341 259.453 348.781 259.228 341.221 259.014L340.387 258.991L340.409 265.064C339.204 263.205 338.077 261.279 336.973 259.307V258.912H336.747C331.857 250.158 327.249 240.749 317.627 234.057C321.052 239.093 323.283 243.882 324.365 248.434C316.872 243.859 307.148 241.099 299.002 234.8C297.481 233.629 296.016 232.31 294.63 230.857C293.605 229.775 292.624 228.626 291.701 227.364C290.517 225.741 289.413 223.972 288.422 221.989C291.092 224.198 294.089 225.877 297.345 227.116C298.833 227.679 300.365 228.175 301.965 228.558C302.382 228.66 302.799 228.738 303.227 228.829C305.661 229.336 308.207 229.674 310.878 229.798C310.844 229.775 310.799 229.741 310.765 229.719C308.928 228.513 307.148 227.15 305.435 225.64C304.004 224.378 302.619 223.003 301.278 221.55C295.464 215.24 290.427 207.094 286.078 197.314C287.318 176.312 285.988 160.56 281.797 150.678C283.757 185.28 268.264 213.539 254.451 224.513C252.648 225.944 250.879 227.093 249.178 227.916C244.738 230.057 236.288 226.97 226.215 223.995C217.054 221.291 206.542 218.654 196.458 220.13C197.415 216.356 197.686 212.536 196.041 208.626C195.455 216.108 193.122 218.981 189.99 222.203C188.987 223.24 187.906 224.31 186.768 225.572C185.134 227.398 183.399 229.629 181.652 232.761C180.942 234.034 180.368 235.499 179.917 237.054C177.912 243.949 178.441 252.873 181.314 258.011C175.444 258.09 169.585 258.18 163.715 258.293C164.796 249.437 165.405 237.978 166.554 227.454C166.836 224.851 167.151 222.305 167.523 219.871C167.884 217.46 168.289 215.173 168.762 213.032C170.7 204.266 173.686 198.238 178.757 198.598C216.649 201.336 239.803 183.5 253.662 190.306C244.423 181.393 228.096 188.052 219.623 188.48C219.533 178.249 220.987 168.222 225.246 158.543C221.404 161.698 218.485 166.779 215.759 172.255C214.947 169.179 214.621 166.024 214.688 162.813C214.733 160.887 214.925 158.937 215.252 156.965C216.04 152.244 217.573 147.411 219.691 142.487C212.649 147.377 208.119 154.656 204.367 162.678C204.153 163.151 203.928 163.602 203.714 164.075C203.635 163.771 203.533 163.467 203.443 163.163C201.967 158.103 199.567 153.112 195.218 148.278C196.187 142.611 196.739 136.741 196.21 130.577C208.75 132.346 216.187 129.755 221.753 125.552C225.437 129.034 232.795 129.214 235.972 125.868C249.673 111.412 260.974 102.048 269.808 95.5922C275.059 105.372 278.754 114.735 283.43 124.944C284.129 126.465 284.85 127.997 285.594 129.552C287.723 133.991 290.112 138.611 292.94 143.512C302.923 160.763 314.224 172.469 324.32 181.28C325.852 182.621 327.35 183.894 328.826 185.1C339.08 193.573 347.553 199.263 351.215 205.291C358.009 216.48 360.33 228.964 363.462 239.702C364.307 242.586 365.209 245.347 366.268 247.916C366.696 248.952 367.147 249.944 367.631 250.913C368.375 252.411 369.197 253.842 370.133 255.16C371.631 257.301 373.411 259.172 375.552 260.749C376.634 261.549 377.839 262.236 379.113 262.867C378.301 269.526 377.479 276.152 376.668 282.743L376.701 282.732ZM357.986 330.629V331.316L358.674 331.418C360.195 331.654 361.716 331.891 363.237 332.128L363.271 346.099C356.296 344.792 349.232 343.575 342.235 342.494L342.201 329.052C343.643 329.243 345.097 329.446 346.539 329.649L347.463 329.773L347.316 274.36L342.054 274.09L342.021 260.636C349.04 260.828 356.06 261.042 363.079 261.267L363.113 275.261L357.851 274.946L357.986 330.618V330.629ZM317.289 326.133L316.872 324.939C313.57 315.542 310.28 306.258 306.979 297.086L305.402 292.703L305.492 325.007L308.478 325.277L308.511 338.066C302.551 337.435 296.5 336.871 290.506 336.387L290.484 323.846C291.971 323.948 293.447 324.049 294.934 324.162L295.802 324.229L295.678 272.253L290.371 272.107L290.348 259.555C297.582 259.656 304.827 259.78 312.061 259.927L312.094 272.783L309.571 272.692L310.01 273.83C313.03 281.729 316.061 289.706 319.08 297.785L320.658 302.01L320.534 273.109L317.255 272.985L317.221 260.039C323.272 260.163 329.333 260.31 335.395 260.467L335.429 273.774L330.167 273.526L330.314 327.564L331.024 327.643C332.545 327.824 334.054 328.004 335.576 328.195L335.609 341.48C328.522 340.443 321.311 339.497 314.145 338.685L314.111 325.807L317.311 326.122L317.289 326.133ZM255.791 334.494C253.234 331.181 250.676 327.88 248.118 324.612L248.085 268.94L255.701 259.296C262.248 259.329 268.794 259.386 275.34 259.442C277.909 262.721 280.467 266.022 283.036 269.346L283.149 326.043C280.602 329.153 278.056 332.263 275.509 335.361C268.997 334.978 262.372 334.685 255.791 334.494ZM222.249 322.077C223.319 322.066 224.389 322.043 225.46 322.032H226.26V301.334L223.06 297.312L222.451 297.706C219.466 299.644 216.48 301.604 213.505 303.576L213.145 303.813V322.28L217.178 322.179V334.426C210.531 334.607 203.826 334.877 197.235 335.237L197.258 322.866C198.779 322.798 200.289 322.731 201.81 322.663L202.576 322.629L202.643 271.645L197.336 271.735L197.359 259.363C203.984 259.296 210.598 259.25 217.223 259.217V271.464L213.167 271.521V290.247L214.407 289.424C217.37 287.464 220.333 285.526 223.308 283.599L226.203 279.915V271.408L222.294 271.43V259.194C228.513 259.172 234.733 259.16 240.941 259.183V271.397H236.851L236.896 283.836L231.612 290.529L236.851 297.109V321.976H237.662C238.766 321.976 239.859 321.976 240.952 321.987V334.212C234.8 334.167 228.502 334.19 222.237 334.314V322.077H222.249ZM132.606 232.186C132.662 230.575 132.921 228.772 133.811 228.344C133.811 228.344 134.994 229.775 137.259 231.431C141.214 234.316 148.515 237.888 158.768 235.803C157.675 244.749 156.459 253.47 155.354 262.405C152.098 258.608 148.076 254.867 142.802 251.206C137.642 251.859 134.476 253.166 131.265 254.462C128.944 249.437 126.532 244.941 124.132 240.333L121.192 234.237L118.014 227.657C118.014 227.657 118.003 227.623 117.992 227.612H119.096C119.096 227.612 121.733 231.184 126.127 233.336C128.008 234.259 130.217 234.924 132.684 234.924C132.684 234.924 132.56 233.629 132.606 232.175V232.186ZM183.185 259.589C185.709 262.856 188.232 266.124 190.756 269.357L190.734 281.244C187.218 281.346 183.692 281.447 180.176 281.571V275.566L177.675 272.287H177.258C174.689 272.377 172.12 272.445 169.551 272.535H169.157L166.486 276.185L166.464 286.675L166.824 286.912C174.475 291.937 182.114 296.895 189.776 301.852L189.731 325.66C187.14 329.153 184.537 332.691 181.934 336.252C175.41 336.759 168.808 337.367 162.295 338.054C159.782 335.001 157.281 331.936 154.768 328.849L154.802 316.162C158.329 315.835 161.844 315.531 165.371 315.238L165.394 321.401L167.985 324.657L168.413 324.624C170.971 324.398 173.529 324.173 176.086 323.97L176.458 323.936L179.151 320.252L179.174 310.235L178.802 309.999C171.14 305.142 163.478 300.275 155.828 295.329L155.895 270.225C158.453 266.743 161.011 263.307 163.568 259.893C170.103 259.769 176.65 259.667 183.185 259.577V259.589ZM159.658 228.265C159.501 229.64 159.343 231.015 159.185 232.378C157.732 231.589 156.109 230.451 154.667 228.874C153.202 227.274 151.929 225.212 151.242 222.564C154.16 222.868 157.135 223.161 160.165 223.454C159.996 225.077 159.827 226.677 159.658 228.265ZM124.538 260.772C128.91 260.648 133.27 260.524 137.642 260.422C140.526 282.585 143.4 304.466 146.284 326.111L146.385 326.888L147.174 326.809C148.639 326.652 150.115 326.494 151.58 326.336L151.546 339.305C145.687 340.026 139.738 340.826 133.834 341.694L133.867 328.376L136.91 327.993L136.222 319.159L135.389 319.249C132.403 319.587 129.406 319.936 126.42 320.308L125.778 320.387L124.887 329.547L128.054 329.119L128.02 342.561C122.037 343.496 116.031 344.522 110.138 345.603L110.172 331.711C111.693 331.474 113.214 331.238 114.736 331.012L115.333 330.922L115.412 330.325C118.33 307.723 121.395 284.332 124.538 260.772ZM270.946 76.5842C275.656 76.2236 280.208 76.156 284.422 76.449C281.188 77.8236 277.943 79.6602 274.631 81.8573C271.724 83.7953 268.771 86.015 265.763 88.4712C265.132 88.9895 264.501 89.4966 263.859 90.0261C261.222 88.6402 258.101 86.0037 254.62 82.3756C255.746 85.8121 257.606 89.4402 260.118 93.2373C257.245 95.7387 254.315 98.4203 251.285 101.215C243.848 98.0936 238.023 94.2401 233.584 89.7444C235.409 94.319 239.443 99.4794 246.676 105.485C244.085 107.896 241.426 110.375 238.688 112.91C229.493 110.116 222.846 103.524 216.288 96.7978C218.733 103.569 225.415 109.992 234.203 117.023C233.088 118.037 231.95 119.062 230.8 120.099C219.747 121.372 203.849 104.381 211.961 96.257C220.93 88.505 239.961 81.3728 258.777 78.1165C262.879 77.4067 266.969 76.8771 270.946 76.5729V76.5842ZM263.51 67.9083C265.481 68.4942 267.588 69.1815 269.819 69.959C268.445 70.0266 267.07 70.1167 265.707 70.2294C264.986 69.4407 264.253 68.6632 263.51 67.9083ZM205.832 95.7837C202.891 93.8007 198.013 92.7078 191.275 92.4711C197.415 83.0742 205.426 74.9279 214.699 67.6266C214.654 80.3475 210.846 88.629 205.832 95.7837ZM368.42 218.677C369.704 217.967 370.842 217.178 371.856 216.311C371.541 219.556 371.147 222.868 370.651 226.248C370.099 223.702 369.411 221.167 368.42 218.677ZM372.747 200.164C371.518 200.424 370.595 200.435 369.851 200.322C371.552 197.246 372.476 193.934 372.645 190.407C372.758 193.551 372.792 196.807 372.747 200.153V200.164ZM366.144 169.281C365.31 180.762 360.837 187.951 350.234 187.939C344.477 182.452 339.249 178.599 334.111 174.576C335.79 171.027 337.007 168.188 337.345 166.723C337.345 166.723 347.711 137.191 361.457 134.532C361.457 134.532 370.482 154.047 372.409 185.562C371.71 180.537 369.626 175.117 366.144 169.281ZM337.176 153.461C337.176 153.461 333.942 161.056 329.39 170.768C319.542 162.509 309.582 151.602 296.489 125.282C315.43 118.104 333.852 112.459 350.482 109.44L350.595 109.654C350.595 109.654 350.651 109.755 350.674 109.812L350.82 110.105C352.195 112.82 357.434 123.31 359.361 129.056C359.361 129.056 347.542 131.524 337.176 153.461ZM294.213 120.617C292.591 117.226 290.923 113.609 289.199 109.733C286.168 102.905 282.878 95.8964 279.07 89.1924C287.081 83.9643 291.633 81.5869 292.579 78.6574C304.106 82.4432 323.745 87.8403 336.849 85.8234C336.849 85.8234 346.674 101.902 347.722 103.93C334.877 106.612 317.379 111.592 294.191 120.606L294.213 120.617ZM220.694 19.3911C228.333 17.4869 236.164 16.8785 244.04 17.4306C245.302 17.6672 247.589 18.1404 250.676 18.9968C266.608 23.3685 303.959 37.6893 333.018 80.4038C333.018 80.4038 314.213 81.3728 291.07 71.9646C291.07 71.9646 272.557 64.1676 258.98 60.4268C260.873 38.7372 247.251 24.529 221.482 19.5714C221.189 19.5151 220.896 19.47 220.604 19.4249C220.592 19.4249 220.57 19.4249 220.558 19.4249C220.604 19.4249 220.649 19.4249 220.694 19.4136V19.3911ZM202.238 26.8163C205.404 26.4557 208.683 26.2642 212.097 26.2867C224.22 27.5149 245.358 32.0894 251.183 47.4919C252.299 50.4439 252.693 54.6016 252.389 58.8832C252.242 60.9113 251.927 62.962 251.476 64.9337C251.116 66.4774 250.676 67.9647 250.135 69.3505C249.504 70.9618 248.749 72.4265 247.871 73.6772C248.141 71.8068 248.423 70.0041 248.682 68.2689C248.873 66.9844 249.054 65.7337 249.211 64.5281C249.493 62.3648 249.673 60.3479 249.673 58.4888C249.673 58.0607 249.662 57.6438 249.639 57.2381C249.448 53.2157 248.22 50.0045 244.862 47.8299C240.659 41.2836 233.82 36.1231 222.981 33.0246C230.71 38.2414 235.814 43.0526 236.896 47.2102C233.55 48.1679 230.26 49.3623 227.048 50.7707C221.922 42.9849 212.908 36.6076 196.525 32.8669C205.843 37.2386 213.099 43.1089 217.618 50.951C218.282 52.1115 218.902 53.3171 219.443 54.5678C218.091 55.3227 216.761 56.1227 215.443 56.9565C214.215 57.7226 213.009 58.5114 211.804 59.3339C210.17 60.4493 208.559 61.5986 206.97 62.8042C206.26 62.0155 205.505 61.2493 204.728 60.4944C203.939 59.7282 203.128 58.9846 202.26 58.2522C201.043 57.2156 199.748 56.2241 198.373 55.2551C193.337 51.7171 187.196 48.6862 179.647 46.2863C177.506 45.6102 175.275 44.9793 172.909 44.4046C174.96 45.4074 176.875 46.4328 178.678 47.4919C184.142 50.6805 188.537 54.1171 192.153 57.7339C192.728 58.3085 193.291 58.8944 193.832 59.4803C194.903 60.6522 195.906 61.824 196.829 63.0296C197.224 63.5366 197.607 64.0436 197.979 64.5619C198.835 65.7563 199.646 66.9506 200.401 68.1675C197.032 71.1195 193.799 74.2406 190.723 77.463C188.221 75.5814 185.573 73.7561 182.757 71.9871C180.965 70.8604 179.106 69.7674 177.157 68.697C176.492 68.3252 175.816 67.9647 175.117 67.6041C173.303 66.6576 171.399 65.7337 169.427 64.8323C168.988 64.6295 168.56 64.4267 168.12 64.2352C164.83 62.7817 161.326 61.3958 157.551 60.1113C160.56 62.162 163.23 64.1 165.63 65.9365C166.036 66.252 166.43 66.5562 166.824 66.8717C168.346 68.0661 169.754 69.2153 171.05 70.3308C171.14 70.4097 171.241 70.4998 171.343 70.5787C173.788 72.6969 175.85 74.68 177.619 76.5729C180.413 79.5588 182.475 82.2855 184.097 84.8657C181.945 87.4121 179.883 89.9923 177.934 92.5838C175.05 89.9698 172.098 87.4121 168.977 84.877C166.802 83.108 164.526 81.3503 162.16 79.5926C162.025 79.4912 161.878 79.3898 161.743 79.2771C159.873 77.9025 157.923 76.5166 155.884 75.142C153.935 73.8237 151.918 72.4941 149.799 71.1646C148.256 70.1956 146.667 69.2153 145.022 68.2463C158.52 45.2271 176.481 29.7458 202.226 26.7825L202.238 26.8163ZM137.135 76.0434C139.794 77.1025 142.284 78.218 144.628 79.3672C149.225 81.632 153.27 84.0657 156.988 86.6009C157.675 87.0741 158.351 87.536 159.016 88.0205C160.695 89.2149 162.306 90.4318 163.872 91.6599C165.901 93.2486 167.861 94.8598 169.788 96.4823C167.658 97.7555 165.405 98.7358 162.836 99.0175C177.652 109.102 187.939 91.4684 202.7 99.7949C202.26 102.082 202.181 104.268 203.105 106.172C195.41 103.648 181.528 111.423 180.909 118.071C182.171 117.011 183.399 116.234 184.638 115.321C189.63 119.175 195.567 121.259 201.776 122.837C197.336 124.099 191.984 123.67 185.697 121.507C188.728 129.676 189.337 138.679 187.399 148.56C186.903 151.061 186.261 153.619 185.438 156.233C173.574 156.222 163.208 164.56 157.529 175.264C154.836 180.323 153.202 185.911 152.943 191.398C152.853 193.382 152.943 195.353 153.236 197.291C153.371 198.204 153.54 199.117 153.766 200.007C151.58 204.3 149.011 208.638 145.326 213.088L145.259 213.032C145.259 213.032 135.512 211.635 125.778 214.159C124.493 214.497 123.22 214.902 121.958 215.387C121.755 215.466 121.541 215.533 121.338 215.612L121.113 215.702C121.045 215.702 120.989 215.702 120.921 215.702C116.719 212.615 112.617 208.694 108.572 204.322C111.502 205.449 114.319 206.576 116.493 207.601C116.043 205.674 114.431 201.55 111.243 200.007C109.834 199.319 107.84 198.779 104.877 198.283C104.324 194.283 103.885 190.272 103.57 186.227C102.499 172.458 102.984 158.374 106.184 143.704C106.984 141.405 107.795 139.107 108.595 136.808C105.981 138.442 104.448 140.233 103.874 142.138C102.601 140.29 101.316 138.453 100.043 136.617C99.7725 112.786 109.215 81.7784 133.236 74.5673C134.577 75.0518 135.862 75.5476 137.112 76.0434H137.135ZM88.7192 60.2691C96.2458 48.1003 103.694 37.4527 110.792 33.0922C104.246 35.1879 96.9894 42.1286 89.429 51.0636C89.7783 48.5059 90.229 46.4553 90.7586 45.0694C98.6683 35.4922 107.175 27.9994 116.527 23.4812C115.085 31.3232 115.321 39.1766 117.147 47.0187C117.406 48.1229 117.688 49.2158 118.014 50.32C118.273 51.1988 118.555 52.089 118.848 52.9678C119.727 55.5931 120.797 58.2071 122.037 60.8324C122.318 61.4183 122.6 62.0042 122.893 62.5901C123.378 63.5591 123.896 64.5169 124.425 65.4858C124.786 66.1506 125.158 66.8041 125.541 67.4689C122.003 69.7336 118.533 72.3702 115.175 75.5814C111.772 78.8264 108.482 82.6686 105.327 87.2882C103.761 89.5867 102.217 92.0881 100.73 94.8035C99.5133 97.0119 98.3302 99.3442 97.1697 101.857C96.55 103.186 95.9416 104.561 95.3444 105.992C95.2881 105.857 95.243 105.722 95.1867 105.586C94.7585 104.505 94.3529 103.389 93.9698 102.24C93.5867 101.113 93.2261 99.9639 92.8994 98.7696C92.629 97.8119 92.3698 96.8429 92.1332 95.8514C93.2374 93.2373 94.3979 90.7247 95.6261 88.3135C99.626 80.4376 104.291 73.7673 109.902 68.7872C112.595 66.3985 115.49 64.3929 118.645 62.838C112.831 63.7169 106.792 67.0858 100.482 73.204C100.426 73.2603 100.37 73.3054 100.325 73.3617C98.2063 75.4349 96.0542 77.8011 93.8796 80.5052C92.6515 82.0376 91.4121 83.6601 90.1614 85.4065C89.9473 83.9418 89.7783 82.477 89.6093 81.0123C89.5192 80.201 89.4403 79.401 89.3727 78.5898C89.2713 77.5644 89.1812 76.5278 89.1023 75.5138C89.1023 75.4011 89.0797 75.2884 89.0685 75.1758C90.5896 72.3026 92.2121 69.5308 93.9698 66.8717C98.9387 59.3789 104.989 52.9115 112.888 48.1905C107.502 48.4721 99.795 53.5988 88.6854 65.8013C88.6628 63.8859 88.6854 62.0268 88.7417 60.2691H88.7192ZM75.8293 114.983C74.3533 116.764 73.9139 118.341 73.5984 119.896C72.5167 118.487 72.5393 116.414 72.9787 114.082C66.714 110.319 61.9818 106.386 61.0691 102.015C67.5478 108.189 76.0209 111.536 85.5531 113.406C85.6319 113.417 85.7108 113.428 85.7897 113.451C86.7925 113.643 87.7953 113.834 88.8093 114.003C89.2488 114.826 89.6882 115.614 90.1276 116.369C90.4769 116.966 90.8262 117.564 91.1755 118.127C90.6121 118.127 90.0375 118.059 89.4516 118.014C88.3924 117.924 87.3333 117.8 86.2629 117.586C83.6827 119.997 81.3165 122.465 81.1025 125.563C81.0236 125.417 80.9672 125.248 80.9109 125.101C80.5954 124.358 80.4039 123.558 80.3475 122.713C80.2011 120.775 80.6292 118.623 81.3165 116.369C79.1307 116.031 77.2378 115.592 75.8406 114.983H75.8293ZM77.5194 178.779C77.5194 164.019 79.525 149.732 83.2545 136.155C86.2854 138.217 89.6093 139.907 93.2825 141.022C94.105 143.005 95.3782 145.045 97.3162 147.174C96.3021 160.436 95.9528 173.788 96.0542 187.185C83.401 189.483 79.1194 196.435 79.5363 204.232C78.218 195.939 77.5194 187.444 77.5194 178.779ZM80.5053 209.685C81.8686 214.294 84.4827 218.891 87.6713 222.744C92.5952 228.705 96.2796 234.068 99.1302 238.89C111.491 259.769 108.212 270.518 120.91 275.633C120.414 279.374 119.93 283.092 119.434 286.822C115.535 282.551 111.874 278.067 108.448 273.391V271.656L108.302 271.442C105.643 267.769 102.995 264.05 100.347 260.276L100.099 259.915H99.6598C99.6598 259.915 99.6147 259.938 99.6035 259.938C96.0317 253.876 92.8318 247.578 90.0713 241.031C85.8686 231.06 82.6461 220.57 80.5166 209.685H80.5053ZM106.826 294.979C105.181 297.469 103.536 299.971 101.891 302.506L101.587 302.979L101.925 303.43C103.536 305.582 105.136 307.723 106.747 309.841L106.679 335.542C104.178 339.508 101.688 343.542 99.1978 347.632C88.3812 349.806 77.4518 352.274 66.6915 354.967V340.026C68.2351 339.699 69.7788 339.373 71.3224 339.057L71.9646 338.922L71.9984 278.371L66.714 278.788V262.89C77.3955 262.405 88.3361 261.955 99.2654 261.549C101.789 265.132 104.302 268.67 106.826 272.163V294.968V294.979ZM148.053 360.702C146.453 372.589 144.887 384.487 143.343 396.385C143.636 397.602 143.783 398.211 144.064 399.428C141.484 399.912 140.188 400.171 137.608 400.69C137.834 399.337 137.946 398.661 138.172 397.309C136.741 385.152 135.343 372.994 133.969 360.837C133.541 359.372 133.327 358.64 132.898 357.152C135.411 357.164 136.673 357.175 139.186 357.186C138.87 358.527 138.712 359.192 138.397 360.533C139.377 369.411 139.862 373.794 140.831 382.459C141.935 373.558 142.487 369.163 143.591 360.488C143.366 359.181 143.264 358.527 143.039 357.209C145.484 357.22 146.712 357.231 149.157 357.243C148.707 358.606 148.481 359.293 148.031 360.679L148.053 360.702ZM157.168 397.118C154.757 397.512 153.552 397.715 151.14 398.143C151.377 396.937 151.501 396.34 151.737 395.146C151.85 383.597 151.974 372.048 152.087 360.499C151.85 359.169 151.737 358.505 151.501 357.175C153.799 357.186 154.949 357.198 157.247 357.209C156.988 358.505 156.864 359.158 156.616 360.465C156.537 371.732 156.459 383.011 156.368 394.278C156.684 395.416 156.842 395.991 157.157 397.118H157.168ZM173.258 364.138C171.917 364.161 171.253 364.172 169.912 364.206C169.833 373.614 169.754 383.011 169.675 392.419C169.991 393.512 170.148 394.053 170.464 395.135C168.075 395.461 166.881 395.63 164.492 395.98C164.751 394.797 164.875 394.2 165.134 393.016C165.213 383.439 165.292 373.873 165.371 364.296C164.064 364.319 163.41 364.341 162.103 364.364C161.36 364.826 160.988 365.062 160.244 365.535C160.661 362.223 160.864 360.578 161.281 357.288C166.453 357.321 169.033 357.344 174.205 357.378C174.565 360.51 174.745 362.065 175.106 365.175C174.362 364.769 174.002 364.566 173.258 364.15V364.138ZM191.263 365.49C191.196 373.761 191.151 378.876 191.072 388.059C190.035 389.738 189.449 390.707 188.548 392.205C188.39 392.464 188.221 392.746 188.041 393.039C185.021 393.343 183.5 393.512 180.48 393.862C179.309 392.059 178.723 391.157 177.54 389.321C177.596 383.045 177.63 378.594 177.675 373.851C177.697 371.237 177.72 368.533 177.743 365.389C177.743 364.409 177.765 363.406 177.765 362.335C178.971 360.364 179.579 359.395 180.785 357.457C183.804 357.479 185.314 357.491 188.334 357.502C189.517 359.395 190.103 360.33 191.286 362.178C191.286 363.338 191.263 364.42 191.252 365.468L191.263 365.49ZM209.685 391.326C207.094 391.473 205.719 391.563 203.06 391.755C203.263 390.898 203.364 390.459 203.579 389.602C202.474 385.681 201.911 383.71 200.807 379.755C200.097 379.789 199.736 379.8 199.027 379.834C198.993 383.687 198.981 385.614 198.948 389.467C199.263 390.481 199.421 390.988 199.736 392.002C197.359 392.183 196.176 392.284 193.799 392.498C194.046 391.439 194.182 390.921 194.429 389.873C194.497 381.783 194.565 373.693 194.632 365.603C194.644 363.8 194.666 361.997 194.677 360.195C194.463 359.158 194.351 358.628 194.137 357.592C198.576 357.626 200.796 357.637 205.246 357.66C206.418 359.462 207.004 360.352 208.164 362.133C208.153 363.766 208.131 365.13 208.119 366.414C208.097 369.209 208.074 371.552 208.04 375.113C206.959 376.758 206.418 377.58 205.348 379.236C206.497 383 207.083 384.87 208.232 388.588C208.84 389.591 209.19 390.155 209.753 391.078C209.809 391.169 209.855 391.236 209.911 391.326C209.832 391.326 209.764 391.326 209.685 391.338V391.326ZM217.753 390.932C215.342 391.033 214.136 391.09 211.714 391.214C211.95 390.245 212.074 389.76 212.311 388.802C212.345 386.098 212.367 383.383 212.401 380.679C212.446 376.048 212.502 371.428 212.547 366.797C212.57 364.634 212.592 362.471 212.615 360.307C212.378 359.214 212.266 358.662 212.029 357.569C214.328 357.581 215.477 357.592 217.775 357.603C217.528 358.685 217.404 359.226 217.144 360.307C217.077 369.693 217.021 379.079 216.953 388.464C217.268 389.445 217.426 389.929 217.742 390.909L217.753 390.932ZM229.11 390.594C229.358 389.648 229.471 389.174 229.719 388.228C229.527 386.38 229.426 385.445 229.234 383.597C227.747 383.619 227.003 383.631 225.527 383.653C225.302 385.546 225.201 386.493 224.975 388.386C225.201 389.298 225.313 389.749 225.539 390.662C222.992 390.729 221.719 390.763 219.173 390.864C219.556 389.952 219.747 389.501 220.13 388.588C221.415 379.203 222.711 369.817 224.006 360.431C223.77 359.35 223.646 358.798 223.409 357.716C226.733 357.738 228.401 357.75 231.724 357.772C231.454 358.82 231.319 359.35 231.048 360.397C232.209 369.693 233.369 378.989 234.541 388.284C234.913 389.174 235.093 389.625 235.465 390.515C232.93 390.526 231.657 390.549 229.122 390.594H229.11ZM237.651 375.834L237.155 371.654H240.783L241.2 375.834H237.64H237.651ZM253.437 363.902C252.299 363.902 251.724 363.902 250.586 363.902C250.237 364.386 250.056 364.634 249.707 365.118C249.662 372.487 249.64 376.172 249.583 383.529C249.91 384.003 250.068 384.239 250.383 384.712C251.521 384.746 252.096 384.769 253.234 384.803C253.572 384.329 253.73 384.093 254.068 383.608C254.079 381.163 254.09 379.946 254.101 377.501C253.583 376.803 253.324 376.453 252.806 375.766C255.16 374.313 256.332 373.592 258.687 372.138C258.642 377.907 258.62 380.803 258.563 386.572C257.358 388.273 256.749 389.118 255.544 390.819C252.524 390.718 251.003 390.673 247.983 390.617C246.8 388.848 246.214 387.98 245.031 386.222C245.099 376.634 245.133 371.845 245.189 362.257C246.395 360.533 246.992 359.665 248.197 357.93C251.217 357.952 252.727 357.964 255.746 357.986C256.929 359.744 257.527 360.623 258.71 362.392C258.71 363.586 258.71 364.183 258.721 365.378C256.715 366.64 255.724 367.271 253.718 368.532C253.899 367.496 253.989 366.978 254.169 365.93C254.169 365.603 254.169 365.434 254.169 365.107C253.865 364.623 253.718 364.386 253.414 363.913L253.437 363.902ZM270.09 391.529C270.338 390.583 270.45 390.109 270.698 389.163C270.507 387.259 270.405 386.301 270.214 384.397C268.726 384.318 267.994 384.284 266.507 384.217C266.293 386.121 266.18 387.067 265.966 388.96C266.191 389.895 266.304 390.369 266.529 391.304C263.983 391.157 262.71 391.09 260.163 390.988C260.546 390.109 260.738 389.67 261.11 388.802C262.394 379.451 263.667 370.099 264.941 360.747C264.693 359.654 264.58 359.102 264.332 358.009C267.656 358.031 269.324 358.043 272.647 358.065C272.377 359.136 272.242 359.676 271.983 360.747C273.166 370.358 274.349 379.969 275.521 389.591C275.892 390.538 276.073 391.011 276.445 391.969C273.909 391.777 272.636 391.687 270.101 391.518L270.09 391.529ZM291.847 367.879C290.033 369.051 289.132 369.625 287.318 370.775C287.318 368.747 287.329 367.744 287.34 365.716C287.036 365.22 286.889 364.983 286.585 364.488C285.447 364.454 284.873 364.431 283.735 364.397C283.385 364.916 283.216 365.175 282.867 365.693C282.867 367.394 282.856 368.251 282.844 369.952C286.292 372.904 288.005 374.414 291.453 377.524C291.43 381.952 291.419 384.16 291.396 388.588C290.179 390.38 289.582 391.259 288.365 393.028C285.346 392.724 283.836 392.577 280.805 392.329C279.633 390.414 279.047 389.467 277.864 387.586C277.864 385.625 277.875 384.645 277.887 382.684C279.701 381.828 280.602 381.4 282.416 380.532C282.416 382.312 282.405 383.203 282.394 384.983C282.709 385.49 282.867 385.749 283.182 386.256C284.32 386.346 284.895 386.391 286.033 386.481C286.382 385.974 286.551 385.726 286.901 385.219C286.901 383.574 286.912 382.752 286.923 381.107C283.475 378.008 281.763 376.51 278.315 373.569C278.337 369.197 278.349 367.023 278.371 362.651C279.566 360.859 280.163 359.958 281.357 358.155C284.388 358.178 285.898 358.189 288.929 358.212C290.101 360.082 290.686 361.028 291.87 362.933C291.87 364.916 291.858 365.896 291.847 367.879ZM307.565 364.983C306.224 364.938 305.559 364.927 304.219 364.882C304.173 373.963 304.128 383.045 304.083 392.126C304.399 393.253 304.557 393.828 304.883 394.954C302.495 394.639 301.312 394.481 298.923 394.188C299.182 393.152 299.306 392.622 299.554 391.586C299.61 380.848 299.633 375.484 299.689 364.747C298.382 364.713 297.729 364.69 296.422 364.657C295.678 365.04 295.306 365.231 294.562 365.626C294.968 362.662 295.16 361.175 295.565 358.2C300.737 358.234 303.317 358.257 308.489 358.29C308.861 361.4 309.041 362.966 309.413 366.11C308.669 365.659 308.309 365.434 307.565 364.983ZM325.401 398.143C320.004 397.197 317.311 396.757 311.903 395.957C312.151 394.887 312.275 394.346 312.523 393.264C312.579 382.662 312.635 372.048 312.692 361.445C312.455 360.217 312.342 359.597 312.106 358.369C317.007 358.403 319.463 358.426 324.365 358.46C324.736 361.772 324.928 363.44 325.3 366.775C324.556 366.29 324.184 366.054 323.441 365.569C320.939 365.479 319.7 365.434 317.199 365.344C317.176 368.645 317.176 370.301 317.153 373.603C318.922 373.727 319.801 373.783 321.57 373.907C322.303 373.524 322.663 373.332 323.396 372.938C323.373 376.566 323.362 378.38 323.351 382.008C322.663 381.535 322.314 381.287 321.627 380.825C319.824 380.656 318.922 380.577 317.12 380.42C317.097 384.172 317.086 386.042 317.075 389.794C320.06 390.2 321.559 390.402 324.534 390.842C324.534 390.842 324.534 390.831 324.534 390.819C325.277 390.47 325.649 390.301 326.393 389.952C325.998 393.242 325.807 394.876 325.412 398.143H325.401ZM334.438 399.811C332.038 399.349 330.832 399.112 328.432 398.684C328.669 397.58 328.781 397.028 329.018 395.923C329.108 384.498 329.198 373.085 329.288 361.659C329.052 360.341 328.939 359.676 328.703 358.369C331.001 358.381 332.15 358.392 334.449 358.403C334.201 359.744 334.077 360.42 333.818 361.75C333.762 373.355 333.705 384.972 333.649 396.577C333.964 397.861 334.122 398.504 334.438 399.799V399.811ZM349.671 403.011C344.657 401.884 342.156 401.343 337.13 400.34C337.153 396.363 337.164 394.38 337.187 390.414C337.187 390.278 337.198 390.155 337.232 390.042C340.499 381.614 342.144 377.253 345.423 368.172C345.423 367.496 345.423 367.158 345.423 366.482C343.012 366.369 341.806 366.324 339.395 366.211C338.652 366.662 338.28 366.887 337.536 367.327C337.93 363.834 338.133 362.076 338.528 358.561C343.136 358.595 345.435 358.617 350.032 358.651C350.009 362.459 349.998 364.364 349.964 368.183C349.964 368.487 349.964 368.645 349.964 368.961C346.685 378.527 345.051 383.112 341.784 391.969C341.784 392.611 341.784 392.938 341.784 393.58C344.578 394.076 345.975 394.323 348.77 394.853C348.77 394.842 348.77 394.831 348.77 394.819C349.513 394.447 349.896 394.267 350.64 393.895C350.246 397.568 350.043 399.394 349.649 403.033L349.671 403.011ZM397.276 162.272C397.828 167.692 398.109 173.19 398.109 178.757C398.109 202.328 393.017 224.705 383.89 244.851C382.707 247.476 381.434 250.056 380.115 252.603C380.082 252.569 380.048 252.546 380.014 252.513C376.893 249.572 375.135 246.056 373.952 242.226C373.828 241.82 373.704 241.426 373.592 241.02C380.273 209.798 382.673 170.317 367.417 133.496C367.417 133.496 385.524 128.921 397.276 162.261V162.272ZM394.019 142.6L393.963 142.498L393.918 142.431L393.895 142.397V142.374H393.884C392.735 140.391 383.755 126.115 365.648 128.211L356.848 108.798L356.691 108.414C365.535 107.13 373.806 106.668 381.287 107.22C386.842 118.341 391.157 130.206 394.019 142.611V142.6ZM378.189 101.463L377.885 101.395H377.862C376.127 101.068 368.848 100.11 353.434 102.826L353.603 102.792C353.603 102.792 344.466 86.4206 342.539 84.0094C342.539 84.0094 355.158 79.7052 353.682 68.0097C360.33 74.9617 366.358 82.5333 371.676 90.5895C372.938 92.4937 374.155 94.4317 375.327 96.3922C376.33 98.071 377.31 99.7724 378.256 101.485L378.166 101.463H378.189Z" fill="#1D1D1B"/>
<path d="M226.226 377.682C227.184 377.67 227.657 377.67 228.615 377.659C228.164 373.197 227.95 370.966 227.499 366.504C226.992 370.978 226.733 373.208 226.226 377.693V377.682Z" fill="#1D1D1B"/>
<path d="M183.151 364.026C182.813 364.566 182.632 364.859 182.317 365.378C182.294 365.4 182.283 365.423 182.272 365.457C182.216 371.98 182.182 375.89 182.137 381.377C182.125 382.729 182.114 384.172 182.103 385.772C182.418 386.267 182.576 386.515 182.892 387.011C183.883 386.921 184.469 386.876 185.359 386.797C185.494 386.786 185.618 386.774 185.765 386.763C186.103 386.177 186.272 385.884 186.599 385.298C186.666 377.332 186.7 373.332 186.768 365.411C186.768 365.366 186.768 365.321 186.768 365.276C186.463 364.769 186.306 364.51 186.001 363.992C184.863 364.003 184.3 364.014 183.162 364.037L183.151 364.026Z" fill="#1D1D1B"/>
<path d="M267.183 378.211C268.14 378.245 268.614 378.268 269.571 378.301C269.121 373.738 268.895 371.462 268.433 366.91C267.938 371.44 267.679 373.693 267.183 378.211Z" fill="#1D1D1B"/>
<path d="M199.162 363.857C199.162 364.555 199.15 365.186 199.15 365.783C199.128 368.487 199.117 370.38 199.083 373.569C200.469 373.524 201.167 373.501 202.553 373.456C202.959 372.859 203.162 372.555 203.567 371.958C203.59 369.558 203.601 368.228 203.612 366.065C203.612 365.817 203.612 365.558 203.612 365.276C203.241 364.702 203.049 364.409 202.677 363.834C201.269 363.834 200.57 363.845 199.162 363.868V363.857Z" fill="#1D1D1B"/>
<path d="M108.651 127.873C110.476 124.132 108.764 114.859 108.82 108.358C106.848 115.524 105.496 122.487 108.651 127.873Z" fill="#1D1D1B"/>
<path d="M138.025 101.688C126.915 110.285 119.299 119.344 121.349 129.665C126.904 120.335 131.366 111.366 138.025 101.688Z" fill="#1D1D1B"/>
<path d="M127.907 139.94C124.808 139.253 123.006 137.236 121.225 135.197C121.631 137.676 123.603 141.067 126.104 144.763C123.062 153.123 121.406 162.272 122.589 173.055C125.023 161.529 129.462 153.18 134.724 146.138C137.597 145.045 139.895 144.301 141.867 143.738C143.197 143.366 144.391 143.073 145.507 142.836C148.132 138.51 150.374 134.127 152.256 129.698C152.323 129.642 152.38 129.608 152.447 129.552C152.695 129.36 152.943 129.18 153.18 129.011C154.633 128.008 155.951 127.49 157.36 126.645C157.473 123.242 156.244 119.761 154.554 116.707C154.363 116.358 154.16 116.02 153.957 115.682C152.368 113.068 150.487 110.848 148.921 109.383C150.374 113.282 151.58 117.293 151.828 121.778C148.999 122.949 146.284 124.245 143.715 125.676C137.27 129.259 131.76 133.789 127.896 139.952L127.907 139.94Z" fill="#1D1D1B"/>
<path d="M150.96 144.673C147.704 147.107 144.56 149.642 141.462 151.501C140.346 152.177 139.231 152.763 138.115 153.225C139.265 153.439 140.346 153.585 141.371 153.687C144.955 154.036 147.85 153.732 150.318 152.999C151.647 152.605 152.864 152.098 153.991 151.512C161.833 147.422 165.799 139.602 180.672 142.047C170.261 133.191 161.461 137.191 153.394 142.893C152.583 143.467 151.771 144.064 150.971 144.662L150.96 144.673Z" fill="#1D1D1B"/>
<path d="M124.042 200.3C122.6 202.745 121.778 206.305 124.042 208.626C124.087 208.671 124.11 208.728 124.166 208.773C124.178 208.683 124.2 208.604 124.211 208.525C125.575 201.055 136.797 201.933 135.512 188.458C133.439 194.689 126.814 195.613 124.054 200.3H124.042Z" fill="#1D1D1B"/>
<path d="M390.177 312.399L391.202 312.545L391.09 311.52C390.166 302.731 389.253 293.999 388.329 285.312L387.518 277.673L384.003 311.531L384.769 311.644C386.572 311.892 388.374 312.139 390.177 312.399Z" fill="#1D1D1B"/>
<path d="M133.811 306.1L134.634 306.021L134.543 305.199C133.653 297.413 132.763 289.605 131.873 281.751L131.084 274.754L130.273 281.751C129.349 289.706 128.436 297.695 127.513 305.717L127.4 306.709L128.391 306.607C130.194 306.427 132.008 306.258 133.811 306.089V306.1Z" fill="#1D1D1B"/>
<path d="M93.4965 312.692L92.9669 311.982L92.3134 312.579C88.9445 315.61 85.8234 318.472 82.77 321.334L82.5108 321.57L82.4883 336.837L83.446 336.657C86.5671 336.06 89.6994 335.485 92.8204 334.922L93.1697 334.854L93.3613 334.55C94.2627 333.131 95.1528 331.722 96.0542 330.325L96.1781 330.122L96.2119 316.308L96.0429 316.094C95.1979 314.968 94.3415 313.83 93.4965 312.692Z" fill="#1D1D1B"/>
<path d="M93.3725 295.903L93.5302 295.712C94.2739 294.495 95.0288 293.289 95.7724 292.095L96.133 291.509L96.1555 280.974L93.1359 276.816L92.6852 276.85C89.5529 277.064 86.4093 277.29 83.277 277.526L82.5333 277.582L82.4995 305.514L83.8516 304.297C87.029 301.447 90.2064 298.652 93.3838 295.914L93.3725 295.903Z" fill="#1D1D1B"/>
<path d="M269.943 271.791H269.549C266.98 271.746 264.4 271.701 261.831 271.678H261.436L258.698 275.126L258.743 318.855L261.29 322.235H261.673C264.264 322.336 266.845 322.427 269.436 322.539H269.853L272.343 319.362L272.512 319.08L272.445 275.115L269.932 271.802L269.943 271.791Z" fill="#1D1D1B"/>
</g>
<defs>
<clipPath id="clip0_625_500">
<rect width="474.017" height="500" fill="white"/>
</clipPath>
</defs>
</svg>