<?xml version="1.0" encoding="UTF-8"?>
<!-- Generator: Adobe Illustrator 21.0.2, SVG Export Plug-In . SVG Version: 6.00 Build 0)  -->
<svg version="1.1" id="Layer_1" xmlns="http://www.w3.org/2000/svg" xmlns:xlink="http://www.w3.org/1999/xlink" x="0px" y="0px" viewBox="0 0 34 34" style="enable-background:new 0 0 34 34;" xml:space="preserve">
<style type="text/css">
	.st0{fill:#777;}
</style>
<path class="st0" d="M20.3,17L31.4,5.9c0.9-0.9,0.9-2.4,0-3.3c-1-1-2.4-1-3.4,0L17,13.6L6,2.6c-1-1-2.5-1-3.4,0  C1.7,3.5,1.7,5,2.6,5.9L13.7,17L2.6,28.1c-0.9,0.9-0.9,2.4,0,3.3s2.4,0.9,3.3,0L17,20.3l11.1,11.1c0.9,0.9,2.4,0.9,3.3,0  s0.9-2.4,0-3.3L20.3,17z"/>
</svg>