<?xml version="1.0" encoding="UTF-8"?>
<!-- Generator: Adobe Illustrator 27.7.0, SVG Export Plug-In . SVG Version: 6.00 Build 0)  -->
<svg version="1.1" id="Layer_1" xmlns="http://www.w3.org/2000/svg" xmlns:xlink="http://www.w3.org/1999/xlink" x="0px" y="0px" viewBox="0 0 552.8 566.9" style="enable-background:new 0 0 552.8 566.9;" xml:space="preserve">
<style type="text/css">
	.st0{fill:#00019E;}
	.st1{fill:#FFFFFF;}
</style>
<g>
	<path class="st0" d="M552.7,357.2c-0.1-0.3-0.3-0.5-0.6-0.6l-34.4-13.3c0.6-2.4,1.9-5.7,4.2-9.2l17.8,7.9c0.6,0.3,1.2,0.4,1.8,0.4   c1.6,0,3.1-0.9,3.9-2.3c0.5-0.8,1.9-3,3-5.9c1.8-4.6,2.2-8.7,1.2-12.2c-1.1-3.6-3.7-6.4-7.5-8.1l-47.4-21.8c-0.1,0-0.2-0.1-0.3-0.1   l-0.1,0c-1.8-0.8-5.2-1.8-9.4-0.4c0-1.5,0-2.9,0-4.4c0-3.8-0.1-7.6-0.3-11.5c-0.2-4-0.6-8.1-1-12.2c-2.7-24.1-8.3-41.7-10.6-48.2   l-0.8-2.1c-9.3-26-16.6-46.6-16.4-71.1c0.1-18.5,23.3-44.5,32.1-53l8.3-7.9L408.5,1.1l-6.9,4.6c-16.1,10.6-36.8,16.4-58.5,16.4   c-22.7,0-44.2-6.3-60.6-17.8L276.4,0l-6.1,4.3c-16.3,11.5-37.8,17.8-60.6,17.8c-21.7,0-42.5-5.8-58.5-16.4l-6.9-4.6L65,73.5   l-8.5,7.7l8.3,7.9c8.9,8.5,32,34.5,32.2,53c0.2,24.6-7.1,45.1-16.4,71.1l-0.8,2.1c-2.3,6.4-7.9,24-10.6,48.2   c-0.5,4.1-0.8,8.2-1,12.2c-0.2,3.9-0.3,7.7-0.4,11.5c0,1.5,0,2.9,0,4.4c-4.2-1.4-7.6-0.4-9.4,0.4l-0.1,0c-0.1,0.1-0.2,0.1-0.3,0.1   l-47.4,21.8c-3.8,1.7-6.4,4.5-7.5,8.1c-1,3.5-0.6,7.6,1.1,12.2c1.1,2.9,2.5,5.1,3,5.9c0.8,1.4,2.3,2.3,3.9,2.3   c0.6,0,1.2-0.1,1.8-0.4l17.8-7.9c2.4,3.4,3.6,6.8,4.2,9.2L0.7,356.6c-0.3,0.1-0.5,0.3-0.6,0.6c-0.1,0.3-0.1,0.6,0,0.9l2.1,5.2   c21.5,53.9,58.1,100.1,105.7,133.4c44.3,31,96.1,49,150,52.4l17.7,17.6c0.2,0.2,0.5,0.3,0.8,0.3c0.3,0,0.6-0.1,0.8-0.3l17.7-17.6h0   c53.9-3.3,105.7-21.4,150-52.4c47.7-33.3,84.2-79.4,105.7-133.4l2.1-5.2C552.8,357.8,552.8,357.5,552.7,357.2z M146.5,442.1   c-30.1-21-54.5-48.7-71.5-80.9l8.5-3.1c0.3,0.5,0.5,1,0.8,1.5c1.9,3.5,4,6.8,6.2,10c0.2,0.3,0.5,0.8,0.9,1.4l0.2,0.2   c38.1,57.3,94.2,93,158.1,100.7l10.2,10.2C218.9,479.2,180.1,465.5,146.5,442.1z M406.3,442.1c-33.6,23.5-72.5,37.2-113.3,40.2   l10.2-10.2c63.8-7.6,120-43.4,158.1-100.7l0.2-0.2c0.4-0.6,0.7-1,0.9-1.4c2.2-3.2,4.3-6.6,6.2-10c0.3-0.5,0.5-1,0.8-1.5l8.5,3.1   C460.8,393.4,436.4,421,406.3,442.1z"/>
	<g>
		<path class="st1" d="M548.5,362.5c-21.4,53.5-57.6,99.3-104.9,132.4c-44,30.8-95.7,48.8-149.3,52c-0.3,0-0.5,0.1-0.7,0.3    l-17.2,17.1l-17.2-17.1c-0.2-0.2-0.5-0.3-0.7-0.3c-53.6-3.2-105.2-21.2-149.3-52C61.9,461.8,25.6,416,4.2,362.5l-1.7-4.2    l65.3-25.2c1.7-0.7,3.5-0.1,4.5,1.4l0.1,0.1c0.4,0.7,1.3,1.9,2.5,3.1c0.5,1.7,1.1,3.4,1.7,5.1c-3.4-1.3-5.8-4.5-6.8-6l-0.2-0.3    l0,0c-0.1-0.2-0.3-0.3-0.5-0.3c-0.1,0-0.2,0-0.2,0l0,0l-4.6,1.8l-2.1,0.8l0.4,1c0.1,0.4,0.3,0.7,0.4,1.1c1.9,4.7,4,9.4,6.2,14    c0.3,0.7,0.7,1.3,1,2l2.1-0.8l8.5-3.1c0.5,1,1,2,1.5,3l-8.5,3.1l-2.1,0.8c0.3,0.7,0.7,1.3,1,2c17.2,32.6,41.9,60.6,72.4,81.9    c34.6,24.2,74.8,38.1,117,40.7l3.6,3.6c-44.2-2-86.3-16.3-122.5-41.5c-37.7-26.4-66.7-62.9-83.8-105.5l-0.4-1L7,360.2l0.4,1    c21.1,52.9,57,98.2,103.7,130.8c44,30.8,95.6,48.6,149.2,51.5l15.3,15.2l0.7,0.7l16-15.9c53.6-2.9,105.2-20.7,149.2-51.5    c46.8-32.7,82.6-77.9,103.7-130.8l0.4-1l-52-20.1l-0.4,1c-17.1,42.7-46.1,79.2-83.8,105.5c-36.2,25.3-78.4,39.5-122.6,41.5    l3.6-3.6c42.2-2.6,82.4-16.5,117-40.7c30.5-21.3,55.2-49.3,72.4-81.9c0.4-0.7,0.7-1.3,1-2l-2.1-0.8l-8.5-3.1c0.5-1,1-2,1.5-3    l8.6,3.1l2.1,0.8c0.3-0.7,0.7-1.3,1-2c2.2-4.6,4.3-9.2,6.2-14c0.1-0.4,0.3-0.7,0.4-1.1l0.4-1l-2.1-0.8l-4.6-1.8h0    c-0.1,0-0.1,0-0.2,0c-0.2,0-0.4,0.1-0.5,0.3l0,0l-0.2,0.3c-1,1.5-3.4,4.7-6.8,6c0.6-1.7,1.2-3.4,1.7-5.1c1.2-1.2,2.2-2.5,2.6-3.1    l0.1-0.1c1-1.5,2.8-2.1,4.5-1.4l65.3,25.2L548.5,362.5z"/>
		<g>
			<g>
				<path class="st1" d="M202.5,501.6l3.8,3.3c2.6,2.2,3.9,4.8,2.9,8.3c-1.6,5.4-6.9,7.3-12.1,5.7c-2.5-0.7-5.3-2.1-7.5-3.7      c-0.5-0.4-0.7-0.7-0.6-1c0.1-0.2,0.2-0.4,0.3-0.6l1.9-2.7c0.2-0.3,0.5-0.6,1-0.5c0.2,0.1,0.4,0.2,0.6,0.3      c1.6,1.3,3.6,2.4,5.5,2.9c1.6,0.5,3.8,0.2,4.4-1.6c0.4-1.4-0.5-2.5-1.5-3.4l-4.4-3.8c-2.4-2.1-3.6-5-2.6-8.1      c1.5-4.8,7.1-6.1,11.5-4.7c2.7,0.8,4.9,2,7,3.7c0.5,0.4,0.7,0.8,0.6,1.1c0,0.2-0.2,0.3-0.3,0.5l-2.1,2.6c-0.3,0.4-0.6,0.5-1,0.4      c-0.2-0.1-0.4-0.2-0.6-0.4c-1.3-1.1-3.2-2.3-4.8-2.7c-1.5-0.5-3.4-0.4-3.9,1.4C200.4,499.7,201.7,500.9,202.5,501.6z"/>
				<path class="st1" d="M180.3,508.4c0.6,0.2,0.7,0.8,0.5,1.3l-0.8,1.9c-0.2,0.4-0.6,0.7-1.1,0.5l-9.4-3.8      c-0.5-0.2-0.8-0.8-0.6-1.2l0.8-2c0.3-0.7,0.7-0.8,1.3-0.6l1.7,0.7l7.2-17.8l-1.9-0.8c-0.6-0.2-0.7-0.8-0.5-1.3l0.8-1.9      c0.2-0.4,0.6-0.7,1.1-0.5l9.8,3.9c0.5,0.2,0.8,0.8,0.6,1.2l-0.8,2c-0.3,0.7-0.7,0.8-1.3,0.6l-2-0.8l-7.2,17.8L180.3,508.4z"/>
				<path class="st1" d="M151,474.7c-0.7-0.4-0.8-0.9-0.4-1.5l1.4-2.6c0.3-0.6,0.8-0.7,1.4-0.4l17,8.8l1.8,0.9      c0.6,0.3,0.7,0.7,0.5,1.2c0,0,0,0.1-0.1,0.1l-1.7,2.6c-0.4,0.7-1,0.6-1.7,0.2l-6.2-3.2l-9.8,18.7c-0.4,0.8-0.6,0.8-1.3,0.5      l-3.9-2.1c-0.7-0.4-0.8-0.5-0.4-1.2l9.9-18.8L151,474.7z"/>
				<path class="st1" d="M143.8,464.2l-3.4-2.2c-0.6-0.4-1.1-0.3-1.7,0.1l-21.7,16c-0.2,0.1-0.2,0.2-0.3,0.4      c-0.2,0.3-0.2,0.6,0.2,0.9l3.8,2.4c0.6,0.4,1.1,0.2,1.5-0.1l3.9-3.1l1.2,0.7l5.8,3.8l1.2,0.8l-1.2,4.7c-0.2,0.7-0.1,1.2,0.7,1.8      l3.7,2.4c0.5,0.3,0.9,0.2,1.1-0.2c0.1-0.1,0.2-0.3,0.2-0.6l5.7-26.1C144.7,465.2,144.5,464.6,143.8,464.2z M137.6,471.1      l-2.2,7.8l-5.4-3.5l6.3-5.1c0.7-0.5,1.3-1.1,1.9-1.6l0.1,0C138.1,469.5,137.9,470.2,137.6,471.1z"/>
				<path class="st1" d="M111.6,461.7l-2.6-5.2c-1.4-2.9-1.4-6,0.7-8.5c3.2-3.9,8.9-2.9,12.5-0.1c2.2,1.8,3.8,3.7,5,6.1      c0.3,0.6,0.3,1,0.1,1.2c-0.1,0.1-0.3,0.2-0.5,0.4l-2.9,1.6c-0.5,0.3-0.8,0.3-1.1,0.1c-0.2-0.1-0.3-0.3-0.4-0.6      c-0.8-1.6-2.1-3.3-3.4-4.3c-1.2-1-3-1.6-4.1-0.2c-0.8,1-0.1,2.6,0.4,3.5l2.2,4.4c1.5,3,1.8,5.9-0.5,8.7      c-3.6,4.4-9.2,4.1-13.4,0.7c-2-1.6-4.1-3.9-5.5-6.3c-0.4-0.5-0.3-0.9-0.1-1.2c0.1-0.2,0.3-0.3,0.5-0.4l2.8-1.8      c0.3-0.2,0.7-0.4,1.1-0.1c0.2,0.1,0.3,0.3,0.4,0.5c1,1.8,2.5,3.5,4,4.8c1.3,1,3.5,1.7,4.7,0.2      C112.6,464.2,112.2,462.9,111.6,461.7z"/>
			</g>
			<g>
				<path class="st1" d="M84.6,444.6c0.5,0.6,0.4,1.1-0.1,1.6l-2.2,2c-0.6,0.6-1.2,0.4-1.6-0.1l-10.2-11c-0.6-0.6-0.7-1.1,0.1-1.8      l18.4-16.8c0.5-0.5,1.1-0.5,1.6,0.1l2.7,2.9c0.6,0.6,0.6,1.1-0.1,1.7l-15.4,14.1L84.6,444.6z"/>
				<path class="st1" d="M65,424.5c0.4,0.5,0.2,1-0.2,1.4l-1.7,1.3c-0.4,0.3-0.9,0.3-1.2-0.1l-6.2-8c-0.4-0.5-0.3-1,0.1-1.3l1.7-1.3      c0.6-0.4,1.1-0.3,1.4,0.2L60,418l15.3-11.7l-1.3-1.6c-0.4-0.5-0.2-1,0.2-1.4l1.7-1.3c0.4-0.3,0.9-0.3,1.2,0.1l6.4,8.3      c0.4,0.5,0.3,1-0.1,1.3l-1.7,1.3c-0.6,0.4-1.1,0.3-1.4-0.2l-1.3-1.7l-15.3,11.7L65,424.5z"/>
				<path class="st1" d="M53.5,385.9l-13.1,8c-0.7,0.5-1.2,0.3-1.6-0.4l-1.9-3.1c-0.5-0.8-0.5-1.2,0.3-1.7l21.3-13      c0.9-0.5,1.3-0.2,1.7,0.5l1.7,2.8c0.4,0.7,0.4,1.1,0.1,1.8l-7.3,18.2l0,0.1l13.2-8.1c0.7-0.5,1.2-0.2,1.6,0.4l2,3.2      c0.5,0.9,0.1,1.2-0.5,1.6l-21.2,13c-0.9,0.5-1.3,0.3-1.6-0.3l-1.8-2.8c-0.4-0.6-0.4-1.2-0.2-1.9L53.5,385.9L53.5,385.9z"/>
			</g>
			<g>
				<path class="st1" d="M277.7,526c0.6,0,0.9,0.5,0.9,1l0,2.1c0,0.5-0.3,0.9-0.9,0.9l-10.1-0.2c-0.6,0-1-0.4-1-0.9l0-2.1      c0-0.7,0.4-1,1-1l1.8,0l0.3-19.2l-2.1,0c-0.6,0-0.9-0.5-0.9-1l0-2.1c0-0.5,0.3-0.9,0.9-0.9l10.6,0.2c0.6,0,1,0.4,1,0.9l0,2.1      c0,0.7-0.4,1-1,1l-2.1,0l-0.3,19.2L277.7,526z"/>
				<path class="st1" d="M258,503.6l-3.1,24.6c-0.1,1-0.6,1.2-1.3,1.1l-3.3-0.4c-0.7-0.1-1.3-0.4-1.6-1.1l-9.7-16.9l-0.1,0L237,526      c-0.1,0.9-0.5,1.1-1.3,1l-3.6-0.5c-0.9-0.1-1.3-0.4-1.2-1.3l3.1-24.7c0.1-1,0.6-1.1,1.4-1l3.3,0.4c0.8,0.1,1.1,0.4,1.5,1l9.7,17      l0.1,0l1.9-15.2c0.1-0.9,0.6-1.1,1.4-1l3.8,0.5C258.1,502.4,258.1,502.9,258,503.6z"/>
				<path class="st1" d="M293.8,509.4c0.1,1.3,1.7,1.9,2.8,2.3l4.7,1.7c3.2,1.2,5.4,3.1,5.7,6.7c0.5,5.6-3.8,9.3-9.2,9.7      c-2.6,0.2-5.7-0.1-8.3-0.8c-0.6-0.1-0.9-0.4-0.9-0.8c0-0.2,0-0.4,0.1-0.7l0.8-3.2c0.1-0.4,0.3-0.8,0.8-0.8c0.2,0,0.4,0,0.7,0.1      c2,0.6,4.2,0.9,6.2,0.7c1.7-0.1,3.7-1.2,3.5-3.1c-0.1-1.5-1.4-2.1-2.6-2.6l-5.5-2c-3-1.1-5.1-3.4-5.4-6.7c-0.4-5,4.4-8.2,9-8.6      c2.8-0.2,5.3,0.1,7.9,1c0.7,0.2,0.9,0.5,0.9,0.8c0,0.2-0.1,0.4-0.1,0.6l-1,3.1c-0.2,0.5-0.4,0.7-0.7,0.8c-0.2,0-0.4,0-0.7-0.1      c-1.7-0.6-3.8-1-5.4-0.8C295.3,506.8,293.6,507.5,293.8,509.4z"/>
				<path class="st1" d="M325.6,521.5l1.9-0.3c0.6-0.1,1,0.3,1.1,0.8l0.4,2c0.1,0.5-0.2,0.9-0.7,1l-10,1.7c-0.6,0.1-1-0.3-1.1-0.7      l-0.4-2.1c-0.1-0.7,0.2-1.1,0.8-1.2l1.8-0.3l-3.3-18.9l-2.1,0.4c-0.6,0.1-1-0.3-1.1-0.8l-0.4-2c-0.1-0.5,0.2-0.9,0.7-1l10.4-1.8      c0.6-0.1,1,0.3,1.1,0.7l0.4,2.1c0.1,0.7-0.2,1.1-0.8,1.2l-2.1,0.4L325.6,521.5z"/>
			</g>
			<g>
				<path class="st1" d="M371.2,498.7c-2.6-7.5-8.4-12-16.2-9.4c-7.4,2.5-10.1,9.6-7.4,17.5c2.7,8,8.7,11.9,16.2,9.4      C370.8,513.9,374,507.1,371.2,498.7z M362.3,511.1c-3.5,1.2-6.4-0.7-8.4-6.6c-1.9-5.5-0.6-9.1,2.6-10.2c3.6-1.2,6.3,0.6,8.4,6.5      C366.8,506.7,365.6,510,362.3,511.1z"/>
				<path class="st1" d="M418.7,489c0.4,0.7,0.4,0.9-0.3,1.3l-3.8,2.3c-0.7,0.4-0.8,0.4-1.3-0.3l-10.9-18.2l-6.2,3.7      c-0.7,0.4-1.2,0.2-1.6-0.4l-1.5-2.5c-0.3-0.6-0.2-1,0.4-1.4l16.5-9.8l1.7-1c0.6-0.4,1-0.2,1.3,0.2c0,0,0,0.1,0.1,0.1l1.3,2.8      c0.3,0.7,0,1.1-0.7,1.6l-6,3.5L418.7,489z"/>
				<path class="st1" d="M438.8,471.8l1.6-1.2c0.5-0.4,1-0.2,1.4,0.3l1.2,1.7c0.3,0.4,0.3,0.9-0.2,1.2l-8.2,6      c-0.5,0.4-1.1,0.2-1.3-0.1l-1.3-1.7c-0.4-0.6-0.3-1.1,0.2-1.4l1.5-1.1L422.3,460l-1.7,1.2c-0.5,0.4-1,0.2-1.4-0.3l-1.2-1.7      c-0.3-0.4-0.3-0.9,0.2-1.2l8.5-6.2c0.5-0.3,1-0.2,1.3,0.1l1.3,1.7c0.4,0.6,0.3,1.1-0.2,1.4l-1.7,1.3L438.8,471.8z"/>
				<path class="st1" d="M450.5,432.7c-0.2-0.7-0.2-1.3,0.5-1.9l2-1.9c0.6-0.5,1-0.5,1.5,0l18,17.5c0,0,0.1,0.1,0.1,0.1      c0.5,0.5,0.5,1,0,1.5l-2.9,2.7c-0.8,0.7-1.3,0.5-2.1-0.3l-9.5-9.6l-0.1,0.1l5.3,14.4c0.3,0.8,0,1.2-0.4,1.5l-1.1,1      c-0.5,0.5-0.9,0.7-1.8,0.4l-14.7-5.8l-0.1,0.1l9.3,10.3c0.8,0.8,0.5,1.2-0.2,1.8l-2.4,2.2c-0.7,0.6-1.2,0.7-1.8,0.1      c0,0-0.1-0.1-0.1-0.1l-16.1-18.9c-0.6-0.7-0.5-1.2,0-1.7l2.1-1.9c0.7-0.6,1.1-0.6,1.9-0.3l18.5,7.1l0.1-0.1L450.5,432.7z"/>
				<path class="st1" d="M481.2,418.8l-10.5-8.7c-0.6-0.5-0.5-1,0-1.6l2.5-3c0.5-0.6,0.9-0.8,1.5-0.2l10.8,8.9      c6.8,5.6,7,11.6,2.1,17.4c-5.2,6.2-10.9,6.2-17.4,0.9l-10.8-8.9c-0.6-0.5-0.5-1,0-1.6l2.5-3c0.5-0.6,0.9-0.8,1.5-0.2l10.5,8.6      c4.8,3.9,7.5,3.4,9.8,0.6C486,425.4,485.9,422.7,481.2,418.8z"/>
				<path class="st1" d="M491.3,380.4c-0.4-0.6-0.5-1.2,0-1.9l1.5-2.3c0.4-0.7,0.8-0.8,1.4-0.4l22,12.2c0,0,0.1,0,0.1,0.1      c0.6,0.4,0.7,0.9,0.4,1.5l-2.1,3.3c-0.5,0.9-1.1,0.8-2.1,0.2l-11.7-6.8l0,0.1l8.9,12.5c0.5,0.7,0.3,1.2,0,1.6l-0.8,1.2      c-0.4,0.6-0.7,0.9-1.6,0.8l-15.7-1.8l0,0.1l11.7,7.5c0.9,0.6,0.8,1.1,0.3,1.8l-1.7,2.7c-0.5,0.8-1,1-1.7,0.5c0,0-0.1,0-0.1-0.1      l-20.5-14c-0.8-0.5-0.8-1.1-0.4-1.7l1.5-2.4c0.5-0.8,0.9-0.9,1.8-0.8l19.7,2.1l0-0.1L491.3,380.4z"/>
				<path class="st1" d="M393.1,483.6c-0.9-1.9-2.4-3.5-4.4-4.4c-2.8-1.1-5.9-0.5-10.1,1.4l-5.6,2.6c-0.8,0.4-1,0.7-0.6,1.6      l10.5,22.5c0.4,0.9,0.9,0.9,1.6,0.6l3.6-1.7c0.8-0.4,0.9-0.9,0.6-1.5l-3.4-7.3c0.4-0.1,1.6-0.6,2-0.8      C392.8,494.1,395.8,489.4,393.1,483.6z M385.3,492.3c-0.3,0.1-1.5,0.7-1.9,0.9l-3.6-7.7l1.8-0.8c2.7-1.2,4.8-0.8,6.1,1.9      C388.7,489.1,387.9,491.1,385.3,492.3z"/>
			</g>
		</g>
		<path class="st1" d="M68,294c-1.5-0.6-3-0.9-4.2-0.9c-1.8,0-3.3,0.5-4.3,0.9c-0.1,0.1-0.2,0.1-0.3,0.1l-47.4,21.8    c-3.2,1.4-5.4,3.7-6.3,6.7c-1.1,3.8,0,8,1.1,10.8c1.1,2.8,2.4,5,2.8,5.5c0.6,1,1.9,1.5,2.9,1l19.4-8.6l0.5,0.7    c2.8,3.8,4.3,7.7,5.1,10.4l3.2-1.2c-0.8-2.8-2.2-6.4-4.8-10.2l-0.8-1.1l22.5-9.9c1.1-0.5,1.6-1.7,1.2-2.8l-0.4-0.9    c-1.9-4.2-2.5-8.6-1.9-12.4c0.6-3.2,2.1-5.7,4.3-6.8l0.3-0.1c0.9-0.4,1.9-0.6,2.8-0.6c1.5,0,3,0.5,4.5,1.4    C68,296.5,68,295.3,68,294z M11.7,336.6l-0.5-0.9c-1.2-2.2-3.9-7.8-2.6-12.1c0.6-2.1,2.1-3.6,4.4-4.6l40.6-18.6l-0.5,2.2    c-0.1,0.3-0.1,0.6-0.2,0.9c-0.7,4-0.1,8.6,1.6,13.1l0.4,1L11.7,336.6z"/>
		<path class="st1" d="M547.3,322.7c-0.9-3-3-5.3-6.3-6.7l-47.4-21.8c-0.1,0-0.2-0.1-0.3-0.1c-0.9-0.4-2.4-0.9-4.3-0.9    c-1.3,0-2.7,0.2-4.3,0.9c0,1.3-0.1,2.6-0.1,3.8c1.5-0.9,3-1.4,4.5-1.4c1,0,1.9,0.2,2.8,0.6l0.3,0.1c2.1,1.1,3.7,3.5,4.3,6.8    c0.7,3.8,0,8.2-1.9,12.4l-0.4,0.9c-0.4,1.1,0.1,2.3,1.2,2.8l22.5,9.9l-0.8,1.1c-2.6,3.8-4,7.4-4.8,10.2l3.2,1.2    c0.8-2.7,2.2-6.6,5.1-10.4l0.5-0.7l19.4,8.6c1,0.5,2.3,0,2.9-1c0.4-0.6,1.7-2.7,2.8-5.5C547.3,330.6,548.4,326.4,547.3,322.7z     M541.5,335.7l-0.5,0.9l-43.2-19.1l0.4-1c1.7-4.5,2.3-9.1,1.6-13.1c-0.1-0.3-0.1-0.6-0.2-0.9l-0.5-2.2l40.6,18.6    c2.4,1,3.8,2.6,4.4,4.6C545.4,327.9,542.7,333.5,541.5,335.7z"/>
		<path class="st1" d="M408.1,5.4l-4.7,3.1c-16.6,10.9-38,17-60.4,17c-23.4,0-45.6-6.5-62.5-18.4l-4.2-2.9l-4.2,2.9    c-16.9,11.9-39.1,18.4-62.5,18.4c-22.3,0-43.8-6-60.4-17l-4.7-3.1L67.3,76l-5.8,5.3l5.7,5.4c9.2,8.7,33.1,35.8,33.2,55.4    c0.2,25.2-7.2,46-16.6,72.3l-0.8,2.1c-2.3,6.3-7.8,23.6-10.4,47.4c-0.4,4-0.8,8.1-1,12c-0.2,3.8-0.3,7.6-0.3,11.3    c-0.1,27.5,5.3,51.3,15.9,70.9c1.8,3.4,3.9,6.6,6,9.7c0.2,0.3,0.6,0.8,1,1.4l0.2,0.2c37.7,56.6,93.2,91.9,156.2,99.3l0.6,0.1    l25.2,25.3l25.2-25.3l0.6-0.1c63.1-7.4,118.6-42.6,156.2-99.3l0.2-0.2c0.4-0.6,0.7-1.1,1-1.4c2.2-3.1,4.2-6.4,6-9.7    c10.7-19.5,16-43.4,15.9-70.9c0-3.7-0.1-7.5-0.3-11.3c-0.2-3.9-0.6-8-1-12c-2.6-23.8-8.2-41.1-10.4-47.4l-0.8-2.1    c-9.4-26.3-16.8-47.1-16.6-72.3c0.1-19.7,24-46.7,33.2-55.4l5.7-5.4L408.1,5.4z M445,142c-0.2,27.2,7.9,49.2,17.8,77    c3.7,10.4,7.9,26.8,10,45.7c0.4,3.8,0.8,7.6,1,11.6c0.2,3.6,0.3,7.2,0.3,10.9c0.1,22.6-3.7,46.6-15,67.3c-1.7,3.1-3.6,6.1-5.6,9.1    c-5.9,8.5-53.7,87.8-155.3,98.2l-0.4,0.4v0l-21.5,21.6l-21.5-21.6l-0.4-0.4c-101.6-10.3-149.4-89.7-155.3-98.2    c-2-2.9-3.9-6-5.6-9.1c-11.3-20.7-15.1-44.7-15-67.3c0-3.7,0.1-7.3,0.3-10.9c0.2-3.9,0.6-7.8,1-11.6c2.1-18.9,6.3-35.3,10-45.7    c9.9-27.8,18-49.8,17.8-77c-0.2-27.2-35.5-60.7-35.5-60.7l73.1-66.8c17.2,11.3,39.7,18.2,64.4,18.2c25.8,0,49.2-7.5,66.7-19.7    c17.4,12.2,40.9,19.7,66.7,19.7c24.7,0,47.2-6.9,64.4-18.2l73.1,66.8C480.5,81.4,445.2,114.9,445,142z"/>
		<g>
			<path class="st1" d="M206.2,115.3c-2.1-0.5-5,0.2-7.7,1.9c-2.8,1.8-4.7,4.2-5.4,6.5c2.1,0.5,5-0.2,7.7-1.9     C203.6,120,205.5,117.6,206.2,115.3z"/>
			<path class="st1" d="M194.9,75.7c0.3-2.4-0.5-5.5-2.4-8.4c-1.8-2.9-4.2-4.9-6.3-5.4c-0.3,2.4,0.5,5.5,2.3,8.4     C190.4,73.2,192.8,75.2,194.9,75.7z"/>
			<path class="st1" d="M195,86.1c-0.3,2.1,0.3,5,1.7,7.7c1.5,2.7,3.5,4.6,5.4,5.2c0.3-2.1-0.3-5-1.7-7.7     C198.9,88.6,196.9,86.7,195,86.1z"/>
			<path class="st1" d="M199.2,79.3c1.3-1.9,2.1-5,1.9-8.6c-0.2-3.5-1.3-6.6-2.8-8.3c-1.3,1.9-2.1,5-1.9,8.6     C196.5,74.6,197.6,77.6,199.2,79.3z"/>
			<path class="st1" d="M203.2,95.9c2-0.8,4.2-3.1,5.7-6.2c1.5-3.1,2-6.4,1.5-8.7c-2,0.8-4.2,3.1-5.7,6.2     C203.2,90.4,202.7,93.6,203.2,95.9z"/>
			<path class="st1" d="M192.8,82.4c2.2,2,4.7,3,6.6,2.9c-0.3-2.1-1.7-4.6-3.9-6.6c-2.2-2-4.7-3-6.6-2.9     C189.2,77.9,190.6,80.4,192.8,82.4z"/>
			<path class="st1" d="M201.7,89.4c1.7-1.5,3.1-4.4,3.6-7.8c0.5-3.5,0.1-6.7-1.1-8.8c-1.7,1.5-3.1,4.4-3.6,7.9     C200.1,84.1,200.6,87.3,201.7,89.4z"/>
			<path class="st1" d="M211.6,105.2c-2.1-0.5-5,0.2-7.7,1.9c-2.7,1.8-4.7,4.2-5.4,6.5c2.1,0.5,5-0.2,7.7-1.9     C209,109.9,211,107.4,211.6,105.2z"/>
			<path class="st1" d="M207.5,102.3c2-2.7,3.1-5.8,3-8.2c-2.1,0.4-4.6,2.1-6.7,4.8c-2,2.7-3.1,5.8-3,8.2     C202.9,106.8,205.4,105,207.5,102.3z"/>
			<path class="st1" d="M195.1,115.4c1.7-1.5,3.1-4.4,3.6-7.9c0.5-3.5,0-6.7-1.1-8.7c-1.7,1.5-3.1,4.4-3.6,7.9     C193.5,110.2,193.9,113.4,195.1,115.4z"/>
			<path class="st1" d="M194.7,125.4c-3.1,0.6-5.7,2.2-7,4.1c1.8,1.3,4.7,1.7,7.9,1.1c3.1-0.6,5.7-2.2,7-4.1     C200.7,125.3,197.8,124.8,194.7,125.4z"/>
			<path class="st1" d="M137.5,113.6c-0.7-2.3-2.6-4.7-5.4-6.5c-2.7-1.8-5.6-2.4-7.7-1.9c0.7,2.3,2.6,4.7,5.4,6.5     C132.6,113.4,135.4,114.1,137.5,113.6z"/>
			<path class="st1" d="M143,123.7c-0.7-2.3-2.6-4.7-5.4-6.5c-2.7-1.8-5.6-2.4-7.7-1.9c0.7,2.3,2.6,4.7,5.4,6.5     C138,123.6,140.9,124.2,143,123.7z"/>
			<path class="st1" d="M148.4,129.5c-1.3-1.9-3.9-3.5-7-4.1c-3.1-0.6-6-0.1-7.9,1.1c1.3,1.9,3.9,3.5,7,4.1     C143.7,131.3,146.6,130.8,148.4,129.5z"/>
			<path class="st1" d="M191.9,121.7c1.4-3.1,1.9-6.4,1.3-8.7c-2,0.9-4.1,3.1-5.6,6.3c-1.4,3.1-1.9,6.4-1.3,8.7     C188.3,127.2,190.4,124.9,191.9,121.7z"/>
			<path class="st1" d="M141.5,135.4c1.8,1.4,4.6,2.1,7.8,1.7c3.2-0.4,5.8-1.8,7.2-3.6c-1.8-1.4-4.6-2.1-7.8-1.7     C145.6,132.2,143,133.6,141.5,135.4z"/>
			<path class="st1" d="M156.7,132.1c2.6,2,5.5,2.8,7.6,2.5c-0.5-2.3-2.3-4.9-5-6.9c-2.6-2-5.5-2.8-7.6-2.5     C152.3,127.5,154.1,130.1,156.7,132.1z"/>
			<path class="st1" d="M142.9,113c-0.5,2.3-0.1,5.6,1.3,8.7c1.4,3.1,3.6,5.4,5.6,6.3c0.5-2.3,0.1-5.6-1.3-8.7     C147,116.2,144.9,113.9,142.9,113z"/>
			<path class="st1" d="M147.5,70.3c1.8-2.9,2.6-6.1,2.4-8.4c-2.1,0.6-4.5,2.5-6.3,5.4c-1.8,2.9-2.6,6.1-2.3,8.4     C143.3,75.2,145.7,73.2,147.5,70.3z"/>
			<path class="st1" d="M143.3,82.4c2.2-2,3.6-4.5,3.9-6.6c-1.9-0.1-4.4,0.9-6.6,2.9c-2.2,2-3.6,4.5-3.9,6.6     C138.6,85.4,141.1,84.4,143.3,82.4z"/>
			<path class="st1" d="M186.8,137.1c3.2,0.4,6-0.3,7.8-1.7c-1.4-1.8-4.1-3.2-7.2-3.6c-3.2-0.4-6,0.3-7.8,1.7     C180.9,135.3,183.6,136.7,186.8,137.1z"/>
			<path class="st1" d="M158.4,135.9c-3.1,0.8-5.6,2.5-6.9,4.4c1.9,1.2,4.8,1.5,7.9,0.7c3-0.8,5.4-2.4,6.7-4.2     c0.4,0.3,0.8,0.7,1.1,1.1c-3.5,2-6.4,4.7-9.1,8.1c1,1.6,1.5,2.4,2.6,4.1c2-4.5,4.4-8.2,7.3-11.3c2.8,3,4.9,6.7,6.9,11.2     c1-1.6,1.5-2.4,2.6-4.1c-2.6-3.4-5.3-6-8.6-8c0.4-0.4,0.7-0.7,1.1-1.1c1.3,1.8,3.7,3.5,6.7,4.2c3.1,0.8,6,0.4,7.9-0.7     c-1.2-1.9-3.8-3.7-6.9-4.4c-2.6-0.6-5-0.5-6.9,0.2c-1.8,0.7-2.8,1.3-2.8,1.3c-0.8-0.4-1.6-0.8-2.5-1.2c-0.1,0-0.1,0-0.1-0.1     c0,0,0,0-0.1,0c0,0,0,0,0,0C163.6,135.4,161.1,135.2,158.4,135.9z"/>
			<path class="st1" d="M132.9,95.9c0.5-2.3,0-5.6-1.5-8.7c-1.5-3.1-3.7-5.4-5.7-6.2c-0.5,2.3,0,5.6,1.5,8.7     C128.7,92.9,130.8,95.1,132.9,95.9z"/>
			<path class="st1" d="M179.4,132.1c2.6-1.9,4.4-4.5,5-6.9c-2.1-0.3-5,0.5-7.6,2.5c-2.6,2-4.4,4.6-5,6.9     C173.9,134.9,176.7,134.1,179.4,132.1z"/>
			<path class="st1" d="M141,115.4c1.1-2,1.6-5.3,1.1-8.8c-0.5-3.5-1.9-6.4-3.6-7.9c-1.1,2-1.6,5.3-1.1,8.7     C137.9,111,139.3,113.9,141,115.4z"/>
			<path class="st1" d="M125.6,94.2c-0.1,2.4,1,5.5,3,8.2c2,2.7,4.5,4.4,6.7,4.8c0.1-2.4-1-5.5-3-8.2     C130.2,96.2,127.7,94.5,125.6,94.2z"/>
			<path class="st1" d="M139.3,93.8c1.5-2.7,2.1-5.6,1.7-7.7c-1.8,0.6-3.9,2.5-5.4,5.2c-1.5,2.7-2.1,5.6-1.7,7.7     C135.8,98.3,137.8,96.5,139.3,93.8z"/>
			<path class="st1" d="M139.7,71.1c0.2-3.5-0.6-6.7-1.9-8.6c-1.5,1.7-2.6,4.7-2.8,8.3c-0.2,3.5,0.6,6.7,1.9,8.6     C138.4,77.6,139.5,74.6,139.7,71.1z"/>
			<path class="st1" d="M134.3,89.4c1.1-2,1.6-5.3,1.1-8.8c-0.5-3.5-2-6.4-3.6-7.9c-1.1,2-1.6,5.3-1.1,8.8     C131.3,85,132.7,87.9,134.3,89.4z"/>
			<path class="st1" d="M200.8,121.8c-2.7,1.8-5.6,2.4-7.7,1.9c0.7-2.3,2.6-4.7,5.4-6.5c2.7-1.8,5.6-2.4,7.7-1.9     C205.5,117.6,203.6,120,200.8,121.8z"/>
			<path class="st1" d="M202.5,126.5c-1.3,1.9-3.9,3.5-7,4.1c-3.1,0.6-6,0.1-7.9-1.1c1.3-1.9,3.9-3.5,7-4.1     C197.8,124.8,200.7,125.3,202.5,126.5z"/>
			<path class="st1" d="M202.2,99c-1.8-0.6-3.9-2.5-5.4-5.2c-1.5-2.7-2.1-5.6-1.7-7.7c1.9,0.6,3.9,2.5,5.4,5.2     C201.9,94,202.5,96.8,202.2,99z"/>
			<path class="st1" d="M203.8,98.9c2-2.7,4.5-4.4,6.7-4.8c0.1,2.4-1,5.5-3,8.2c-2,2.7-4.5,4.4-6.7,4.8     C200.7,104.7,201.8,101.7,203.8,98.9z"/>
			<path class="st1" d="M197.6,98.8c1.1,2,1.6,5.3,1.1,8.7c-0.5,3.5-1.9,6.4-3.6,7.9c-1.1-2-1.6-5.3-1.1-8.8     C194.5,103.2,195.9,100.3,197.6,98.8z"/>
			<path class="st1" d="M198.5,113.6c0.7-2.3,2.6-4.7,5.4-6.5c2.7-1.8,5.6-2.4,7.7-1.9c-0.7,2.3-2.6,4.7-5.4,6.5     C203.5,113.4,200.6,114.1,198.5,113.6z"/>
			<path class="st1" d="M210.4,81.1c0.5,2.3,0,5.6-1.5,8.7c-1.5,3.1-3.7,5.4-5.7,6.2c-0.5-2.3,0-5.6,1.5-8.7     C206.2,84.1,208.3,81.9,210.4,81.1z"/>
			<path class="st1" d="M204.3,72.8c1.1,2,1.6,5.3,1.1,8.8c-0.5,3.5-2,6.4-3.6,7.8c-1.1-2-1.6-5.3-1-8.8     C201.2,77.1,202.6,74.2,204.3,72.8z"/>
			<path class="st1" d="M198.3,62.5c1.5,1.7,2.6,4.7,2.8,8.3c0.2,3.5-0.6,6.7-1.9,8.6c-1.5-1.7-2.6-4.7-2.8-8.3     C196.2,67.5,196.9,64.4,198.3,62.5z"/>
			<path class="st1" d="M199.4,85.3c-1.9,0.1-4.4-0.9-6.6-2.9c-2.2-2-3.6-4.5-3.9-6.6c1.9-0.1,4.4,0.9,6.6,2.9     C197.7,80.7,199.1,83.1,199.4,85.3z"/>
			<path class="st1" d="M186.3,61.9c2.1,0.6,4.5,2.5,6.3,5.4c1.8,2.9,2.6,6.1,2.4,8.4c-2.1-0.6-4.5-2.5-6.3-5.4     C186.8,67.4,186,64.3,186.3,61.9z"/>
			<path class="st1" d="M187.6,119.3c1.5-3.1,3.6-5.4,5.6-6.3c0.5,2.3,0.1,5.6-1.3,8.7c-1.4,3.1-3.6,5.4-5.6,6.3     C185.8,125.7,186.2,122.5,187.6,119.3z"/>
			<path class="st1" d="M187.3,131.8c3.2,0.4,5.8,1.8,7.2,3.6c-1.8,1.4-4.6,2.1-7.8,1.7c-3.2-0.4-5.8-1.8-7.2-3.6     C181.3,132.1,184.1,131.4,187.3,131.8z"/>
			<path class="st1" d="M176.7,127.7c2.6-2,5.5-2.8,7.6-2.5c-0.5,2.3-2.3,4.9-5,6.9c-2.6,2-5.5,2.8-7.6,2.5     C172.3,132.2,174.1,129.6,176.7,127.7z"/>
			<path class="st1" d="M165.5,136.2c0,0,0.1,0,0.1,0.1c0.9,0.4,1.7,0.8,2.5,1.2c0,0,1.1-0.6,2.8-1.3c1.8-0.7,4.3-0.9,6.9-0.2     c3.1,0.8,5.6,2.5,6.9,4.4c-1.9,1.2-4.8,1.5-7.9,0.7c-3-0.7-5.4-2.3-6.7-4.2c-0.4,0.3-0.8,0.7-1.1,1.1c3.3,2,6,4.6,8.6,8     c-1,1.6-1.5,2.4-2.6,4.1c-2-4.5-4.1-8.2-6.9-11.2c-2.9,3.1-5.3,6.8-7.3,11.3c-1-1.6-1.5-2.4-2.6-4.1c2.6-3.4,5.6-6.1,9.1-8.1     c-0.4-0.4-0.7-0.7-1.1-1.1c-1.3,1.9-3.7,3.5-6.7,4.2c-3.1,0.8-6,0.4-7.9-0.7c1.3-1.9,3.8-3.7,6.9-4.4     C161.1,135.2,163.6,135.4,165.5,136.2C165.4,136.2,165.4,136.1,165.5,136.2C165.5,136.2,165.5,136.2,165.5,136.2z"/>
			<path class="st1" d="M159.3,127.7c2.6,2,4.4,4.6,5,6.9c-2.1,0.3-5-0.5-7.6-2.5c-2.6-1.9-4.4-4.5-5-6.9     C153.8,124.9,156.7,125.7,159.3,127.7z"/>
			<path class="st1" d="M156.6,133.5c-1.4,1.8-4.1,3.2-7.2,3.6c-3.2,0.4-6-0.3-7.8-1.7c1.4-1.8,4.1-3.2,7.2-3.6     C151.9,131.4,154.8,132.1,156.6,133.5z"/>
			<path class="st1" d="M149.8,128c-2-0.9-4.1-3.1-5.6-6.3c-1.4-3.1-1.9-6.4-1.3-8.7c2,0.9,4.1,3.1,5.6,6.3     C149.9,122.5,150.3,125.7,149.8,128z"/>
			<path class="st1" d="M143.5,67.3c1.8-2.9,4.2-4.9,6.3-5.4c0.3,2.4-0.5,5.5-2.4,8.4c-1.8,2.9-4.2,4.9-6.3,5.4     C140.9,73.4,141.7,70.2,143.5,67.3z"/>
			<path class="st1" d="M140.6,78.7c2.2-2,4.7-3,6.6-2.9c-0.3,2.1-1.7,4.6-3.9,6.6c-2.2,2-4.7,3-6.6,2.9     C137,83.1,138.4,80.7,140.6,78.7z"/>
			<path class="st1" d="M133.9,99c-0.3-2.1,0.3-5,1.7-7.7c1.5-2.7,3.5-4.6,5.4-5.2c0.3,2.1-0.3,5-1.7,7.7     C137.8,96.5,135.8,98.3,133.9,99z"/>
			<path class="st1" d="M135.3,107.1c-2.1-0.4-4.6-2.1-6.7-4.8c-2-2.7-3.1-5.8-3-8.2c2.1,0.4,4.6,2.1,6.7,4.8     C134.3,101.7,135.4,104.7,135.3,107.1z"/>
			<path class="st1" d="M138.5,98.8c1.7,1.5,3.1,4.4,3.6,7.9c0.5,3.5,0,6.7-1.1,8.8c-1.7-1.5-3.1-4.4-3.6-7.9     C136.9,104.1,137.4,100.8,138.5,98.8z"/>
			<path class="st1" d="M135,70.8c0.2-3.5,1.3-6.6,2.8-8.3c1.3,1.9,2.1,5,1.9,8.6c-0.2,3.5-1.3,6.6-2.8,8.3     C135.6,77.5,134.8,74.3,135,70.8z"/>
			<path class="st1" d="M131.8,72.8c1.7,1.5,3.1,4.4,3.6,7.9c0.5,3.5,0.1,6.7-1.1,8.8c-1.7-1.5-3.1-4.4-3.6-7.8     C130.2,78,130.6,74.8,131.8,72.8z"/>
			<path class="st1" d="M125.7,81.1c2,0.8,4.2,3.1,5.7,6.2c1.5,3.1,2,6.3,1.5,8.7c-2-0.8-4.2-3.1-5.7-6.2     C125.7,86.6,125.2,83.4,125.7,81.1z"/>
			<path class="st1" d="M124.4,105.2c2.1-0.5,5,0.2,7.7,1.9c2.7,1.8,4.7,4.2,5.4,6.5c-2.1,0.5-5-0.2-7.7-1.9     C127.1,109.9,125.1,107.4,124.4,105.2z"/>
			<path class="st1" d="M129.9,115.3c2.1-0.5,5,0.2,7.7,1.9c2.7,1.8,4.7,4.2,5.4,6.5c-2.1,0.5-5-0.2-7.7-1.9     C132.5,120,130.5,117.6,129.9,115.3z"/>
			<path class="st1" d="M133.5,126.5c1.8-1.3,4.7-1.7,7.9-1.1c3.1,0.6,5.7,2.2,7,4.1c-1.8,1.3-4.7,1.7-7.9,1.1     C137.4,130,134.9,128.4,133.5,126.5z"/>
		</g>
		<g>
			<path class="st1" d="M245.5,432.8c-0.5,0-1.6-0.1-2.6-0.1c-0.8,0-1.7,0-2.8,0.1l-0.3,0l0.1-0.3c0.4-2.6,0.6-5.3,0.6-8.2v-15.3     c0-4.2-0.4-4.7-1.8-4.7c-0.4,0-1,0.1-1.7,0.3l-2.4,0.5c-0.7,0.2-1.2,0.3-1.7,0.5l-0.1,0.1l-0.7-0.5l0.1-0.2     c0.3-0.6,0.8-1.7,1-2.7l0-0.2l0.2,0c1.2-0.1,2.1-0.2,3.5-0.5l5.1-1.1c0.9-0.2,2-0.5,2.8-0.7l0.2,0l0.6,0.6l0,0.1     c-0.4,2.8-0.6,6-0.6,7.9v16.5c0,3.3,0.3,6,0.9,7.7l0.1,0.4L245.5,432.8z"/>
			<path class="st1" d="M281.3,433.1l0,0.3l-0.2,0c0,0-3.8,0-6,0.2l-0.2,0l-0.4-0.8l16.6-28.2h-10.4c-1.6,0-3.7,0.2-5.4,1.4     l-0.1,0.1l-0.8-0.3l0.1-0.3c0.5-1.5,1-4,1.2-5.1l0-0.2l0.3,0c1.2,0.1,2.5,0.1,3.8,0.1h11.9c1.5,0,2.3,0,3.6-0.1l0.3,0l0,0.3     c0,0.5,0.4,2.5,0.5,3l0.1,0.2l-0.1,0.1c-2.5,2.9-5.6,8.2-8.2,13C283.4,424.5,281.7,428.8,281.3,433.1z"/>
			<path class="st1" d="M264.4,414.6c3.1-1.7,6-3.9,6-8.1c0-4.5-3.8-7.8-9-7.8c-5.4,0-9.5,3.8-9.5,8.7c0,4,2.7,6.4,5.5,8     c-4.4,2.6-7.2,5.1-7.2,9.5c0,5.1,4.1,8.7,10,8.7c6.5,0,11.2-4.1,11.2-9.8C271.4,419.3,268.1,416.7,264.4,414.6z M256,406.6     c0-3.1,2.3-5.3,5.4-5.3c3.1,0,5.5,2.3,5.5,5.5c0,3.5-2.5,5.3-5.1,6.7C258.9,411.8,256,409.9,256,406.6z M260.6,431.3     c-3.8,0-6.5-2.7-6.5-6.4c0-4,3.1-6.4,6.2-7.9c4.3,2.4,7.1,4.3,7.1,8C267.4,428.5,264.5,431.3,260.6,431.3z"/>
			<path class="st1" d="M309.9,415.3c3.1-1.7,6-3.8,6-8c0-4.5-3.8-7.8-9-7.8c-5.4,0-9.5,3.8-9.5,8.7c0,4,2.7,6.4,5.5,8     c-4.4,2.6-7.1,5.1-7.1,9.5c0,5.1,4.1,8.7,10,8.7c6.5,0,11.2-4.1,11.2-9.8C317,420,313.7,417.4,309.9,415.3z M301.9,407.2     c0-3.1,2.3-5.3,5.4-5.3c3.1,0,5.5,2.3,5.5,5.5c0,3.5-2.6,5.3-5.1,6.7C304.8,412.4,301.9,410.6,301.9,407.2z M306.5,432     c-3.8,0-6.5-2.7-6.5-6.4c0-4,3.1-6.4,6.2-7.9c4.3,2.4,7.1,4.3,7.1,8C313.3,429.2,310.4,432,306.5,432z"/>
		</g>
		<g>
			<path class="st1" d="M176.9,364.7c-0.6,2.1-2.5,8.9-2.6,9.5c-9.9-0.3-16.4-0.4-22.2-0.4c-7.3,0-12,0-16,0.1     c0.7-4.6,1.2-10,1.2-16.7v-27.6c0-4.5-0.2-13-1.8-16.9c3,0.2,5,0.2,7.2,0.2h16.5c5.9,0,8.3-0.2,14.7-0.3     c-1.2,4.2-2.4,8.7-2.9,10.4c-0.5,1.7-1.4,0.4-1.5,0.2c-2.7-3.9-8-4.4-13-4.4c-1.6,0-3.4,0.1-5.6,0.2c-0.1,1.5-0.3,5.7-0.3,9.5v9     h7.3c5.4,0,10.7-0.4,12.8-0.7c0.9-0.1,0.7,0.6,0.7,0.6c-0.7,2.4-1.5,5.6-2.1,7.6c-5.6-0.5-8.7-0.7-12.6-0.7h-6.2v12.5     c0,8.1,0.9,10.7,10.5,10.7c5.5,0,8.4,0,14.2-4.4C176.2,362.1,177.5,362.6,176.9,364.7z"/>
			<path class="st1" d="M203.3,364.8c-1.3,3.2-1.9,5.5-2.7,9c-0.9-0.1-2.9-0.1-4.9-0.1c-1.8,0-4,0.1-5.6,0.2     c-0.6-3.9-1.3-6.3-2.6-10.2l-5.8-17.8c-1.8-5.3-3.9-11.1-7.8-15.6c5.8,0.2,10.4-0.1,16-0.5c0.4,4.3,1.3,8.4,2.6,12.6l3.3,11.2     c0.8,2.6,2.5,8.5,2.5,8.5c0.6-1.9,1.3-3.8,1.9-5.5l5.1-13.2c0.9-2.3,2-5.8,2.4-9.4c0-1.2,0.1-2.4,0-3.9c1.2,0.1,3.5,0.1,5.4,0.1     c1.8,0,4.6-0.2,6-0.4c1.2-0.2,1,0.6,0.6,1.1c-3,3.8-5.5,9.1-7.8,14.4L203.3,364.8z"/>
			<path class="st1" d="M274,373.8c-1.4-0.1-4.3-0.2-7-0.2c-2.8,0-5.5,0.1-7.2,0.2c0.8-5.2,1.1-9.4,1.1-15.8v-10.7     c0-4.3-0.4-11.9-1.9-16.6c3.4,0,8.6-0.2,12.2-0.4l-0.2,10.1l3.2-4.2c4-5.3,6.8-6.9,11-6.9c1.5,0,2.2,0.1,3.8,0.8     c-1.3,4.5-2.6,9.3-3.3,12c-0.2,0.6-0.7,1.4-1.5,0.5c-1.7-1.9-2-2.6-4.1-2.6c-2.5,0-4.5,1.3-6.1,3.8c-1.2,2-1.8,3.7-1.8,8v7.2     C272.2,366.8,272.8,370,274,373.8z"/>
			<path class="st1" d="M323.2,331c-0.3,1.2-1.4,4.9-1.8,6.4c-3.5-0.4-5.6-0.4-7.9-0.4h-3.9c-0.2,3-0.3,6.5-0.3,9v10.1     c0,6.8,0.7,11.8,6.6,11.8c1.9,0,3.4-0.4,5.7-1.6c0.4-0.2,1.3-0.1,1,1c-0.5,2-1,3.8-1.7,6c-5.3,1.4-7.5,1.8-10.4,1.8     c-7.6,0-12.6-3.3-12.6-14.2v-13.6c0-4.4,0-7.5-0.2-10.5c-2.3,0-4.8,0.3-6,0.5c-0.3,0-0.9-0.1-0.6-1c0.1-0.3,1.2-4.3,1.6-5.7     c1.1,0.1,3.3,0.2,5.4,0.2c0-3.5-0.2-5.4-0.4-8.1c3.1-0.9,8.8-3.5,11.3-5c0.9-0.6,1.4,0.2,1.3,1.2c-0.1,1-0.7,4-0.8,11.9h6.2     c2.1,0,4.6-0.1,6.8-0.6C322.9,330.1,323.4,330.3,323.2,331z"/>
			<path class="st1" d="M410,373.7c-2.9,0-5.8,0.1-7.3,0.2c0.8-4.9,1.1-10.5,1.1-17V349c0-5.2-0.4-11.2-7.7-11.2     c-2.6,0-5.2,1.1-7.2,3c-2.3,2.2-2.9,4.1-2.9,9.7v6.4c0,8.2,0.5,13.1,1.8,17c-1.3-0.1-4.3-0.2-7.1-0.2c-3,0-5.8,0.1-7.3,0.2     c0.8-4.9,1.1-10.5,1.1-17v-11c0-4.3-0.4-10.9-1.9-15.6c4,0,9.5,0,13.2-0.4l-0.3,7.7l3.6-3.1c4.4-3.7,8-5.2,12.5-5.2     c10.3,0,13.8,5.8,13.8,15.9v11.6c0,8.2,0.5,13.1,1.8,17C415.8,373.8,412.8,373.7,410,373.7z"/>
			<path class="st1" d="M253.9,351.1c1.5,0,1.5-3.8,1.5-4.6c0-10.5-6.8-17-17.6-17c-12.6,0-21.3,9.5-21.3,23.2     c0,13.5,8.6,22.7,22.2,22.7c4.7,0,9.7-1.3,13.8-2.6c0.7-2.6,0.9-3.4,1.8-6.4c0.4-1.4-0.4-1.9-1.1-1.4c-3.1,2.2-5.4,2.9-9.1,2.9     c-9.4,0-15-6-15.2-16.4c2.9-0.2,9.3-0.3,13.9-0.3H253.9z M228.7,346c0.4-7.2,2.8-11.4,8.4-11.4c4,0,6.9,3,6.9,7.1     c0,2.8-1.5,3.9-5.3,4L228.7,346z"/>
			<path class="st1" d="M348.2,329.4c-15.7,0-24.1,10-24.1,23.9c0,13.9,8.1,22,22,22c14.6,0,23.9-9.4,23.9-24.2     C370,337.3,362.2,329.4,348.2,329.4z M347.1,370.3c-6.7,0-10.4-6.5-10.4-18.8c0-10.5,2.8-17.1,10.1-17.1     c6.9,0,10.7,6.6,10.7,18.9C357.5,364.5,353.9,370.3,347.1,370.3z"/>
		</g>
		<path class="st1" d="M325.1,146l-44.2-92.9c1.6-3.4-1.6-7.9-5-7.9s-6.1,4.5-4.5,8l-43.9,93.4c-8.7,4.7-10.6,10.6-8.8,14.6    c0,0,1,2.8,4.9,4c0,6.1,0.1,63.9,0.2,75c0,0.2,0,0.5-0.1,0.5c-1.8-0.3-3.8,0.9-3.8,4c0,4.7,0,7.4,0,12c0,1.1,0,4.4,0,4.7    c0,3.7,3.8,4.9,3.8,4.9s83.7,29.9,86.5,31c4,1.5,7.6,2.8,11,4.1c1.1,0.5,1.2,1.1,1.3,3.2v4.2c0,0,2.1,0.1,3.2,0.1    c8.1,0,7.1-4.1,7.3-16.5c0.3-13,0.3-16.9-3.4-17.7c-0.3-34.1,0.5-93.8,0.3-110.7c2.7-1.1,5.1-3.2,5.5-6.5    C335.8,154.3,332.5,149.7,325.1,146z M276.5,63.4c1.5,3.2,3.1,6.7,4.9,10.4c-1.5,0.1-4.6,0.3-6.5,0.8c-1.1,0.3-1.3,0.7-1.3,1.1    c0,0.4,0.5,0.9,1.6,0.9c2.4,0,5.9,0.2,7.6,0.3c0.5,1.1,1,2.2,1.6,3.4c-1.3,0.4-3.1,0.9-3.6,1.1c-0.8,0.3-1.6,0.6-1.6,1.2    c0.1,0.5,0.9,0.6,1.6,0.7c1.5,0.2,3.8,0.3,5.1,0.3c0.9,1.9,1.5,3.3,2.4,5.2c0.6,1.2-1.1,1.4-2.6,1.5c-1.7,0.1-6,0.1-8.1,0.4    c-0.8,0.1-1.1,0.5-1.1,1c0,0.4,0.6,0.8,1.4,0.9c2.9,0.2,6.6,0.5,8.5,0.8c1.6,0.3,3.4,0.7,4.5,1.1c0.6,1.2,1.1,2.4,1.7,3.6    c0.3,0.7-0.6,1-1.3,1.1c-1.1,0.1-6-0.2-8.7,0c-1.2,0.1-1.4,0.4-1.4,1c0,0.4,0.2,0.7,1.3,0.9c2.1,0.3,6.3,0.5,7.6,0.7    c1.4,0.2,3.2,0.7,4.7,1.3c0.9,1.9,1.5,3.2,2.4,5.1c0.4,0.8-0.1,1-0.6,1.1c-0.8,0.1-9.7,0.2-10.4,0.2c-0.9,0.1-1.9,0.3-2.1,1.1    c-0.1,0.6,0.7,1.4,2.7,1.5c2.1,0.1,9.8,0.6,13.9,3.5c1.1,2.3,2.1,4.6,3.2,6.8c-3-0.3-13.6-1.2-18.4-1c-4.2,0.1-5.9,0-6,0.8    c-0.2,0.8,0.7,1.2,3.3,1.5c2.5,0.2,16.2,1.1,23.5,3.9c1.4,3,2.7,5.8,3.8,8.1c-3.8-0.8-12.7-2.1-18.1-2.2c-2.1-0.1-2.9,0.4-2.9,1.3    c0,0.9,1.9,1,3.1,1.1c6.7,0.7,16.2,3,20,4.4c0.4,0.8,0.7,1.5,1,2c-12.2-2.6-29.7-3.8-37.4-3.8c-7.6,0-24.1,1.1-36.3,4    C243.1,135,264.7,88.6,276.5,63.4z M243.8,267.9c0,0.4-0.3,0.6-0.7,0.4c-3.8-1.3-5.7-2-9.5-3.3c-0.4-0.1-0.7-0.5-0.7-0.9    c0-6.3,0-9.5,0-15.8c0-0.4,0.3-0.6,0.7-0.4c3.8,1.4,5.7,2.1,9.5,3.5c0.4,0.1,0.7,0.5,0.7,0.9C243.8,258.5,243.8,261.6,243.8,267.9    z M259.6,273.5c0,0.4-0.3,0.6-0.7,0.4c-3.8-1.4-5.7-2-9.5-3.4c-0.4-0.1-0.7-0.5-0.7-0.9c0-6.2,0-9.4,0-15.5c0-0.4,0.3-0.5,0.7-0.4    c3.8,1.4,5.7,2.1,9.5,3.4c0.4,0.1,0.7,0.5,0.7,0.9C259.6,264.1,259.6,267.3,259.6,273.5z M275.5,279.1c0,0.4-0.3,0.5-0.7,0.4    c-3.8-1.3-5.7-2-9.5-3.4c-0.4-0.1-0.7-0.5-0.7-0.9c0-6.2,0-9.4,0-15.5c0-0.4,0.3-0.5,0.7-0.4c3.8,1.3,5.7,1.9,9.5,3.2    c0.4,0.1,0.7,0.5,0.7,0.9C275.5,269.6,275.5,272.9,275.5,279.1z M291.3,284.7c0,0.4-0.3,0.6-0.7,0.4c-3.8-1.3-5.7-2-9.5-3.3    c-0.4-0.1-0.7-0.5-0.7-0.9c0-6.3,0-9.5,0-15.8c0-0.4,0.3-0.6,0.7-0.4c3.8,1.2,5.7,1.8,9.5,3c0.4,0.1,0.7,0.5,0.7,0.9    C291.4,275,291.3,278.4,291.3,284.7z M307.1,290.2c0,0.4-0.3,0.6-0.7,0.4c-3.8-1.3-5.7-2-9.5-3.3c-0.4-0.1-0.7-0.5-0.7-0.9    c0-6.3,0-9.7,0.1-16.3c0-0.4,0.3-0.6,0.7-0.5c3.8,1.2,5.7,1.7,9.5,2.9c0.4,0.1,0.7,0.5,0.7,0.9    C307.2,280.3,307.2,283.8,307.1,290.2z M260,252.8c-18.7-6.5-27.2-9.9-27.4-15.4c-0.1-3.4-0.6-17.4-0.2-20.9l-0.3-52.2    c0-1.5,2.5-2.5,4.8-3c2.2-0.5,16-3.6,39.1-3.6c23.1,0,39.2,2.8,43.3,4.4c0.9,0.4,2,0.8,2.7,1.4l0.1,4.5c-3.9-0.5-18.8-2.6-25.2-3    c-2.9-0.2-6.8-0.3-10.5-0.4c0-0.4-0.2-0.8-0.4-1.1c-0.3-0.3-0.7-0.5-1.2-0.6c-8.1-0.3-11-0.3-19.3,0c-0.5,0-0.9,0.2-1.2,0.6    c-0.3,0.3-0.5,0.8-0.4,1.2l1.1,19.9c-0.3,0-0.6,0-0.9,0.1c-4.1,0.3-20.3,2.6-21.4,2.9c-1.5,0.4-1.9,0.8-1.7,1.3    c0.2,0.9,1.4,0.6,2.6,0.4c8.1-0.9,15.3-1.4,21.6-1.7l0.2,3.2c0.1,0.9,0.8,1.6,1.7,1.6c0,0,0,0,0.1,0c6.9-0.3,9.3-0.3,16.1,0    c0.9,0,1.7-0.7,1.8-1.6l0.2-3.2c2.6,0.1,4,0.3,4,0.3c11.6,1,26.7,3.2,33.3,7.2l0,4.7c-3.8-0.8-13.6-2.9-17.2-3.1    c-4.5-0.3-6.6-0.1-7.4,0c-0.8,0.1-1.4,0.5-1.3,1.1c0.1,0.6,0.7,0.9,1.7,1c0.9,0.1,15.3,0.6,24.2,6.7l0.1,4.8    c-5.1-1-21.9-4.3-33.6-4.8c-15.3-0.7-34.4,1.1-35.9,1.3c-1.5,0.2-2.2,0.7-2.1,1.4c0.1,0.8,0.4,1.2,2.5,1c1.5-0.1,29.3-1.1,43.9,1    c11.9,1.7,20,3.7,25.4,6.2l0.1,6c-4.7-1-15.1-3-20.3-3.4c-10.9-0.9-17.9-0.8-19-0.8c-1.1,0-1.5,0.5-1.5,1.2c0,0.8,0.8,0.8,1.6,0.8    c1.4,0,9.5,0.3,18.4,1.7c5.8,0.9,14.9,2.3,20.9,5.4l0.1,6.1c-3.1-0.4-9.3-1-11.9-1.1c-3.5-0.1-6.5,0-7.6,0.2    c-0.7,0.2-1.1,0.7-1,1.1c0.1,0.4,0.5,0.8,1.2,0.8c0.8,0,6,0.3,10,1c3.1,0.5,6.8,1.6,9.4,2.9c0,0,0,5.9,0,7.9    c0,0.2-6.7-2.1-13.4-2.5c-6-0.4-11.8-0.3-16.3,0.1c-0.4,0-1.7,0.3-1.7,1.4c0,1.2,1.4,1,2.1,1c3.4,0.1,6.3,0,12.3,0.6    c8.8,0.9,17.1,3.7,17.1,3.9c0,2.4,0,4.6,0,7.5c0,0.1-3.8-1.1-9.7-1.9c-2.4-0.3-6.6-0.8-8.2-0.6c-1.1,0.1-2.1,0.3-2.1,1.3    c-0.1,1.4,2.4,1.4,3.3,1.5c0.9,0.1,3.5,0.3,8.1,1c3.7,0.6,8.7,2,8.7,2.1c0,6.2,0,11.3,0,11.3C304.3,267.7,279.6,260,260,252.8z     M300.5,177c0.8,0,15.3,0.4,21.7,5.7l0.1,6c-4.1-1-13.5-3.1-24.5-4.2c-2.9-0.3-5.9-0.5-8.7-0.6c0,0-1.5,0-3.7-0.1l0.9-16.9    c4.3,0.3,8.8,0.7,12.7,1.2c6.3,0.8,18,2.9,23.2,5.1l0.1,4.4c-2.5-0.6-7.9-1.7-11.7-2.3c-5-0.7-8.9-0.7-9.8-0.5    c-0.9,0.1-1.9,0.2-1.9,1.1C298.8,176.8,299.6,177,300.5,177z M282.7,167.2l-1.2,21.8c0,0-6.2-0.1-11.1,0l-1.3-21.7    C269.2,167.3,277.6,166.9,282.7,167.2z M323,295.7c0,0.4-0.3,0.6-0.7,0.4c-3.8-1.3-5.7-2-9.5-3.3c-0.4-0.1-0.7-0.5-0.7-0.9    c0-6.4,0-9.9,0-17c0-0.4,0.3-0.7,0.7-0.5c3.8,1.1,5.7,1.7,9.4,2.8c0.4,0.1,0.7,0.6,0.7,1C323,285.6,323,289.3,323,295.7z     M325.8,158.4c-0.9,1.6-2.9,0.9-5,0c-1.9-0.9-18-6.7-44.9-6.7c-26.9,0-41.6,5.3-43.6,5.7c-1.9,0.5-4.6,2-6.1-0.8    c-1-1.8,0.3-3.6,3.3-4.8c3-1.3,24.8-6,46.4-6.2c21.7-0.2,42.4,4.5,48.2,8.3C325.6,154.8,326.7,156.8,325.8,158.4z"/>
		<g>
			<path class="st1" d="M346.5,111.7c2.7,1.8,5.6,2.4,7.7,1.9c-0.7-2.3-2.6-4.7-5.4-6.5c-2.7-1.8-5.6-2.4-7.7-1.9     C341.8,107.4,343.7,109.9,346.5,111.7z"/>
			<path class="st1" d="M359.5,113c-0.5,2.3-0.1,5.6,1.3,8.7c1.5,3.1,3.6,5.4,5.6,6.3c0.5-2.3,0.1-5.6-1.3-8.7     C363.7,116.2,361.6,113.9,359.5,113z"/>
			<path class="st1" d="M349.5,95.9c0.5-2.3,0-5.6-1.5-8.7c-1.5-3.1-3.7-5.4-5.7-6.2c-0.5,2.3,0,5.6,1.5,8.7     C345.4,92.9,347.5,95.1,349.5,95.9z"/>
			<path class="st1" d="M364.1,70.3c1.8-2.9,2.6-6.1,2.3-8.4c-2.1,0.6-4.5,2.5-6.3,5.4c-1.8,2.9-2.6,6.1-2.3,8.4     C360,75.2,362.3,73.2,364.1,70.3z"/>
			<path class="st1" d="M360,82.4c2.2-2,3.6-4.5,3.9-6.6c-1.9-0.1-4.4,0.9-6.6,2.9c-2.2,2-3.6,4.5-3.9,6.6     C355.3,85.4,357.8,84.4,360,82.4z"/>
			<path class="st1" d="M351,89.4c1.1-2,1.6-5.3,1.1-8.8c-0.5-3.5-2-6.4-3.6-7.9c-1.1,2-1.6,5.3-1.1,8.8     C347.9,85,349.3,87.9,351,89.4z"/>
			<path class="st1" d="M356.4,71.1c0.2-3.5-0.6-6.7-1.9-8.6c-1.5,1.7-2.6,4.7-2.8,8.3c-0.2,3.5,0.6,6.7,1.9,8.6     C355.1,77.6,356.2,74.6,356.4,71.1z"/>
			<path class="st1" d="M409.5,82.4c2.2,2,4.7,3,6.6,2.9c-0.3-2.1-1.7-4.6-3.9-6.6c-2.2-2-4.7-3-6.6-2.9     C405.8,77.9,407.2,80.4,409.5,82.4z"/>
			<path class="st1" d="M403.4,137.1c3.2,0.4,6-0.3,7.8-1.7c-1.4-1.8-4.1-3.2-7.2-3.6c-3.2-0.4-6,0.3-7.8,1.7     C397.6,135.3,400.3,136.7,403.4,137.1z"/>
			<path class="st1" d="M411.6,75.7c0.3-2.4-0.5-5.5-2.3-8.4c-1.8-2.9-4.2-4.9-6.3-5.4c-0.3,2.4,0.5,5.5,2.4,8.4     C407.1,73.2,409.5,75.2,411.6,75.7z"/>
			<path class="st1" d="M408.6,121.7c1.4-3.1,1.9-6.4,1.3-8.7c-2,0.9-4.1,3.1-5.6,6.3c-1.5,3.1-1.9,6.4-1.3,8.7     C405,127.2,407.1,124.9,408.6,121.7z"/>
			<path class="st1" d="M415.8,79.3c1.3-1.9,2.1-5,1.9-8.6c-0.2-3.5-1.3-6.6-2.8-8.3c-1.3,1.9-2.1,5-1.9,8.6     C413.2,74.6,414.3,77.6,415.8,79.3z"/>
			<path class="st1" d="M418.4,89.4c1.7-1.5,3.1-4.4,3.6-7.8c0.5-3.5,0.1-6.7-1-8.8c-1.7,1.5-3.1,4.4-3.6,7.9     C416.8,84.1,417.3,87.3,418.4,89.4z"/>
			<path class="st1" d="M418.8,99c0.3-2.1-0.2-5-1.7-7.7c-1.5-2.7-3.5-4.6-5.4-5.2c-0.3,2.1,0.3,5,1.7,7.7     C414.9,96.5,417,98.3,418.8,99z"/>
			<path class="st1" d="M419.9,95.9c2-0.8,4.2-3.1,5.7-6.2c1.5-3.1,2-6.4,1.5-8.7c-2,0.8-4.2,3.1-5.7,6.2     C419.9,90.4,419.4,93.6,419.9,95.9z"/>
			<path class="st1" d="M410.7,106.7c-0.5,3.5,0,6.7,1.1,8.8c1.7-1.5,3.1-4.4,3.6-7.9c0.5-3.5,0-6.7-1.1-8.7     C412.6,100.3,411.2,103.2,410.7,106.7z"/>
			<path class="st1" d="M342.3,94.2c-0.1,2.4,1,5.5,3,8.2c2,2.7,4.5,4.4,6.7,4.8c0.1-2.4-1-5.5-3-8.2     C346.9,96.2,344.4,94.5,342.3,94.2z"/>
			<path class="st1" d="M357.2,130.6c3.1,0.6,6,0.1,7.9-1.1c-1.3-1.9-3.9-3.5-7-4.1c-3.1-0.6-6-0.1-7.9,1.1     C351.5,128.4,354.1,130,357.2,130.6z"/>
			<path class="st1" d="M396,132.1c2.6-1.9,4.4-4.5,5-6.9c-2.1-0.3-5,0.5-7.6,2.5c-2.6,2-4.4,4.6-5,6.9     C390.6,134.9,393.4,134.1,396,132.1z"/>
			<path class="st1" d="M346.6,115.3c0.7,2.3,2.6,4.7,5.4,6.5c2.7,1.8,5.6,2.4,7.7,1.9c-0.7-2.3-2.6-4.7-5.4-6.5     C351.5,115.5,348.7,114.8,346.6,115.3z"/>
			<path class="st1" d="M356,93.8c1.5-2.7,2.1-5.6,1.7-7.7c-1.8,0.6-3.9,2.5-5.4,5.2c-1.5,2.7-2.1,5.6-1.7,7.7     C352.5,98.3,354.5,96.5,356,93.8z"/>
			<path class="st1" d="M357.7,115.4c1.2-2,1.6-5.3,1.1-8.8c-0.5-3.5-1.9-6.4-3.6-7.9c-1.1,2-1.6,5.3-1.1,8.7     C354.6,111,356,113.9,357.7,115.4z"/>
			<path class="st1" d="M358.2,135.4c1.8,1.4,4.6,2.1,7.8,1.7c3.2-0.4,5.8-1.8,7.2-3.6c-1.8-1.4-4.6-2.1-7.8-1.7     C362.3,132.2,359.6,133.6,358.2,135.4z"/>
			<path class="st1" d="M374.9,135.9c-3.1,0.8-5.6,2.5-6.9,4.4c1.9,1.2,4.8,1.5,7.9,0.7c3-0.7,5.4-2.3,6.7-4.2     c0.4,0.3,0.8,0.7,1.1,1.1c-3.3,2-6,4.6-8.6,8c1,1.6,1.5,2.4,2.6,4.1c2-4.5,4.1-8.2,6.9-11.2c2.9,3.1,5.3,6.8,7.3,11.3     c1-1.6,1.5-2.4,2.6-4.1c-2.6-3.4-5.6-6.1-9.1-8.1c0.4-0.4,0.7-0.7,1.1-1.1c1.3,1.9,3.7,3.5,6.7,4.2c3.1,0.8,6,0.4,7.9-0.7     c-1.2-1.9-3.8-3.7-6.9-4.4c-2.6-0.7-5.2-0.5-7,0.3c0,0,0,0,0,0c0,0,0,0-0.1,0c0,0-0.1,0-0.1,0.1c-0.9,0.4-1.7,0.8-2.5,1.2     c0,0-1.1-0.6-2.8-1.3C380,135.4,377.5,135.2,374.9,135.9z"/>
			<path class="st1" d="M373.4,132.1c2.6,2,5.5,2.8,7.6,2.5c-0.5-2.3-2.3-4.9-5-6.9c-2.6-2-5.5-2.8-7.6-2.5     C368.9,127.5,370.7,130.1,373.4,132.1z"/>
			<path class="st1" d="M424.2,102.3c2-2.7,3.1-5.8,3-8.2c-2.1,0.4-4.6,2.1-6.7,4.8c-2,2.7-3.1,5.8-3,8.2     C419.6,106.8,422.1,105,424.2,102.3z"/>
			<path class="st1" d="M415.1,117.2c-2.7,1.8-4.7,4.2-5.4,6.5c2.1,0.5,5-0.2,7.7-1.9c2.8-1.8,4.7-4.2,5.4-6.5     C420.8,114.8,417.9,115.5,415.1,117.2z"/>
			<path class="st1" d="M420.6,107.1c-2.7,1.8-4.7,4.2-5.4,6.5c2.1,0.5,5-0.2,7.7-1.9c2.7-1.8,4.7-4.2,5.4-6.5     C426.2,104.7,423.3,105.3,420.6,107.1z"/>
			<path class="st1" d="M411.4,125.4c-3.1,0.6-5.7,2.2-7,4.1c1.8,1.3,4.7,1.7,7.9,1.1c3.1-0.6,5.7-2.2,7-4.1     C417.4,125.3,414.5,124.8,411.4,125.4z"/>
			<path class="st1" d="M427,81.1c0.5,2.3,0,5.6-1.5,8.7c-1.5,3.1-3.6,5.4-5.7,6.2c-0.5-2.3,0-5.6,1.5-8.7     C422.9,84.1,425,81.9,427,81.1z"/>
			<path class="st1" d="M413.4,93.8c-1.5-2.7-2.1-5.6-1.7-7.7c1.8,0.6,3.9,2.5,5.4,5.2c1.5,2.7,2.1,5.6,1.7,7.7     C417,98.3,414.9,96.5,413.4,93.8z"/>
			<path class="st1" d="M415.3,107.5c-0.5,3.5-1.9,6.4-3.6,7.9c-1.1-2-1.6-5.3-1.1-8.8c0.5-3.5,1.9-6.4,3.6-7.9     C415.4,100.8,415.9,104.1,415.3,107.5z"/>
			<path class="st1" d="M420.5,98.9c2-2.7,4.5-4.4,6.7-4.8c0.1,2.4-1,5.5-3,8.2c-2,2.7-4.5,4.4-6.7,4.8     C417.4,104.7,418.5,101.7,420.5,98.9z"/>
			<path class="st1" d="M421,72.8c1.1,2,1.6,5.3,1,8.8c-0.5,3.5-1.9,6.4-3.6,7.8c-1.1-2-1.6-5.3-1-8.8     C417.9,77.1,419.3,74.2,421,72.8z"/>
			<path class="st1" d="M415,62.5c1.5,1.7,2.6,4.7,2.8,8.3c0.2,3.5-0.6,6.7-1.9,8.6c-1.5-1.7-2.6-4.7-2.8-8.3     C412.8,67.5,413.6,64.4,415,62.5z"/>
			<path class="st1" d="M416.1,85.3c-1.9,0.1-4.4-0.9-6.6-2.9c-2.2-2-3.6-4.5-3.9-6.6c1.9-0.1,4.4,0.9,6.6,2.9     C414.4,80.7,415.8,83.1,416.1,85.3z"/>
			<path class="st1" d="M402.9,61.9c2.1,0.6,4.5,2.5,6.3,5.4c1.8,2.9,2.6,6.1,2.3,8.4c-2.1-0.6-4.5-2.5-6.3-5.4     C403.5,67.4,402.7,64.3,402.9,61.9z"/>
			<path class="st1" d="M404.3,119.3c1.4-3.1,3.6-5.4,5.6-6.3c0.5,2.3,0.1,5.6-1.3,8.7c-1.4,3.1-3.6,5.4-5.6,6.3     C402.4,125.7,402.9,122.5,404.3,119.3z"/>
			<path class="st1" d="M404,131.8c3.2,0.4,5.8,1.8,7.2,3.6c-1.8,1.4-4.6,2.1-7.8,1.7c-3.2-0.4-5.8-1.8-7.2-3.6     C397.9,132.1,400.8,131.4,404,131.8z"/>
			<path class="st1" d="M393.4,127.7c2.6-2,5.5-2.8,7.6-2.5c-0.5,2.3-2.3,4.9-5,6.9c-2.6,2-5.5,2.8-7.6,2.5     C389,132.2,390.8,129.6,393.4,127.7z"/>
			<path class="st1" d="M384.6,137.4c0.8-0.4,1.6-0.8,2.5-1.2c0,0,0.1,0,0.1-0.1c0,0,0,0,0.1,0c0,0,0,0,0,0c1.9-0.8,4.4-0.9,7-0.3     c3.1,0.8,5.6,2.5,6.9,4.4c-1.9,1.2-4.8,1.5-7.9,0.7c-3-0.8-5.4-2.4-6.7-4.2c-0.4,0.3-0.8,0.7-1.1,1.1c3.5,2,6.5,4.7,9.1,8.1     c-1,1.6-1.5,2.4-2.6,4.1c-2-4.5-4.4-8.2-7.3-11.3c-2.8,3-4.9,6.7-6.9,11.2c-1-1.6-1.5-2.4-2.6-4.1c2.6-3.4,5.3-6,8.6-8     c-0.4-0.4-0.7-0.7-1.1-1.1c-1.3,1.8-3.7,3.5-6.7,4.2c-3.1,0.8-6,0.4-7.9-0.7c1.2-1.9,3.8-3.7,6.9-4.4c2.6-0.6,5-0.5,6.9,0.2     C383.6,136.8,384.6,137.4,384.6,137.4z"/>
			<path class="st1" d="M376,127.7c2.6,2,4.4,4.6,5,6.9c-2.1,0.3-5-0.5-7.6-2.5c-2.6-1.9-4.4-4.5-5-6.9     C370.5,124.9,373.4,125.7,376,127.7z"/>
			<path class="st1" d="M373.3,133.5c-1.4,1.8-4.1,3.2-7.2,3.6c-3.2,0.4-6-0.3-7.8-1.7c1.4-1.8,4.1-3.2,7.3-3.6     C368.6,131.4,371.5,132.1,373.3,133.5z"/>
			<path class="st1" d="M350.6,99c-0.3-2.1,0.3-5,1.7-7.7c1.5-2.7,3.5-4.6,5.4-5.2c0.3,2.1-0.3,5-1.7,7.7     C354.5,96.5,352.5,98.3,350.6,99z"/>
			<path class="st1" d="M352,107.1c-2.1-0.4-4.6-2.1-6.7-4.8c-2-2.7-3.1-5.8-3-8.2c2.1,0.4,4.6,2.1,6.7,4.8     C351,101.7,352,104.7,352,107.1z"/>
			<path class="st1" d="M355.2,98.8c1.7,1.5,3.1,4.4,3.6,7.9c0.5,3.5,0,6.7-1.1,8.8c-1.7-1.5-3.1-4.4-3.6-7.9     C353.6,104.1,354,100.8,355.2,98.8z"/>
			<path class="st1" d="M359.7,123.7c-2.1,0.5-5-0.2-7.7-1.9c-2.7-1.8-4.7-4.2-5.4-6.5c2.1-0.5,5,0.2,7.7,1.9     C357,119,359,121.5,359.7,123.7z"/>
			<path class="st1" d="M358.1,125.4c3.1,0.6,5.7,2.2,7,4.1c-1.8,1.3-4.7,1.7-7.9,1.1c-3.1-0.6-5.7-2.2-7-4.1     C352,125.3,355,124.8,358.1,125.4z"/>
			<path class="st1" d="M366.4,128c-2-0.9-4.1-3.1-5.6-6.3c-1.4-3.1-1.9-6.4-1.3-8.7c2,0.9,4.1,3.1,5.6,6.3     C366.6,122.5,367,125.7,366.4,128z"/>
			<path class="st1" d="M360.2,67.3c1.8-2.9,4.2-4.9,6.3-5.4c0.3,2.4-0.5,5.5-2.3,8.4c-1.8,2.9-4.2,4.9-6.3,5.4     C357.6,73.4,358.4,70.2,360.2,67.3z"/>
			<path class="st1" d="M357.3,78.7c2.2-2,4.7-3,6.6-2.9c-0.3,2.1-1.7,4.6-3.9,6.6c-2.2,2-4.7,3-6.6,2.9     C353.7,83.1,355.1,80.7,357.3,78.7z"/>
			<path class="st1" d="M351.7,70.8c0.2-3.5,1.3-6.6,2.8-8.3c1.3,1.9,2.1,5,1.9,8.6c-0.2,3.5-1.3,6.6-2.8,8.3     C352.3,77.5,351.5,74.3,351.7,70.8z"/>
			<path class="st1" d="M348.4,72.8c1.7,1.5,3.1,4.4,3.6,7.9c0.5,3.5,0.1,6.7-1.1,8.8c-1.7-1.5-3.1-4.4-3.6-7.8     C346.8,78,347.3,74.8,348.4,72.8z"/>
			<path class="st1" d="M342.4,81.1c2,0.8,4.2,3.1,5.7,6.2c1.5,3.1,2,6.3,1.5,8.7c-2-0.8-4.2-3.1-5.7-6.2     C342.4,86.6,341.9,83.4,342.4,81.1z"/>
			<path class="st1" d="M412.2,130.6c-3.1,0.6-6,0.1-7.9-1.1c1.3-1.9,3.9-3.5,7-4.1c3.1-0.6,6-0.1,7.9,1.1     C417.9,128.4,415.3,130,412.2,130.6z"/>
			<path class="st1" d="M417.5,121.8c-2.8,1.8-5.6,2.4-7.7,1.9c0.7-2.3,2.6-4.7,5.4-6.5c2.7-1.8,5.6-2.4,7.7-1.9     C422.2,117.6,420.3,120,417.5,121.8z"/>
			<path class="st1" d="M423,111.7c-2.7,1.8-5.6,2.4-7.7,1.9c0.7-2.3,2.6-4.7,5.4-6.5c2.7-1.8,5.6-2.4,7.7-1.9     C427.6,107.4,425.7,109.9,423,111.7z"/>
			<path class="st1" d="M348.9,107.1c2.7,1.8,4.7,4.2,5.4,6.5c-2.1,0.5-5-0.2-7.7-1.9c-2.7-1.8-4.7-4.2-5.4-6.5     C343.2,104.7,346.1,105.3,348.9,107.1z"/>
		</g>
	</g>
</g>
</svg>