<svg width="153" height="46" viewBox="0 0 153 46" fill="none" xmlns="http://www.w3.org/2000/svg">
<path d="M146.757 0.665039H6.11777C3.01085 0.665039 0.492188 3.1837 0.492188 6.29062V40.0441C0.492188 43.151 3.01085 45.6697 6.11777 45.6697H146.757C149.864 45.6697 152.383 43.151 152.383 40.0441V6.29062C152.383 3.1837 149.864 0.665039 146.757 0.665039Z" fill="#000021"/>
<path d="M146.757 1.56513C148.011 1.56513 149.212 2.06299 150.099 2.94919C150.985 3.8354 151.483 5.03734 151.483 6.29062V40.0441C151.483 41.2974 150.985 42.4993 150.099 43.3855C149.212 44.2717 148.011 44.7696 146.757 44.7696H6.11777C4.86449 44.7696 3.66254 44.2717 2.77634 43.3855C1.89014 42.4993 1.39228 41.2974 1.39228 40.0441V6.29062C1.39228 5.03734 1.89014 3.8354 2.77634 2.94919C3.66254 2.06299 4.86449 1.56513 6.11777 1.56513H146.757ZM146.757 0.665039H6.11777C4.62577 0.665039 3.19488 1.25773 2.13988 2.31273C1.08488 3.36773 0.492188 4.79862 0.492188 6.29062V40.0441C0.492188 41.5361 1.08488 42.967 2.13988 44.022C3.19488 45.077 4.62577 45.6697 6.11777 45.6697H146.757C148.249 45.6697 149.68 45.077 150.735 44.022C151.79 42.967 152.383 41.5361 152.383 40.0441V6.29062C152.383 4.79862 151.79 3.36773 150.735 2.31273C149.68 1.25773 148.249 0.665039 146.757 0.665039Z" fill="white"/>
<path d="M77.1576 25.1365C76.2128 25.141 75.2906 25.4252 74.5072 25.9533C73.7238 26.4815 73.1144 27.2298 72.7559 28.1039C72.3975 28.9781 72.306 29.9388 72.493 30.8649C72.68 31.791 73.1372 32.6409 73.8068 33.3074C74.4765 33.9739 75.3285 34.427 76.2555 34.6097C77.1824 34.7924 78.1427 34.6964 79.0152 34.3339C79.8876 33.9713 80.6331 33.3584 81.1575 32.5725C81.682 31.7867 81.9618 30.8631 81.9619 29.9183C81.971 29.2859 81.8529 28.6581 81.6144 28.0724C81.3759 27.4866 81.022 26.9548 80.5737 26.5086C80.1255 26.0625 79.592 25.7111 79.0051 25.4753C78.4183 25.2396 77.7899 25.1244 77.1576 25.1365ZM77.1576 32.8211C76.5766 32.8617 75.9968 32.7266 75.4935 32.4334C74.9903 32.1401 74.5869 31.7022 74.3358 31.1767C74.0848 30.6511 73.9976 30.0622 74.0857 29.4864C74.1737 28.9107 74.433 28.3747 74.8297 27.9483C75.2264 27.5218 75.7422 27.2245 76.3101 27.0951C76.878 26.9657 77.4717 27.0101 78.014 27.2226C78.5563 27.4351 79.0222 27.8058 79.351 28.2865C79.6799 28.7673 79.8565 29.3358 79.8579 29.9183C79.876 30.2873 79.82 30.6563 79.6933 31.0034C79.5666 31.3505 79.3716 31.6687 79.12 31.9392C78.8683 32.2097 78.565 32.4272 78.228 32.5786C77.8909 32.7301 77.527 32.8125 77.1576 32.8211ZM66.6828 25.1365C65.7375 25.1388 64.8141 25.4211 64.0293 25.9479C63.2444 26.4747 62.6332 27.2222 62.2731 28.0962C61.9129 28.9701 61.8198 29.9312 62.0055 30.858C62.1913 31.7849 62.6476 32.6358 63.3168 33.3035C63.986 33.9711 64.838 34.4254 65.7653 34.609C66.6925 34.7926 67.6534 34.6972 68.5265 34.335C69.3996 33.9727 70.1457 33.3598 70.6707 32.5737C71.1956 31.7876 71.4758 30.8636 71.4758 29.9183C71.4849 29.2859 71.3668 28.6581 71.1283 28.0724C70.8898 27.4866 70.5359 26.9548 70.0877 26.5086C69.6394 26.0625 69.1059 25.7111 68.5191 25.4753C67.9322 25.2396 67.3039 25.1244 66.6715 25.1365H66.6828ZM66.6828 32.8211C66.1015 32.864 65.5207 32.7309 65.0161 32.4392C64.5114 32.1474 64.1063 31.7105 63.8535 31.1853C63.6007 30.6601 63.5118 30.0709 63.5985 29.4945C63.6852 28.9181 63.9434 28.3811 64.3395 27.9535C64.7356 27.5259 65.2513 27.2274 65.8194 27.097C66.3876 26.9665 66.9818 27.0102 67.5248 27.2222C68.0677 27.4342 68.5343 27.8047 68.8638 28.2856C69.1932 28.7665 69.3702 29.3354 69.3718 29.9183C69.3899 30.2873 69.334 30.6563 69.2072 31.0034C69.0805 31.3505 68.8855 31.6687 68.6339 31.9392C68.3822 32.2097 68.0789 32.4272 67.7419 32.5786C67.4049 32.7301 67.0409 32.8125 66.6715 32.8211H66.6828ZM54.2052 26.6105V28.6357H59.0657C58.9895 29.5895 58.593 30.4896 57.9406 31.1897C57.4543 31.685 56.8698 32.073 56.2245 32.3288C55.5792 32.5846 54.8876 32.7025 54.194 32.6748C52.7617 32.6748 51.388 32.1058 50.3752 31.093C49.3624 30.0802 48.7934 28.7066 48.7934 27.2743C48.7934 25.842 49.3624 24.4683 50.3752 23.4555C51.388 22.4427 52.7617 21.8737 54.194 21.8737C55.5641 21.8514 56.8872 22.3733 57.8731 23.3251L59.302 21.8962C58.6365 21.2223 57.8424 20.6888 56.967 20.3274C56.0915 19.966 55.1524 19.784 54.2052 19.7922C53.205 19.7533 52.2072 19.9167 51.2716 20.2726C50.3361 20.6286 49.482 21.1697 48.7605 21.8636C48.0391 22.5575 47.4652 23.3899 47.0731 24.3109C46.6811 25.232 46.479 26.2226 46.479 27.2236C46.479 28.2246 46.6811 29.2153 47.0731 30.1363C47.4652 31.0574 48.0391 31.8898 48.7605 32.5837C49.482 33.2776 50.3361 33.8187 51.2716 34.1746C52.2072 34.5306 53.205 34.694 54.2052 34.655C55.1683 34.6985 56.1295 34.5353 57.0241 34.1763C57.9188 33.8172 58.7262 33.2707 59.392 32.5736C60.5708 31.2785 61.2001 29.576 61.1472 27.8256C61.1508 27.3991 61.1132 26.9734 61.0347 26.5542L54.2052 26.6105ZM105.184 28.1856C104.891 27.3224 104.342 26.5686 103.611 26.0241C102.879 25.4796 102 25.1701 101.089 25.1365C100.473 25.1353 99.8642 25.2604 99.299 25.5039C98.7338 25.7475 98.2246 26.1044 97.8028 26.5525C97.381 27.0007 97.0556 27.5306 96.8467 28.1095C96.6378 28.6884 96.5499 29.3041 96.5884 29.9183C96.5747 30.5471 96.6879 31.1723 96.9212 31.7564C97.1546 32.3405 97.5032 32.8716 97.9464 33.3179C98.3896 33.7643 98.9182 34.1167 99.5007 34.3542C100.083 34.5916 100.707 34.7093 101.336 34.7C102.123 34.7043 102.899 34.5133 103.594 34.1441C104.289 33.775 104.882 33.2392 105.319 32.5848L103.688 31.4597C103.444 31.8656 103.1 32.2014 102.687 32.4341C102.275 32.6668 101.81 32.7885 101.336 32.7873C100.849 32.8059 100.367 32.6774 99.954 32.4186C99.5406 32.1597 99.2147 31.7825 99.0186 31.3359L105.421 28.6919L105.184 28.1856ZM98.6586 29.7833C98.6358 29.4353 98.6826 29.0862 98.7964 28.7565C98.9102 28.4269 99.0886 28.1232 99.3212 27.8634C99.5538 27.6035 99.836 27.3927 100.151 27.2432C100.466 27.0938 100.808 27.0087 101.156 26.993C101.519 26.9691 101.881 27.0523 102.197 27.2323C102.513 27.4123 102.769 27.6812 102.934 28.0056L98.6586 29.7833ZM93.4605 34.4188H95.5645V20.3548H93.4605V34.4188ZM90.0177 26.2054H89.9389C89.6218 25.8509 89.2334 25.5674 88.799 25.3735C88.3647 25.1796 87.8943 25.0797 87.4187 25.0803C86.1891 25.1399 85.0296 25.6703 84.1805 26.5616C83.3314 27.4529 82.8578 28.6367 82.8578 29.8677C82.8578 31.0987 83.3314 32.2825 84.1805 33.1737C85.0296 34.065 86.1891 34.5954 87.4187 34.655C87.8954 34.663 88.3682 34.5665 88.8036 34.3721C89.239 34.1777 89.6266 33.8902 89.9389 33.5299H90.0064V34.2162C90.0064 36.0502 89.0276 37.029 87.4524 37.029C86.9278 37.0167 86.4187 36.8486 85.9899 36.5461C85.5611 36.2435 85.2321 35.8203 85.0447 35.3301L83.2107 36.0952C83.5559 36.9349 84.1442 37.6524 84.8999 38.1556C85.6557 38.6587 86.5445 38.9246 87.4524 38.9192C89.9164 38.9192 91.9529 37.4678 91.9529 33.935V25.4178H90.0177V26.2054ZM87.6099 32.8211C86.8842 32.7571 86.2087 32.4236 85.7167 31.8863C85.2246 31.349 84.9517 30.6469 84.9517 29.9183C84.9517 29.1897 85.2246 28.4876 85.7167 27.9503C86.2087 27.413 86.8842 27.0795 87.6099 27.0155C87.9698 27.034 88.3223 27.1243 88.6467 27.2811C88.9711 27.4379 89.2608 27.658 89.4988 27.9285C89.7368 28.199 89.9183 28.5144 90.0325 28.8562C90.1468 29.1979 90.1914 29.559 90.1639 29.9183C90.1946 30.2791 90.1518 30.6424 90.0381 30.9862C89.9244 31.33 89.7421 31.6472 89.5023 31.9185C89.2626 32.1899 88.9702 32.4097 88.643 32.5649C88.3158 32.72 87.9605 32.8072 87.5987 32.8211H87.6099ZM115.04 20.3548H110.011V34.4188H112.115V29.0857H115.052C115.651 29.1288 116.253 29.0479 116.82 28.848C117.387 28.6481 117.907 28.3336 118.347 27.924C118.787 27.5144 119.138 27.0186 119.378 26.4674C119.618 25.9162 119.742 25.3214 119.742 24.7203C119.742 24.1191 119.618 23.5243 119.378 22.9731C119.138 22.4219 118.787 21.9261 118.347 21.5165C117.907 21.1069 117.387 20.7924 116.82 20.5925C116.253 20.3926 115.651 20.3117 115.052 20.3548H115.04ZM115.04 27.1055H112.104V22.3125H115.085C115.725 22.3125 116.339 22.5668 116.792 23.0194C117.244 23.472 117.499 24.0858 117.499 24.7259C117.499 25.3659 117.244 25.9798 116.792 26.4324C116.339 26.885 115.725 27.1393 115.085 27.1393L115.04 27.1055ZM128.013 25.0803C127.247 25.0345 126.484 25.2135 125.819 25.5953C125.153 25.9771 124.613 26.545 124.266 27.2293L126.134 28.0056C126.318 27.6662 126.597 27.3877 126.936 27.2039C127.276 27.0201 127.662 26.939 128.047 26.9705C128.314 26.9393 128.584 26.9616 128.843 27.0361C129.101 27.1106 129.342 27.2358 129.551 27.4045C129.761 27.5731 129.935 27.7817 130.063 28.0182C130.191 28.2547 130.27 28.5143 130.297 28.7819V28.9282C129.621 28.5704 128.867 28.3849 128.103 28.3881C126.089 28.3881 124.052 29.5133 124.052 31.5497C124.072 31.9839 124.179 32.4098 124.366 32.802C124.554 33.1943 124.818 33.545 125.143 33.8335C125.468 34.1219 125.848 34.3423 126.259 34.4814C126.671 34.6206 127.107 34.6758 127.54 34.6438C128.07 34.6818 128.6 34.5765 129.076 34.339C129.551 34.1014 129.953 33.7403 130.241 33.2936H130.308V34.4188H132.333V29.0069C132.333 26.5429 130.466 25.114 128.069 25.114L128.013 25.0803ZM127.754 32.7873C127.068 32.7873 126.111 32.4386 126.111 31.5947C126.111 30.4696 127.304 30.0983 128.362 30.0983C129.03 30.0818 129.691 30.245 130.274 30.5709C130.204 31.18 129.916 31.7432 129.463 32.1567C129.01 32.5702 128.423 32.8062 127.81 32.8211L127.754 32.7873ZM139.714 25.4178L137.306 31.516H137.239L134.741 25.4178H132.491L136.237 33.9462L134.1 38.683H136.294L142.054 25.4178H139.714ZM120.801 34.4188H122.905V20.3548H120.801V34.4188Z" fill="white"/>
<path d="M53.7751 12.2566C53.7943 12.6693 53.7293 13.0815 53.5843 13.4684C53.4392 13.8552 53.2171 14.2085 52.9313 14.5068C52.6122 14.8383 52.2269 15.0988 51.8004 15.2713C51.3739 15.4438 50.9158 15.5245 50.456 15.5082C49.7585 15.5027 49.078 15.2915 48.4999 14.901C47.9218 14.5105 47.4719 13.9581 47.2064 13.313C46.9409 12.6679 46.8717 11.9587 47.0074 11.2745C47.1432 10.5902 47.4779 9.9612 47.9695 9.4663C48.2927 9.1364 48.6801 8.87632 49.1078 8.70214C49.5355 8.52797 49.9944 8.44341 50.456 8.4537C50.9317 8.45211 51.4026 8.54784 51.8399 8.73498C52.2471 8.89919 52.6095 9.15752 52.8975 9.48881L52.3012 10.0851C52.0767 9.81801 51.7931 9.60679 51.4728 9.46814C51.1526 9.3295 50.8045 9.26724 50.456 9.28628C50.1046 9.28456 49.7564 9.35382 49.4324 9.48992C49.1084 9.62601 48.8152 9.82614 48.5704 10.0783C48.3256 10.3305 48.1342 10.6295 48.0078 10.9574C47.8813 11.2853 47.8224 11.6353 47.8345 11.9866C47.8271 12.511 47.9753 13.0259 48.2602 13.4663C48.5451 13.9067 48.9541 14.2528 49.4355 14.461C49.9169 14.6692 50.4492 14.7302 50.9652 14.6362C51.4812 14.5422 51.9579 14.2976 52.335 13.933C52.6812 13.5578 52.8809 13.0706 52.8975 12.5604H50.456V11.7503H53.7301C53.7601 11.9174 53.7752 12.0868 53.7751 12.2566ZM58.9282 9.4438H55.8903V11.5815H58.6581V12.3916H55.8903V14.5293H58.9282V15.3619H54.9903V8.61121H58.9282V9.4438ZM62.6185 15.3619H61.7522V9.4438H59.862V8.61121H64.5537V9.4438H62.6185V15.3619ZM67.8616 15.3619V8.61121H68.7279V15.3619H67.8616ZM72.5758 15.3619H71.7095V9.4438H69.8193V8.61121H74.4548V9.4438H72.5758V15.3619ZM83.2419 14.4843C82.5842 15.1384 81.6943 15.5056 80.7667 15.5056C79.8391 15.5056 78.9492 15.1384 78.2914 14.4843C77.6521 13.8076 77.2959 12.9119 77.2959 11.9809C77.2959 11.05 77.6521 10.1543 78.2914 9.47755C78.6156 9.15098 79.0012 8.89179 79.4261 8.71492C79.8509 8.53804 80.3065 8.44698 80.7667 8.44698C81.2268 8.44698 81.6825 8.53804 82.1073 8.71492C82.5321 8.89179 82.9177 9.15098 83.2419 9.47755C83.8838 10.153 84.2417 11.0492 84.2417 11.9809C84.2417 12.9127 83.8838 13.8089 83.2419 14.4843ZM78.9327 13.9218C79.4198 14.4068 80.0792 14.6792 80.7667 14.6792C81.4541 14.6792 82.1135 14.4068 82.6006 13.9218C83.0813 13.3919 83.3476 12.702 83.3476 11.9866C83.3476 11.2711 83.0813 10.5813 82.6006 10.0514C82.1135 9.5663 81.4541 9.29397 80.7667 9.29397C80.0792 9.29397 79.4198 9.5663 78.9327 10.0514C78.452 10.5813 78.1858 11.2711 78.1858 11.9866C78.1858 12.702 78.452 13.3919 78.9327 13.9218ZM85.4584 15.3619V8.61121H86.516L89.8013 13.8655V8.61121H90.6677V15.3619H89.7676L86.336 9.86009V15.3619H85.4584Z" fill="white"/>
<path fill-rule="evenodd" clip-rule="evenodd" d="M80.7667 8.5595C80.3213 8.5595 79.8804 8.64762 79.4693 8.81879C79.0586 8.98977 78.6858 9.24026 78.3722 9.55583C77.7533 10.2116 77.4084 11.0792 77.4084 11.9809C77.4084 12.8826 77.7532 13.7501 78.372 14.4058C79.0085 15.0381 79.8694 15.393 80.7667 15.393C81.664 15.393 82.5249 15.0381 83.1615 14.4057C83.7828 13.7513 84.1292 12.8833 84.1292 11.9809C84.1292 11.0784 83.7827 10.2104 83.1612 9.55598C82.8477 9.24034 82.4748 8.9898 82.064 8.81879C81.6529 8.64762 81.212 8.5595 80.7667 8.5595ZM79.3828 8.61105C79.8213 8.42847 80.2917 8.33447 80.7667 8.33447C81.2417 8.33447 81.712 8.42847 82.1505 8.61105C82.589 8.79363 82.9871 9.06118 83.3218 9.39829L83.3235 9.40003C83.9852 10.0964 84.3542 11.0203 84.3542 11.9809C84.3542 12.9416 83.9852 13.8655 83.3235 14.5618L83.3213 14.5641C82.6425 15.2392 81.724 15.6181 80.7667 15.6181C79.8093 15.6181 78.8909 15.2391 78.2121 14.5641L78.2096 14.5616C77.5505 13.864 77.1834 12.9406 77.1834 11.9809C77.1834 11.0212 77.5506 10.0979 78.2096 9.40029L78.2115 9.39826C78.5462 9.06116 78.9443 8.79363 79.3828 8.61105ZM50.4535 8.56618C50.0072 8.55624 49.5636 8.63798 49.1502 8.80634C48.7368 8.97471 48.3623 9.22613 48.0499 9.54503L48.0494 9.5456C47.5733 10.0248 47.2492 10.6338 47.1178 11.2964C46.9863 11.9589 47.0533 12.6455 47.3104 13.2702C47.5675 13.8948 48.0032 14.4297 48.5629 14.8078C49.1226 15.1859 49.7815 15.3904 50.4569 15.3957L50.46 15.3957C50.904 15.4115 51.3463 15.3336 51.7582 15.167C52.17 15.0004 52.542 14.7489 52.8501 14.4289C53.1253 14.1416 53.3392 13.8014 53.4789 13.4288C53.6186 13.0563 53.6812 12.6593 53.6627 12.2618L53.7751 12.2566L53.6626 12.2565C53.6627 12.1247 53.6532 11.9932 53.6344 11.8628H50.5686V12.4479H53.0138L53.01 12.564C52.9924 13.1013 52.7822 13.6143 52.4177 14.0093L52.4133 14.014C52.0202 14.394 51.5232 14.6489 50.9854 14.7469C50.4475 14.8448 49.8926 14.7813 49.3908 14.5643C48.889 14.3472 48.4627 13.9864 48.1657 13.5274C47.8692 13.0691 47.7148 12.5334 47.722 11.9877C47.7097 11.6223 47.7712 11.2581 47.9028 10.9169C48.0347 10.5748 48.2343 10.263 48.4897 9.99993C48.745 9.7369 49.0509 9.52815 49.3888 9.38618C49.7258 9.24465 50.0878 9.17242 50.4532 9.17376C50.818 9.15435 51.1823 9.21976 51.5175 9.36489C51.8163 9.49423 52.0846 9.68372 52.3062 9.92107L52.7423 9.48491C52.4782 9.20422 52.1561 8.9838 51.7978 8.83932L51.7957 8.83844C51.3725 8.65733 50.9167 8.56468 50.4564 8.56621L50.4535 8.56618ZM53.8876 12.254C53.9071 12.681 53.8397 13.1076 53.6896 13.5079C53.5392 13.9089 53.3089 14.2753 53.0125 14.5846C52.6825 14.9275 52.2837 15.1971 51.8426 15.3756C51.4019 15.5539 50.9287 15.6374 50.4536 15.6207C49.7344 15.6147 49.0329 15.3968 48.4369 14.9942C47.8405 14.5913 47.3762 14.0214 47.1023 13.3558C46.8284 12.6902 46.757 11.9586 46.8971 11.2526C47.0371 10.5467 47.3823 9.89785 47.8894 9.38729C48.2233 9.04652 48.6235 8.77787 49.0653 8.59794C49.5068 8.41814 49.9805 8.33076 50.4571 8.34118C50.9472 8.33975 51.4325 8.43839 51.8831 8.63108C52.3063 8.80196 52.683 9.07059 52.9824 9.41498L53.0513 9.49417L52.294 10.2514L52.2151 10.1575C52.0018 9.90376 51.7323 9.7031 51.4281 9.5714C51.1239 9.43969 50.7932 9.38054 50.4622 9.39863L50.4555 9.39899C50.1192 9.39734 49.786 9.46342 49.476 9.59365C49.1659 9.72388 48.8854 9.91538 48.6511 10.1567C48.4169 10.398 48.2337 10.6841 48.1127 10.9978C47.9918 11.3116 47.9354 11.6466 47.947 11.9827L47.9472 11.9881C47.9401 12.4904 48.0818 12.9834 48.3547 13.4052C48.6275 13.8269 49.0191 14.1583 49.4801 14.3577C49.9412 14.5571 50.4509 14.6155 50.9451 14.5255C51.4382 14.4357 51.8937 14.2022 52.2545 13.8544C52.5547 13.528 52.7381 13.1125 52.7779 12.6729H50.3435V11.6378H53.8242L53.8409 11.7304C53.8719 11.9032 53.8876 12.0784 53.8876 12.254ZM54.8777 8.4987H59.0407V9.55631H56.0029V11.469H58.7706V12.5041H56.0029V14.4168H59.0407V15.4744H54.8777V8.4987ZM55.1028 8.72373V15.2494H58.8157V14.6418H55.7778V12.2791H58.5456V11.694H55.7778V9.33129H58.8157V8.72373H55.1028ZM59.7495 8.4987H64.6663V9.55631H62.7311V15.4744H61.6397V9.55631H59.7495V8.4987ZM59.9745 8.72373V9.33129H61.8647V15.2494H62.506V9.33129H64.4412V8.72373H59.9745ZM67.7491 8.4987H68.8404V15.4744H67.7491V8.4987ZM67.9741 8.72373V15.2494H68.6154V8.72373H67.9741ZM69.7068 8.4987H74.5673V9.55631H72.6883V15.4744H71.597V9.55631H69.7068V8.4987ZM69.9318 8.72373V9.33129H71.822V15.2494H72.4633V9.33129H74.3423V8.72373H69.9318ZM85.3459 8.4987H86.5784L89.6888 13.4733V8.4987H90.7802V15.4744H89.7052L86.4485 10.2531V15.4744H85.3459V8.4987ZM85.5709 8.72373V15.2494H86.2235V9.46711L89.83 15.2494H90.5552V8.72373H89.9139V14.2577L86.4537 8.72373H85.5709ZM78.8533 9.97164C79.3615 9.46558 80.0495 9.18145 80.7667 9.18145C81.4838 9.18145 82.1718 9.46558 82.68 9.97164L82.684 9.97567C83.1835 10.5263 83.4601 11.2432 83.4601 11.9866C83.4601 12.73 83.1834 13.4467 82.6839 13.9974L82.6801 14.0016C82.1719 14.5077 81.4838 14.7917 80.7667 14.7917C80.0495 14.7917 79.3615 14.5075 78.8533 14.0015L78.9327 13.9218L78.8494 13.9974C78.3499 13.4467 78.0733 12.73 78.0733 11.9866C78.0733 11.2432 78.3499 10.5264 78.8494 9.97577L78.8533 9.97164ZM79.0141 13.8441C79.48 14.3069 80.11 14.5666 80.7667 14.5666C81.4234 14.5666 82.0534 14.3069 82.5192 13.8441C82.9799 13.3351 83.2351 12.6731 83.2351 11.9866C83.2351 11.3 82.9799 10.638 82.5192 10.1291C82.0534 9.66627 81.4234 9.40648 80.7667 9.40648C80.11 9.40648 79.48 9.66627 79.0141 10.1291C78.5534 10.638 78.2983 11.3 78.2983 11.9866C78.2983 12.6731 78.5534 13.3351 79.0141 13.8441Z" fill="white"/>
<path d="M12.2384 9.14858C11.8717 9.58863 11.6866 10.152 11.7208 10.7237V35.6113C11.6866 36.1831 11.8717 36.7464 12.2384 37.1865L12.3171 37.2652L26.2573 23.3363V23.01L12.3171 9.06982L12.2384 9.14858Z" fill="url(#paint0_linear_240_1365)"/>
<path d="M30.8703 27.983L26.2573 23.3363V23.01L30.8703 18.3521L30.9716 18.4083L36.4959 21.5474C38.071 22.4362 38.071 23.8989 36.4959 24.799L30.9941 27.9268L30.8703 27.983Z" fill="url(#paint1_linear_240_1365)"/>
<path d="M31.0052 27.9155L26.2572 23.1675L12.2383 37.1864C12.5593 37.4687 12.9689 37.6299 13.3962 37.6422C13.8235 37.6545 14.2417 37.5172 14.5785 37.2539L31.0165 27.9155" fill="url(#paint2_linear_240_1365)"/>
<path d="M31.0052 18.4194L14.5673 9.08093C14.2305 8.81767 13.8123 8.68033 13.385 8.69266C12.9577 8.70498 12.5481 8.8662 12.2271 9.14844L26.2572 23.1674L31.0052 18.4194Z" fill="url(#paint3_linear_240_1365)"/>
<path opacity="0.2" d="M30.8702 27.814L14.5673 37.0962C14.2424 37.339 13.8477 37.4703 13.4422 37.4703C13.0366 37.4703 12.6419 37.339 12.317 37.0962L12.2383 37.1749L12.317 37.2537C12.6411 37.4983 13.0361 37.6306 13.4422 37.6306C13.8482 37.6306 14.2432 37.4983 14.5673 37.2537L31.0052 27.9152L30.8702 27.814Z" fill="#000021"/>
<path opacity="0.12" d="M12.2384 37.0289C11.8717 36.5889 11.6866 36.0255 11.7208 35.4537V35.6225C11.6866 36.1943 11.8717 36.7576 12.2384 37.1977L12.3171 37.1189L12.2384 37.0289ZM36.4959 24.6301L30.8703 27.8142L30.9716 27.9155L36.4959 24.7876C36.8093 24.6404 37.0784 24.4131 37.276 24.1286C37.4735 23.8442 37.5925 23.5126 37.621 23.1675C37.5577 23.4811 37.4234 23.776 37.2284 24.0295C37.0333 24.2831 36.7827 24.4885 36.4959 24.6301Z" fill="#000021"/>
<path opacity="0.25" d="M14.5673 9.23832L36.4958 21.7046C36.7826 21.8462 37.0332 22.0517 37.2283 22.3052C37.4233 22.5588 37.5576 22.8537 37.6209 23.1673C37.5924 22.8221 37.4734 22.4906 37.2759 22.2061C37.0783 21.9217 36.8092 21.6943 36.4958 21.5471L14.5673 9.0808C12.9921 8.19196 11.7095 8.93454 11.7095 10.7347V10.9035C11.7432 9.09205 13.0034 8.34948 14.5673 9.23832Z" fill="white"/>
<defs>
<linearGradient id="paint0_linear_240_1365" x1="25.0197" y1="10.465" x2="6.14025" y2="29.3444" gradientUnits="userSpaceOnUse">
<stop stop-color="#00A0FF"/>
<stop offset="0.01" stop-color="#00A1FF"/>
<stop offset="0.26" stop-color="#00BEFF"/>
<stop offset="0.51" stop-color="#00D2FF"/>
<stop offset="0.76" stop-color="#00DFFF"/>
<stop offset="1" stop-color="#00E3FF"/>
</linearGradient>
<linearGradient id="paint1_linear_240_1365" x1="38.5548" y1="23.1675" x2="11.3383" y2="23.1675" gradientUnits="userSpaceOnUse">
<stop stop-color="#FFE000"/>
<stop offset="0.41" stop-color="#FFBD00"/>
<stop offset="0.78" stop-color="#FFA500"/>
<stop offset="1" stop-color="#FF9C00"/>
</linearGradient>
<linearGradient id="paint2_linear_240_1365" x1="28.4287" y1="25.7552" x2="2.82107" y2="51.3516" gradientUnits="userSpaceOnUse">
<stop stop-color="#FF3A44"/>
<stop offset="1" stop-color="#C31162"/>
</linearGradient>
<linearGradient id="paint3_linear_240_1365" x1="8.70544" y1="0.867581" x2="20.1366" y2="12.2988" gradientUnits="userSpaceOnUse">
<stop stop-color="#32A071"/>
<stop offset="0.07" stop-color="#2DA771"/>
<stop offset="0.48" stop-color="#15CF74"/>
<stop offset="0.8" stop-color="#06E775"/>
<stop offset="1" stop-color="#00F076"/>
</linearGradient>
</defs>
</svg>