<svg viewBox="0 0 25 20" xmlns="http://www.w3.org/2000/svg">
    <g fill="none" fill-rule="evenodd">
        <path d="M10.629 7.167s.087-1.178 1.048-1.787c0 0 .694-.406 1.437-.162.577.189.92.628 1.095.944.175.314.35 1.086 0 1.614-.349.527-1.488 1.306-1.689 1.624-.178.28-.715.988-.538 2.152" stroke="#13C636" stroke-width=".75" stroke-linecap="round" stroke-linejoin="round"/>
        <path d="M12.247 13.067c0 .198-.167.36-.375.36a.367.367 0 0 1-.375-.36c0-.199.168-.36.375-.36.208 0 .375.161.375.36" fill="#13C636"/>
        <path d="M20.14 18.8c-.726-.065-2.736-.354-4.09-1.638 0 0-10.34 2.42-13.765-3.883C-1.139 6.976 2.285.737 12.491.8c10.206.064 11.75 6.43 11.482 9.741-.225 2.77-3.551 4.915-4.632 5.542a.385.385 0 0 0-.151.523l1.098 1.984c.056.1-.028.22-.148.21z" stroke="#13C636" stroke-width=".75" stroke-linecap="round" stroke-linejoin="round"/>
    </g>
</svg>