<?xml version="1.0" encoding="UTF-8"?>
<!DOCTYPE svg PUBLIC "-//W3C//DTD SVG 1.1//EN" "http://www.w3.org/Graphics/SVG/1.1/DTD/svg11.dtd">
<svg xmlns="http://www.w3.org/2000/svg" version="1.1" width="374px" height="97px" style="shape-rendering:geometricPrecision; text-rendering:geometricPrecision; image-rendering:optimizeQuality; fill-rule:evenodd; clip-rule:evenodd" xmlns:xlink="http://www.w3.org/1999/xlink">
<g><path style="opacity:0.418" fill="#a4a8d2" d="M 133.5,10.5 C 135.167,10.5 136.833,10.5 138.5,10.5C 138.5,37.5 138.5,64.5 138.5,91.5C 136.833,91.5 135.167,91.5 133.5,91.5C 133.5,64.5 133.5,37.5 133.5,10.5 Z"/></g>
<g><path style="opacity:0.998" fill="#000288" d="M 137.5,12.5 C 138.158,38.8548 137.491,64.8548 135.5,90.5C 134.842,64.1452 135.509,38.1452 137.5,12.5 Z"/></g>
<g><path style="opacity:0.357" fill="#aa9dd3" d="M 76.5,23.5 C 75.7109,23.2172 75.0442,22.7172 74.5,22C 63.8177,21.1676 53.1511,21.3343 42.5,22.5C 44.7034,27.7795 46.7034,33.1128 48.5,38.5C 48.8333,39.1667 49.1667,39.8333 49.5,40.5C 49.1667,40.5 48.8333,40.5 48.5,40.5C 47.3127,38.9275 46.3127,37.2608 45.5,35.5C 44.7365,31.8632 43.4032,28.5299 41.5,25.5C 41.67,24.1779 41.3366,23.0113 40.5,22C 36.7887,21.1747 33.122,21.3414 29.5,22.5C 30.1799,23.8599 30.8466,25.1932 31.5,26.5C 32.8333,30.1667 34.1667,33.8333 35.5,37.5C 35.5,37.8333 35.5,38.1667 35.5,38.5C 34.8333,38.5 34.1667,38.5 33.5,38.5C 33.7678,36.901 33.4345,35.5676 32.5,34.5C 31.6262,31.0812 30.4595,27.7478 29,24.5C 28.2303,23.4019 27.397,23.4019 26.5,24.5C 26.3601,22.8762 27.0267,21.7096 28.5,21C 44.1667,20.3333 59.8333,20.3333 75.5,21C 76.2524,21.6708 76.5858,22.5041 76.5,23.5 Z"/></g>
<g><path style="opacity:0.275" fill="#bcb3df" d="M 120.5,22.5 C 116.059,20.9639 111.726,21.2972 107.5,23.5C 107.414,22.5041 107.748,21.6708 108.5,21C 112.871,20.1725 117.205,20.3391 121.5,21.5C 121.376,22.1067 121.043,22.44 120.5,22.5 Z"/></g>
<g><path style="opacity:0.942" fill="#18188c" d="M 137.5,12.5 C 135.509,38.1452 134.842,64.1452 135.5,90.5C 134.502,64.3386 134.169,38.0053 134.5,11.5C 135.791,11.2627 136.791,11.596 137.5,12.5 Z"/></g>
<g><path style="opacity:0.004" fill="#c4bede" d="M 120.5,22.5 C 120.262,24.4044 119.262,25.7377 117.5,26.5C 117.738,24.5956 118.738,23.2623 120.5,22.5 Z"/></g>
<g><path style="opacity:1" fill="#210288" d="M 41.5,25.5 C 41.5793,28.2706 41.0793,30.9373 40,33.5C 39.6667,32.8333 39.3333,32.1667 39,31.5C 38.6322,32.91 37.7989,33.91 36.5,34.5C 36.6112,31.923 35.9446,29.2563 34.5,26.5C 33.5,26.5 32.5,26.5 31.5,26.5C 30.8466,25.1932 30.1799,23.8599 29.5,22.5C 33.122,21.3414 36.7887,21.1747 40.5,22C 41.3366,23.0113 41.67,24.1779 41.5,25.5 Z"/></g>
<g><path style="opacity:0.765" fill="#8e82b9" d="M 107.5,23.5 C 107.5,24.1667 107.5,24.8333 107.5,25.5C 106.5,26.1667 105.5,26.8333 104.5,27.5C 104.738,25.5956 105.738,24.2623 107.5,23.5 Z"/></g>
<g><path style="opacity:1" fill="#210583" d="M 76.5,23.5 C 77.0798,25.7488 78.4131,27.4154 80.5,28.5C 80.7329,30.0618 81.3995,31.3951 82.5,32.5C 82.6309,33.3764 82.2975,34.0431 81.5,34.5C 80.029,32.1866 78.1956,31.8533 76,33.5C 74.5054,31.8368 72.672,30.8368 70.5,30.5C 70.1583,29.6618 69.4916,29.3284 68.5,29.5C 62.3554,28.5098 56.0221,28.1765 49.5,28.5C 49.8128,32.0419 49.4794,35.3752 48.5,38.5C 46.7034,33.1128 44.7034,27.7795 42.5,22.5C 53.1511,21.3343 63.8177,21.1676 74.5,22C 75.0442,22.7172 75.7109,23.2172 76.5,23.5 Z"/></g>
<g><path style="opacity:1" fill="#210588" d="M 120.5,22.5 C 118.738,23.2623 117.738,24.5956 117.5,26.5C 117.5,27.1667 117.167,27.5 116.5,27.5C 115.833,27.8333 115.167,28.1667 114.5,28.5C 113.07,28.5792 111.736,28.2458 110.5,27.5C 109.335,28.4911 108.168,29.4911 107,30.5C 106.5,30.1667 106,29.8333 105.5,29.5C 106.63,28.3777 107.297,27.0443 107.5,25.5C 107.5,24.8333 107.5,24.1667 107.5,23.5C 111.726,21.2972 116.059,20.9639 120.5,22.5 Z"/></g>
<g><path style="opacity:0.498" fill="#aa9fcc" d="M 76.5,23.5 C 78.5869,24.5846 79.9202,26.2512 80.5,28.5C 78.4131,27.4154 77.0798,25.7488 76.5,23.5 Z"/></g>
<g><path style="opacity:0.004" fill="#f8fcf2" d="M 346.5,26.5 C 347.833,27.1667 347.833,27.1667 346.5,26.5 Z"/></g>
<g><path style="opacity:0.812" fill="#9b89c2" d="M 26.5,24.5 C 26.8799,26.698 26.2132,28.3646 24.5,29.5C 24.7959,27.597 25.4625,25.9303 26.5,24.5 Z"/></g>
<g><path style="opacity:0.894" fill="#7b69ae" d="M 104.5,27.5 C 104.262,29.4044 103.262,30.7377 101.5,31.5C 101.738,29.5956 102.738,28.2623 104.5,27.5 Z"/></g>
<g><path style="opacity:0.031" fill="#c5bae2" d="M 116.5,27.5 C 116.573,29.0269 115.906,30.0269 114.5,30.5C 114.5,29.8333 114.5,29.1667 114.5,28.5C 115.167,28.1667 115.833,27.8333 116.5,27.5 Z"/></g>
<g><path style="opacity:0.831" fill="#879cd3" d="M 179.5,29.5 C 172.683,29.0643 166.016,29.7309 159.5,31.5C 160.058,30.2101 161.058,29.3768 162.5,29C 168.371,26.8661 174.038,27.0328 179.5,29.5 Z"/></g>
<g><path style="opacity:0.527" fill="#97aed6" d="M 199.5,29.5 C 201.948,28.5269 204.615,28.1936 207.5,28.5C 207.5,29.5 207.5,30.5 207.5,31.5C 205.2,29.7982 202.533,29.1315 199.5,29.5 Z"/></g>
<g><path style="opacity:0.529" fill="#7a97d3" d="M 303.5,33.5 C 299.5,33.5 295.5,33.5 291.5,33.5C 294.962,32.5184 298.629,32.185 302.5,32.5C 302.5,31.5 302.5,30.5 302.5,29.5C 293.167,29.5 283.833,29.5 274.5,29.5C 274.5,30.5 274.5,31.5 274.5,32.5C 278.371,32.185 282.038,32.5184 285.5,33.5C 281.833,33.5 278.167,33.5 274.5,33.5C 272.912,32.3647 272.579,31.0314 273.5,29.5C 283.478,28.5015 293.478,28.1681 303.5,28.5C 304.071,30.36 304.071,32.0267 303.5,33.5 Z"/></g>
<g><path style="opacity:0.516" fill="#92aad5" d="M 315.5,29.5 C 318.024,28.1997 320.691,28.1997 323.5,29.5C 324.246,30.7362 324.579,32.0695 324.5,33.5C 323.833,33.1667 323.167,32.8333 322.5,32.5C 322.5,31.5 322.5,30.5 322.5,29.5C 320.167,29.5 317.833,29.5 315.5,29.5 Z"/></g>
<g><path style="opacity:0.725" fill="#9e93c3" d="M 80.5,28.5 C 82.2624,29.2623 83.2624,30.5956 83.5,32.5C 83.1667,32.5 82.8333,32.5 82.5,32.5C 81.3995,31.3951 80.7329,30.0618 80.5,28.5 Z"/></g>
<g><path style="opacity:1" fill="#280c83" d="M 107.5,25.5 C 107.297,27.0443 106.63,28.3777 105.5,29.5C 106,29.8333 106.5,30.1667 107,30.5C 108.168,29.4911 109.335,28.4911 110.5,27.5C 111.736,28.2458 113.07,28.5792 114.5,28.5C 114.5,29.1667 114.5,29.8333 114.5,30.5C 114.167,31.5 113.5,32.1667 112.5,32.5C 111.094,32.9731 110.427,33.9731 110.5,35.5C 110.167,36.5 109.5,37.1667 108.5,37.5C 107.094,37.9731 106.427,38.9731 106.5,40.5C 106.5,41.1667 106.167,41.5 105.5,41.5C 105.167,41.5 104.833,41.5 104.5,41.5C 102.139,41.6741 99.8056,42.0074 97.5,42.5C 97.5172,40.4352 97.8505,38.4352 98.5,36.5C 99.1098,35.609 99.4431,34.609 99.5,33.5C 99.8333,32.5 100.5,31.8333 101.5,31.5C 103.262,30.7377 104.262,29.4044 104.5,27.5C 105.5,26.8333 106.5,26.1667 107.5,25.5 Z"/></g>
<g><path style="opacity:1" fill="#1545b0" d="M 179.5,29.5 C 179.5,30.8333 179.5,32.1667 179.5,33.5C 173.276,31.7478 167.276,32.2478 161.5,35C 160.117,36.2708 159.117,37.7708 158.5,39.5C 157.833,40.1667 157.167,40.8333 156.5,41.5C 155.175,46.9008 155.175,52.4008 156.5,58C 155.906,58.4643 155.239,58.631 154.5,58.5C 154.223,56.2719 153.223,54.6053 151.5,53.5C 151.5,49.5 151.5,45.5 151.5,41.5C 152.674,40.4863 153.34,39.153 153.5,37.5C 155.833,35.8333 157.833,33.8333 159.5,31.5C 166.016,29.7309 172.683,29.0643 179.5,29.5 Z"/></g>
<g><path style="opacity:0.004" fill="#c2b8db" d="M 68.5,29.5 C 69.4916,29.3284 70.1583,29.6618 70.5,30.5C 71.6005,31.6049 72.2671,32.9382 72.5,34.5C 70.457,33.4206 69.1237,31.754 68.5,29.5 Z"/></g>
<g><path style="opacity:1" fill="#1947b3" d="M 315.5,29.5 C 317.833,29.5 320.167,29.5 322.5,29.5C 322.5,30.5 322.5,31.5 322.5,32.5C 322.5,33.8333 321.833,34.5 320.5,34.5C 319.504,34.4142 318.671,34.7476 318,35.5C 317.506,37.1341 317.34,38.8008 317.5,40.5C 315.446,43.0076 314.446,46.0076 314.5,49.5C 314.167,49.5 313.833,49.5 313.5,49.5C 312.539,51.2646 312.205,53.2646 312.5,55.5C 312.5,55.8333 312.5,56.1667 312.5,56.5C 310.446,59.0076 309.446,62.0076 309.5,65.5C 308.221,66.968 306.554,67.6347 304.5,67.5C 304.833,64.8333 305.167,62.1667 305.5,59.5C 307.074,57.8984 307.741,55.8984 307.5,53.5C 309.074,51.8984 309.741,49.8984 309.5,47.5C 311.28,46.0101 311.946,44.0101 311.5,41.5C 314.196,38.0785 315.53,34.0785 315.5,29.5 Z"/></g>
<g><path style="opacity:0.753" fill="#a391ca" d="M 24.5,29.5 C 24.634,31.2915 24.3007,32.9582 23.5,34.5C 23.1667,34.5 22.8333,34.5 22.5,34.5C 22.7959,32.597 23.4625,30.9303 24.5,29.5 Z"/></g>
<g><path style="opacity:0.235" fill="#afc4e6" d="M 179.5,29.5 C 180.451,30.9187 180.784,32.5853 180.5,34.5C 172.019,31.9603 164.685,33.627 158.5,39.5C 159.117,37.7708 160.117,36.2708 161.5,35C 167.276,32.2478 173.276,31.7478 179.5,33.5C 179.5,32.1667 179.5,30.8333 179.5,29.5 Z"/></g>
<g><path style="opacity:1" fill="#1f047d" d="M 41.5,25.5 C 43.4032,28.5299 44.7365,31.8632 45.5,35.5C 45.3379,37.5273 45.5045,39.5273 46,41.5C 47.2208,42.7741 48.0541,44.2741 48.5,46C 46.9205,47.7226 45.4205,49.5559 44,51.5C 44.1276,48.5144 44.1276,45.5144 44,42.5C 42.3148,40.0122 40.9814,40.3455 40,43.5C 39.1139,40.9071 37.6139,38.9071 35.5,37.5C 34.1667,33.8333 32.8333,30.1667 31.5,26.5C 32.5,26.5 33.5,26.5 34.5,26.5C 35.9446,29.2563 36.6112,31.923 36.5,34.5C 37.7989,33.91 38.6322,32.91 39,31.5C 39.3333,32.1667 39.6667,32.8333 40,33.5C 41.0793,30.9373 41.5793,28.2706 41.5,25.5 Z"/></g>
<g><path style="opacity:0.016" fill="#c6bde0" d="M 112.5,32.5 C 112.573,34.0269 111.906,35.0269 110.5,35.5C 110.427,33.9731 111.094,32.9731 112.5,32.5 Z"/></g>
<g><path style="opacity:0.749" fill="#9b8cc0" d="M 99.5,33.5 C 99.4431,34.609 99.1098,35.609 98.5,36.5C 97.8333,36.8333 97.1667,37.1667 96.5,37.5C 96.7376,35.5956 97.7376,34.2623 99.5,33.5 Z"/></g>
<g><path style="opacity:0.725" fill="#839fd0" d="M 159.5,31.5 C 157.833,33.8333 155.833,35.8333 153.5,37.5C 154.5,34.5 156.5,32.5 159.5,31.5 Z"/></g>
<g><path style="opacity:1" fill="#1f0381" d="M 32.5,34.5 C 31.3242,35.8206 30.6575,37.4873 30.5,39.5C 27.5176,34.1482 26.1843,34.8149 26.5,41.5C 25.5,41.5 24.5,41.5 23.5,41.5C 23.5,39.1667 23.5,36.8333 23.5,34.5C 24.3007,32.9582 24.634,31.2915 24.5,29.5C 26.2132,28.3646 26.8799,26.698 26.5,24.5C 27.397,23.4019 28.2303,23.4019 29,24.5C 30.4595,27.7478 31.6262,31.0812 32.5,34.5 Z"/></g>
<g><path style="opacity:0.082" fill="#b6cae9" d="M 199.5,29.5 C 199.5,30.8333 199.5,32.1667 199.5,33.5C 198.5,34.8333 197.5,36.1667 196.5,37.5C 196.98,34.5568 197.98,31.8902 199.5,29.5 Z"/></g>
<g><path style="opacity:0.812" fill="#90a6d5" d="M 207.5,32.5 C 208.931,33.7804 209.598,35.4471 209.5,37.5C 207.787,36.3646 207.12,34.698 207.5,32.5 Z"/></g>
<g><path style="opacity:1" fill="#0f43b1" d="M 291.5,33.5 C 290.505,44.6544 290.172,55.9877 290.5,67.5C 289.167,67.5 287.833,67.5 286.5,67.5C 286.828,55.9877 286.495,44.6544 285.5,33.5C 282.038,32.5184 278.371,32.185 274.5,32.5C 274.5,31.5 274.5,30.5 274.5,29.5C 283.833,29.5 293.167,29.5 302.5,29.5C 302.5,30.5 302.5,31.5 302.5,32.5C 298.629,32.185 294.962,32.5184 291.5,33.5 Z"/></g>
<g><path style="opacity:0.147" fill="#d0e2f6" d="M 350.5,63.5 C 350.167,63.5 349.833,63.5 349.5,63.5C 349.5,52.1667 349.5,40.8333 349.5,29.5C 347.833,29.5 346.167,29.5 344.5,29.5C 344.5,42.1667 344.5,54.8333 344.5,67.5C 344.5,67.8333 344.5,68.1667 344.5,68.5C 343.34,55.3397 343.173,42.0064 344,28.5C 345.956,28.2155 348.123,28.2155 350.5,28.5C 350.5,40.1667 350.5,51.8333 350.5,63.5 Z"/></g>
<g><path style="opacity:0.838" fill="#335aac" d="M 349.5,63.5 C 349.5,63.8333 349.5,64.1667 349.5,64.5C 348.669,53.3407 348.169,42.0074 348,30.5C 347.586,30.9574 347.086,31.2907 346.5,31.5C 345.501,43.4815 345.168,55.4815 345.5,67.5C 345.167,67.5 344.833,67.5 344.5,67.5C 344.5,54.8333 344.5,42.1667 344.5,29.5C 346.167,29.5 347.833,29.5 349.5,29.5C 349.5,40.8333 349.5,52.1667 349.5,63.5 Z"/></g>
<g><path style="opacity:1" fill="#0b43b1" d="M 349.5,64.5 C 354.833,64.5 360.167,64.5 365.5,64.5C 365.5,65.5 365.5,66.5 365.5,67.5C 358.833,67.5 352.167,67.5 345.5,67.5C 345.168,55.4815 345.501,43.4815 346.5,31.5C 347.086,31.2907 347.586,30.9574 348,30.5C 348.169,42.0074 348.669,53.3407 349.5,64.5 Z"/></g>
<g><path style="opacity:1" fill="#1d066a" d="M 70.5,30.5 C 72.672,30.8368 74.5054,31.8368 76,33.5C 78.1956,31.8533 80.029,32.1866 81.5,34.5C 82.2975,34.0431 82.6309,33.3764 82.5,32.5C 82.8333,32.5 83.1667,32.5 83.5,32.5C 83.5569,33.609 83.8902,34.609 84.5,35.5C 84.5531,38.0606 83.5531,40.0606 81.5,41.5C 80.6399,39.0693 78.9732,37.736 76.5,37.5C 75.8333,37.1667 75.1667,36.8333 74.5,36.5C 73.5,36.1667 72.8333,35.5 72.5,34.5C 72.2671,32.9382 71.6005,31.6049 70.5,30.5 Z"/></g>
<g><path style="opacity:0.337" fill="#a298c0" d="M 83.5,32.5 C 85.5869,33.5846 86.9202,35.2512 87.5,37.5C 86.5,36.8333 85.5,36.1667 84.5,35.5C 83.8902,34.609 83.5569,33.609 83.5,32.5 Z"/></g>
<g><path style="opacity:0.361" fill="#b0c9e4" d="M 203.5,36.5 C 202.833,37.5 202.167,38.5 201.5,39.5C 201.5,38.8333 201.5,38.1667 201.5,37.5C 202.032,34.5404 202.699,34.2071 203.5,36.5 Z"/></g>
<g><path style="opacity:0.525" fill="#96add6" d="M 274.5,33.5 C 278.167,33.5 281.833,33.5 285.5,33.5C 286.495,44.6544 286.828,55.9877 286.5,67.5C 287.833,67.5 289.167,67.5 290.5,67.5C 290.172,55.9877 290.505,44.6544 291.5,33.5C 295.5,33.5 299.5,33.5 303.5,33.5C 299.702,34.4834 295.702,34.8168 291.5,34.5C 291.832,45.8529 291.499,57.1862 290.5,68.5C 289.914,68.7093 289.414,69.0426 289,69.5C 288,68.1667 287,68.1667 286,69.5C 285.5,57.8381 285.333,46.1714 285.5,34.5C 281.629,34.815 277.962,34.4816 274.5,33.5 Z"/></g>
<g><path style="opacity:0.725" fill="#90a8d2" d="M 315.5,29.5 C 315.53,34.0785 314.196,38.0785 311.5,41.5C 312.32,37.2245 313.653,33.2245 315.5,29.5 Z"/></g>
<g><path style="opacity:0.6" fill="#a1b7de" d="M 324.5,33.5 C 325.924,35.5145 326.59,37.8478 326.5,40.5C 325.076,38.4855 324.41,36.1522 324.5,33.5 Z"/></g>
<g><path style="opacity:0.706" fill="#a69ac7" d="M 22.5,34.5 C 22.8799,36.698 22.2132,38.3646 20.5,39.5C 20.7959,37.597 21.4625,35.9303 22.5,34.5 Z"/></g>
<g><path style="opacity:0.706" fill="#9385b6" d="M 68.5,29.5 C 62.4908,29.3338 56.4908,29.5005 50.5,30C 50.8541,31.6255 50.8541,33.4588 50.5,35.5C 50.7845,37.4147 50.4511,39.0813 49.5,40.5C 49.1667,39.8333 48.8333,39.1667 48.5,38.5C 49.4794,35.3752 49.8128,32.0419 49.5,28.5C 56.0221,28.1765 62.3554,28.5098 68.5,29.5 Z"/></g>
<g><path style="opacity:0.027" fill="#c7c1de" d="M 74.5,36.5 C 75.1667,36.8333 75.8333,37.1667 76.5,37.5C 76.5,38.1667 76.5,38.8333 76.5,39.5C 75.0937,39.0269 74.427,38.0269 74.5,36.5 Z"/></g>
<g><path style="opacity:0.37" fill="#9ab1dc" d="M 247.5,30.5 C 241.196,29.7403 234.863,29.407 228.5,29.5C 228.5,42.1667 228.5,54.8333 228.5,67.5C 229.833,67.5 231.167,67.5 232.5,67.5C 232.5,62.5 232.5,57.5 232.5,52.5C 232.833,52.5 233.167,52.5 233.5,52.5C 236.5,52.5 239.5,52.5 242.5,52.5C 239.713,53.4767 236.713,53.81 233.5,53.5C 233.635,58.711 233.635,63.711 233.5,68.5C 231.833,68.5 230.167,68.5 228.5,68.5C 228.167,68.5 227.833,68.5 227.5,68.5C 227.5,55.1667 227.5,41.8333 227.5,28.5C 230.69,28.4408 233.857,28.1074 237,27.5C 240.86,27.6951 244.36,28.6951 247.5,30.5 Z"/></g>
<g><path style="opacity:1" fill="#2048af" d="M 247.5,30.5 C 248.5,30.8333 249.167,31.5 249.5,32.5C 251.278,36.5653 251.945,40.8986 251.5,45.5C 250.5,45.5 249.5,45.5 248.5,45.5C 248.649,46.552 248.483,47.552 248,48.5C 247.282,47.5494 246.449,47.3828 245.5,48C 246.684,49.1455 246.684,50.3121 245.5,51.5C 244.791,52.404 243.791,52.7373 242.5,52.5C 239.5,52.5 236.5,52.5 233.5,52.5C 234.718,51.8386 236.051,51.1719 237.5,50.5C 236.051,49.8281 234.718,49.1614 233.5,48.5C 236.385,48.8064 239.052,48.4731 241.5,47.5C 244.833,47.5 246.5,45.8333 246.5,42.5C 247.613,41.0536 247.78,39.3869 247,37.5C 246.578,35.5743 245.411,34.5743 243.5,34.5C 242.508,34.6716 241.842,34.3382 241.5,33.5C 238.713,32.5233 235.713,32.19 232.5,32.5C 232.5,37.8333 232.5,43.1667 232.5,48.5C 231.833,42.9861 231.167,37.3195 230.5,31.5C 229.167,43.1667 229.167,54.8333 230.5,66.5C 231.167,61.6833 231.834,57.0166 232.5,52.5C 232.5,57.5 232.5,62.5 232.5,67.5C 231.167,67.5 229.833,67.5 228.5,67.5C 228.5,54.8333 228.5,42.1667 228.5,29.5C 234.863,29.407 241.196,29.7403 247.5,30.5 Z M 241.5,33.5 C 241.842,34.3382 242.508,34.6716 243.5,34.5C 245.606,36.7188 246.606,39.3855 246.5,42.5C 245.167,44.5 243.5,46.1667 241.5,47.5C 238.833,47.5 236.167,47.5 233.5,47.5C 233.5,42.8333 233.5,38.1667 233.5,33.5C 236.167,33.5 238.833,33.5 241.5,33.5 Z"/></g>
<g><path style="opacity:0.546" fill="#92acdb" d="M 241.5,33.5 C 238.833,33.5 236.167,33.5 233.5,33.5C 233.5,38.1667 233.5,42.8333 233.5,47.5C 236.167,47.5 238.833,47.5 241.5,47.5C 239.052,48.4731 236.385,48.8064 233.5,48.5C 233.167,48.5 232.833,48.5 232.5,48.5C 232.5,43.1667 232.5,37.8333 232.5,32.5C 235.713,32.19 238.713,32.5233 241.5,33.5 Z"/></g>
<g><path style="opacity:1" fill="#0c45bc" d="M 232.5,48.5 C 232.833,48.5 233.167,48.5 233.5,48.5C 234.718,49.1614 236.051,49.8281 237.5,50.5C 236.051,51.1719 234.718,51.8386 233.5,52.5C 233.167,52.5 232.833,52.5 232.5,52.5C 231.834,57.0166 231.167,61.6833 230.5,66.5C 229.167,54.8333 229.167,43.1667 230.5,31.5C 231.167,37.3195 231.833,42.9861 232.5,48.5 Z"/></g>
<g><path style="opacity:0.773" fill="#8c83aa" d="M 87.5,37.5 C 89.2624,38.2623 90.2624,39.5956 90.5,41.5C 88.7376,40.7377 87.7376,39.4044 87.5,37.5 Z"/></g>
<g><path style="opacity:0.765" fill="#897eb2" d="M 96.5,37.5 C 96.2624,39.4044 95.2624,40.7377 93.5,41.5C 93.7376,39.5956 94.7376,38.2623 96.5,37.5 Z"/></g>
<g><path style="opacity:0.016" fill="#c0b6d8" d="M 108.5,37.5 C 108.573,39.0269 107.906,40.0269 106.5,40.5C 106.427,38.9731 107.094,37.9731 108.5,37.5 Z"/></g>
<g><path style="opacity:0.169" fill="#b7cae7" d="M 153.5,37.5 C 153.34,39.153 152.674,40.4863 151.5,41.5C 151.229,39.6203 151.896,38.287 153.5,37.5 Z"/></g>
<g><path style="opacity:0.031" fill="#c3d5e9" d="M 203.5,36.5 C 204.924,38.5145 205.59,40.8478 205.5,43.5C 204.076,41.4855 203.41,39.1522 203.5,36.5 Z"/></g>
<g><path style="opacity:0.38" fill="#a0b6df" d="M 243.5,34.5 C 245.411,34.5743 246.578,35.5743 247,37.5C 247.78,39.3869 247.613,41.0536 246.5,42.5C 246.606,39.3855 245.606,36.7188 243.5,34.5 Z"/></g>
<g><path style="opacity:0.612" fill="#8ea4d0" d="M 249.5,32.5 C 250.458,32.9528 251.292,33.6195 252,34.5C 252.81,38.3575 252.643,42.0242 251.5,45.5C 251.945,40.8986 251.278,36.5653 249.5,32.5 Z"/></g>
<g><path style="opacity:0.38" fill="#a1b8da" d="M 320.5,34.5 C 321.763,40.6201 323.429,46.6201 325.5,52.5C 321.5,52.5 317.5,52.5 313.5,52.5C 313.5,51.5 313.5,50.5 313.5,49.5C 313.833,49.5 314.167,49.5 314.5,49.5C 314.791,50.6491 315.624,51.3158 317,51.5C 318.669,50.8338 320.169,50.8338 321.5,51.5C 322.5,51.1667 323.167,50.5 323.5,49.5C 321.901,45.2041 320.401,40.8708 319,36.5C 318.79,38.0581 318.29,39.3915 317.5,40.5C 317.34,38.8008 317.506,37.1341 318,35.5C 318.671,34.7476 319.504,34.4142 320.5,34.5 Z"/></g>
<g><path style="opacity:0.48" fill="#8da4d3" d="M 262.5,27.5 C 264.042,28.3007 265.708,28.634 267.5,28.5C 267.5,42.1667 267.5,55.8333 267.5,69.5C 264.136,70.2107 261.803,69.044 260.5,66C 261.176,53.167 261.842,40.3336 262.5,27.5 Z"/></g>
<g><path style="opacity:1" fill="#0d44b2" d="M 262.5,29.5 C 263.833,29.5 265.167,29.5 266.5,29.5C 266.5,42.1667 266.5,54.8333 266.5,67.5C 265.167,67.5 263.833,67.5 262.5,67.5C 262.5,54.8333 262.5,42.1667 262.5,29.5 Z"/></g>
<g><path style="opacity:0.004" fill="#fafeef" d="M 310.5,41.5 C 309.833,40.1667 309.833,40.1667 310.5,41.5 Z"/></g>
<g><path style="opacity:0.396" fill="#aca4c7" d="M 35.5,38.5 C 36.9313,39.7804 37.5979,41.4471 37.5,43.5C 36.0687,42.2196 35.4021,40.5529 35.5,38.5 Z"/></g>
<g><path style="opacity:1" fill="#170657" d="M 84.5,35.5 C 85.5,36.1667 86.5,36.8333 87.5,37.5C 87.7376,39.4044 88.7376,40.7377 90.5,41.5C 90.0571,44.6238 88.3905,46.9571 85.5,48.5C 83.8152,47.0473 82.1486,45.714 80.5,44.5C 80.2624,42.5956 79.2624,41.2623 77.5,40.5C 77.1667,40.5 76.8333,40.5 76.5,40.5C 76.5,40.1667 76.5,39.8333 76.5,39.5C 76.5,38.8333 76.5,38.1667 76.5,37.5C 78.9732,37.736 80.6399,39.0693 81.5,41.5C 83.5531,40.0606 84.5531,38.0606 84.5,35.5 Z"/></g>
<g><path style="opacity:0.882" fill="#8399d1" d="M 209.5,38.5 C 210.931,39.7804 211.598,41.4471 211.5,43.5C 209.787,42.3646 209.12,40.698 209.5,38.5 Z"/></g>
<g><path style="opacity:0.318" fill="#b9b2ce" d="M 50.5,35.5 C 51.4682,37.6074 51.8016,39.9407 51.5,42.5C 59.1667,42.5 66.8333,42.5 74.5,42.5C 74.5,45.5 74.5,48.5 74.5,51.5C 67.3134,51.1755 60.3134,51.5088 53.5,52.5C 51.8998,50.2974 50.5665,47.964 49.5,45.5C 49.3713,43.7839 49.038,42.1172 48.5,40.5C 48.8333,40.5 49.1667,40.5 49.5,40.5C 50.4511,39.0813 50.7845,37.4147 50.5,35.5 Z"/></g>
<g><path style="opacity:0.004" fill="#e8e6ed" d="M 76.5,40.5 C 76.8333,41.8333 77.1667,41.8333 77.5,40.5C 79.2624,41.2623 80.2624,42.5956 80.5,44.5C 79.009,44.0986 77.3423,43.932 75.5,44C 75.6526,42.7913 75.9859,41.6246 76.5,40.5 Z"/></g>
<g><path style="opacity:0.016" fill="#ccc4e1" d="M 104.5,41.5 C 104.833,41.5 105.167,41.5 105.5,41.5C 105.573,43.0269 104.906,44.0269 103.5,44.5C 103.557,43.391 103.89,42.391 104.5,41.5 Z"/></g>
<g><path style="opacity:0.325" fill="#afc7e2" d="M 158.5,39.5 C 158.405,41.7857 157.738,43.7857 156.5,45.5C 156.5,44.1667 156.5,42.8333 156.5,41.5C 157.167,40.8333 157.833,40.1667 158.5,39.5 Z"/></g>
<g><path style="opacity:1" fill="#1947b4" d="M 199.5,29.5 C 202.533,29.1315 205.2,29.7982 207.5,31.5C 207.5,31.8333 207.5,32.1667 207.5,32.5C 207.12,34.698 207.787,36.3646 209.5,37.5C 209.5,37.8333 209.5,38.1667 209.5,38.5C 209.12,40.698 209.787,42.3646 211.5,43.5C 211.674,45.861 212.007,48.1944 212.5,50.5C 212.719,51.675 212.386,52.675 211.5,53.5C 208.897,54.5617 206.23,54.7284 203.5,54C 205.382,53.8019 207.048,53.3019 208.5,52.5C 208.768,50.901 208.434,49.5676 207.5,48.5C 207.88,46.302 207.213,44.6354 205.5,43.5C 205.59,40.8478 204.924,38.5145 203.5,36.5C 202.699,34.2071 202.032,34.5404 201.5,37.5C 200.883,37.6107 200.383,37.944 200,38.5C 199.506,36.8659 199.34,35.1992 199.5,33.5C 199.5,32.1667 199.5,30.8333 199.5,29.5 Z"/></g>
<g><path style="opacity:0.804" fill="#8fa0d6" d="M 326.5,40.5 C 327.931,41.7804 328.598,43.4471 328.5,45.5C 326.787,44.3646 326.12,42.698 326.5,40.5 Z"/></g>
<g><path style="opacity:0.278" fill="#b6acd0" d="M 33.5,38.5 C 33.2671,41.5418 32.2671,44.2084 30.5,46.5C 30.7329,43.4582 31.7329,40.7916 33.5,38.5 Z"/></g>
<g><path style="opacity:1" fill="#1f0871" d="M 98.5,36.5 C 97.8505,38.4352 97.5172,40.4352 97.5,42.5C 99.8056,42.0074 102.139,41.6741 104.5,41.5C 103.89,42.391 103.557,43.391 103.5,44.5C 103.167,45.5 102.5,46.1667 101.5,46.5C 100.5,46.8333 99.8333,47.5 99.5,48.5C 96.5095,48.3297 94.5095,49.663 93.5,52.5C 91.9668,50.711 90.9668,48.711 90.5,46.5C 91.1667,45.1667 91.8333,43.8333 92.5,42.5C 92.5,41.8333 92.8333,41.5 93.5,41.5C 95.2624,40.7377 96.2624,39.4044 96.5,37.5C 97.1667,37.1667 97.8333,36.8333 98.5,36.5 Z"/></g>
<g><path style="opacity:0.835" fill="#9689b7" d="M 19.5,42.5 C 19.8799,44.698 19.2132,46.3646 17.5,47.5C 17.4021,45.4471 18.0687,43.7804 19.5,42.5 Z"/></g>
<g><path style="opacity:0.561" fill="#96b2cf" d="M 205.5,43.5 C 207.213,44.6354 207.88,46.302 207.5,48.5C 207.167,48.5 206.833,48.5 206.5,48.5C 205.962,46.8828 205.629,45.2161 205.5,43.5 Z"/></g>
<g><path style="opacity:0.427" fill="#baccea" d="M 246.5,42.5 C 246.5,45.8333 244.833,47.5 241.5,47.5C 243.5,46.1667 245.167,44.5 246.5,42.5 Z"/></g>
<g><path style="opacity:0.776" fill="#93afd4" d="M 310.5,41.5 C 310.833,41.5 311.167,41.5 311.5,41.5C 311.946,44.0101 311.28,46.0101 309.5,47.5C 309.833,45.5 310.167,43.5 310.5,41.5 Z"/></g>
<g><path style="opacity:1" fill="#260d73" d="M 22.5,34.5 C 22.8333,34.5 23.1667,34.5 23.5,34.5C 23.5,36.8333 23.5,39.1667 23.5,41.5C 24.5,41.5 25.5,41.5 26.5,41.5C 26.1843,34.8149 27.5176,34.1482 30.5,39.5C 30.6575,37.4873 31.3242,35.8206 32.5,34.5C 33.4345,35.5676 33.7678,36.901 33.5,38.5C 31.7329,40.7916 30.7329,43.4582 30.5,46.5C 30.2041,48.403 29.5375,50.0697 28.5,51.5C 27.8333,52.1667 27.1667,52.8333 26.5,53.5C 25.5,53.5 24.5,53.5 23.5,53.5C 23.5,52.5 23.5,51.5 23.5,50.5C 20.6711,50.3249 19.0045,51.6582 18.5,54.5C 17.6143,53.675 17.281,52.675 17.5,51.5C 17.5,50.1667 17.5,48.8333 17.5,47.5C 19.2132,46.3646 19.8799,44.698 19.5,42.5C 19.5569,41.391 19.8902,40.391 20.5,39.5C 22.2132,38.3646 22.8799,36.698 22.5,34.5 Z"/></g>
<g><path style="opacity:0.384" fill="#aba3c9" d="M 37.5,43.5 C 38.9313,44.7804 39.5979,46.4471 39.5,48.5C 38.0687,47.2196 37.4021,45.5529 37.5,43.5 Z"/></g>
<g><path style="opacity:0.616" fill="#a6bcde" d="M 211.5,43.5 C 213.072,46.2154 214.072,49.2154 214.5,52.5C 213.833,51.8333 213.167,51.1667 212.5,50.5C 212.007,48.1944 211.674,45.861 211.5,43.5 Z"/></g>
<g><path style="opacity:0.475" fill="#91add7" d="M 317.5,40.5 C 317.072,43.7846 316.072,46.7846 314.5,49.5C 314.446,46.0076 315.446,43.0076 317.5,40.5 Z"/></g>
<g><path style="opacity:0.216" fill="#a79ec4" d="M 90.5,41.5 C 91.1667,41.8333 91.8333,42.1667 92.5,42.5C 91.8333,43.8333 91.1667,45.1667 90.5,46.5C 88.6053,47.973 86.9387,49.6397 85.5,51.5C 83.4453,49.4451 81.7787,47.1117 80.5,44.5C 82.1486,45.714 83.8152,47.0473 85.5,48.5C 88.3905,46.9571 90.0571,44.6238 90.5,41.5 Z"/></g>
<g><path style="opacity:1" fill="#6b7dc5" d="M 251.5,45.5 C 250.5,48.5 248.5,50.5 245.5,51.5C 246.684,50.3121 246.684,49.1455 245.5,48C 246.449,47.3828 247.282,47.5494 248,48.5C 248.483,47.552 248.649,46.552 248.5,45.5C 249.5,45.5 250.5,45.5 251.5,45.5 Z"/></g>
<g><path style="opacity:0.008" fill="#e3dfe6" d="M 101.5,46.5 C 101.715,48.1788 101.048,49.1788 99.5,49.5C 99.5,49.1667 99.5,48.8333 99.5,48.5C 99.8333,47.5 100.5,46.8333 101.5,46.5 Z"/></g>
<g><path style="opacity:0.725" fill="#96a8d0" d="M 151.5,41.5 C 151.5,45.5 151.5,49.5 151.5,53.5C 152.301,55.0418 152.634,56.7085 152.5,58.5C 149.127,52.9852 148.794,47.3186 151.5,41.5 Z"/></g>
<g><path style="opacity:0.639" fill="#a6b9e2" d="M 328.5,45.5 C 329.738,47.2143 330.405,49.2143 330.5,51.5C 328.926,49.8984 328.259,47.8984 328.5,45.5 Z"/></g>
<g><path style="opacity:0.954" fill="#180f40" d="M 51.5,43.5 C 58.8333,43.5 66.1667,43.5 73.5,43.5C 73.5,45.8333 73.5,48.1667 73.5,50.5C 66.825,50.6663 60.1583,50.4996 53.5,50C 52.3313,47.9935 51.6646,45.8268 51.5,43.5 Z"/></g>
<g><path style="opacity:1" fill="#12004b" d="M 53.5,44.5 C 59.8333,44.5 66.1667,44.5 72.5,44.5C 72.5,45.8333 72.5,47.1667 72.5,48.5C 67.1946,49.4419 61.8613,49.6086 56.5,49C 54.1367,48.4115 53.1367,46.9115 53.5,44.5 Z"/></g>
<g><path style="opacity:0.808" fill="#9084b5" d="M 17.5,47.5 C 17.5,48.8333 17.5,50.1667 17.5,51.5C 16.8333,51.8333 16.1667,52.1667 15.5,52.5C 15.7959,50.597 16.4625,48.9303 17.5,47.5 Z"/></g>
<g><path style="opacity:1" fill="#1a046c" d="M 45.5,35.5 C 46.3127,37.2608 47.3127,38.9275 48.5,40.5C 49.038,42.1172 49.3713,43.7839 49.5,45.5C 51.4426,49.6207 50.6093,52.954 47,55.5C 46.6667,54.5 46.3333,53.5 46,52.5C 44.9887,53.3366 43.8221,53.67 42.5,53.5C 42.1667,53.5 41.8333,53.5 41.5,53.5C 41.5979,51.4471 40.9313,49.7804 39.5,48.5C 39.5979,46.4471 38.9313,44.7804 37.5,43.5C 37.5979,41.4471 36.9313,39.7804 35.5,38.5C 35.5,38.1667 35.5,37.8333 35.5,37.5C 37.6139,38.9071 39.1139,40.9071 40,43.5C 40.9814,40.3455 42.3148,40.0122 44,42.5C 44.1276,45.5144 44.1276,48.5144 44,51.5C 45.4205,49.5559 46.9205,47.7226 48.5,46C 48.0541,44.2741 47.2208,42.7741 46,41.5C 45.5045,39.5273 45.3379,37.5273 45.5,35.5 Z"/></g>
<g><path style="opacity:0.6" fill="#acc3e5" d="M 309.5,47.5 C 309.741,49.8984 309.074,51.8984 307.5,53.5C 307.595,51.2143 308.262,49.2143 309.5,47.5 Z"/></g>
<g><path style="opacity:0.392" fill="#aca2c5" d="M 39.5,48.5 C 40.9313,49.7804 41.5979,51.4471 41.5,53.5C 40.0687,52.2196 39.4021,50.5529 39.5,48.5 Z"/></g>
<g><path style="opacity:0.576" fill="#829ece" d="M 201.5,39.5 C 200.5,43.5 199.5,47.5 198.5,51.5C 199.5,51.5 200.5,51.5 201.5,51.5C 203.167,51.5 204.833,51.5 206.5,51.5C 207.338,51.1583 207.672,50.4916 207.5,49.5C 207.5,49.1667 207.5,48.8333 207.5,48.5C 208.434,49.5676 208.768,50.901 208.5,52.5C 204.833,52.5 201.167,52.5 197.5,52.5C 197.808,48.4052 198.641,44.4052 200,40.5C 200.383,39.944 200.883,39.6107 201.5,39.5 Z"/></g>
<g><path style="opacity:0.008" fill="#f3fefa" d="M 206.5,48.5 C 206.833,48.5 207.167,48.5 207.5,48.5C 207.5,48.8333 207.5,49.1667 207.5,49.5C 206.662,49.8417 206.328,50.5084 206.5,51.5C 204.833,51.5 203.167,51.5 201.5,51.5C 203.304,50.2839 204.971,49.2839 206.5,48.5 Z"/></g>
<g><path style="opacity:0.824" fill="#897fa7" d="M 85.5,51.5 C 84.9202,53.7488 83.5869,55.4154 81.5,56.5C 82.0798,54.2512 83.4131,52.5846 85.5,51.5 Z"/></g>
<g><path style="opacity:0.973" fill="#1644ae" d="M 322.5,32.5 C 323.167,32.8333 323.833,33.1667 324.5,33.5C 324.41,36.1522 325.076,38.4855 326.5,40.5C 326.12,42.698 326.787,44.3646 328.5,45.5C 328.259,47.8984 328.926,49.8984 330.5,51.5C 330.345,54.716 331.345,57.3826 333.5,59.5C 333.5,59.8333 333.5,60.1667 333.5,60.5C 333.674,62.861 334.007,65.1944 334.5,67.5C 333.022,67.762 331.689,67.4287 330.5,66.5C 329.048,63.4359 327.715,60.4359 326.5,57.5C 322.285,55.5636 317.619,54.8969 312.5,55.5C 312.205,53.2646 312.539,51.2646 313.5,49.5C 313.5,50.5 313.5,51.5 313.5,52.5C 317.5,52.5 321.5,52.5 325.5,52.5C 323.429,46.6201 321.763,40.6201 320.5,34.5C 321.833,34.5 322.5,33.8333 322.5,32.5 Z"/></g>
<g><path style="opacity:1" fill="#6478bd" d="M 151.5,53.5 C 153.223,54.6053 154.223,56.2719 154.5,58.5C 155.089,61.2762 156.422,63.6096 158.5,65.5C 155.092,64.4222 153.092,62.0889 152.5,58.5C 152.634,56.7085 152.301,55.0418 151.5,53.5 Z"/></g>
<g><path style="opacity:0.804" fill="#829cca" d="M 195.5,41.5 C 193.806,49.9145 191.14,57.9145 187.5,65.5C 187.5,65.1667 187.5,64.8333 187.5,64.5C 189.413,56.4869 192.079,48.8202 195.5,41.5 Z"/></g>
<g><path style="opacity:0.333" fill="#b7afd1" d="M 28.5,51.5 C 28.5979,53.5529 27.9313,55.2196 26.5,56.5C 26.5,55.5 26.5,54.5 26.5,53.5C 27.1667,52.8333 27.8333,52.1667 28.5,51.5 Z"/></g>
<g><path style="opacity:0.908" fill="#1743a6" d="M 212.5,50.5 C 213.167,51.1667 213.833,51.8333 214.5,52.5C 214.677,56.7076 216.01,60.3743 218.5,63.5C 218.5,63.8333 218.5,64.1667 218.5,64.5C 218.5,65.5 218.5,66.5 218.5,67.5C 216.833,67.5 215.167,67.5 213.5,67.5C 212.809,63.7738 211.809,60.1071 210.5,56.5C 205.544,55.5059 200.544,55.1725 195.5,55.5C 196.551,54.7777 197.218,53.7777 197.5,52.5C 201.167,52.5 204.833,52.5 208.5,52.5C 207.048,53.3019 205.382,53.8019 203.5,54C 206.23,54.7284 208.897,54.5617 211.5,53.5C 212.386,52.675 212.719,51.675 212.5,50.5 Z"/></g>
<g><path style="opacity:0.663" fill="#9eb4d7" d="M 330.5,51.5 C 331.871,53.936 332.871,56.6027 333.5,59.5C 331.345,57.3826 330.345,54.716 330.5,51.5 Z"/></g>
<g><path style="opacity:0.851" fill="#887daa" d="M 15.5,52.5 C 15.634,54.2915 15.3007,55.9582 14.5,57.5C 14.1667,57.5 13.8333,57.5 13.5,57.5C 13.7959,55.597 14.4625,53.9303 15.5,52.5 Z"/></g>
<g><path style="opacity:1" fill="#170260" d="M 49.5,45.5 C 50.5665,47.964 51.8998,50.2974 53.5,52.5C 53.5,52.8333 53.5,53.1667 53.5,53.5C 53.5172,55.5648 53.8505,57.5648 54.5,59.5C 54.6463,61.9424 53.813,62.6091 52,61.5C 49.9288,64.4155 48.5954,64.0822 48,60.5C 47.6667,61.1667 47.3333,61.8333 47,62.5C 46.5038,60.9651 46.6705,59.4651 47.5,58C 46.9896,56.1739 46.1562,56.0072 45,57.5C 44.3828,56.5509 44.5494,55.7175 45.5,55C 44.552,54.5172 43.552,54.3505 42.5,54.5C 42.5,54.1667 42.5,53.8333 42.5,53.5C 43.8221,53.67 44.9887,53.3366 46,52.5C 46.3333,53.5 46.6667,54.5 47,55.5C 50.6093,52.954 51.4426,49.6207 49.5,45.5 Z"/></g>
<g><path style="opacity:0.997" fill="#1b0661" d="M 90.5,46.5 C 90.9668,48.711 91.9668,50.711 93.5,52.5C 94.5095,49.663 96.5095,48.3297 99.5,48.5C 99.5,48.8333 99.5,49.1667 99.5,49.5C 99.5,50.1667 99.1667,50.5 98.5,50.5C 95.7915,53.2085 93.4581,56.2085 91.5,59.5C 91.5,60.1667 91.1667,60.5 90.5,60.5C 89.5,60.8333 88.8333,61.5 88.5,62.5C 85.3126,61.1633 84.646,62.1633 86.5,65.5C 85.8333,65.8333 85.1667,66.1667 84.5,66.5C 82.8333,66.5 81.1667,66.5 79.5,66.5C 79.2872,63.5491 79.9539,60.8825 81.5,58.5C 81.5,57.8333 81.5,57.1667 81.5,56.5C 83.5869,55.4154 84.9202,53.7488 85.5,51.5C 86.9387,49.6397 88.6053,47.973 90.5,46.5 Z"/></g>
<g><path style="opacity:0.671" fill="#a394c5" d="M 101.5,54.5 C 103.262,55.2623 104.262,56.5956 104.5,58.5C 102.738,57.7377 101.738,56.4044 101.5,54.5 Z"/></g>
<g><path style="opacity:0.718" fill="#8ba3ce" d="M 156.5,52.5 C 157.537,53.9303 158.204,55.597 158.5,57.5C 156.787,56.3646 156.12,54.698 156.5,52.5 Z"/></g>
<g><path style="opacity:0.249" fill="#b3cae9" d="M 195.5,55.5 C 200.544,55.1725 205.544,55.5059 210.5,56.5C 211.809,60.1071 212.809,63.7738 213.5,67.5C 212.702,64.7694 211.035,62.6027 208.5,61C 210.689,60.323 211.022,59.1563 209.5,57.5C 205.167,56.1667 200.833,56.1667 196.5,57.5C 195.336,61.0128 194.002,64.3462 192.5,67.5C 193.09,63.3967 194.09,59.3967 195.5,55.5 Z"/></g>
<g><path style="opacity:0.722" fill="#98add5" d="M 214.5,52.5 C 216.204,55.9385 217.538,59.6052 218.5,63.5C 216.01,60.3743 214.677,56.7076 214.5,52.5 Z"/></g>
<g><path style="opacity:0.247" fill="#b5ceef" d="M 312.5,56.5 C 312.5,56.1667 312.5,55.8333 312.5,55.5C 317.619,54.8969 322.285,55.5636 326.5,57.5C 321.93,56.559 317.263,56.2256 312.5,56.5 Z"/></g>
<g><path style="opacity:0.976" fill="#7e719e" d="M 53.5,53.5 C 55.2927,55.4261 56.2927,57.7594 56.5,60.5C 56.1667,60.5 55.8333,60.5 55.5,60.5C 55.5,59.8333 55.1667,59.5 54.5,59.5C 53.8505,57.5648 53.5172,55.5648 53.5,53.5 Z"/></g>
<g><path style="opacity:0.275" fill="#b6a9d9" d="M 98.5,50.5 C 100.229,51.2362 101.229,52.5695 101.5,54.5C 100.399,53.2003 99.0657,52.7003 97.5,53C 95.4598,55.1851 94.1264,57.6851 93.5,60.5C 92.8333,60.1667 92.1667,59.8333 91.5,59.5C 93.4581,56.2085 95.7915,53.2085 98.5,50.5 Z"/></g>
<g><path style="opacity:0.655" fill="#a4b8dd" d="M 307.5,53.5 C 307.741,55.8984 307.074,57.8984 305.5,59.5C 305.595,57.2143 306.262,55.2143 307.5,53.5 Z"/></g>
<g><path style="opacity:1" fill="#16035b" d="M 26.5,53.5 C 26.5,54.5 26.5,55.5 26.5,56.5C 24.4082,59.0884 23.0749,62.0884 22.5,65.5C 21.8333,65.5 21.1667,65.5 20.5,65.5C 19.0689,65.1193 18.2355,64.1193 18,62.5C 16.9887,63.3366 15.8221,63.67 14.5,63.5C 14.5,61.5 14.5,59.5 14.5,57.5C 15.3007,55.9582 15.634,54.2915 15.5,52.5C 16.1667,52.1667 16.8333,51.8333 17.5,51.5C 17.281,52.675 17.6143,53.675 18.5,54.5C 19.0045,51.6582 20.6711,50.3249 23.5,50.5C 23.5,51.5 23.5,52.5 23.5,53.5C 24.5,53.5 25.5,53.5 26.5,53.5 Z"/></g>
<g><path style="opacity:0.333" fill="#b0a7cd" d="M 41.5,53.5 C 41.8333,53.5 42.1667,53.5 42.5,53.5C 42.5,53.8333 42.5,54.1667 42.5,54.5C 43.5945,57.682 44.9278,60.682 46.5,63.5C 47.2635,67.1368 48.5968,70.4701 50.5,73.5C 50.8782,75.921 51.5448,78.2543 52.5,80.5C 48.6002,81.4299 44.6002,81.7633 40.5,81.5C 40.1945,72.0833 40.5279,62.75 41.5,53.5 Z"/></g>
<g><path style="opacity:1" fill="#1d0479" d="M 101.5,54.5 C 101.738,56.4044 102.738,57.7377 104.5,58.5C 104.557,59.609 104.89,60.609 105.5,61.5C 105.414,62.4959 105.748,63.3292 106.5,64C 105.551,64.6172 104.718,64.4506 104,63.5C 103.781,64.938 103.281,66.2713 102.5,67.5C 100.364,64.8207 98.0307,62.4874 95.5,60.5C 94.8333,60.5 94.1667,60.5 93.5,60.5C 94.1264,57.6851 95.4598,55.1851 97.5,53C 99.0657,52.7003 100.399,53.2003 101.5,54.5 Z"/></g>
<g><path style="opacity:0.616" fill="#9cb0d5" d="M 312.5,56.5 C 312.072,59.7846 311.072,62.7846 309.5,65.5C 309.446,62.0076 310.446,59.0076 312.5,56.5 Z"/></g>
<g><path style="opacity:0.29" fill="#afa6c9" d="M 26.5,56.5 C 25.7365,60.1368 24.4032,63.4701 22.5,66.5C 22.5,66.1667 22.5,65.8333 22.5,65.5C 23.0749,62.0884 24.4082,59.0884 26.5,56.5 Z"/></g>
<g><path style="opacity:0.553" fill="#9e97b5" d="M 81.5,56.5 C 81.5,57.1667 81.5,57.8333 81.5,58.5C 80.1667,59.5 78.8333,60.5 77.5,61.5C 78.0798,59.2512 79.4131,57.5846 81.5,56.5 Z"/></g>
<g><path style="opacity:0.769" fill="#8d7eb3" d="M 104.5,58.5 C 106.262,59.2623 107.262,60.5956 107.5,62.5C 106.833,62.1667 106.167,61.8333 105.5,61.5C 104.89,60.609 104.557,59.609 104.5,58.5 Z"/></g>
<g><path style="opacity:0.361" fill="#b5c8e6" d="M 158.5,57.5 C 160.5,58.8333 162.167,60.5 163.5,62.5C 160.833,61.8333 159.167,60.1667 158.5,57.5 Z"/></g>
<g><path style="opacity:1" fill="#140355" d="M 42.5,54.5 C 43.552,54.3505 44.552,54.5172 45.5,55C 44.5494,55.7175 44.3828,56.5509 45,57.5C 46.1562,56.0072 46.9896,56.1739 47.5,58C 46.6705,59.4651 46.5038,60.9651 47,62.5C 47.3333,61.8333 47.6667,61.1667 48,60.5C 48.5954,64.0822 49.9288,64.4155 52,61.5C 53.813,62.6091 54.6463,61.9424 54.5,59.5C 55.1667,59.5 55.5,59.8333 55.5,60.5C 55.781,63.8166 55.781,66.9832 55.5,70C 54.0563,70.7805 52.723,70.6139 51.5,69.5C 49.3483,67.8381 47.6817,65.8381 46.5,63.5C 44.9278,60.682 43.5945,57.682 42.5,54.5 Z"/></g>
<g><path style="opacity:0.004" fill="#d0cadf" d="M 90.5,60.5 C 90.573,62.0269 89.9063,63.0269 88.5,63.5C 88.5,63.1667 88.5,62.8333 88.5,62.5C 88.8333,61.5 89.5,60.8333 90.5,60.5 Z"/></g>
<g><path style="opacity:1" fill="#140352" d="M 13.5,57.5 C 13.8333,57.5 14.1667,57.5 14.5,57.5C 14.5,59.5 14.5,61.5 14.5,63.5C 15.8221,63.67 16.9887,63.3366 18,62.5C 18.2355,64.1193 19.0689,65.1193 20.5,65.5C 19.8777,67.335 18.5444,68.5017 16.5,69C 17.3802,70.3561 17.7135,71.8561 17.5,73.5C 15.7376,73.3573 14.0709,73.6906 12.5,74.5C 10.7869,74.1207 9.7869,73.1207 9.5,71.5C 10.1495,69.5648 10.4828,67.5648 10.5,65.5C 12.6545,63.3826 13.6545,60.716 13.5,57.5 Z"/></g>
<g><path style="opacity:0.996" fill="#5a4981" d="M 88.5,62.5 C 88.5,62.8333 88.5,63.1667 88.5,63.5C 88.1667,64.5 87.5,65.1667 86.5,65.5C 84.646,62.1633 85.3126,61.1633 88.5,62.5 Z"/></g>
<g><path style="opacity:0.008" fill="#bfb4d6" d="M 93.5,60.5 C 94.1667,60.5 94.8333,60.5 95.5,60.5C 96.1667,62.1667 96.8333,63.8333 97.5,65.5C 95.457,64.4206 94.1237,62.754 93.5,60.5 Z"/></g>
<g><path style="opacity:0.89" fill="#8578a8" d="M 13.5,57.5 C 13.6545,60.716 12.6545,63.3826 10.5,65.5C 10.9802,62.5568 11.9802,59.8902 13.5,57.5 Z"/></g>
<g><path style="opacity:0.843" fill="#978db6" d="M 56.5,60.5 C 57.9313,61.7804 58.5979,63.4471 58.5,65.5C 56.7868,64.3646 56.1201,62.698 56.5,60.5 Z"/></g>
<g><path style="opacity:0.82" fill="#8b80ac" d="M 107.5,62.5 C 109.587,63.5846 110.92,65.2512 111.5,67.5C 109.413,66.4154 108.08,64.7488 107.5,62.5 Z"/></g>
<g><path style="opacity:0.257" fill="#aabce2" d="M 163.5,62.5 C 169.16,63.7516 174.827,63.7516 180.5,62.5C 180.784,64.4147 180.451,66.0813 179.5,67.5C 179.768,65.901 179.434,64.5676 178.5,63.5C 176.051,64.0418 173.551,64.3751 171,64.5C 168.134,64.7001 165.634,64.0334 163.5,62.5 Z"/></g>
<g><path style="opacity:1" fill="#1a47ae" d="M 199.5,33.5 C 199.34,35.1992 199.506,36.8659 200,38.5C 200.383,37.944 200.883,37.6107 201.5,37.5C 201.5,38.1667 201.5,38.8333 201.5,39.5C 200.883,39.6107 200.383,39.944 200,40.5C 198.641,44.4052 197.808,48.4052 197.5,52.5C 197.218,53.7777 196.551,54.7777 195.5,55.5C 194.09,59.3967 193.09,63.3967 192.5,67.5C 190.219,67.9227 188.552,67.256 187.5,65.5C 191.14,57.9145 193.806,49.9145 195.5,41.5C 195.433,40.0413 195.766,38.7079 196.5,37.5C 197.5,36.1667 198.5,34.8333 199.5,33.5 Z"/></g>
<g><path style="opacity:0.988" fill="#1c48ae" d="M 156.5,41.5 C 156.5,42.8333 156.5,44.1667 156.5,45.5C 156.5,47.8333 156.5,50.1667 156.5,52.5C 156.12,54.698 156.787,56.3646 158.5,57.5C 159.167,60.1667 160.833,61.8333 163.5,62.5C 165.634,64.0334 168.134,64.7001 171,64.5C 173.551,64.3751 176.051,64.0418 178.5,63.5C 178.5,64.5 178.5,65.5 178.5,66.5C 172.862,67.2197 167.196,67.553 161.5,67.5C 161.027,66.0937 160.027,65.427 158.5,65.5C 156.422,63.6096 155.089,61.2762 154.5,58.5C 155.239,58.631 155.906,58.4643 156.5,58C 155.175,52.4008 155.175,46.9008 156.5,41.5 Z"/></g>
<g><path style="opacity:0.322" fill="#aaa1bf" d="M 77.5,61.5 C 76.9202,63.7488 75.5869,65.4154 73.5,66.5C 74.0798,64.2512 75.4131,62.5846 77.5,61.5 Z"/></g>
<g><path style="opacity:0.016" fill="#c9c3dd" d="M 86.5,65.5 C 86.573,67.0269 85.9063,68.0269 84.5,68.5C 84.5,67.8333 84.5,67.1667 84.5,66.5C 85.1667,66.1667 85.8333,65.8333 86.5,65.5 Z"/></g>
<g><path style="opacity:0.302" fill="#a8bbe0" d="M 158.5,65.5 C 160.027,65.427 161.027,66.0937 161.5,67.5C 159.973,67.573 158.973,66.9063 158.5,65.5 Z"/></g>
<g><path style="opacity:0.945" fill="#7082c3" d="M 178.5,63.5 C 179.434,64.5676 179.768,65.901 179.5,67.5C 173.5,70.1667 167.5,70.1667 161.5,67.5C 167.196,67.553 172.862,67.2197 178.5,66.5C 178.5,65.5 178.5,64.5 178.5,63.5 Z"/></g>
<g><path style="opacity:0.753" fill="#9189ab" d="M 73.5,66.5 C 73.2624,68.4044 72.2624,69.7377 70.5,70.5C 70.7376,68.5956 71.7376,67.2623 73.5,66.5 Z"/></g>
<g><path style="opacity:0.004" fill="#d5cfe4" d="M 98.5,66.5 C 99.9063,66.9731 100.573,67.9731 100.5,69.5C 99.0937,69.0269 98.427,68.0269 98.5,66.5 Z"/></g>
<g><path style="opacity:0.384" fill="#94a9cd" d="M 218.5,64.5 C 219.404,65.209 219.737,66.209 219.5,67.5C 218.432,68.4345 217.099,68.7678 215.5,68.5C 214.508,68.6716 213.842,68.3382 213.5,67.5C 215.167,67.5 216.833,67.5 218.5,67.5C 218.5,66.5 218.5,65.5 218.5,64.5 Z"/></g>
<g><path style="opacity:0.525" fill="#a0b0d5" d="M 305.5,59.5 C 305.167,62.1667 304.833,64.8333 304.5,67.5C 306.554,67.6347 308.221,66.968 309.5,65.5C 309.67,66.8221 309.337,67.9887 308.5,69C 306.687,68.9536 305.021,69.1203 303.5,69.5C 302.702,65.8887 303.369,62.5554 305.5,59.5 Z"/></g>
<g><path style="opacity:0.573" fill="#a5bada" d="M 326.5,57.5 C 327.715,60.4359 329.048,63.4359 330.5,66.5C 331.689,67.4287 333.022,67.762 334.5,67.5C 334.007,65.1944 333.674,62.861 333.5,60.5C 334.67,62.6502 335.67,64.9836 336.5,67.5C 334.809,69.2562 332.809,69.7562 330.5,69C 328.35,65.3868 327.017,61.5535 326.5,57.5 Z"/></g>
<g><path style="opacity:0.575" fill="#95aad5" d="M 344.5,68.5 C 344.5,68.1667 344.5,67.8333 344.5,67.5C 344.833,67.5 345.167,67.5 345.5,67.5C 352.167,67.5 358.833,67.5 365.5,67.5C 365.5,66.5 365.5,65.5 365.5,64.5C 360.167,64.5 354.833,64.5 349.5,64.5C 349.5,64.1667 349.5,63.8333 349.5,63.5C 349.833,63.5 350.167,63.5 350.5,63.5C 355.74,62.5509 361.073,62.2175 366.5,62.5C 366.5,64.8333 366.5,67.1667 366.5,69.5C 359.084,68.5189 351.75,68.1856 344.5,68.5 Z"/></g>
<g><path style="opacity:0.918" fill="#877ca1" d="M 10.5,65.5 C 10.4828,67.5648 10.1495,69.5648 9.5,71.5C 8.85706,73.0764 7.85706,74.4097 6.5,75.5C 7.26349,71.8632 8.59682,68.5299 10.5,65.5 Z"/></g>
<g><path style="opacity:0.863" fill="#867fa0" d="M 58.5,65.5 C 59.5375,66.9303 60.2041,68.597 60.5,70.5C 60.1667,70.5 59.8333,70.5 59.5,70.5C 58.6993,68.9582 58.366,67.2915 58.5,65.5 Z"/></g>
<g><path style="opacity:0.014" fill="#cad6eb" d="M 187.5,64.5 C 187.5,64.8333 187.5,65.1667 187.5,65.5C 188.552,67.256 190.219,67.9227 192.5,67.5C 190.427,69.9398 188.094,70.1065 185.5,68C 186.085,66.6976 186.751,65.531 187.5,64.5 Z"/></g>
<g><path style="opacity:0.016" fill="#f5f9f8" d="M 219.5,67.5 C 220.289,67.7828 220.956,68.2828 221.5,69C 219.288,69.7891 217.288,69.6225 215.5,68.5C 217.099,68.7678 218.432,68.4345 219.5,67.5 Z"/></g>
<g><path style="opacity:0.004" fill="#f8fcf7" d="M 227.5,68.5 C 226.833,69.1667 226.833,69.1667 227.5,68.5 Z"/></g>
<g><path style="opacity:0.017" fill="#edfcfc" d="M 228.5,68.5 C 230.167,68.5 231.833,68.5 233.5,68.5C 231.833,71.1667 230.167,71.1667 228.5,68.5 Z"/></g>
<g><path style="opacity:1" fill="#13054b" d="M 55.5,60.5 C 55.8333,60.5 56.1667,60.5 56.5,60.5C 56.1201,62.698 56.7868,64.3646 58.5,65.5C 58.366,67.2915 58.6993,68.9582 59.5,70.5C 59.5751,73.2062 59.9084,75.8728 60.5,78.5C 58.1432,78.6633 55.8098,78.4966 53.5,78C 52.9473,76.1222 51.9473,74.6222 50.5,73.5C 48.5968,70.4701 47.2635,67.1368 46.5,63.5C 47.6817,65.8381 49.3483,67.8381 51.5,69.5C 52.723,70.6139 54.0563,70.7805 55.5,70C 55.781,66.9832 55.781,63.8166 55.5,60.5 Z"/></g>
<g><path style="opacity:1" fill="#1a055d" d="M 95.5,60.5 C 98.0307,62.4874 100.364,64.8207 102.5,67.5C 103.281,66.2713 103.781,64.938 104,63.5C 104.718,64.4506 105.551,64.6172 106.5,64C 105.748,63.3292 105.414,62.4959 105.5,61.5C 106.167,61.8333 106.833,62.1667 107.5,62.5C 108.08,64.7488 109.413,66.4154 111.5,67.5C 111.557,68.609 111.89,69.609 112.5,70.5C 113.028,71.8474 113.195,73.1807 113,74.5C 110.208,74.6469 107.375,73.9803 104.5,72.5C 103.833,72.1667 103.167,71.8333 102.5,71.5C 101.5,71.1667 100.833,70.5 100.5,69.5C 100.573,67.9731 99.9063,66.9731 98.5,66.5C 97.8333,66.5 97.5,66.1667 97.5,65.5C 96.8333,63.8333 96.1667,62.1667 95.5,60.5 Z"/></g>
<g><path style="opacity:0.016" fill="#c4c1d6" d="M 82.5,70.5 C 82.573,72.0269 81.9063,73.0269 80.5,73.5C 80.427,71.9731 81.0937,70.9731 82.5,70.5 Z"/></g>
<g><path style="opacity:0.365" fill="#9f97b8" d="M 111.5,67.5 C 113.587,68.5846 114.92,70.2512 115.5,72.5C 114.5,71.8333 113.5,71.1667 112.5,70.5C 111.89,69.609 111.557,68.609 111.5,67.5 Z"/></g>
<g><path style="opacity:1" fill="#17094b" d="M 81.5,58.5 C 79.9539,60.8825 79.2872,63.5491 79.5,66.5C 81.1667,66.5 82.8333,66.5 84.5,66.5C 84.5,67.1667 84.5,67.8333 84.5,68.5C 84.1667,69.5 83.5,70.1667 82.5,70.5C 81.0937,70.9731 80.427,71.9731 80.5,73.5C 79.5,73.5 78.5,73.5 77.5,73.5C 77.3713,75.2161 77.038,76.8828 76.5,78.5C 76.1667,79.5 75.5,80.1667 74.5,80.5C 70.8183,80.6653 67.1516,80.4986 63.5,80C 65.1412,78.871 66.1412,77.371 66.5,75.5C 68.5869,74.4154 69.9202,72.7488 70.5,70.5C 72.2624,69.7377 73.2624,68.4044 73.5,66.5C 75.5869,65.4154 76.9202,63.7488 77.5,61.5C 78.8333,60.5 80.1667,59.5 81.5,58.5 Z"/></g>
<g><path style="opacity:0.008" fill="#c2bbd6" d="M 102.5,71.5 C 103.167,71.8333 103.833,72.1667 104.5,72.5C 105.11,73.391 105.443,74.391 105.5,75.5C 103.738,74.7377 102.738,73.4044 102.5,71.5 Z"/></g>
<g><path style="opacity:1" fill="#221251" d="M 20.5,65.5 C 21.1667,65.5 21.8333,65.5 22.5,65.5C 22.5,65.8333 22.5,66.1667 22.5,66.5C 22.5979,68.5529 21.9313,70.2196 20.5,71.5C 19.0687,72.7804 18.4021,74.4471 18.5,76.5C 18.7373,77.791 18.404,78.791 17.5,79.5C 17.1667,79.5 16.8333,79.5 16.5,79.5C 13.1667,79.5 9.83333,79.5 6.5,79.5C 6.5,78.1667 6.5,76.8333 6.5,75.5C 7.85706,74.4097 8.85706,73.0764 9.5,71.5C 9.7869,73.1207 10.7869,74.1207 12.5,74.5C 14.0709,73.6906 15.7376,73.3573 17.5,73.5C 17.7135,71.8561 17.3802,70.3561 16.5,69C 18.5444,68.5017 19.8777,67.335 20.5,65.5 Z"/></g>
<g><path style="opacity:0.827" fill="#8b84a1" d="M 60.5,70.5 C 61.5375,71.9303 62.2041,73.597 62.5,75.5C 60.7868,74.3646 60.1201,72.698 60.5,70.5 Z"/></g>
<g><path style="opacity:0.612" fill="#948da9" d="M 70.5,70.5 C 69.9202,72.7488 68.5869,74.4154 66.5,75.5C 67.0798,73.2512 68.4131,71.5846 70.5,70.5 Z"/></g>
<g><path style="opacity:1" fill="#1a0c4c" d="M 112.5,70.5 C 113.5,71.1667 114.5,71.8333 115.5,72.5C 116.08,74.7488 117.413,76.4154 119.5,77.5C 119.414,78.4959 119.748,79.3292 120.5,80C 116.848,80.4986 113.182,80.6653 109.5,80.5C 108.833,80.5 108.5,80.1667 108.5,79.5C 108.446,77.368 107.446,76.0347 105.5,75.5C 105.443,74.391 105.11,73.391 104.5,72.5C 107.375,73.9803 110.208,74.6469 113,74.5C 113.195,73.1807 113.028,71.8474 112.5,70.5 Z"/></g>
<g><path style="opacity:0.369" fill="#a9a0ba" d="M 20.5,71.5 C 20.5979,73.5529 19.9313,75.2196 18.5,76.5C 18.4021,74.4471 19.0687,72.7804 20.5,71.5 Z"/></g>
<g><path style="opacity:0.91" fill="#7c7497" d="M 80.5,73.5 C 79.396,75.3885 78.0627,77.0552 76.5,78.5C 77.038,76.8828 77.3713,75.2161 77.5,73.5C 78.5,73.5 79.5,73.5 80.5,73.5 Z"/></g>
<g><path style="opacity:0.008" fill="#f8faed" d="M 120.5,74.5 C 121.833,75.1667 121.833,75.1667 120.5,74.5 Z"/></g>
<g><path style="opacity:1" fill="#160457" d="M 46.5,70.5 C 46.162,73.1569 46.8287,75.4902 48.5,77.5C 46.604,78.4656 44.604,78.7989 42.5,78.5C 42.8128,74.9581 42.4794,71.6248 41.5,68.5C 41.3347,64.8183 41.5014,61.1516 42,57.5C 43.8073,61.7561 45.3073,66.0894 46.5,70.5 Z"/></g>
<g><path style="opacity:0.329" fill="#a69fbc" d="M 115.5,72.5 C 117.587,73.5846 118.92,75.2512 119.5,77.5C 117.413,76.4154 116.08,74.7488 115.5,72.5 Z"/></g>
<g><path style="opacity:0.008" fill="#f9f9fa" d="M 4.5,78.5 C 3.83333,77.1667 3.83333,77.1667 4.5,78.5 Z"/></g>
<g><path style="opacity:0.584" fill="#998fb3" d="M 105.5,75.5 C 107.446,76.0347 108.446,77.368 108.5,79.5C 107.026,78.5637 106.026,77.2303 105.5,75.5 Z"/></g>
<g><path style="opacity:1" fill="#1b1146" d="M 41.5,68.5 C 42.4794,71.6248 42.8128,74.9581 42.5,78.5C 44.604,78.7989 46.604,78.4656 48.5,77.5C 46.8287,75.4902 46.162,73.1569 46.5,70.5C 48.4032,73.5299 49.7365,76.8632 50.5,80.5C 47.5,80.5 44.5,80.5 41.5,80.5C 41.5,76.5 41.5,72.5 41.5,68.5 Z"/></g>
<g><path style="opacity:1" fill="#3c325d" d="M 59.5,70.5 C 59.8333,70.5 60.1667,70.5 60.5,70.5C 60.1201,72.698 60.7868,74.3646 62.5,75.5C 62.634,77.2915 62.3007,78.9582 61.5,80.5C 58.5,81.8333 55.5,81.8333 52.5,80.5C 51.5448,78.2543 50.8782,75.921 50.5,73.5C 51.9473,74.6222 52.9473,76.1222 53.5,78C 55.8098,78.4966 58.1432,78.6633 60.5,78.5C 59.9084,75.8728 59.5751,73.2062 59.5,70.5 Z"/></g>
<g><path style="opacity:0.8" fill="#463d65" d="M 6.5,75.5 C 6.5,76.8333 6.5,78.1667 6.5,79.5C 9.83333,79.5 13.1667,79.5 16.5,79.5C 14.866,80.1611 13.0326,80.4944 11,80.5C 8.70469,80.4535 6.87135,79.7868 5.5,78.5C 5.26269,77.209 5.59603,76.209 6.5,75.5 Z"/></g>
<g><path style="opacity:0.071" fill="#e5e1eb" d="M 4.5,78.5 C 4.83333,78.5 5.16667,78.5 5.5,78.5C 6.87135,79.7868 8.70469,80.4535 11,80.5C 13.0326,80.4944 14.866,80.1611 16.5,79.5C 16.8333,79.5 17.1667,79.5 17.5,79.5C 13.6273,81.4302 9.29399,82.0969 4.5,81.5C 4.5,80.5 4.5,79.5 4.5,78.5 Z"/></g>
<g><path style="opacity:0.116" fill="#cfcad8" d="M 62.5,75.5 C 63.2216,75.9175 63.7216,76.5842 64,77.5C 64.7083,76.6195 65.5416,75.9528 66.5,75.5C 66.1412,77.371 65.1412,78.871 63.5,80C 67.1516,80.4986 70.8183,80.6653 74.5,80.5C 70.2673,81.7943 65.9339,81.7943 61.5,80.5C 62.3007,78.9582 62.634,77.2915 62.5,75.5 Z"/></g>
<g><path style="opacity:0.071" fill="#dad6e2" d="M 119.5,77.5 C 121.104,78.287 121.771,79.6203 121.5,81.5C 117.298,81.8168 113.298,81.4834 109.5,80.5C 113.182,80.6653 116.848,80.4986 120.5,80C 119.748,79.3292 119.414,78.4959 119.5,77.5 Z"/></g>
</svg>
