<?xml version="1.0" encoding="UTF-8"?>
<svg viewBox="0 0 50 40" version="1.1" xmlns="http://www.w3.org/2000/svg" xmlns:xlink="http://www.w3.org/1999/xlink">
    <g stroke="none" stroke-width="1" fill="none" fill-rule="evenodd">
        <g transform="translate(-18.000000, -325.000000)" fill-rule="nonzero">
            <g transform="translate(18.000000, 325.000000)">
                <g opacity="0.25" fill="#000">
                    <g>
                        <path d="M24.475,0 C18.375,0 12.175,0.5 5.975,1.4 C4.575,1.6 3.475,2.3 2.475,3.3 C1.475,4.3 0.875,5.6 0.675,7 C-0.225,15.5 -0.225,24 0.675,32.5 C0.875,33.9 1.475,35.2 2.475,36.3 C3.475,37.3 4.675,38 5.975,38.2 C12.175,39.1 18.375,39.5 24.475,39.5 C30.575,39.5 36.675,39.1 42.975,38.2 C44.375,38 45.575,37.4 46.575,36.3 C47.575,35.2 48.175,34 48.375,32.5 C49.375,24 49.375,15.5 48.375,7 C48.175,5.6 47.575,4.3 46.575,3.3 C45.575,2.2 44.375,1.6 42.975,1.4 C36.675,0.4 30.575,0 24.475,0" id="Path"/>
                    </g>
                </g>
                <g fill="#FFF">
                    <path d="M24.475,0 C18.375,0 12.175,0.5 5.975,1.4 C4.575,1.6 3.475,2.3 2.475,3.3 C1.475,4.3 0.875,5.6 0.675,7 C-0.225,15.5 -0.225,24 0.675,32.5 C0.875,33.9 1.475,35.2 2.475,36.3 C3.475,37.3 4.675,38 5.975,38.2 C12.175,39.1 18.375,39.5 24.475,39.5 C30.575,39.5 36.675,39.1 42.975,38.2 C44.375,38 45.575,37.4 46.575,36.3 C47.575,35.2 48.175,34 48.375,32.5 C49.375,24 49.375,15.5 48.375,7 C48.175,5.6 47.575,4.3 46.575,3.3 C45.575,2.2 44.375,1.6 42.975,1.4 C36.675,0.4 30.575,0 24.475,0 M2.275,7.1 C2.375,6.1 2.775,5.2 3.575,4.3 C4.375,3.5 5.275,3.1 6.175,2.9 C12.375,2 18.475,1.6 24.375,1.6 C30.375,1.6 36.475,2 42.575,2.9 C43.575,3 44.475,3.5 45.175,4.3 C45.975,5.1 46.375,6.1 46.575,7.1 C47.575,15.5 47.575,23.9 46.575,32.3 C46.475,33.3 45.975,34.2 45.175,35 C44.475,35.8 43.575,36.3 42.575,36.4 C36.375,37.3 30.275,37.7 24.375,37.7 C18.375,37.7 12.375,37.3 6.175,36.4 C5.175,36.3 4.275,35.8 3.575,35 C2.775,34.2 2.375,33.3 2.275,32.3 C1.275,23.9 1.275,15.5 2.275,7.1 Z" id="Shape"/>
                </g>
                <g transform="translate(19.575000, 13.200000)" fill="#FFF">
                    <path d="M1.1,3.55271368e-15 C0.8,3.55271368e-15 0.5,0.1 0.3,0.3 C0.1,0.5 -3.55271368e-15,0.8 -3.55271368e-15,1.1 L-3.55271368e-15,12 C-3.55271368e-15,12.3 0.1,12.6 0.3,12.8 C0.5,13 0.8,13.1 1.1,13.1 C1.3,13.1 1.5,13.1 1.6,13 L10.8,7.5 C11.2,7.3 11.3,7 11.3,6.6 C11.3,6.2 11.1,5.9 10.8,5.7 L1.6,0.1 C1.5,3.55271368e-15 1.3,3.55271368e-15 1.1,3.55271368e-15 Z" id="Path"/>
                </g>
            </g>
        </g>
    </g>
</svg>