<svg version="1.1" xmlns="http://www.w3.org/2000/svg" x="0" y="0" viewBox="0 0 32 39" style="enable-background:new 0 0 32 39" xml:space="preserve"><linearGradient id="SVGID_1_" gradientUnits="userSpaceOnUse" x1="0" y1="39" x2="-.707" y2="39.707"><stop offset="0" style="stop-color:#fb2027"/><stop offset="1" style="stop-color:#c70a5b"/></linearGradient><path d="M.6 2.8C.2 3.2 0 3.9 0 4.7v29.9c0 .8.2 1.5.6 1.9l.1.1 16.7-16.7v-.4L.6 2.8z" style="fill:#72c9df"/><linearGradient id="SVGID_2_" gradientUnits="userSpaceOnUse" x1="28.542" y1="19.632" x2="-4.137" y2="19.632"><stop offset="0" style="stop-color:#faea07"/><stop offset=".178" style="stop-color:#fbd405"/><stop offset=".538" style="stop-color:#fdac02"/><stop offset=".824" style="stop-color:#ff9401"/><stop offset="1" style="stop-color:#ff8b00"/></linearGradient><path d="m23 25.4-5.6-5.6v-.4l5.6-5.6.1.1 6.6 3.8c1.9 1.1 1.9 2.8 0 3.9l-6.6 3.8H23z" style="fill:url(#SVGID_2_)"/><linearGradient id="SVGID_3_" gradientUnits="userSpaceOnUse" x1="20.061" y1="22.731" x2="-10.675" y2="53.467"><stop offset="0" style="stop-color:#fb2027"/><stop offset="1" style="stop-color:#c70a5b"/></linearGradient><path d="m23.2 25.3-5.7-5.7L.6 36.5c.6.7 1.6.7 2.8.1l19.8-11.3" style="fill:url(#SVGID_3_)"/><linearGradient id="SVGID_4_" gradientUnits="userSpaceOnUse" x1="-10.812" y1="-14.341" x2="14.283" y2="10.754"><stop offset="0" style="stop-color:#358d50"/><stop offset=".311" style="stop-color:#4ba04d"/><stop offset=".738" style="stop-color:#63b549"/><stop offset="1" style="stop-color:#6cbd48"/></linearGradient><path d="M23.2 13.9 3.4 2.7c-1.1-.6-2.2-.6-2.8.1l16.8 16.8 5.8-5.7z" style="fill:url(#SVGID_4_)"/></svg>