<svg version="1.1" id="Layer_1" xmlns="http://www.w3.org/2000/svg" x="0" y="0" viewBox="0 0 32 39" style="enable-background:new 0 0 32 39" xml:space="preserve"><style>.st0{fill:#3d3e45}</style><path class="st0" d="M21.8 6.4c1.3-1.6 2.3-3.9 2-6.1-2 .1-4.3 1.3-5.7 2.9-1.2 1.4-2.3 3.7-2 5.9 2.1.2 4.3-1.1 5.7-2.7zM27.4 24.2H.9h26.5c-.6-1.3-.9-3.2-.7-4.7v-.1c.2-2 1.6-4.1 2.6-4.9.2-.3.9-.8 1.3-1.1-1.6-2.4-4.3-3.7-7.1-3.8-2.8-.2-5.6 1.8-7.2 1.7-1.5 0-3.8-1.7-6.2-1.6h-.5c-3.2.1-6 1.9-7.6 4.8-.6 1-1.4 3.4-1.5 4.9v.1c-.2 1 0 3.5.2 4.7v.1c.1 1.2.8 3.6 1.2 4.7.4 1.3 1.7 3.7 2.5 4.9 1.6 2.3 3.5 5 6.1 4.8 2.4-.1 3.3-1.6 6.3-1.6 2.9 0 3.7 1.5 6.3 1.5 2.6-.1 4.2-2.4 5.9-4.8.8-1.2 2-3.5 2.5-4.9 0-.1.1-.4.2-.5-1.7-.4-3.6-2.7-4.3-4.2z"/></svg>