<svg width="424" height="500" viewBox="0 0 424 500" fill="none" xmlns="http://www.w3.org/2000/svg">
<path d="M211.888 2.14601C277.16 2.02882 341.718 15.7662 401.315 42.4553C413.703 93.2643 421.549 146.219 421.775 180.919V182.839C421.846 216.501 416.925 249.988 407.171 282.199C397.637 313.438 383.449 343.053 365.089 370.042C346.446 397.257 324.093 421.72 298.68 442.718C272.314 464.911 243.128 483.502 211.888 498.005C180.652 483.493 151.468 464.903 125.095 442.718C99.6823 421.72 77.3289 397.257 58.6867 370.042C40.3526 343.048 26.1904 313.433 16.6793 282.199C6.92546 249.988 2.00394 216.501 2.07548 182.839V180.919C2.3015 146.219 10.1474 93.2643 22.5356 42.4553C82.1096 15.7766 146.641 2.03945 211.888 2.14601Z" fill="white"/>
<path d="M211.888 197.517C225.947 197.483 239.779 201.073 252.056 207.942H374.361C374.624 199.361 374.361 189.726 374.361 180.618C373.61 142.982 362.724 79.7152 352.062 35.756C306.798 20.9821 259.491 13.4627 211.888 13.4752" fill="#CA0538"/>
<path d="M211.888 13.6239C164.364 13.4906 117.122 20.9483 71.9386 35.7183C60.6766 81.2582 51.3291 141.552 49.9401 170.569C47.913 212.985 50.9537 243.621 59.4378 277.118C64.1842 295.844 70.5915 314.108 78.5832 331.69C87.9707 326.693 96.9462 320.955 105.424 314.528C114.687 307.315 122.978 298.927 130.088 289.575C129.191 281.551 129.444 273.44 130.839 265.488C113.908 266.09 104.298 266.278 96.7526 266.278C87.0339 265.763 78.578 259.439 75.3172 250.245H71.1127C67.8843 250.245 62.441 247.498 62.441 237.148C62.441 226.798 67.8843 224.088 71.1127 224.088H75.3548C78.5826 214.859 87.0488 208.497 96.7901 207.98H171.87C184.136 201.075 197.971 197.458 212.038 197.479" fill="#E40520"/>
<path d="M137.446 426.609C114.884 404.146 95.5986 378.602 80.1596 350.734C64.8878 322.818 53.8787 292.764 47.4998 261.574C40.8724 229.523 38.6995 196.706 41.0429 164.058C42.9574 132.18 51.5166 83.8552 61.7275 39.2185C51.8169 42.7187 41.9438 46.7458 32.221 50.7729C21.2968 94.6944 13.6762 150.434 13.4509 180.882C13.1711 214.024 17.9048 247.017 27.4909 278.736C36.5374 308.928 50.2428 337.514 68.1093 363.455C86.114 389.769 107.724 413.411 132.303 433.685C156.755 453.761 183.465 470.901 211.888 484.757C184.92 468.318 159.94 448.805 137.446 426.609Z" fill="#003671"/>
<path d="M286.292 426.609C308.811 404.136 328.092 378.624 343.578 350.81C358.835 322.856 369.855 292.781 376.276 261.574C382.891 229.521 385.051 196.705 382.695 164.058C380.818 132.18 372.184 83.8175 362.048 39.2185C371.959 42.7187 381.832 46.7458 391.592 50.8105C402.516 94.7321 410.137 150.471 410.362 180.919C410.661 214.063 405.926 247.058 396.322 278.774C387.122 308.906 373.428 337.469 355.704 363.493C337.692 389.823 316.083 413.489 291.51 433.798C267.021 453.809 240.302 470.909 211.888 484.757C238.84 468.311 263.806 448.799 286.292 426.609Z" fill="#003671"/>
<path d="M211.888 201.619C180.239 201.573 151.68 220.65 139.533 249.951C127.386 279.251 134.045 313.003 156.403 335.461C178.761 357.919 212.413 364.66 241.662 352.538C270.911 340.417 289.993 311.821 290.009 280.091C290.029 236.802 255.066 201.681 211.888 201.619Z" fill="#AE9A64"/>
<path d="M211.888 362.59C186.306 362.612 162.172 350.688 146.606 330.335C128.779 340.528 109.897 348.744 90.2957 354.837C105.195 380.988 123.5 405.036 144.729 426.346C165.119 446.799 187.633 465.005 211.888 480.655" fill="#E40520"/>
<path d="M96.7148 262.176C88.2308 262.176 81.0231 255.514 78.1325 246.143H71.0374C69.1979 246.143 66.4575 243.885 66.4575 237.186C66.4575 230.486 69.1979 228.191 71.0374 228.191H78.1325C80.9855 218.781 88.2308 212.082 96.7148 212.082H165.113C148.252 223.748 136.317 241.28 131.627 261.273C116.611 261.8 104.861 262.101 96.7148 262.101" fill="#AE9A64"/>
<path d="M355.441 363.23C337.438 389.567 315.828 413.234 291.248 433.534C266.861 453.62 240.229 470.797 211.888 484.72C183.536 470.815 156.902 453.637 132.528 433.534C107.947 413.234 86.3377 389.567 68.3347 363.23L64.2428 357.095C92.4006 351.698 119.431 341.515 144.166 326.986C137.509 317.423 132.977 306.54 130.876 295.07C124.088 303.629 116.285 311.326 107.639 317.991C92.4038 329.868 75.2846 339.092 56.9976 345.277C44.6854 324.263 34.8586 301.881 27.7163 278.586C18.1331 246.866 13.3993 213.873 13.6763 180.731C13.6763 150.246 21.4471 94.5439 32.4464 50.6223C147.046 1.19158 276.88 1.19158 391.48 50.6223C402.404 94.5439 410.024 150.246 410.25 180.731C410.25 191.232 409.874 201.695 409.011 212.007H258.475C277.527 225.2 290.18 245.805 293.35 268.8L322.03 261.988C327.024 261.158 330.927 257.215 331.716 252.202L403.83 247.385C401.763 257.921 399.169 268.347 396.059 278.623C386.842 308.725 373.148 337.261 355.441 363.267M403.004 40.8369C281.381 -13.6123 142.395 -13.6123 20.7714 40.8369C7.3696 95.259 0.161909 147.95 0.0117483 180.769C-0.274589 215.266 4.67474 249.607 14.6899 282.613C24.2967 314.035 38.572 343.826 57.0351 370.983C75.782 398.354 98.2618 422.956 123.819 444.072C148.37 464.509 181.593 487.091 211.888 500C242.183 486.903 275.406 464.509 299.957 444.035C325.514 422.918 347.994 398.316 366.741 370.945C385.204 343.788 399.479 313.997 409.086 282.575C419.101 249.57 424.05 215.229 423.764 180.731C423.614 147.912 416.406 95.2214 403.004 40.7992V40.8369Z" fill="#AE9A64"/>
<path d="M217.031 301.732V344.073C236.148 342.483 253.554 332.404 264.482 316.598L227.993 295.447C225.044 298.604 221.23 300.816 217.031 301.807" fill="white"/>
<path d="M206.67 216.109C187.577 217.68 170.198 227.767 159.332 243.584L195.746 264.66C198.772 261.448 202.699 259.23 207.008 258.299" fill="white"/>
<path d="M211.888 268.8C205.668 268.8 200.626 273.855 200.626 280.091C200.626 286.327 205.668 291.382 211.888 291.382C218.108 291.382 223.15 286.327 223.15 280.091C223.15 273.855 218.108 268.8 211.888 268.8Z" fill="white"/>
<path d="M217.031 216.109V258.299C221.262 259.266 225.106 261.481 228.068 264.66L264.482 243.584C253.591 227.737 236.164 217.647 217.031 216.109Z" fill="white"/>
<path d="M206.67 301.732C203.245 300.938 200.063 299.324 197.398 297.027C196.798 296.514 196.233 295.961 195.708 295.371L159.332 316.523C160.12 317.727 161.021 318.932 161.96 320.098C172.921 333.937 189.104 342.614 206.67 344.073" fill="white"/>
<path d="M233.211 286.452L269.7 307.528C277.875 290.128 277.875 269.978 269.7 252.579L233.248 273.693C234.471 277.857 234.471 282.287 233.248 286.452" fill="white"/>
<path d="M165.226 242.455L194.995 259.617C197.223 257.722 199.764 256.231 202.503 255.213V220.814C187.719 223.033 174.314 230.761 164.963 242.455" fill="#AE9A64"/>
<path d="M221.16 220.814V255.326C223.899 256.277 226.443 257.718 228.668 259.579L258.438 242.417C249.196 230.754 235.889 223.035 221.198 220.814" fill="#AE9A64"/>
<path d="M271.464 273.843C270.9 268.58 269.638 263.416 267.71 258.488L237.678 275.688C237.978 277.137 238.141 278.611 238.166 280.091C238.166 280.693 238.166 281.295 238.166 281.86C246.613 279.527 255.472 277.344 264.444 275.462L271.389 273.956" fill="#AE9A64"/>
<path d="M211.888 480.655C236.083 465.029 258.558 446.875 278.934 426.496C301.351 403.848 320.483 378.155 335.77 350.17C350.909 322.115 361.778 291.949 368.017 260.671C368.467 258.3 368.955 255.966 369.368 253.633L334.719 256.079C332.756 261.175 328.291 264.882 322.931 265.864C322.706 265.864 310.018 269.064 293.613 272.865C293.838 275.236 293.95 277.645 293.95 280.016C293.992 325.52 257.275 362.465 211.888 362.59" fill="#CA0538"/>
<path d="M219.133 280.091C219.029 276.088 215.745 272.908 211.752 272.943C207.759 272.977 204.53 276.214 204.495 280.218C204.461 284.221 207.633 287.514 211.625 287.618C215.772 287.618 219.133 284.248 219.133 280.091Z" fill="#AE9A64"/>
<path d="M221.123 339.293C235.838 337.076 249.177 329.375 258.475 317.727L228.443 300.49C226.194 302.326 223.657 303.775 220.935 304.78V339.293" fill="#CA0538"/>
<path d="M165.263 317.727L195.07 300.452C197.309 302.303 199.848 303.755 202.578 304.743V339.293C187.877 337.094 174.556 329.387 165.301 317.727" fill="#E40520"/>
<path d="M271.727 280.091C271.727 279.3 271.727 278.472 271.727 277.682L265.27 279.037C256.185 280.994 247.363 283.177 239.517 285.322L267.71 301.694C270.412 294.815 271.788 287.484 271.764 280.091" fill="#CA0538"/>
<path d="M153.964 252.616C145.695 270.021 145.695 290.236 153.964 307.641L190.34 286.451C189.102 282.264 189.102 277.805 190.34 273.618" fill="white"/>
<path d="M156.066 301.732L185.76 284.494C185.234 281.582 185.234 278.6 185.76 275.688L155.953 258.525C150.528 272.414 150.528 287.843 155.953 301.732" fill="#AE9A64"/>
<path d="M313.584 140.837C312.306 141.035 311.007 140.638 310.057 139.759C309.106 138.88 308.608 137.613 308.704 136.32C308.704 134.326 309.379 131.277 315.648 129.583L316.024 133.874V135.831C316.024 137.224 316.024 138.466 316.362 139.858C315.501 140.433 314.504 140.771 313.471 140.837M236.326 134.326C232.047 138.089 228.818 140.423 223.675 140.31C220.05 140.099 216.888 137.769 215.604 134.363L241.469 124.615C241.469 128.116 241.469 132.82 241.469 132.82C241.469 135.643 241.469 138.353 241.469 140.987L236.326 134.326ZM212.751 120.25C212.751 113.362 215.304 110.652 217.744 110.427C218.457 110.427 220.372 110.163 221.273 113.4C221.553 114.342 221.717 115.315 221.761 116.298C221.761 118.217 220.747 118.556 219.583 118.97L212.826 121.567C212.901 121.228 212.864 120.814 212.864 120.4L212.751 120.25ZM86.1661 125.331C87.3674 121.981 88.3059 119.271 90.2955 113.513C91.4592 119.271 92.0974 122.282 92.6981 125.105L86.1661 125.331ZM241.507 145.616C241.507 147.235 241.019 152.617 240.869 154.235H264.556C263.276 147.051 262.56 139.778 262.417 132.481L262.041 118.782C261.952 117.629 262.331 116.489 263.092 115.62C263.752 114.881 264.693 114.457 265.683 114.454C266.771 114.454 268.648 114.454 268.761 118.217L269.324 132.82C269.712 139.95 269.524 147.099 268.761 154.198H291.848C291.473 152.165 290.834 147.423 290.684 146.068C293.612 152.278 299.807 155.44 308.14 155.44C312.275 155.324 316.289 154.017 319.703 151.676C319.703 151.902 320.904 154.009 320.904 154.009H363.55C361.738 146.778 360.483 139.417 359.796 131.992L354.014 84.3822L332.016 80.6186C333.826 87.7871 335.081 95.0852 335.77 102.448L339.073 133.046C339.799 138.889 340.176 144.771 340.2 150.66V151.412L339.374 149.192C337.549 144.036 336.535 138.627 336.371 133.159L335.432 123.336C334.268 107.792 325.709 100.754 307.202 100.754C301.871 100.882 296.571 101.601 291.398 102.899L292.674 120.626L297.592 117.577C300.798 115.299 304.59 113.992 308.516 113.814C310.895 113.544 313.184 114.812 314.222 116.975C310.129 117.603 306.139 118.78 302.359 120.475C296.633 122.596 292.074 127.057 289.821 132.745C289.821 132.745 289.821 132.444 289.821 132.293L289.07 116.072C289.194 111.53 287.411 107.145 284.157 103.983C280.903 100.821 276.476 99.1715 271.952 99.4367C267.515 99.3301 263.161 100.649 259.526 103.2C259.354 102.597 259.141 102.006 258.888 101.431L257.949 99.5496L238.992 98.684C240.09 104.203 240.855 109.783 241.282 115.395C240.288 109.686 237.142 104.579 232.497 101.13C228.326 98.3683 223.418 96.9381 218.42 97.028C211.288 97.0646 204.455 99.9021 199.387 104.932C194.445 110.244 191.695 117.238 191.691 124.503C189.65 122.381 187.214 120.68 184.521 119.497L175.812 115.282H175.399C173.297 114.265 173.221 114.002 173.259 113.362C173.297 112.722 175.324 111.518 178.214 111.518C182.859 111.881 187.332 113.436 191.203 116.034L191.541 100.378C187.22 98.557 182.561 97.6843 177.876 97.8184C172.721 97.7402 167.627 98.9427 163.048 101.319C161.63 102.136 160.296 103.094 159.069 104.179L159.332 99.4367C153.084 98.2362 146.654 100.29 142.251 104.894C142.006 103.623 141.693 102.367 141.312 101.13L120.816 102.372C122.26 109.375 122.677 116.551 122.054 123.675L121.679 131.503V132.406C121.679 136.508 121.228 140.686 120.778 144.6C119.089 139.331 117.249 132.067 115.785 126.008L105.687 80.3551L76.7435 84.3822C77.1486 85.5272 77.4256 86.7137 77.5694 87.92C77.7599 92.6979 76.8746 97.4575 74.9791 101.845C70.3617 115.395 63.7171 135.379 57.2602 149.192C56.3968 151.149 54.8577 154.31 54.8577 154.31H77.3817C77.983 149.673 79.0521 145.108 80.5726 140.686L95.5886 140.31C96.4187 143.819 97.0331 147.376 97.4281 150.961L97.6909 154.31H143.189C142.411 146.808 142.298 139.251 142.852 131.729C142.659 126.971 144.192 122.304 147.169 118.594C148.771 116.893 150.992 115.916 153.325 115.884C153.062 124.39 158.656 128.341 163.611 130.938L172.471 135.492C175.662 137.148 175.624 138.014 175.586 138.616C175.586 140.31 172.846 140.95 170.519 140.912C165.901 140.912 159.519 137.6 152.312 130.148L151.936 150.359C157.725 153.382 164.18 154.897 170.706 154.762C181.03 154.762 192.029 150.246 194.995 140.648C199.757 148.495 207.881 153.682 216.986 154.692C226.092 155.701 235.15 152.418 241.507 145.805V145.616Z" fill="#AE9A64"/>
<path d="M188.163 102.711C184.897 101.682 181.486 101.199 178.064 101.281C173.515 101.218 169.019 102.264 164.963 104.329C160.598 106.549 157.586 110.763 156.892 115.62C156.479 122.169 160.083 125.293 165.188 127.89C168.679 129.621 172.02 131.315 174.085 132.444C176.938 133.874 179.341 135.68 179.078 138.992C178.815 142.304 175.774 144.6 170.594 144.6C165.011 144.2 159.723 141.934 155.578 138.164V148.364C160.389 150.435 165.584 151.461 170.819 151.375C180.392 151.375 192.179 146.971 192.405 135.793C192.402 130.004 188.74 124.852 183.282 122.959C179.791 121.341 176.187 119.61 174.498 118.744C172.809 117.878 169.618 116.749 169.918 113.136C170.218 109.523 174.123 108.055 178.365 108.055C181.742 108.079 185.064 108.918 188.05 110.502" fill="white"/>
<path d="M81.2109 129.207L91.1965 100.378L97.1279 128.68M103.022 84.3821L81.1733 87.5435C81.4288 92.8578 80.519 98.1637 78.508 103.087C73.9281 116.523 66.4952 138.164 60.6389 150.885H74.4161C75.2363 146.26 76.4932 141.723 78.1701 137.336L98.5919 136.809C99.7 141.451 100.552 146.15 101.145 150.885H119.352C116.486 143.039 114.165 135.003 112.407 126.836L103.022 84.3821Z" fill="white"/>
<path d="M155.578 102.824L155.127 112.497C151.171 112.013 147.216 113.404 144.428 116.26C140.861 120.591 138.993 126.078 139.173 131.691C138.742 138.094 138.742 144.52 139.173 150.923H123.669C124.588 144.599 125.164 138.229 125.395 131.842L125.771 123.976C126.237 117.912 126.036 111.816 125.17 105.797L138.797 104.932C139.52 107.807 139.786 110.78 139.586 113.739C145.554 104.743 151.373 102.711 155.728 102.937" fill="white"/>
<path d="M350.786 87.506L336.671 85.2478C337.936 90.8415 338.838 96.5113 339.374 102.222L342.677 132.82C343.427 138.787 343.803 144.796 343.804 150.81H359.045C357.775 144.874 356.86 138.866 356.304 132.82" fill="white"/>
<path d="M287.831 150.81C286.952 144.851 286.45 138.843 286.33 132.82L285.579 116.599C285.241 108.018 280.323 102.899 272.027 102.899C266.258 102.877 260.845 105.689 257.536 110.426C257.236 107.976 256.67 105.565 255.847 103.238L243.421 102.711C244.398 108.8 244.95 114.949 245.073 121.115V133.008C245.33 139.007 245.205 145.016 244.698 150.998H260.314C259.472 145.035 258.971 139.029 258.813 133.008L258.437 119.271C258.304 117.243 258.995 115.246 260.352 113.736C261.71 112.227 263.619 111.331 265.645 111.254C270 111.254 272.102 114.077 272.29 118.443L272.815 133.008C273.175 138.999 273.175 145.007 272.815 150.998" fill="white"/>
<path d="M313.546 144.6C311.37 144.843 309.196 144.122 307.594 142.624C305.992 141.127 305.122 139.003 305.213 136.809C305.025 131.728 308.516 127.212 318.915 125.518L319.515 133.874C319.741 136.734 319.816 138.766 320.191 141.401C318.506 143.319 316.095 144.439 313.546 144.487M336.07 150.848C334.133 145.348 333.032 139.588 332.804 133.761L332.016 123.9C331.115 112.383 326.31 104.48 307.24 104.48C303.198 104.531 299.173 104.997 295.227 105.872L295.903 114.717C299.668 112.132 304.104 110.706 308.666 110.614C311.336 110.309 314.002 111.225 315.924 113.108C317.845 114.991 318.82 117.641 318.577 120.325C313.509 120.747 308.547 122.019 303.899 124.088C298.08 126.723 292.111 131.39 292.637 139.406C293.275 148.251 299.957 152.09 308.328 152.09C313.298 152.037 318.036 149.974 321.467 146.369C321.87 147.923 322.449 149.426 323.194 150.848H336.07Z" fill="white"/>
<path d="M220.898 122.32L209.636 126.61C209.32 124.555 209.156 122.479 209.148 120.4C209.148 108.808 215.342 107.077 217.369 106.851C220.89 106.506 224.075 108.959 224.652 112.459C225.89 117.013 225.59 120.551 220.898 122.32ZM230.62 104.179C227.056 101.803 222.85 100.581 218.57 100.679C208.509 100.679 194.995 107.867 195.37 126.61C195.746 145.353 210.124 151.262 220.222 151.262C227.333 151.608 234.224 148.734 238.992 143.433L235.876 139.67C232.535 142.614 228.236 144.234 223.788 144.224C217.406 144.224 213.202 139.293 211.062 132.669L239.142 122.094C238.166 112.685 235.05 107.265 230.658 104.179H230.62Z" fill="white"/>
</svg>