<svg id="Layer_1" data-name="Layer 1" xmlns="http://www.w3.org/2000/svg" viewBox="0 0 212 103.85"><defs><style>.cls-1{fill:#ca1517;}.cls-2{fill:#fff;}.cls-3{fill:#050703;}.cls-4{fill:none;}</style></defs><path class="cls-1" d="M78.12,19.46h66.8a9.06,9.06,0,0,1,8.1,5.12l9.09,18.26a13.86,13.86,0,0,1,.82,2.39l44.55-13A49.69,49.69,0,0,0,164.74,7.79H56.6A49.65,49.65,0,0,0,17.31,87.86L44.05,80c7.79-15.86,28-57,28-57.1A7.05,7.05,0,0,1,78.12,19.46Z" transform="translate(-4.67 -5.56)"/><path class="cls-2" d="M56.6,107.17H164.74a49.65,49.65,0,0,0,42.74-75L17.31,87.86A49.62,49.62,0,0,0,56.6,107.17" transform="translate(-4.67 -5.56)"/><path class="cls-3" d="M6.9,57.49A49.76,49.76,0,0,1,56.6,7.79H164.74a49.69,49.69,0,1,1,0,99.38H56.6A49.75,49.75,0,0,1,6.9,57.49M56.6,5.56a51.93,51.93,0,1,0,0,103.85H164.74a51.93,51.93,0,1,0,0-103.85Z" transform="translate(-4.67 -5.56)"/><path class="cls-3" d="M130.29,48.26c-.15.32-4.64,9.55-7.5,15.44-2.26-4.77-5.94-12.53-7.75-16.33h14.79c.81,0,.61.57.46.89M83.6,66.3c.76-1.84,2.43-5.93,3.56-8.7l3.55,8.7Zm99.81,19.53-6.52-13.75a6.88,6.88,0,0,0-6.36-4.19H155.45a.57.57,0,0,1-.59-.85l2.1-4.47,5.29-11.17a9.19,9.19,0,0,0,1-4.05,10.77,10.77,0,0,0-1.1-4.53L153,24.58a9.06,9.06,0,0,0-8.1-5.12H78.12a7.05,7.05,0,0,0-6,3.47C72,23,41,86.18,41,86.18h0a6.33,6.33,0,0,0,0,6.36,6.53,6.53,0,0,0,5.54,3H64.21c4.79,0,6.59-3.34,7.54-5.11,2.4-4.21,2.7-4.77,3-5.16s.57-.38,1.3-.38H98.54c.73,0,1.11.08,1.3.38s.56,1,3,5.16c.94,1.77,2.75,5.11,7.54,5.11h67a6.58,6.58,0,0,0,5.55-3.13,7,7,0,0,0,.51-6.59" transform="translate(-4.67 -5.56)"/><path class="cls-2" d="M93.9,68.54a.25.25,0,0,1-.22.14h-13a.26.26,0,0,1-.22-.13.37.37,0,0,1,0-.34L86.9,51.67a.26.26,0,0,1,.51,0l6.53,16.54a.38.38,0,0,1,0,.33M89.49,50.85a2.5,2.5,0,0,0-4.67,0L78.3,67.39a2.61,2.61,0,0,0,.24,2.38,2.49,2.49,0,0,0,2.1,1.14h13a2.5,2.5,0,0,0,2.1-1.15A2.6,2.6,0,0,0,96,67.4Zm88.68,38.6a1,1,0,0,1-.89.51c-1,0-20.24,0-57.16,0v0A2.68,2.68,0,0,1,118,88.55a4.26,4.26,0,0,1-.38-4L124,71.5l0,0v0l10.53-21.73a5,5,0,0,0-.15-4.88,4.21,4.21,0,0,0-3.65-1.94H110.44L102,25.05h42.95A3.42,3.42,0,0,1,148,27c2.93,5.83,8.58,17.11,9,18a4.5,4.5,0,0,1,.18,4.08c-1,2.19-6.59,14-7.21,15.26-1.25,2.49-1.56,4.75-.43,6.57a5,5,0,0,0,4.16,2.5l16.86,0c.5,0,.87.07,1.32,1l6.48,13.66a1.5,1.5,0,0,1-.16,1.29M111.5,45.14h19.23a2,2,0,0,1,1.77.9,2.87,2.87,0,0,1,0,2.72l-9.74,20.1ZM113.8,90h-3.46c-1,0-1.46,0-2.68-2.27l-3.17-5.43a6.84,6.84,0,0,0-5.95-2.94H76a6.84,6.84,0,0,0-6,2.94l-3.16,5.43C65.66,90,65.24,90,64.21,90l-17.57,0a1,1,0,0,1-.79-.33.33.33,0,0,1-.05-.19A1.61,1.61,0,0,1,46,88.7c1-2.06,29.64-60.43,30.86-62.91a1.47,1.47,0,0,1,1.24-.74H99.49l22,46.39-5.91,12.18a6.52,6.52,0,0,0,.51,6.12c0,.08.12.15.18.23Zm66.56-2.74-6.5-13.72a3.48,3.48,0,0,0-3.33-2.26l-16.86,0a2.78,2.78,0,0,1-2.26-1.45c-.61-1.2-.36-2.61.53-4.39.63-1.25,6.28-13.15,7.26-15.35a6.8,6.8,0,0,0-.19-5.91c-.53-1.19-8.68-17.42-9-18.11a5.67,5.67,0,0,0-5.07-3.19H78.12a3.78,3.78,0,0,0-3.19,1.88c-.35.71-29.87,60.94-30.9,63a3,3,0,0,0-.09,3.09,3.22,3.22,0,0,0,2.69,1.39l17.58,0c2.38,0,3.36-1.07,4.64-3.45l3.1-5.3a4.66,4.66,0,0,1,4-1.9H98.54a4.64,4.64,0,0,1,4,1.9l3.1,5.3c1.29,2.38,2.26,3.45,4.65,3.45h3.46c41.06,0,62.43,0,63.52,0a3.28,3.28,0,0,0,2.74-1.56,3.66,3.66,0,0,0,.3-3.41" transform="translate(-4.67 -5.56)"/><path class="cls-4" d="M122.79,63.7c1.14-2.34,2.53-5.21,3.81-7.83L120,57.8C121,59.93,122,62,122.79,63.7Z" transform="translate(-4.67 -5.56)"/><path class="cls-1" d="M129.83,47.37H115c1.17,2.45,3.11,6.55,4.95,10.43l6.61-1.93,3.69-7.61C130.44,47.94,130.64,47.37,129.83,47.37Z" transform="translate(-4.67 -5.56)"/><path class="cls-1" d="M83.6,66.3h7.11l-3.55-8.7C86,60.37,84.36,64.46,83.6,66.3Z" transform="translate(-4.67 -5.56)"/></svg>