<svg width="392" height="502" viewBox="0 0 392 502" fill="none" xmlns="http://www.w3.org/2000/svg">
<path d="M196.317 501L337.351 417.542C337.351 417.542 391.635 330.779 391.635 208.41C391.635 133.043 372.173 52.0548 372.173 52.0548C372.173 52.0548 297.946 1 196.317 1C94.7017 1 20.4621 52.0548 20.4621 52.0548C20.4621 52.0548 1 133.043 1 208.41C1 330.779 55.2837 417.542 55.2837 417.542L196.317 501Z" fill="black" stroke="black" stroke-width="0.64"/>
<path d="M196.317 478.676L334.084 410.236C334.084 410.236 382.708 330.64 382.708 197.305C382.708 132.638 366.5 56.0941 366.5 56.0941C366.5 56.0941 286.208 9.16724 196.305 9.16724C106.414 9.16724 26.1095 56.0941 26.1095 56.0941C26.1095 56.0941 9.90161 132.638 9.90161 197.305C9.90161 330.64 58.5252 410.236 58.5252 410.236L196.317 478.676Z" fill="#95283F"/>
<path d="M49.8136 177.02L24.5901 182.629C24.6914 177.932 24.894 173.133 25.1979 168.27L50.3327 162.914C50.0795 167.637 49.9149 172.348 49.8136 177.02ZM49.7503 190.949L24.6027 196.317C24.704 201.028 24.894 205.688 25.1852 210.297L50.2188 204.738C49.9782 200.179 49.8262 195.583 49.7503 190.949ZM52.6246 133.081L28.0469 138.324C27.3885 143.655 26.7933 149.023 26.2868 154.38L51.2318 148.833C51.637 143.553 52.1055 138.286 52.6246 133.081ZM67.9461 36.3534C59.1584 39.8862 51.485 43.3177 45.2171 46.2807C44.66 48.5093 36.1509 82.5458 30.2122 122.445L54.41 117.064C59.7029 73.5555 67.6296 37.7589 67.9461 36.3534ZM51.1938 218.236L26.2615 223.554C26.692 227.872 27.1985 232.152 27.781 236.369L52.5866 231.05C52.0548 226.808 51.5863 222.541 51.1938 218.236ZM90.941 357.256C75.0751 324.587 61.7162 287.221 54.7899 246.068L30.1615 251.323C39.2911 301.339 58.5633 344.202 80.8491 379.58L90.941 357.256Z" fill="white"/>
<path d="M342.264 162.914L367.399 168.27C367.703 173.12 367.906 177.932 368.007 182.629L342.783 177.02C342.682 172.348 342.505 167.637 342.264 162.914ZM342.366 204.725L367.399 210.284C367.678 205.675 367.88 201.015 367.982 196.305L342.834 190.936C342.758 195.583 342.606 200.179 342.366 204.725ZM341.353 148.833L366.297 154.38C365.791 149.023 365.196 143.655 364.537 138.324L339.96 133.081C340.479 138.286 340.947 143.553 341.353 148.833ZM338.174 117.064L362.372 122.445C356.446 82.5458 347.937 48.5093 347.367 46.2807C341.087 43.305 333.426 39.8862 324.638 36.3534C324.955 37.7589 332.881 73.5555 338.174 117.064ZM339.998 231.05L364.803 236.369C365.386 232.139 365.892 227.872 366.323 223.554L341.391 218.236C340.998 222.541 340.542 226.808 339.998 231.05ZM311.735 379.58C334.034 344.202 353.293 301.339 362.423 251.323L337.794 246.068C330.868 287.221 317.509 324.587 301.643 357.256L311.735 379.58Z" fill="white"/>
<path d="M299.199 420.847L310.811 416.099L271.279 317.421C287.195 311.95 298.389 309.772 298.389 309.772V283.055H94.1953V309.772C94.1953 309.772 105.389 311.963 121.305 317.421L81.7734 416.099L93.3849 420.847L126.75 319.345C130.65 320.776 134.778 322.397 139.033 324.208L110.061 428.001L122.774 433.358L144.592 326.664C149.188 328.753 153.886 331.071 158.596 333.628L141.502 441.145L149.96 444.754L164.066 336.705C169.321 339.757 174.551 343.125 179.628 346.81L170.841 453.541L183.452 458.935L186.34 351.964C189.784 354.749 193.114 357.7 196.305 360.827C199.496 357.7 202.826 354.749 206.27 351.964L209.157 458.935L221.769 453.541L212.981 346.81C218.059 343.125 223.288 339.757 228.543 336.705L242.649 444.754L251.108 441.145L234.013 333.628C238.737 331.071 243.434 328.753 248.018 326.664L269.835 433.358L282.548 428.001L253.577 324.208C257.831 322.397 261.947 320.776 265.859 319.345L299.199 420.847Z" fill="white"/>
<path d="M292.412 304.492C292.412 304.492 233.051 317.104 196.292 351.888C159.533 317.104 100.172 304.492 100.172 304.492H292.412Z" fill="black"/>
<path d="M144.072 286.309V297.655H97.3481V286.309H144.072ZM147.175 297.655H154.291V286.309H147.175V297.655ZM157.406 286.309V297.655H194.735V286.309H157.406ZM248.524 286.309V297.655H295.249V286.309H248.524ZM245.41 286.309H238.293V297.655H245.41V286.309ZM197.85 286.309V297.655H235.178V286.309H197.85Z" fill="black"/>
<path d="M196.292 316.42C223.022 316.42 235.178 313.786 240.193 313.786V316.256C240.193 316.256 219.401 319.459 196.292 338.111C173.171 319.459 152.392 316.256 152.392 316.256V313.786C157.406 313.799 169.562 316.42 196.292 316.42Z" fill="white"/>
<path d="M97.3735 350.9L70.1367 411.148L67.1864 409.818L94.5751 349.241C95.4615 349.887 96.3985 350.431 97.3735 350.9ZM93.3849 420.847L96.3985 422.075L129.789 320.485C128.764 320.092 127.751 319.713 126.75 319.345L93.3849 420.847ZM144.579 326.664L122.762 433.358L125.813 434.636L147.605 328.057C146.592 327.588 145.579 327.12 144.579 326.664ZM164.066 336.693L149.96 444.741L153.063 446.058L167.105 338.478C166.08 337.883 165.067 337.288 164.066 336.693ZM186.34 351.951L183.453 458.923L186.656 460.29L189.518 354.597C188.454 353.698 187.403 352.812 186.34 351.951ZM295.211 350.9L322.448 411.148L325.398 409.818L298.009 349.241C297.136 349.887 296.186 350.431 295.211 350.9ZM265.834 319.345C264.834 319.713 263.821 320.092 262.795 320.485L296.186 422.075L299.199 420.847L265.834 319.345ZM244.979 328.07L266.771 434.649L269.823 433.37L248.005 326.677C247.005 327.12 245.992 327.589 244.979 328.07ZM225.492 338.491L239.547 446.071L242.649 444.754L228.543 336.705C227.518 337.288 226.505 337.883 225.492 338.491ZM203.079 354.597L205.928 460.29L209.132 458.923L206.245 351.951C205.181 352.812 204.13 353.698 203.079 354.597Z" fill="black"/>
<path d="M108.77 311.368C107.238 311.368 105.743 311.583 104.312 311.988C104.578 311.976 104.857 311.963 105.123 311.963C115.607 311.963 124.116 321.08 124.116 332.324C124.116 341.58 118.342 349.393 110.454 351.862C119.685 350.913 126.928 342.226 126.928 331.653C126.928 320.447 118.798 311.368 108.77 311.368Z" fill="black"/>
<path d="M105.123 352.685C115.613 352.685 124.116 343.569 124.116 332.324C124.116 321.079 115.613 311.963 105.123 311.963C94.633 311.963 86.1293 321.079 86.1293 332.324C86.1293 343.569 94.633 352.685 105.123 352.685Z" fill="white"/>
<path d="M90.9917 332.122C90.9917 340.491 97.2469 347.291 104.946 347.291C112.632 347.291 118.9 340.479 118.9 332.122C118.9 323.752 112.644 316.952 104.946 316.952C97.2469 316.952 90.9917 323.764 90.9917 332.122Z" fill="black"/>
<path d="M283.827 311.368C285.359 311.368 286.854 311.583 288.284 311.988C288.019 311.976 287.74 311.963 287.474 311.963C276.99 311.963 268.481 321.08 268.481 332.324C268.481 341.58 274.255 349.393 282.143 351.862C272.912 350.913 265.669 342.226 265.669 331.653C265.657 320.447 273.786 311.368 283.827 311.368Z" fill="black"/>
<path d="M287.461 352.685C297.951 352.685 306.455 343.569 306.455 332.324C306.455 321.079 297.951 311.963 287.461 311.963C276.971 311.963 268.468 321.079 268.468 332.324C268.468 343.569 276.971 352.685 287.461 352.685Z" fill="white"/>
<path d="M301.593 332.122C301.593 340.491 295.337 347.291 287.639 347.291C279.953 347.291 273.685 340.479 273.685 332.122C273.685 323.752 279.94 316.952 287.639 316.952C295.337 316.952 301.593 323.764 301.593 332.122Z" fill="black"/>
<path d="M292.805 259.895C292.805 252.728 289.817 246.271 285.03 241.662C299.858 222.681 308.684 198.787 308.684 172.841C308.684 122.559 275.533 80.0134 229.885 65.8821C234.469 59.3357 237.141 51.409 237.141 42.8746C237.141 20.3482 218.515 2.08899 195.532 2.08899C172.55 2.08899 153.924 20.3482 153.924 42.8746C153.924 51.6876 156.785 59.8422 161.635 66.5153C117 81.2416 84.7871 123.281 84.7871 172.841C84.7871 198.799 93.6255 222.681 108.44 241.662C103.654 246.271 100.666 252.728 100.666 259.895C100.666 262.251 100.995 264.53 101.603 266.708L94.1826 283.055H115.759H136.171H176.995H216.451H257.274H277.686H298.364H299.263L291.843 266.708C292.476 264.53 292.805 262.251 292.805 259.895Z" fill="black"/>
<path d="M196.748 65.8821C137.678 65.8821 89.8014 113.771 89.8014 172.829C89.8014 231.899 137.691 279.775 196.748 279.775C255.818 279.775 303.695 231.886 303.695 172.829C303.695 113.759 255.805 65.8821 196.748 65.8821ZM195.558 260.237C147.998 260.237 109.441 221.541 109.441 173.791C109.441 126.054 147.998 87.3449 195.558 87.3449C243.118 87.3449 281.675 126.041 281.675 173.791C281.675 221.541 243.118 260.237 195.558 260.237Z" fill="white"/>
<path d="M196.748 203.649C230.215 203.649 256.704 206.017 269.152 207.384C273.9 197.065 276.546 185.58 276.546 173.487C276.546 128.612 240.18 92.2325 195.317 92.2325C150.454 92.2325 114.088 128.612 114.088 173.487C114.088 185.706 116.785 197.292 121.622 207.688C132.588 206.409 160.597 203.649 196.748 203.649Z" fill="white"/>
<path d="M196.748 207.296C159.875 207.296 133.651 211.208 124.256 212.855C138.121 237.825 164.737 254.729 195.317 254.729C226.074 254.729 252.83 237.622 266.619 212.411C255.514 210.601 230.62 207.296 196.748 207.296Z" fill="#95283F"/>
<path d="M169.182 262.782L165.75 261.478C165.814 260.87 165.725 260.377 165.485 259.984C165.244 259.591 164.864 259.288 164.32 259.085C163.484 258.768 162.699 258.844 161.939 259.313C161.192 259.781 160.597 260.566 160.179 261.681C159.761 262.782 159.685 263.757 159.951 264.618C160.217 265.48 160.774 266.075 161.622 266.404C162.205 266.632 162.762 266.644 163.269 266.454C163.788 266.265 164.18 265.897 164.471 265.353L167.89 266.657C167.156 267.873 166.118 268.658 164.801 269.025C163.484 269.392 162.066 269.278 160.534 268.708C159.66 268.379 158.913 267.936 158.292 267.404C157.672 266.872 157.178 266.239 156.798 265.492C156.406 264.72 156.203 263.922 156.178 263.086C156.165 262.251 156.342 261.352 156.709 260.389C157.419 258.54 158.545 257.287 160.09 256.641C161.635 255.995 163.383 256.046 165.333 256.793C166.776 257.338 167.827 258.148 168.498 259.199C169.182 260.212 169.41 261.415 169.182 262.782Z" fill="black"/>
<path d="M182.401 261.731L185.858 262.124L184.769 271.709L190.366 272.342L190.088 274.812L181.034 273.773L182.401 261.731Z" fill="black"/>
<path d="M202.623 262.77L205.991 262.339L206.916 269.531C207.03 270.43 207.321 271.076 207.79 271.481C208.258 271.887 208.879 272.039 209.676 271.937C210.461 271.836 211.031 271.532 211.373 271.026C211.715 270.519 211.829 269.81 211.715 268.911L210.791 261.719L214.159 261.288L215.096 268.518C215.21 269.392 215.235 270.076 215.184 270.595C215.134 271.114 214.982 271.583 214.741 272.001C214.361 272.646 213.779 273.166 212.994 273.571C212.196 273.976 211.208 274.255 210.005 274.406C208.803 274.558 207.777 274.546 206.903 274.356C206.029 274.166 205.333 273.811 204.801 273.28C204.472 272.938 204.206 272.52 204.016 272.026C203.826 271.532 203.687 270.861 203.573 270L202.623 262.77Z" fill="black"/>
<path d="M230.708 256.135L233.937 254.843L236.875 262.213C237.458 263.681 237.521 264.884 237.078 265.859C236.634 266.822 235.647 267.619 234.102 268.227C232.671 268.797 231.468 268.924 230.493 268.594C229.518 268.278 228.771 267.505 228.252 266.277L231.456 264.998C231.646 265.441 231.886 265.745 232.177 265.897C232.469 266.049 232.81 266.049 233.19 265.897C233.659 265.707 233.925 265.467 234.001 265.15C234.077 264.834 233.95 264.277 233.646 263.479L230.708 256.135Z" fill="black"/>
<path d="M129.295 96.4998L135.918 91.0803L137.412 92.9037L133.259 96.2972L134.538 97.8674L138.108 94.9424L139.603 96.7784L136.019 99.7034L139.058 103.414L136.589 105.427L129.295 96.4998Z" fill="black"/>
<path d="M144.212 85.243C145.908 84.2173 147.529 83.8881 149.099 84.2299C150.657 84.5718 151.923 85.5468 152.898 87.1676C153.86 88.7757 154.139 90.3459 153.708 91.8907C153.278 93.4229 152.214 94.7018 150.518 95.7274C148.821 96.7531 147.187 97.0949 145.63 96.7531C144.072 96.4112 142.806 95.4362 141.844 93.8154C140.881 92.2073 140.603 90.6244 141.033 89.0923C141.451 87.5348 142.515 86.2559 144.212 85.243ZM145.402 87.2436C144.63 87.7121 144.199 88.3579 144.085 89.2063C143.984 90.0547 144.224 90.979 144.819 91.9667C145.415 92.9543 146.111 93.6001 146.909 93.904C147.707 94.2079 148.492 94.1319 149.251 93.6634C150.024 93.2076 150.454 92.5492 150.568 91.7008C150.682 90.8524 150.429 89.928 149.834 88.9404C149.239 87.94 148.53 87.2943 147.732 86.9904C146.959 86.6991 146.174 86.7877 145.402 87.2436Z" fill="black"/>
<path d="M153.088 80.7098L162.458 76.8224L163.383 79.0384L160.192 80.3679L163.699 88.8264L160.698 90.0673L157.191 81.6088L154.012 82.9257L153.088 80.7098Z" fill="black"/>
<path d="M166.194 75.5816L171.081 74.3153C171.765 74.138 172.36 74.0114 172.867 73.9354C173.373 73.8595 173.778 73.8341 174.108 73.8721C174.677 73.9354 175.171 74.138 175.589 74.5053C176.007 74.8725 176.286 75.3283 176.437 75.8981C176.589 76.5059 176.551 77.063 176.324 77.5822C176.096 78.1014 175.69 78.4939 175.133 78.7851L175.121 78.8358C175.944 78.6712 176.665 78.7725 177.273 79.127C177.881 79.4816 178.286 80.0261 178.476 80.7732C178.755 81.8368 178.565 82.7612 177.906 83.5462C177.248 84.3313 176.184 84.9264 174.703 85.3063L169.093 86.7624L166.194 75.5816ZM169.828 77.0377L170.372 79.1144L172.259 78.6205C172.791 78.4812 173.158 78.2913 173.386 78.0507C173.601 77.8101 173.664 77.5189 173.576 77.1644C173.487 76.8098 173.285 76.5819 172.993 76.4806C172.689 76.3793 172.272 76.4046 171.727 76.5439L169.828 77.0377ZM170.917 81.2543L171.55 83.6728L174.082 83.0144C174.576 82.8878 174.918 82.6852 175.121 82.4192C175.323 82.1533 175.374 81.8241 175.26 81.4189C175.159 81.039 174.956 80.7732 174.639 80.6212C174.323 80.4819 173.93 80.4692 173.449 80.5959L170.917 81.2543Z" fill="black"/>
<path d="M184.098 71.7955L188.112 71.3776L193.709 82.4192L190.227 82.7865L189.302 80.6718L184.82 81.1403L184.339 83.4069L180.882 83.7614L184.098 71.7955ZM186.327 74.3533L185.377 78.7345L188.277 78.4306L186.453 74.3406L186.327 74.3533Z" fill="black"/>
<path d="M196.241 70.9724L199.546 71.0864L199.242 80.2666L204.611 80.4439L204.535 82.8118L195.862 82.5332L196.241 70.9724Z" fill="black"/>
<path d="M226.302 79.1016L222.909 78.2533C222.896 77.6708 222.757 77.2023 222.491 76.8604C222.225 76.5185 221.82 76.2779 221.288 76.1387C220.465 75.9361 219.73 76.1006 219.072 76.6325C218.413 77.1643 217.958 77.9747 217.679 79.0763C217.413 80.1653 217.451 81.1023 217.806 81.8874C218.16 82.6725 218.755 83.1663 219.591 83.3815C220.173 83.5208 220.693 83.4828 221.148 83.2422C221.617 83.0017 221.946 82.6091 222.149 82.0646L225.53 82.913C224.972 84.1413 224.086 85.015 222.883 85.5088C221.68 86.0027 220.325 86.066 218.819 85.6987C217.958 85.4835 217.198 85.1543 216.552 84.7238C215.906 84.2932 215.362 83.7487 214.919 83.0903C214.463 82.4065 214.171 81.6721 214.058 80.8871C213.944 80.0893 214.007 79.2283 214.247 78.2659C214.703 76.4299 215.628 75.1256 217.021 74.3406C218.413 73.5555 220.059 73.4036 221.984 73.8847C223.402 74.2393 224.491 74.8724 225.251 75.7967C226.011 76.6704 226.365 77.7848 226.302 79.1016Z" fill="black"/>
<path d="M231.38 77.0124L234.444 78.2533L230.987 86.7751L235.963 88.7884L235.077 90.979L227.036 87.7248L231.38 77.0124Z" fill="black"/>
<path d="M242.523 81.7355L245.334 83.3436L241.902 89.3329C241.472 90.08 241.32 90.7384 241.434 91.3082C241.548 91.878 241.94 92.3592 242.599 92.7391C243.257 93.119 243.852 93.2076 244.409 93.0177C244.966 92.8277 245.448 92.3592 245.878 91.6122L249.31 85.6228L252.121 87.2309L248.664 93.2456C248.246 93.9673 247.866 94.5119 247.524 94.8664C247.182 95.221 246.802 95.4995 246.385 95.6768C245.726 95.9554 244.979 96.0187 244.156 95.8667C243.32 95.7148 242.409 95.3602 241.408 94.7778C240.408 94.208 239.636 93.6002 239.078 92.9544C238.521 92.3086 238.205 91.6375 238.103 90.9284C238.053 90.4725 238.091 90.0167 238.23 89.5355C238.369 89.0543 238.648 88.4592 239.066 87.7375L242.523 81.7355Z" fill="black"/>
<path d="M256.223 90.0673L260.174 93.2202C260.731 93.6634 261.187 94.056 261.542 94.4232C261.909 94.7777 262.175 95.0943 262.339 95.3729C262.63 95.8667 262.757 96.3858 262.719 96.943C262.681 97.5001 262.479 97.994 262.111 98.4498C261.719 98.9437 261.25 99.2476 260.693 99.3615C260.136 99.4881 259.579 99.3995 259.009 99.1336L258.958 99.1462C259.579 99.716 259.933 100.349 260.022 101.046C260.098 101.742 259.908 102.4 259.427 102.996C258.743 103.857 257.895 104.262 256.869 104.211C255.843 104.161 254.742 103.667 253.539 102.704L249.006 99.0829L256.223 90.0673ZM254.527 97.2596L252.969 99.2096L255.008 100.843C255.4 101.16 255.767 101.324 256.097 101.312C256.426 101.312 256.73 101.147 256.983 100.818C257.236 100.501 257.325 100.185 257.249 99.8427C257.173 99.5008 256.945 99.1842 256.565 98.8803L254.527 97.2596ZM257.236 93.866L255.907 95.5375L257.426 96.7531C257.857 97.0949 258.224 97.2849 258.553 97.3102C258.87 97.3355 259.148 97.2216 259.376 96.9303C259.604 96.6391 259.667 96.3479 259.579 96.044C259.478 95.7401 259.212 95.4235 258.768 95.0689L257.236 93.866Z" fill="black"/>
<path d="M300.807 178.742C300.807 178.742 296.388 178.008 294.413 177.83L294.957 177.856C294.957 177.856 290.513 177.476 288.538 177.311C288.297 171.018 287.221 166.928 284.663 163.8C285.79 163.218 286.866 162.458 287.841 161.509C290.627 158.786 292.032 154.975 292.032 150.163C292.032 143.604 289.386 134.474 276.749 128.219C268.569 124.167 252.285 120.66 228.379 117.798L224.757 117.583L221.174 117.367L218.337 117.165C217.628 117.114 200.787 115.937 191.949 115.937C183.085 115.937 165.067 117.317 164.307 117.367L161.205 117.608V117.38L145.579 118.304C145.579 118.304 144.212 121.875 144.136 122.103C142.148 121.381 139.83 120.875 137.095 120.875C105.883 120.875 92.929 150.606 92.929 166.523C92.929 188.479 103.439 198.977 121.749 198.977C135.107 198.977 145.427 195.241 152.404 187.872C155.101 185.035 156.963 181.958 158.267 179.008V192.62L165.041 192.316C165.231 192.304 184.643 191.43 196.254 191.43H202.737V173.5C202.737 173.5 194.557 173.626 193.164 173.652C193.164 173.525 193.164 172.677 193.164 172.424C194.583 172.436 199.04 172.474 199.04 172.474H209.17C209.17 172.474 209.17 159.293 209.17 152.594C210.98 152.683 224.365 153.354 224.365 153.354V135.956C226.188 135.766 228.125 135.576 228.227 135.563C228.872 135.513 229.809 135.665 230.164 135.855C230.189 135.943 230.24 136.146 230.24 136.602V175.095C230.24 175.171 230.24 175.222 230.227 175.298C228.91 175.298 220.92 175.298 220.92 175.298V192.088L264.682 198.128C264.682 198.128 264.682 190.113 264.682 189.872C266.581 195.051 271.849 203.649 285.954 203.649C292.058 203.649 296.907 200.129 299.263 193.975C300.732 190.138 300.896 186.175 300.896 184.643C300.896 182.769 300.807 178.742 300.807 178.742ZM167.232 173.664C167.232 173.943 167.219 174.171 167.207 174.361C166.713 174.424 165.94 174.475 164.737 174.475H159.875C161.382 169.131 161.192 164.965 161.179 164.661L160.825 158.052L143.287 159.381L142.857 164.965C142.743 166.46 141.388 179.527 129.409 179.527C123.471 179.527 121.356 170.714 121.356 162.458C121.356 151.163 125.053 137.982 135.462 137.982C142.654 137.982 143.553 146.124 143.654 147.757L144.098 154.57L150.885 153.822L161.192 152.607V134.55C163.534 134.55 166.548 134.55 167.232 134.55C167.232 135.741 167.232 173.664 167.232 173.664ZM258.009 179.54C257.224 179.552 256.109 179.274 255.831 179.008C255.831 178.983 255.767 178.755 255.767 178.324C255.767 178.324 255.767 172.259 255.767 166.7C258.743 167.207 261.313 167.738 262.01 168.346C262.048 168.372 262.858 169.144 262.858 175.488C262.858 176.893 262.896 178.147 262.947 179.375C261.073 179.439 258.148 179.54 258.009 179.54ZM265.087 150.277C264.859 150.315 264.479 150.366 263.871 150.366C262.187 150.366 258.908 149.884 255.767 149.34C255.767 145.858 255.767 144.047 255.767 139.793C264.808 141.489 265.353 143.946 265.353 147.669C265.365 149.163 265.201 149.922 265.087 150.277Z" fill="black"/>
<path d="M147.289 120.622C147.289 120.622 145.858 124.37 145.491 125.345C143.275 124.18 140.464 123.293 137.095 123.293C107.605 123.293 95.3601 151.442 95.3601 166.51C95.3601 185.871 104.73 196.533 121.749 196.533C134.411 196.533 144.136 193.051 150.644 186.188C159.318 177.033 158.786 165.295 158.761 164.801L158.533 160.673L145.541 161.661L145.288 165.155C145.161 166.877 143.654 181.971 129.409 181.971C122.85 181.971 118.925 174.677 118.925 162.471C118.925 146.124 125.421 135.563 135.462 135.563C145.085 135.563 146.01 146.377 146.086 147.618L146.339 151.898L150.606 151.417L158.761 150.454V119.938L147.289 120.622Z" fill="white"/>
<path d="M164.497 119.786L160.761 120.077V132.132H168.663C169.068 132.132 169.346 132.157 169.524 132.182C169.587 132.448 169.688 132.968 169.688 133.955V173.664C169.688 176.665 169.688 176.906 164.775 176.906H160.723V190.062L164.965 189.872C165.155 189.86 184.617 188.986 196.292 188.986H200.344V175.956C200.344 175.956 191.734 176.096 191.493 176.096C191.252 175.969 190.759 175.387 190.759 174.677C190.759 174.677 190.759 162.636 190.759 158.292C190.822 158.292 190.898 158.267 190.961 158.267C192.354 158.267 192.962 158.735 193.354 159.141C194.937 160.825 195.102 164.535 195.026 165.7L194.773 169.992L199.078 170.005H206.777V135.563H195.001L195.026 139.691C195.026 140.628 194.709 143.515 193.291 144.933C192.899 145.326 192.202 145.82 190.771 145.871C190.771 141.502 190.771 135.069 190.771 130.701C206.561 130.79 209.815 133.537 209.815 146.288V150.138L221.971 150.746V119.811L218.198 119.545C217.489 119.495 200.737 118.317 191.987 118.317C183.186 118.355 165.257 119.723 164.497 119.786Z" fill="white"/>
<path d="M223.554 133.537L228.024 133.119C228.86 133.044 230.898 133.17 231.873 134.056C232.076 134.234 232.671 134.791 232.671 136.576V175.07C232.671 176.982 232.291 177.602 232.203 177.729C232.076 177.716 231.861 177.704 231.861 177.704H223.352V189.948L262.25 195.317V181.844L258.047 181.958C257.375 181.971 255.21 181.794 254.134 180.743C253.792 180.414 253.336 179.793 253.336 178.312C253.336 178.312 253.336 169.22 253.336 163.826C258.464 164.636 262.174 165.257 263.605 166.498C264.783 167.523 265.289 170.208 265.289 175.475C265.289 181.642 265.796 185.808 266.936 188.961C268.962 194.545 273.9 201.205 285.954 201.205C291.07 201.205 294.983 198.318 296.983 193.089C298.313 189.632 298.452 186.023 298.452 184.63C298.452 183.187 298.49 181.021 298.49 181.021C298.49 181.021 295.071 180.249 294.388 180.249L294.729 180.262L288.006 179.071L287.892 184.491C287.917 184.782 287.93 185.099 287.93 185.415C287.93 186.757 287.689 188.15 287.36 188.669C287.259 188.669 287.157 188.669 287.031 188.657C286.74 187.986 286.132 185.947 286.132 180.338C286.132 170.714 284.84 166.27 280.13 162.825C282.371 162.319 284.422 161.407 286.119 159.748C288.424 157.495 289.589 154.266 289.589 150.138C289.589 144.262 287.17 136.07 275.66 130.372C267.733 126.434 251.715 123.015 228.075 120.191L223.542 119.647V133.537H223.554ZM253.336 136.918C264.542 138.539 267.784 141.173 267.784 147.656C267.784 152.784 266.391 152.784 263.871 152.784C261.516 152.784 256.806 151.999 253.336 151.341C253.336 147.694 253.336 141.629 253.336 136.918ZM232.266 177.742L232.532 177.767L232.317 177.742H232.266C232.253 177.742 232.253 177.742 232.266 177.742Z" fill="white"/>
<path d="M154.721 124.243V146.858L150.15 147.403C150.15 147.403 149.34 131.524 135.475 131.524C123.091 131.524 114.886 143.503 114.886 162.484C114.886 179.033 121.609 186.036 129.422 186.036C147.998 186.036 149.34 165.447 149.34 165.447L154.721 165.041C154.721 165.041 156.203 192.506 121.749 192.506C104.654 192.506 99.4121 180.667 99.4121 166.535C99.4121 154.962 108.972 127.371 137.095 127.371C144.098 127.371 147.327 131.942 147.327 131.942L150.15 124.534L154.721 124.243Z" fill="#95283F"/>
<path d="M164.801 123.825C164.801 123.825 183.237 122.407 191.949 122.407C200.661 122.407 217.882 123.623 217.882 123.623V146.516L213.83 146.314C213.83 130.106 207.549 126.662 189.923 126.662H186.681V149.96H190.531C199.242 149.96 199.04 139.628 199.04 139.628H202.687V165.966H199.04C199.04 165.966 199.85 154.215 190.936 154.215C188.91 154.215 186.681 155.228 186.681 155.228V174.677C186.681 177.514 188.91 180.148 191.341 180.148C192.759 180.148 196.254 180.072 196.254 180.072V184.934C184.351 184.934 164.737 185.82 164.737 185.82V180.958C171.018 180.958 173.702 179.742 173.702 173.664V133.955C173.702 129.295 172.082 128.08 168.637 128.08H164.788V123.825H164.801Z" fill="#95283F"/>
<path d="M285.549 150.163C285.549 160.901 276.23 159.293 267.721 159.293V161.306C280.548 166.308 282.105 167.802 282.105 180.363C282.105 192.721 284.853 192.747 287.487 192.747C292.83 192.747 291.931 184.111 291.931 184.111L294.4 184.326C294.4 184.326 294.869 197.179 285.954 197.179C283.118 197.179 274.166 197.027 270.747 187.606C269.671 184.643 269.341 180.489 269.341 175.5C269.341 160.913 265.695 161.863 249.284 159.09V178.337C249.284 186.441 258.199 186.036 258.199 186.036V190.695L227.404 186.441V181.781H231.861C231.861 181.781 236.723 182.591 236.723 175.095V136.602C236.723 128.092 227.606 129.105 227.606 129.105V124.243C244.561 126.269 264.72 129.498 273.875 134.031C281.991 138.045 285.549 143.591 285.549 150.163ZM249.284 154.684C249.284 154.684 259.477 156.849 263.871 156.849C269.202 156.849 271.836 154.481 271.836 147.669C271.836 136.323 263.187 133.829 249.284 132.334V154.684Z" fill="#95283F"/>
<path d="M159.926 241.839V239.939L161.281 239.775C162.42 239.61 162.724 238.648 162.724 237.116V225.454H158.596V223.225H159.559C161.8 223.225 163.332 222.655 164.383 220.895H167.65V237.116C167.65 238.648 168.004 239.61 169.144 239.775L170.549 239.939V241.839H159.926Z" fill="white"/>
<path d="M177.197 237.318C177.197 235.761 177.982 234.267 179.78 234.267C181.629 234.267 182.541 235.166 182.541 235.9C182.541 236.635 182.186 237.23 181.616 237.597C181.135 237.901 181.009 238.255 181.009 238.661C181.009 239.091 182.237 239.952 184.478 239.952C188.252 239.952 188.948 235.571 188.555 231.873C187.454 232.975 185.795 233.532 183.858 233.532C180.616 233.532 176.665 231.633 176.665 227.48C176.665 222.225 180.654 220.667 184.871 220.667C190.961 220.667 194.785 224.783 194.785 231.468C194.785 238.61 190.619 242.029 184.655 242.029C180.958 242.041 177.197 240.243 177.197 237.318ZM181.882 227.024C181.882 229.62 183.073 230.873 185.035 230.873C186.96 230.873 188.15 229.607 188.15 227.024C188.15 224.441 186.973 222.807 185.035 222.807C182.984 222.795 181.882 224.428 181.882 227.024Z" fill="white"/>
<path d="M196.723 231.266C196.723 224.783 200.585 220.667 206.068 220.667C211.55 220.667 215.412 224.719 215.412 231.266C215.412 237.774 212.475 242.029 206.068 242.029C199.61 242.041 196.723 237.787 196.723 231.266ZM206.055 239.914C208.689 239.914 209.208 237.217 209.208 231.278C209.208 224.669 208.676 222.807 206.055 222.807C203.421 222.807 202.902 224.669 202.902 231.278C202.902 237.217 203.434 239.914 206.055 239.914Z" fill="white"/>
<path d="M228.48 241.839H222.465V240.978C222.465 234.76 227.074 228.417 229.784 225.2L229.569 225.099C228.784 225.162 227.505 224.795 226.581 224.529C225.656 224.301 224.782 224.2 223.947 224.2C222.149 224.2 220.566 225.834 220.566 229.316H216.704V220.845H219.338C219.426 221.503 219.781 221.87 220.085 221.87C220.528 221.87 221.528 221.541 222.187 221.3C223.288 220.908 224.732 220.667 226.441 220.667C227.847 220.667 228.898 221.034 229.683 221.326C230.468 221.655 231.126 221.984 231.785 221.984C232.317 221.984 232.658 221.883 232.975 221.68C233.241 221.516 233.418 221.25 233.418 220.883H236.229V221.478C236.229 224.365 234.254 226.695 232.329 229.455C230.443 232.241 228.467 235.508 228.467 240.319V241.839H228.48Z" fill="white"/>
<path d="M139.679 269.152C136.703 273.533 131.676 276.42 125.978 276.42C116.848 276.42 109.441 269.012 109.441 259.883C109.441 255.4 111.226 251.348 114.126 248.36C113.29 247.448 112.467 246.524 111.669 245.587C108.01 249.246 105.756 254.299 105.756 259.883C105.756 271.051 114.81 280.105 125.978 280.105C133.043 280.105 139.273 276.47 142.882 270.975C141.806 270.392 140.742 269.785 139.679 269.152Z" fill="white"/>
<path d="M253.805 269.152C256.78 273.533 261.807 276.42 267.505 276.42C276.635 276.42 284.043 269.012 284.043 259.883C284.043 255.4 282.257 251.348 279.357 248.36C280.193 247.448 281.016 246.524 281.814 245.587C285.473 249.246 287.727 254.299 287.727 259.883C287.727 271.051 278.674 280.105 267.505 280.105C260.427 280.105 254.21 276.47 250.601 270.975C251.677 270.392 252.741 269.785 253.805 269.152Z" fill="white"/>
<path d="M196.748 60.8805C205.472 60.8805 213.969 61.8808 222.123 63.7675C227.277 57.7402 230.392 49.9275 230.392 41.3677C230.392 22.3235 214.956 6.87537 195.9 6.87537C176.843 6.87537 161.407 22.3108 161.407 41.3677C161.407 50.0795 164.649 58.0315 169.98 64.1094C178.552 62.0075 187.517 60.8805 196.748 60.8805Z" fill="white"/>
<path d="M178.881 62.3114C184.706 61.3743 190.67 60.8805 196.748 60.8805C202.826 60.8805 208.777 61.3744 214.589 62.2987C220.845 57.2084 224.833 49.497 224.833 40.8866C224.833 25.5904 212.234 13.1306 196.735 13.1306C181.237 13.1306 168.637 25.5777 168.637 40.8866C168.625 49.5097 172.626 57.2211 178.881 62.3114Z" fill="white"/>
<path d="M174.601 59.2724C174.614 59.285 174.627 59.2977 174.639 59.3104C175.614 60.45 176.678 61.501 177.818 62.476C178.172 62.4126 178.539 62.3494 178.894 62.2987C177.919 61.501 176.995 60.6526 176.146 59.7409C176.121 58.4746 176.146 57.0945 176.298 55.7269L176.577 55.537L179.388 53.9288L179.73 53.7516L189.809 56.9298L189.961 57.2591C190.594 58.5253 191.417 59.8042 192.24 60.9691C192.569 60.9565 192.886 60.9438 193.215 60.9311C192.316 59.6902 191.379 58.2847 190.695 56.9045C190.695 56.9045 190.657 56.8159 190.594 56.6766L196.09 47.9015C196.254 47.9015 196.343 47.9015 196.343 47.9015L207.511 47.0912L207.866 47.0785C208.676 47.9522 210.664 50.2947 212.639 54.0935C212.589 54.2074 212.551 54.334 212.513 54.4353C211.525 56.7652 209.866 59.4623 208.524 61.463C208.828 61.4883 209.132 61.5389 209.423 61.5643C210.74 59.5636 212.297 56.9931 213.26 54.7266C213.285 54.6633 213.31 54.5873 213.336 54.524C214.919 54.2327 217.806 52.46 221.25 48.8006L221.326 48.8512L223.25 50.0035C221.541 54.8532 218.489 59.0824 214.564 62.286C214.931 62.3493 215.286 62.4 215.64 62.4633C221.756 57.2211 225.631 49.497 225.631 40.8739C225.631 25.0966 212.69 12.3076 196.723 12.3076C195.95 12.3076 195.203 12.3455 194.443 12.4089C184.491 13.1813 175.944 18.9173 171.373 27.1226C171.36 27.1352 171.36 27.1479 171.347 27.1605L171.335 27.1732C171.119 27.5657 170.904 27.9709 170.714 28.3635C170.701 28.3888 170.689 28.4015 170.689 28.4141C170.512 28.7687 170.347 29.1359 170.182 29.5031C170.17 29.5284 170.157 29.5411 170.157 29.5664C170.144 29.5791 170.144 29.6044 170.132 29.617C169.967 29.9969 169.815 30.3768 169.676 30.7567C169.663 30.782 169.65 30.8073 169.65 30.82C169.638 30.858 169.612 30.9086 169.6 30.9466C169.131 32.1875 168.764 33.4664 168.473 34.7833C168.473 34.796 168.473 34.8086 168.46 34.8213C168.46 34.834 168.46 34.8466 168.448 34.8593C168.232 35.8596 168.068 36.8853 167.954 37.9362C167.852 38.8986 167.802 39.8736 167.802 40.8613C167.814 47.8889 170.372 54.3087 174.601 59.2724ZM207.752 46.2934C207.587 46.2934 207.486 46.3061 207.486 46.3061L196.317 47.1165H195.912C194.456 45.7743 189.758 41.2285 188.809 37.7716L189.037 37.1258L193.013 28.1735L193.089 27.9963C194.697 27.9456 200.395 27.743 205.156 27.3125C205.232 27.3885 205.308 27.4771 205.384 27.5531C209.031 31.0479 212.031 36.4547 212.069 36.5054C212.069 36.5054 212.145 36.594 212.259 36.746C210.335 41.8869 208.423 45.1918 207.752 46.2934ZM224.821 40.8866C224.821 43.7989 224.365 46.5973 223.516 49.2311L221.731 48.1675L221.516 48.0408C221.478 42.2668 220.958 38.7466 220.705 37.3664L220.933 36.8599C220.996 36.7333 222.098 34.4541 222.896 30.8453C224.149 33.9729 224.821 37.3538 224.821 40.8866ZM222.351 29.5284C221.554 33.7576 220.237 36.4927 220.224 36.5307L220.148 36.6953C219.262 36.6573 216.995 36.5687 212.956 36.3408L212.741 36.0622C212.652 35.8849 209.689 30.5541 205.954 26.9706C205.903 26.92 205.852 26.8693 205.802 26.8187C206.561 24.1216 207.524 20.5888 207.853 19.3858C207.916 19.3732 207.98 19.3732 208.03 19.3605C210.499 19.3858 213.057 19.6138 214.982 19.829C218.097 22.4628 220.642 25.7677 222.351 29.5284ZM196.723 13.1433C203.142 13.1433 209.069 15.2832 213.804 18.8793C212.057 18.7147 209.98 18.5628 207.954 18.5375C207.802 18.5628 207.625 18.5754 207.448 18.6008C202.636 15.2832 197.875 14.5488 196.406 14.3968L196.292 14.1816L195.76 13.1686C196.077 13.1559 196.406 13.1433 196.723 13.1433ZM194.861 13.2066L195.57 14.5235C194.253 15.1566 189.632 17.5371 188.011 20.3102L187.669 20.3735C183.528 21.1966 179.451 22.4375 179.337 22.4755C179.046 21.4625 178.818 20.5254 178.628 19.6771C183.085 15.9796 188.707 13.6118 194.861 13.2066ZM179.033 23.4505L179.59 23.2479C179.616 23.2479 183.706 22.007 187.834 21.1712C187.834 21.1712 187.96 21.1459 188.163 21.1079C190.176 22.8427 191.822 26.2235 192.392 27.5024L192.24 27.8316L188.252 36.822C188.252 36.822 188.201 36.9739 188.112 37.2145C183.668 39.2405 180.059 40.4181 178.894 40.7726C178.856 40.722 178.843 40.684 178.843 40.684L174.791 33.669L174.576 33.2385C174.969 31.681 176.159 27.5024 179.033 23.4505ZM168.625 40.8866C168.625 39.8229 168.688 38.7846 168.815 37.759C171.195 35.3278 173.259 34.3275 174.082 34.0109L174.108 34.0489L178.172 41.0892L178.464 41.5704C178.084 46.3694 178.881 51.675 179.122 53.1565L179.008 53.2198L176.159 54.8405L175.766 55.1191C174.538 54.9292 173.221 54.5113 172.006 54.0428C169.853 50.1301 168.625 45.6476 168.625 40.8866Z" fill="black"/>
</svg>