<svg width="450" height="500" viewBox="0 0 450 500" fill="none" xmlns="http://www.w3.org/2000/svg">
<g clip-path="url(#clip0_625_655)">
<path d="M449.536 16.1833C381.253 5.79856 305.066 0 224.756 0C144.446 0 68.2826 5.79856 0 16.1833V203.739C0.047856 362.262 91.9714 451.418 221.095 498.82L224.764 500H224.78L228.441 498.82C357.572 451.418 449.48 362.27 449.528 203.739V16.1833H449.536Z" fill="#1BB1E7"/>
<path d="M434.015 31.7046C370.446 22.0377 299.523 16.6459 224.756 16.6459C149.989 16.6459 79.0901 22.0377 15.5214 31.7046V209.442C15.5692 357.022 101.136 440.02 221.35 484.144L224.764 485.236H224.772L228.186 484.144C348.4 440.02 433.959 357.022 434.007 209.442V31.7046H434.015Z" fill="#8F2138"/>
<path d="M328.037 403.817C331.347 407.135 336.651 403.626 342.091 398.186C347.523 392.755 351.032 387.451 347.722 384.133L140.226 181.869C136.916 178.551 130.99 179.101 126.994 183.097C122.998 187.093 122.448 193.011 125.766 196.33L328.037 403.817Z" fill="#C7A13E"/>
<path d="M146.663 178.774L163.636 158.81C163.636 158.81 165.239 156.673 162.743 153.642C156.194 145.674 143.074 134.053 143.074 134.053C141.175 132.633 139.891 132.976 137.786 134.994C127.393 144.956 100.96 170.503 99.3652 172.162C97.3632 174.22 96.4459 175.608 97.092 179.141C97.7381 182.698 99.6284 188.617 96.3582 194.359L78.4919 222.475C76.2587 225.904 75.6046 228.943 77.2876 230.586C78.1889 231.472 80.462 232.493 85.0722 229.294C87.2815 227.763 111.568 211.412 119.313 205.047C123.851 201.314 127.305 197.925 127.305 197.925L141.965 183.544C141.965 183.544 145.052 180.513 146.655 178.766L146.663 178.774Z" fill="#F5D34C"/>
<path d="M85.1918 227.5C80.1191 230.937 80.135 231.44 80.8449 231.344C81.9615 231.097 83.3573 230.499 85.0801 229.302C87.2895 227.771 111.576 211.42 119.321 205.055C122.52 202.423 125.176 199.967 126.468 198.746C122.472 199.592 117.383 201.538 114.288 204.122C110.141 207.584 92.45 222.587 85.1918 227.508V227.5Z" fill="#C7A13E"/>
<path d="M146.663 178.774L163.636 158.81C163.636 158.81 164.625 157.486 163.827 155.436C163.827 155.436 162.432 153.857 157.534 159.568C153.419 164.37 151.472 166.236 148.011 170.384C145.339 173.582 143.353 178.918 142.555 182.97C143.528 182.005 145.49 180.05 146.663 178.774Z" fill="#C7A13E"/>
<path d="M121.953 403.817C118.643 407.135 113.339 403.626 107.899 398.186C102.468 392.755 98.9584 387.451 102.268 384.133L309.836 181.789C313.146 178.471 319.072 179.021 323.068 183.017C327.064 187.013 327.615 192.932 324.297 196.25L121.953 403.817Z" fill="#C7A13E"/>
<path d="M119.935 401.823L313.601 202.942C316.911 199.624 316.36 193.705 312.372 189.709C310.283 187.62 307.667 186.479 305.178 186.336L102.276 384.133C99.1178 387.299 102.165 392.268 107.174 397.437C112.151 402.134 116.896 404.878 119.943 401.815L119.935 401.823Z" fill="#F5D34C"/>
<path d="M303.407 178.695L286.434 158.731C286.434 158.731 284.831 156.593 287.32 153.562C293.868 145.594 306.989 133.973 306.989 133.973C308.887 132.553 310.179 132.896 312.277 134.914C322.669 144.876 349.102 170.423 350.697 172.082C352.699 174.14 353.616 175.528 352.97 179.061C352.332 182.619 350.434 188.537 353.704 194.28L371.57 222.395C373.804 225.825 374.458 228.864 372.775 230.507C371.873 231.392 369.6 232.413 364.99 229.215C362.781 227.683 338.494 211.332 330.749 204.968C326.211 201.235 322.757 197.845 322.757 197.845L308.097 183.464C308.097 183.464 305.011 180.433 303.407 178.687V178.695Z" fill="#F5D34C"/>
<path d="M364.878 227.42C369.951 230.858 369.935 231.36 369.225 231.264C368.109 231.017 366.713 230.419 364.99 229.223C362.781 227.691 338.494 211.34 330.749 204.976C327.551 202.343 324.895 199.887 323.603 198.667C327.599 199.512 332.687 201.458 335.782 204.042C339.93 207.504 357.612 222.507 364.878 227.428V227.42Z" fill="#C7A13E"/>
<path d="M303.407 178.695L286.434 158.731C286.434 158.731 285.445 157.407 286.243 155.357C286.243 155.357 287.639 153.778 292.536 159.488C296.652 164.29 298.598 166.156 302.059 170.304C304.731 173.502 306.717 178.838 307.515 182.89C306.542 181.925 304.58 179.971 303.407 178.695Z" fill="#C7A13E"/>
<path d="M336.093 184.485C334.49 186.08 331.906 186.08 330.302 184.485L321.609 175.791C320.005 174.196 320.005 171.604 321.609 170.009C323.212 168.405 325.796 168.405 327.399 170.009L336.093 178.703C337.696 180.298 337.696 182.89 336.093 184.493V184.485Z" fill="#C7A13E"/>
<path d="M146.073 187.564C143.552 187.508 140.832 188.585 138.695 190.714C134.986 194.423 134.468 199.935 137.546 203.013L225.697 293.214L239.607 278.905L146.065 187.564H146.073Z" fill="#F5D34C"/>
<path d="M347.714 384.133L243.117 282.191C241.474 282.925 239.934 283.962 238.586 285.31C233.139 290.757 232.716 299.316 237.31 305.25L330.861 401.169C333.94 404.256 338.869 400.986 343.925 395.937C344.779 395.084 345.584 394.23 346.31 393.393C349.006 389.756 350.035 386.454 347.714 384.125V384.133Z" fill="#F5D34C"/>
<path d="M326.41 178.782C326.235 178.95 325.956 178.958 325.78 178.782C325.605 178.607 325.605 178.328 325.78 178.152L329.768 174.164C329.944 173.989 330.223 173.989 330.398 174.164C330.574 174.34 330.574 174.619 330.398 174.794L326.41 178.782Z" fill="#F5D34C"/>
<path d="M327.726 180.106C327.559 180.274 327.28 180.282 327.112 180.106C326.945 179.939 326.945 179.66 327.112 179.492C327.28 179.325 327.559 179.325 327.726 179.492C327.894 179.668 327.894 179.939 327.726 180.106Z" fill="#F5D34C"/>
<path d="M324.99 177.371C324.823 177.538 324.544 177.538 324.376 177.371C324.209 177.203 324.209 176.924 324.376 176.756C324.544 176.589 324.823 176.589 324.99 176.756C325.166 176.924 325.158 177.203 324.99 177.371Z" fill="#F5D34C"/>
<path d="M328.205 171.979L326.841 170.607C326.665 170.439 326.386 170.439 326.211 170.607C326.035 170.782 326.035 171.061 326.211 171.237L326.426 171.46C326.506 171.54 326.506 171.668 326.426 171.755L322.893 175.289C322.717 175.464 322.717 175.743 322.893 175.911C323.068 176.086 323.347 176.086 323.523 175.911L327.064 172.37C327.152 172.314 327.264 172.314 327.343 172.385L327.567 172.609C327.742 172.784 328.021 172.776 328.197 172.609C328.372 172.433 328.372 172.154 328.197 171.979H328.205Z" fill="#F5D34C"/>
<path d="M335.503 179.333C335.359 179.133 335.08 179.093 334.881 179.237L332.568 180.912C332.472 180.984 332.336 180.976 332.249 180.888C332.169 180.816 332.161 180.696 332.201 180.609L332.671 179.66C332.751 179.5 332.727 179.317 332.623 179.189C332.623 179.189 332.608 179.173 332.6 179.165C332.6 179.165 332.6 179.157 332.592 179.149C332.592 179.149 332.584 179.149 332.576 179.133C332.576 179.133 332.56 179.117 332.552 179.117C332.424 179.014 332.241 178.99 332.081 179.069L331.132 179.54C331.044 179.588 330.925 179.572 330.853 179.492C330.765 179.404 330.757 179.269 330.829 179.173L332.504 176.86C332.647 176.661 332.6 176.381 332.408 176.238C332.209 176.094 331.93 176.142 331.794 176.334L328.484 180.904C328.356 181.079 328.38 181.319 328.524 181.462C328.524 181.462 328.54 181.478 328.548 181.486C328.675 181.606 328.875 181.638 329.042 181.558L330.669 180.752C330.757 180.712 330.869 180.728 330.941 180.8C331.02 180.88 331.028 180.992 330.98 181.087L330.183 182.698C330.095 182.866 330.135 183.057 330.255 183.193C330.255 183.193 330.271 183.201 330.271 183.209C330.422 183.36 330.661 183.376 330.837 183.249L335.399 179.939C335.599 179.795 335.638 179.516 335.495 179.317L335.503 179.333Z" fill="#F5D34C"/>
<path d="M128.462 170.073C130.057 171.676 130.057 174.26 128.462 175.863L119.768 184.557C118.173 186.16 115.58 186.16 113.985 184.557C112.382 182.954 112.382 180.37 113.985 178.766L122.679 170.073C124.274 168.469 126.866 168.469 128.47 170.073H128.462Z" fill="#C7A13E"/>
<path d="M122.759 179.755C122.934 179.931 122.934 180.21 122.759 180.385C122.583 180.561 122.304 180.561 122.129 180.385L118.141 176.397C117.965 176.222 117.965 175.943 118.141 175.767C118.316 175.592 118.595 175.592 118.771 175.767L122.759 179.755Z" fill="#F5D34C"/>
<path d="M124.091 178.439C124.258 178.607 124.266 178.886 124.091 179.053C123.923 179.221 123.644 179.221 123.477 179.053C123.309 178.886 123.301 178.607 123.477 178.439C123.644 178.272 123.923 178.272 124.091 178.439Z" fill="#F5D34C"/>
<path d="M121.347 181.175C121.514 181.343 121.514 181.622 121.347 181.789C121.179 181.957 120.9 181.957 120.733 181.789C120.565 181.614 120.565 181.343 120.733 181.175C120.9 181 121.179 181.008 121.347 181.175Z" fill="#F5D34C"/>
<path d="M115.955 177.969L114.591 179.333C114.416 179.508 114.416 179.787 114.591 179.963C114.767 180.138 115.046 180.138 115.213 179.963L115.437 179.747C115.517 179.668 115.644 179.668 115.732 179.747L119.257 183.281C119.433 183.456 119.712 183.456 119.887 183.281C120.063 183.105 120.063 182.826 119.887 182.651L116.346 179.109C116.282 179.03 116.29 178.91 116.362 178.83L116.585 178.607C116.761 178.431 116.761 178.152 116.585 177.977C116.41 177.801 116.131 177.801 115.955 177.977V177.969Z" fill="#F5D34C"/>
<path d="M123.309 170.671C123.11 170.814 123.062 171.093 123.213 171.293L124.888 173.606C124.96 173.702 124.952 173.837 124.864 173.925C124.793 173.997 124.673 174.013 124.585 173.965L123.636 173.494C123.477 173.414 123.293 173.438 123.166 173.542C123.166 173.542 123.166 173.542 123.158 173.542C123.158 173.542 123.142 173.55 123.134 173.558C123.134 173.558 123.126 173.558 123.118 173.566C123.118 173.566 123.11 173.574 123.102 173.582C123.102 173.582 123.086 173.598 123.086 173.606C122.982 173.733 122.958 173.917 123.038 174.076L123.509 175.026C123.556 175.121 123.54 175.233 123.461 175.305C123.373 175.392 123.237 175.4 123.142 175.329L120.829 173.646C120.629 173.502 120.35 173.55 120.214 173.741C120.071 173.941 120.119 174.22 120.31 174.356L124.872 177.666C125.048 177.793 125.287 177.769 125.439 177.626C125.439 177.626 125.455 177.61 125.455 177.602C125.455 177.602 125.455 177.602 125.463 177.602C125.582 177.474 125.614 177.275 125.526 177.107L124.721 175.48C124.681 175.392 124.697 175.281 124.769 175.209C124.849 175.129 124.968 175.113 125.056 175.169L126.667 175.967C126.835 176.054 127.026 176.015 127.162 175.903C127.162 175.903 127.178 175.887 127.178 175.879C127.321 175.727 127.345 175.488 127.217 175.313L123.907 170.75C123.764 170.551 123.493 170.511 123.293 170.655L123.309 170.671Z" fill="#F5D34C"/>
<path d="M143.177 120.302C135.337 121.044 127.871 115.788 127.656 107.541C127.417 99.9553 127.177 92.3622 126.938 84.777C130.495 84.4978 132.282 84.3622 135.839 84.115C136.055 91.7001 136.27 99.2933 136.493 106.878C136.605 110.659 139.133 112.494 142.914 112.246C143.44 112.214 143.704 112.191 144.23 112.159C148.011 111.911 150.435 109.758 150.348 105.977C150.164 98.384 149.981 90.7989 149.797 83.2057C153.363 82.9903 155.149 82.8946 158.715 82.7112C158.874 90.3043 159.034 97.8895 159.201 105.483C159.329 113.762 152.485 119.84 144.493 120.214C143.967 120.246 143.704 120.262 143.185 120.302H143.177Z" fill="white"/>
<path d="M165.526 82.44C169.666 82.2406 171.739 82.1529 175.879 81.9934C180.529 89.4828 185.155 96.9882 189.741 104.518C189.781 104.518 189.805 104.518 189.845 104.518C189.773 96.8606 189.693 89.1957 189.622 81.5387C193.195 81.443 194.981 81.3951 198.547 81.3234C198.65 93.3352 198.746 105.339 198.85 117.351C194.774 117.439 192.732 117.487 188.664 117.606C184.078 110.101 179.452 102.619 174.802 95.1538C174.762 95.1538 174.738 95.1538 174.698 95.1538C174.81 102.795 174.922 110.436 175.033 118.077C171.508 118.22 169.745 118.3 166.212 118.468C165.981 106.464 165.757 94.4519 165.526 82.448V82.44Z" fill="white"/>
<path d="M205.103 81.2197C208.676 81.1639 210.463 81.1399 214.036 81.108C214.076 93.1199 214.124 105.124 214.164 117.136C210.63 117.168 208.868 117.191 205.334 117.247C205.255 105.235 205.183 93.2316 205.103 81.2197Z" fill="white"/>
<path d="M231.998 88.6373C227.404 88.6134 225.107 88.6134 220.513 88.6294C220.513 85.6065 220.513 84.091 220.505 81.0681C231.161 81.0681 241.817 81.1559 252.465 81.3553C252.441 84.3782 252.425 85.8936 252.401 88.9165C247.807 88.8128 245.509 88.7729 240.915 88.7171C240.867 98.2086 240.82 107.7 240.772 117.183C237.238 117.136 235.476 117.12 231.942 117.104C231.966 107.612 231.982 98.1208 232.006 88.6373H231.998Z" fill="white"/>
<path d="M258.933 81.4988C266.997 81.7381 275.053 82.0332 283.108 82.3842C283.053 85.4071 283.021 86.9225 282.965 89.9454C276.879 89.6583 273.84 89.5386 267.755 89.3313C267.715 91.9474 267.699 93.2634 267.667 95.8796C272.62 96.0471 275.1 96.1428 280.054 96.3661C279.998 99.389 279.974 100.896 279.918 103.919C274.973 103.704 272.508 103.6 267.563 103.433C267.523 106.153 267.507 107.517 267.467 110.236C273.792 110.452 276.959 110.579 283.284 110.882C283.228 113.905 283.196 115.413 283.14 118.436C274.941 118.077 266.742 117.774 258.542 117.518C258.67 105.507 258.805 93.5027 258.933 81.4908V81.4988Z" fill="white"/>
<path d="M289.888 82.6473C295.599 82.9345 298.454 83.102 304.157 83.4609C314.518 83.8517 322.661 92.3222 322.374 102.715C322.095 112.916 313.369 120.454 303.24 119.481C297.601 119.122 294.777 118.962 289.138 118.675C289.385 106.671 289.641 94.6592 289.888 82.6553V82.6473ZM303.08 111.895C309.19 112.278 313.018 108.928 313.218 102.029C313.409 95.1776 309.605 91.3651 303.607 90.9902C301.613 90.8626 300.616 90.8068 298.622 90.6872C298.454 97.6582 298.295 104.621 298.127 111.592C300.105 111.712 301.094 111.768 303.072 111.895H303.08Z" fill="white"/>
<path d="M52.2509 40.5021C56.8929 39.9119 59.2139 39.6327 63.8639 39.0904C65.9457 49.3156 68.0274 59.5488 70.1171 69.7741C70.165 69.7741 70.1969 69.7661 70.2447 69.7581C72.6296 59.0304 75.0144 48.2947 77.3992 37.567C81.4032 37.1363 83.4051 36.9289 87.4091 36.5301C89.7381 46.7713 92.0591 57.0204 94.3801 67.2616C94.428 67.2616 94.4599 67.2616 94.5077 67.2537C96.765 56.5818 99.0142 45.9019 101.279 35.23C105.858 34.8232 108.147 34.6318 112.733 34.2649C108.912 49.6745 105.092 65.0922 101.279 80.5098C95.9035 80.9884 93.2236 81.2356 87.8478 81.77C86.0213 73.1081 84.1948 64.4541 82.3683 55.7921C82.3204 55.7921 82.2885 55.7921 82.2406 55.8081C80.4141 64.8449 78.5876 73.8817 76.7691 82.9106C71.3534 83.4928 68.6415 83.7959 63.2338 84.434C59.5728 69.79 55.9198 55.1461 52.2588 40.5021H52.2509Z" fill="white"/>
<path d="M343.862 34.903C348.847 35.3337 351.343 35.557 356.32 36.0355C359.614 45.7503 362.9 55.4731 366.186 65.1958C366.234 65.1958 366.266 65.1958 366.314 65.2118C369.6 56.167 372.886 47.1302 376.172 38.0854C381.102 38.6278 383.558 38.9149 388.479 39.5051C391.191 54.9307 393.903 70.3563 396.615 85.7819C392.045 85.2076 389.764 84.9285 385.193 84.3861C383.853 74.3124 382.513 64.2387 381.181 54.165C381.134 54.165 381.11 54.157 381.054 54.1491C377.816 63.7123 374.577 73.2676 371.347 82.8308C367.343 82.4001 365.341 82.1927 361.337 81.8019C358.035 71.5687 354.733 61.3354 351.431 51.1022C351.383 51.1022 351.351 51.1022 351.303 51.0942C350.131 60.9047 348.958 70.7232 347.786 80.5337C343.128 80.1189 340.799 79.9195 336.141 79.5526C338.709 64.6774 341.285 49.7942 343.854 34.9189L343.862 34.903Z" fill="white"/>
<path d="M117.152 34.0017C127.337 33.236 137.53 32.566 147.732 31.9838C147.508 35.7963 147.405 37.7026 147.181 41.5151C140.864 41.874 134.547 42.2728 128.238 42.6876C128.238 45.9817 128.238 47.6247 128.238 50.9188C134.42 50.4881 137.514 50.2967 143.696 49.9378V59.4372C137.506 59.7961 134.42 59.9875 128.238 60.4182C128.238 63.8399 128.238 65.5468 128.238 68.9685C134.842 68.5139 141.454 68.0991 148.075 67.7402C148.075 71.5368 148.075 73.4351 148.075 77.2396C137.762 77.8219 127.465 78.5078 117.16 79.2815C117.16 64.1909 117.16 49.1003 117.16 34.0097L117.152 34.0017Z" fill="white"/>
<path d="M199.855 39.6966C194.128 39.7923 191.265 39.8561 185.538 40.0156C185.538 36.219 185.538 34.3128 185.538 30.5162C198.786 30.1812 212.026 30.0137 225.274 30.0057C225.274 33.8023 225.274 35.7086 225.274 39.5052C219.548 39.4892 216.684 39.5052 210.957 39.553C210.957 51.4772 210.957 63.4013 210.957 75.3254C206.515 75.3653 204.298 75.3892 199.855 75.469C199.855 63.5449 199.855 51.6207 199.855 39.6966Z" fill="white"/>
<path d="M243.715 30.1014C248.158 30.1573 250.375 30.1892 254.818 30.2849V48.3984C261.23 48.5499 267.651 48.7254 274.064 48.9328V30.8193C278.506 30.9708 280.724 31.0586 285.158 31.25V76.5218C280.724 76.3304 278.498 76.2426 274.064 76.0911V58.3604C267.651 58.1531 261.238 57.9776 254.818 57.826V75.5567C250.375 75.469 248.158 75.4291 243.715 75.3733C243.715 60.2827 243.715 45.192 243.715 30.1014Z" fill="white"/>
<path d="M318.37 68.8489C312.285 68.4341 309.238 68.2427 303.144 67.8997C302.051 71.6405 301.509 73.5069 300.416 77.2476C295.854 77.0003 293.573 76.8887 289.011 76.6733C293.589 61.814 298.175 46.9547 302.761 32.1034C308.743 32.4384 311.734 32.6218 317.716 33.0286C322.669 48.4781 327.614 63.9356 332.552 79.3852C327.997 79.0262 325.716 78.8588 321.154 78.5397C320.037 74.6634 319.479 72.7252 318.37 68.8489ZM310.729 42.8949C309.07 48.3266 307.403 53.7583 305.744 59.1819C309.756 59.4132 311.766 59.5409 315.778 59.8041C314.135 54.165 312.5 48.534 310.857 42.8949C310.809 42.8949 310.777 42.8949 310.729 42.8949Z" fill="white"/>
<path d="M168.717 30.2689C160.453 30.564 151.082 35.6527 151.018 44.9448C150.922 59.1341 172.226 55.3216 173.542 63.0743C173.909 65.2198 171.492 67.0224 168.429 67.0144C162.735 67.0144 158.236 65.8978 153.578 63.505C153.355 67.4132 153.163 69.471 153.012 73.0203C157.813 76.2426 162.782 76.9366 168.15 77.0721C176.118 77.2795 185.705 71.7522 185.785 62.4362C185.905 48.3585 164.784 51.5409 163.253 44.219C162.862 42.3446 165.151 40.5022 168.573 40.3028C173.797 40.0076 177.554 41.2998 180.409 42.4722C180.641 37.9738 180.704 37.3277 180.96 32.9409C178.447 31.4972 174.483 30.0456 168.709 30.245L168.717 30.2689Z" fill="white"/>
<path d="M159.225 404.304L164.617 406.657L157.008 424.068L166.005 428.001L163.987 432.627L149.598 426.342L159.225 404.304Z" fill="white"/>
<path d="M185.849 413.803C192.852 415.725 196.553 422.322 194.726 428.974C192.852 435.785 186.272 439.693 179.269 437.771C172.266 435.849 168.605 429.125 170.471 422.314C172.298 415.67 178.846 411.889 185.849 413.811V413.803ZM180.689 432.579C184.158 433.528 187.763 431.319 188.856 427.362C189.901 423.566 187.891 419.953 184.421 418.996C180.952 418.039 177.379 420.128 176.334 423.925C175.249 427.881 177.219 431.63 180.689 432.587V432.579Z" fill="white"/>
<path d="M200.357 417.775L206.283 418.382L211.771 430.234C212.545 431.901 213.366 434.517 213.366 434.517H213.43C213.43 434.517 213.43 431.917 213.582 430.417L214.722 419.243L220.576 419.841L218.144 443.761L212.258 443.163L206.73 431.343C205.956 429.676 205.135 427.059 205.135 427.059H205.071C205.071 427.059 205.071 429.66 204.92 431.159L203.787 442.302L197.933 441.703L200.365 417.783L200.357 417.775Z" fill="white"/>
<path d="M224.716 419.897L233.242 419.434C240.796 419.028 245.868 423.167 246.275 430.72C246.682 438.274 242.088 443.035 234.535 443.442L226.008 443.905L224.716 419.889V419.897ZM234.032 438.425C238.092 438.21 240.453 435.658 240.205 431.055C239.958 426.485 237.246 424.276 233.282 424.491L230.866 424.619L231.615 438.553L234.032 438.425Z" fill="white"/>
<path d="M258.845 415.654C265.944 414.09 272.285 418.206 273.769 424.938C275.284 431.837 271.28 438.361 264.189 439.925C257.091 441.488 250.718 437.237 249.202 430.346C247.719 423.614 251.755 417.217 258.853 415.654H258.845ZM263.025 434.669C266.542 433.895 268.696 430.25 267.818 426.246C266.973 422.401 263.511 420.136 260.002 420.91C256.485 421.684 254.299 425.193 255.145 429.037C256.022 433.041 259.515 435.442 263.033 434.669H263.025Z" fill="white"/>
<path d="M273.521 412.423L279.041 410.198L289.417 418.118C290.885 419.235 292.823 421.165 292.823 421.165L292.887 421.141C292.887 421.141 291.667 418.844 291.1 417.44L286.897 407.024L292.353 404.822L301.35 427.115L295.862 429.333L285.469 421.452C284.002 420.336 282.064 418.405 282.064 418.405L282 418.429C282 418.429 283.22 420.726 283.786 422.13L287.974 432.515L282.518 434.716L273.521 412.423Z" fill="white"/>
</g>
<defs>
<clipPath id="clip0_625_655">
<rect width="449.536" height="500" fill="white"/>
</clipPath>
</defs>
</svg>